<svg xmlns="http://www.w3.org/2000/svg" width="188" height="201" viewBox="0 0 188 201">
  <g id="Grupo_992577" data-name="Grupo 992577" transform="translate(-287 -1538)">
    <rect id="Rectángulo_349395" data-name="Rectángulo 349395" width="188" height="201" rx="42" transform="translate(287 1538)" fill="#03a4a4"/>
    <g id="Grupo_992314" data-name="Grupo 992314" transform="translate(481.342 394.394)">
      <path id="Trazado_705881" data-name="Trazado 705881" d="M-100.017,1174.107q18.612,0,37.224,0c3.147,0,4.074.9,4.028,4.064a45.779,45.779,0,0,1-.392,6.113,6.906,6.906,0,0,1-3.946,5.256,2.185,2.185,0,0,0-1.36,2.36c.055,4.625.073,9.251.013,13.876-.2,15.237-6.912,26.97-19.319,35.569-3.523,2.442-3.538,4.062-.048,6.476,12.491,8.636,19.225,20.429,19.37,35.762.043,4.552.03,9.1-.01,13.656a2.187,2.187,0,0,0,1.3,2.39c2.871,1.445,4.154,4.044,4.379,7.153a46.784,46.784,0,0,1,.012,5.064c-.079,2.173-1.131,3.186-3.311,3.238-1.688.04-3.377.009-5.066.009h-70.043c-3.563,0-4.4-.812-4.357-4.4a41.211,41.211,0,0,1,.358-5.677,7.1,7.1,0,0,1,4.072-5.418,2.016,2.016,0,0,0,1.269-2.188q-.079-6.938-.015-13.876c.157-15.334,6.919-27.1,19.406-35.745.181-.125.366-.245.548-.366,2.719-1.823,2.757-3.834.046-5.6-9.626-6.286-16.05-14.9-18.827-26.092a38.888,38.888,0,0,1-1.12-8.022c-.175-5.28-.011-10.572-.115-15.856a2.971,2.971,0,0,0-1.19-2.129,8.9,8.9,0,0,1-4.441-7.853c-.035-1.32-.019-2.643,0-3.964.033-2.829,1-3.792,3.87-3.793Q-118.849,1174.1-100.017,1174.107Zm-30.509,16.683c0,4.726-.064,9.332.012,13.936.228,13.737,5.741,24.8,17.452,32.141,5.912,3.707,6.124,11.974-.046,15.449-4.922,2.772-8.637,6.952-11.726,11.708-6.912,10.64-5.693,22.527-5.615,34.388h60.672c0-4.726.065-9.332-.012-13.935-.23-13.735-5.736-24.8-17.446-32.147-5.916-3.712-6.156-11.982.043-15.437,4.468-2.491,7.9-6.249,10.878-10.429,7.748-10.876,6.609-23.285,6.449-35.674Zm-5.076-11.014c-.7,4.445.027,5.345,4.2,5.345q31.248,0,62.5,0c4.17,0,4.908-.916,4.2-5.345Zm71.034,129.642c.321-4.8-.181-5.338-4.756-5.338H-131.38c-4.205,0-4.89.841-4.235,5.338Z" transform="translate(0)"/>
      <path id="Trazado_705882" data-name="Trazado 705882" d="M-116.571,1211.975H-55.91c.16,12.388,1.3,24.8-6.449,35.674-2.978,4.18-6.41,7.938-10.878,10.429-6.2,3.455-5.959,11.725-.043,15.437,11.71,7.349,17.216,18.412,17.446,32.147.077,4.6.012,9.209.012,13.935h-60.672c-.078-11.861-1.3-23.748,5.615-34.388,3.089-4.756,6.8-8.935,11.726-11.707,6.17-3.475,5.958-11.742.046-15.449-11.711-7.345-17.224-18.4-17.452-32.141C-116.635,1221.307-116.571,1216.7-116.571,1211.975Zm27.708,52.15c0,2.056.037,4.112-.011,6.167a2.621,2.621,0,0,0,2.595,2.937c1.558.181,2.71-1.13,2.741-2.988a39.686,39.686,0,0,0-.044-6.6c-.828-5.4,1.44-8.531,5.943-11.569,10.424-7.033,17.311-16.418,16.169-29.938-.142-1.68-.583-2.984-2.411-3.007a6.071,6.071,0,0,0-2.837.918c-8.594,4.813-17.735,6.588-27.337,4.26-4.208-1.02-8.215-2.952-12.222-4.682-2.451-1.058-4.4-.419-4.6,1.92-.666,7.589.924,14.521,5.65,20.685a47.155,47.155,0,0,0,12.824,11.577c2.388,1.47,4.13,3.195,3.58,6.361A23.3,23.3,0,0,0-88.863,1264.125Zm2.544,50.125q10.681,0,21.362.007c1.686,0,3.117-.353,3.429-2.3a10.4,10.4,0,0,0-5.54-11.431c-1.912-1.062-3.963-1.873-5.952-2.8-4.047-1.881-8.2-3.544-11.165-7.177-1.262-1.547-2.741-1.216-4.369.253a30.641,30.641,0,0,1-5.488,4.3c-3.259,1.794-6.746,3.175-10.129,4.746-4.574,2.124-7.034,5.535-6.748,10.761.156,2.832.812,3.627,3.678,3.632Q-96.779,1314.264-86.319,1314.25Zm-2.541-32.8a2.613,2.613,0,0,0,2.68,2.8,2.559,2.559,0,0,0,2.648-2.616,2.617,2.617,0,0,0-2.58-2.923A2.658,2.658,0,0,0-88.859,1281.449Z" transform="translate(-13.955 -21.185)" fill="#abffff"/>
      <path id="Trazado_705883" data-name="Trazado 705883" d="M-128.321,1186.976h70.9c.709,4.429-.029,5.345-4.2,5.345q-31.247,0-62.5,0C-128.294,1192.321-129.02,1191.421-128.321,1186.976Z" transform="translate(-7.281 -7.2)" fill="#fff"/>
      <path id="Trazado_705884" data-name="Trazado 705884" d="M-57.28,1474.452h-71.047c-.656-4.5.03-5.337,4.235-5.337h62.056C-57.462,1469.114-56.96,1469.647-57.28,1474.452Z" transform="translate(-7.287 -165.034)" fill="#fff"/>
      <path id="Trazado_705885" data-name="Trazado 705885" d="M-81.757,1273.208a23.39,23.39,0,0,1,.036-3.959c.549-3.166-1.192-4.891-3.58-6.361a47.159,47.159,0,0,1-12.824-11.577c-4.726-6.163-6.316-13.1-5.65-20.685.205-2.339,2.154-2.979,4.6-1.921,4.006,1.731,8.014,3.662,12.222,4.682,9.6,2.328,18.743.553,27.337-4.26a6.071,6.071,0,0,1,2.837-.918c1.828.023,2.269,1.328,2.411,3.007,1.142,13.52-5.745,22.905-16.169,29.938-4.5,3.038-6.771,6.172-5.943,11.569a39.687,39.687,0,0,1,.044,6.6c-.03,1.857-1.183,3.169-2.741,2.988a2.621,2.621,0,0,1-2.595-2.937C-81.719,1277.32-81.756,1275.263-81.757,1273.208Zm-16.8-37.758c1.552,12.691,10.326,19.077,19.938,25.333,4.056-3.463,8.465-6.681,12.2-10.551,4.775-4.952,7.062-11.057,6.307-14.564C-72.786,1241.348-85.474,1241.313-98.558,1235.45Z" transform="translate(-21.062 -30.267)"/>
      <path id="Trazado_705886" data-name="Trazado 705886" d="M-79.1,1412.732q-10.461,0-20.921,0c-2.866,0-3.523-.8-3.678-3.632-.286-5.226,2.174-8.638,6.748-10.762,3.383-1.571,6.87-2.952,10.129-4.746a30.625,30.625,0,0,0,5.488-4.3c1.628-1.469,3.107-1.8,4.369-.253,2.964,3.633,7.118,5.3,11.165,7.177,1.989.924,4.04,1.735,5.952,2.8a10.4,10.4,0,0,1,5.54,11.431c-.312,1.946-1.743,2.3-3.429,2.3Q-68.421,1412.716-79.1,1412.732Zm-19.125-6.305.427.609h37.838c-.226-.638-.252-1.345-.571-1.521-6.161-3.407-12.357-6.753-18.479-10.075-2.59,1.458-5.269,3.083-8.053,4.5-2.6,1.324-5.377,2.31-7.949,3.681A18.294,18.294,0,0,0-98.227,1406.427Z" transform="translate(-21.172 -119.667)"/>
      <path id="Trazado_705887" data-name="Trazado 705887" d="M-53.605,1366.158a2.658,2.658,0,0,1,2.747-2.744,2.617,2.617,0,0,1,2.58,2.923,2.559,2.559,0,0,1-2.648,2.616A2.613,2.613,0,0,1-53.605,1366.158Z" transform="translate(-49.209 -105.893)"/>
      <path id="Trazado_705888" data-name="Trazado 705888" d="M-91.749,1244.641c13.084,5.864,25.772,5.9,38.442.219.755,3.507-1.533,9.612-6.307,14.564-3.732,3.87-8.141,7.088-12.2,10.551C-81.423,1263.718-90.2,1257.332-91.749,1244.641Z" transform="translate(-27.871 -39.459)" fill="#ffc403"/>
      <path id="Trazado_705889" data-name="Trazado 705889" d="M-91.247,1415.852a18.285,18.285,0,0,1,3.214-2.806c2.573-1.371,5.349-2.357,7.949-3.681,2.784-1.417,5.463-3.042,8.053-4.5,6.122,3.322,12.317,6.667,18.479,10.075.319.176.345.883.571,1.521H-90.82Z" transform="translate(-28.151 -129.092)" fill="#ffc403"/>
    </g>
  </g>
</svg>
