<svg xmlns="http://www.w3.org/2000/svg" width="188" height="201" viewBox="0 0 188 201">
  <g id="Grupo_992576" data-name="Grupo 992576" transform="translate(-287 -1323)">
    <rect id="Rect치ngulo_349393" data-name="Rect치ngulo 349393" width="188" height="201" rx="42" transform="translate(287 1323)" fill="#03a4a4"/>
    <g id="Grupo_992315" data-name="Grupo 992315" transform="translate(59.306 353.074)">
      <path id="Trazado_705890" data-name="Trazado 705890" d="M257.446,1070.249c-4.575-2.6-6.068-5.649-3.488-10.859,2.733-5.521-1.387-13.413-7.577-15.948-2.979-1.22-5.17-2.393-4.694-6.306.3-2.43,1.016-3.608,3.264-4.571,8.936-3.823,11.722-10.444,7.994-19.321-1.09-2.595-.342-4.036,1.452-5.777s3.208-2.49,5.9-1.39c9.153,3.737,15.9.917,19.9-8.214,1.109-2.533,2.684-3.016,5.212-3.078,2.7-.065,4.04.862,5.072,3.29,3.7,8.7,10.818,11.708,19.624,8.091,2.873-1.18,4.331-.295,6.278,1.494,1.973,1.812,2.22,3.38,1.213,5.781-3.606,8.6-.81,15.391,7.915,18.987,2.766,1.14,3.263,2.769,3.32,5.422.06,2.828-.906,4.07-3.6,5.127-8.272,3.251-11.239,10.6-7.74,18.764,1.073,2.5.88,4.157-1.213,6.158-2.008,1.92-3.511,2.434-6.209,1.308-8.761-3.655-15.6-.61-19.8,8.1a5.707,5.707,0,0,1-4.135,2.774c-1.883.028-4.781-.763-5.525-2.109-5.826-10.535-10.929-12.484-22.361-7.914A4.852,4.852,0,0,1,257.446,1070.249Z" transform="translate(-1.201 -1.412)" fill="#abffff"/>
      <rect id="Rect치ngulo_349400" data-name="Rect치ngulo 349400" width="51" height="66.922" transform="translate(322.307 1076.872)" fill="#fff"/>
      <path id="Trazado_705891" data-name="Trazado 705891" d="M283.916,1081.466c-1.012,0-2.023-.006-3.036,0a5.891,5.891,0,0,1-6.159-4.249c-.329-.953-.711-1.889-1.1-2.819-1.586-3.8-5.042-5.209-8.909-3.643-1.013.411-2.043.781-3.043,1.221a5.6,5.6,0,0,1-6.894-1.271c-1.576-1.643-3.195-3.245-4.826-4.833a5.439,5.439,0,0,1-1.391-6.433c.411-1.012.869-2,1.288-3.013,1.771-4.266.409-7.613-3.818-9.4-1.16-.49-2.339-.942-3.478-1.478a5.25,5.25,0,0,1-3.266-4.974,56.878,56.878,0,0,1,.087-7.83,6.153,6.153,0,0,1,2.066-4.038,28.9,28.9,0,0,1,7.328-3.216,3.044,3.044,0,0,1,2.681,1.376,3.2,3.2,0,0,1-1.147,2.805,36.384,36.384,0,0,1-4.79,2.21c-.529.26-1.261.819-1.286,1.275-.13,2.353-.115,4.719-.013,7.074.019.434.594.957,1.04,1.234a8.319,8.319,0,0,0,2.088.87c3.853,1.107,6.064,3.564,7.535,7.377a9.628,9.628,0,0,1-.715,8.631c-1.324,2.473-1.165,4.221,1.115,6.217,3.7,3.237,3.539,3.42,8.238,1.469a10.983,10.983,0,0,1,14.261,5.96c1.947,4.626,1.961,4.4,6.967,4.711,2.91.18,4.461-.8,5-3.49,1.084-5.414,5.479-7.125,9.889-8.032,2.172-.446,4.849.9,7.129,1.848,1.82.754,2.915.65,4.325-.838,4.1-4.321,4.175-4.246,1.9-9.866-1.759-4.354.863-11.49,5.341-12.843,4.587-1.386,6.227-3.77,5.634-8.484-.263-2.1-.781-3.2-2.754-3.729-4.2-1.134-6.721-3.717-8.234-7.973a9.226,9.226,0,0,1,.863-8.147c1.506-2.7,1.225-4.65-1.3-6.333a1.364,1.364,0,0,1-.176-.181c-3.165-3.171-3.165-3.171-7.4-1.443-6.292,2.568-12.283.063-14.956-6.224-2.16-5.079-.662-4-6.457-4.33-2.882-.165-4.681.575-5.268,3.507-1.073,5.363-5.328,7.185-9.841,8.062-1.981.385-4.436-.61-6.414-1.537-2.363-1.107-3.861-.84-5.649,1.113-3.532,3.859-3.656,3.746-1.633,8.667.224.544.709,1.153.6,1.627-.248,1.1-.489,2.63-1.267,3.1-1.276.771-2.555.059-3.158-1.494-.79-2.037-1.666-4.04-2.48-6.068a5.177,5.177,0,0,1,1.237-5.81c1.73-1.841,3.558-3.592,5.371-5.354a5.31,5.31,0,0,1,6.27-1.15q1.5.649,3.026,1.26,6.647,2.674,9.448-4.084c.452-1.086.936-2.159,1.425-3.229a5.1,5.1,0,0,1,4.98-3.208c2.445,0,4.891.025,7.336-.01a5.366,5.366,0,0,1,5.477,3.645c.413,1.012.845,2.016,1.267,3.024,1.789,4.268,5.092,5.629,9.4,3.87,1.167-.476,2.317-.993,3.494-1.442a4.864,4.864,0,0,1,5.4,1.023c2.021,1.909,3.973,3.893,5.912,5.887a5.082,5.082,0,0,1,1.134,5.4c-.378,1.2-.9,2.355-1.379,3.521-1.858,4.524-.591,7.616,3.9,9.516,1.006.426,1.992.9,3.009,1.3a5.32,5.32,0,0,1,3.574,5.281c.052,2.444.039,4.89,0,7.335a5.4,5.4,0,0,1-3.583,5.289c-1.009.417-2.008.861-3.011,1.292-4.511,1.939-5.754,4.995-3.888,9.535.447,1.088.9,2.174,1.291,3.283a5.235,5.235,0,0,1-1.212,5.822q-2.671,2.694-5.367,5.363a5.344,5.344,0,0,1-6.26,1.127c-1.091-.444-2.2-.851-3.285-1.3-4.038-1.653-7.349-.28-9.052,3.764C291.468,1081.418,291.392,1081.468,283.916,1081.466Z" transform="translate(0 -0.05)"/>
      <path id="Trazado_705892" data-name="Trazado 705892" d="M455.077,1205.047a53.449,53.449,0,0,1,5.179,1.581,14.8,14.8,0,0,1,8.989,14.484,15.266,15.266,0,0,1-10.466,13.281,14.818,14.818,0,0,1-16.054-5.119,4.089,4.089,0,0,0-3.933-1.963c-3.114.139-6.238.047-9.358.035-1.812-.007-3.878.057-3.842-2.482.036-2.579,2.179-2.339,3.94-2.353,3.277-.028,6.555-.008,9.964-.008.1-1.9.182-3.626.288-5.74h-2.4c-3.879,0-7.758.02-11.637-.014-1.618-.014-2.907-.731-2.915-2.473s1.256-2.465,2.9-2.472c4.3-.019,8.6-.091,12.9.025,2.208.059,4-.208,5.464-2.188a7.855,7.855,0,0,1,3.636-2.62c2.273-.757,2.737-2.071,2.718-4.3-.108-12.732-.048-25.465-.056-38.2,0-3.333-.3-3.639-3.579-3.641q-19.479-.014-38.957,0c-3.313,0-3.457.152-3.458,3.377q-.005,27.447,0,54.894c0,3.234.115,3.339,3.472,3.349,3.289.01,6.577.016,9.866,0,1.675-.009,3.265.43,3.316,2.3.055,2.025-1.559,2.553-3.348,2.548-3.71-.011-7.422.06-11.131-.021-4.51-.1-7.133-2.818-7.139-7.4q-.033-28.206,0-56.412c.005-4.818,2.7-7.446,7.555-7.449q20.238-.014,40.475,0c5.156,0,7.614,2.428,7.616,7.522q.011,19.352,0,38.7Zm-.532,5.133a9.9,9.9,0,0,0-10.159,9.973,9.994,9.994,0,1,0,19.986.062A9.852,9.852,0,0,0,454.545,1210.18Z" transform="translate(-79.134 -81.069)"/>
      <path id="Trazado_705893" data-name="Trazado 705893" d="M437.694,1049.958c-3.211.606-5.5-.963-6.65-4.648-.729-2.326-2.515-2.947-4.749-2.061-1.768.7-3.66,2.153-5.431.73a26.968,26.968,0,0,1-5.635-5.981c-.6-.907.106-2.895.591-4.257,1.184-3.33.785-4.458-2.482-5.826-3.471-1.454-4.036-2.3-4.042-6.083a7.918,7.918,0,0,0-.006-1.011c-.481-3.638,1.016-5.883,4.529-7.081,2.706-.923,3.158-2.356,2.1-5.061-1.634-4.2.9-9.686,5.35-10.932,1.291-.362,2.967.173,4.338.66,3.289,1.168,4.381.813,5.693-2.276,1.55-3.651,2.293-4.143,6.267-4.146a16.5,16.5,0,0,0,1.77-.009c3.049-.333,4.887,1.012,5.977,3.86,1.353,3.535,2.484,4.047,5.947,2.394,3.405-1.626,5.469-.009,7.707,2.227,2.268,2.264,3.731,4.369,2.036,7.737-1.58,3.138-.995,4.61,2.28,5.7,4.229,1.411,4.193,4.6,4.2,8.119.009,3.186-1.291,5.1-4.3,5.966-2.673.771-3.8,2.99-2.289,5.645,1.569,2.76,1.127,5.139-1.357,7.147a10.256,10.256,0,0,0-1.422,1.436c-1.933,2.335-4.136,2.765-6.94,1.462-3.307-1.536-4.476-.975-5.834,2.222C443.743,1049.676,443.249,1049.96,437.694,1049.958Zm-14.807-10.494a2.566,2.566,0,0,0,.452-.1c6.348-2.6,9.182-1.489,12.417,4.495.413.765,2.022,1.214,3.068,1.2a3.168,3.168,0,0,0,2.3-1.575c2.328-4.95,6.127-6.679,10.992-4.6a2.673,2.673,0,0,0,3.448-.743,2.709,2.709,0,0,0,.674-3.5c-1.943-4.639-.3-8.811,4.3-10.657a2.615,2.615,0,0,0,2-2.912c-.031-1.507-.308-2.432-1.844-3.08-4.845-2.043-6.4-5.9-4.4-10.784a2.534,2.534,0,0,0-.674-3.283c-1.081-1.016-1.891-1.519-3.486-.849-4.889,2.054-8.842.347-10.9-4.6a2.567,2.567,0,0,0-2.816-1.869c-1.4.034-2.279.309-2.894,1.748-2.219,5.185-5.966,6.787-11.049,4.665-1.5-.625-2.285-.2-3.277.789s-1.412,1.807-.807,3.281c2.069,5.042.523,8.8-4.439,10.974a2.7,2.7,0,0,0-1.813,2.6c-.265,2.222.952,2.888,2.606,3.581,3.437,1.44,5.725,5.922,4.207,9.058C419.517,1036.255,420.347,1037.989,422.887,1039.463Z" transform="translate(-83.969)"/>
      <path id="Trazado_705894" data-name="Trazado 705894" d="M286.222,1059.8a21.035,21.035,0,0,1,42.069.181,21.035,21.035,0,1,1-42.069-.181Zm37.183.012a16.252,16.252,0,0,0-16.177-16.242,16.477,16.477,0,0,0-16.271,16.5,16.309,16.309,0,0,0,16.391,16.059A16.138,16.138,0,0,0,323.4,1059.813Z" transform="translate(-23.229 -23.221)"/>
      <path id="Trazado_705895" data-name="Trazado 705895" d="M346.4,1208.729c-7.046,0-13.34.008-19.634,0-3.194-.006-3.7-.481-3.709-3.641-.02-8.337.005-16.675-.016-25.012,0-1.759.3-3.441,2.412-3.407,2.056.033,2.386,1.65,2.373,3.443-.049,6.99-.019,13.98-.019,20.97v2.855h18.369c-1.191-1.107-2.337-1.777-2.859-2.773-.484-.924-.3-2.2-.414-3.316,1.126-.083,2.622-.668,3.312-.16,2.837,2.092,5.469,4.471,8.093,6.839a2.317,2.317,0,0,1-.014,3.749c-2.623,2.366-5.257,4.742-8.095,6.833-.688.507-2.179-.075-3.3-.157.108-1.126-.079-2.407.406-3.337C343.808,1210.642,344.963,1210.011,346.4,1208.729Z" transform="translate(-41.414 -91.243)"/>
      <path id="Trazado_705896" data-name="Trazado 705896" d="M457.3,1253.255c-2.78,0-5.561-.041-8.34.016-1.723.035-3.167-.443-3.289-2.317-.129-1.969,1.383-2.531,3.052-2.539,5.729-.028,11.459-.035,17.188.01,1.548.012,2.907.519,2.875,2.432-.031,1.856-1.263,2.4-2.891,2.4Z" transform="translate(-101.978 -126.67)"/>
      <path id="Trazado_705897" data-name="Trazado 705897" d="M457.27,1194.963c2.865,0,5.73.015,8.594-.005,1.632-.012,2.891.474,2.922,2.339s-1.213,2.408-2.847,2.407q-8.721,0-17.442,0c-1.673,0-2.911-.66-2.831-2.446.078-1.747,1.35-2.332,3.008-2.308C451.54,1194.993,454.405,1194.963,457.27,1194.963Z" transform="translate(-101.978 -100.275)"/>
      <path id="Trazado_705898" data-name="Trazado 705898" d="M457.089,1217.575c-2.864,0-5.728-.011-8.592.005-1.678.01-2.887-.653-2.827-2.445.054-1.615,1.162-2.257,2.765-2.248,5.9.032,11.793.022,17.689.007,1.588,0,2.64.61,2.667,2.3s-1.02,2.373-2.605,2.375Q461.638,1217.577,457.089,1217.575Z" transform="translate(-101.98 -109.134)"/>
      <path id="Trazado_705899" data-name="Trazado 705899" d="M457.1,1235.488c-2.86,0-5.72-.018-8.58.007-1.693.015-2.861-.69-2.849-2.444.013-1.678,1.22-2.208,2.77-2.2,5.889.019,11.777.009,17.666.008,1.535,0,2.69.506,2.688,2.262,0,1.877-1.218,2.387-2.862,2.377C462.99,1235.474,460.046,1235.488,457.1,1235.488Z" transform="translate(-101.982 -118.004)"/>
      <path id="Trazado_705900" data-name="Trazado 705900" d="M457.424,1181.827q-4.418,0-8.836,0c-1.61,0-2.958-.535-2.917-2.359.039-1.745,1.3-2.392,2.949-2.389,5.807.01,11.613,0,17.42.011,1.505,0,2.685.537,2.754,2.261.076,1.9-1.173,2.45-2.786,2.465C463.147,1181.843,460.286,1181.824,457.424,1181.827Z" transform="translate(-101.981 -91.448)"/>
      <path id="Trazado_705901" data-name="Trazado 705901" d="M422.883,1270.961c-1,0-2.15.308-2.967-.082-.915-.436-2.2-1.6-2.108-2.273a3.5,3.5,0,0,1,2.213-2.413,16.23,16.23,0,0,1,5.972,0,3.441,3.441,0,0,1,2.161,2.413c.086.7-1.151,1.886-2.051,2.28s-2.133.088-3.219.088Z" transform="translate(-88.217 -135.323)"/>
      <path id="Trazado_705902" data-name="Trazado 705902" d="M422.982,1253.171c-1.009,0-2.151.3-2.993-.079-.927-.414-2.138-1.412-2.186-2.218a3.094,3.094,0,0,1,1.972-2.316,18.753,18.753,0,0,1,6.261-.047c.874.15,1.528,1.582,2.283,2.431a12.462,12.462,0,0,1-2.594,2.176c-.761.354-1.818.07-2.744.07Z" transform="translate(-88.217 -126.609)"/>
      <path id="Trazado_705903" data-name="Trazado 705903" d="M422.89,1217.447c-1.009,0-2.153.3-2.989-.083-.9-.412-2.083-1.446-2.1-2.231a3.08,3.08,0,0,1,2.045-2.208,20.516,20.516,0,0,1,6.272-.006,3.079,3.079,0,0,1,2.048,2.192c0,.778-1.145,1.876-2.035,2.251C425.2,1217.753,423.982,1217.449,422.89,1217.447Z" transform="translate(-88.217 -109.031)"/>
      <path id="Trazado_705904" data-name="Trazado 705904" d="M422.831,1177.006c1.008,0,2.175-.322,2.983.08A4.2,4.2,0,0,1,428,1179.51c.11.567-1.269,1.938-2.119,2.075a19.307,19.307,0,0,1-6.013,0c-.878-.139-1.588-1.335-2.375-2.052.771-.842,1.4-1.956,2.356-2.442C420.65,1176.686,421.823,1177.01,422.831,1177.006Z" transform="translate(-88.065 -91.351)"/>
      <path id="Trazado_705905" data-name="Trazado 705905" d="M423.019,1194.888c1.01,0,2.146-.292,2.993.079.91.4,2.238,1.527,2.142,2.144a3.439,3.439,0,0,1-2.168,2.366,17.939,17.939,0,0,1-6.017,0c-.866-.142-2.277-1.528-2.162-2.081a4.271,4.271,0,0,1,2.226-2.427C420.843,1194.571,422.01,1194.889,423.019,1194.888Z" transform="translate(-88.216 -100.185)"/>
      <path id="Trazado_705906" data-name="Trazado 705906" d="M422.951,1235.4c-1.091,0-2.33.323-3.229-.092a3.691,3.691,0,0,1-1.935-2.411c-.074-.592,1.207-1.859,1.991-1.959a25.44,25.44,0,0,1,6.517.012c.75.1,1.955,1.43,1.869,2.047a3.637,3.637,0,0,1-1.98,2.323c-.916.4-2.142.089-3.233.089Z" transform="translate(-88.208 -117.946)"/>
      <path id="Trazado_705907" data-name="Trazado 705907" d="M498.434,1262.991a9.852,9.852,0,0,1,9.827,10.035,9.994,9.994,0,1,1-19.986-.062A9.9,9.9,0,0,1,498.434,1262.991Zm-1.089,8.585c-2.684-1.248-4.824-.859-4.6.879.208,1.628,1.646,3.267,2.923,4.51a3.193,3.193,0,0,0,3.064-.07,22.871,22.871,0,0,0,4.58-4.611c.513-.691.513-2.648.019-3a3.894,3.894,0,0,0-3.263-.173C498.991,1269.573,498.219,1270.743,497.345,1271.576Z" transform="translate(-123.024 -133.879)" fill="#ffc403"/>
      <path id="Trazado_705908" data-name="Trazado 705908" d="M427.667,1044.028c-2.54-1.474-3.37-3.208-1.937-6.167,1.518-3.136-.77-7.618-4.207-9.058-1.654-.693-2.872-1.359-2.606-3.581a2.7,2.7,0,0,1,1.813-2.6c4.962-2.172,6.508-5.932,4.439-10.974-.605-1.474-.19-2.292.807-3.281s1.781-1.414,3.278-.789c5.082,2.123,8.829.521,11.049-4.665.615-1.439,1.49-1.714,2.894-1.748a2.567,2.567,0,0,1,2.816,1.869c2.055,4.942,6.007,6.65,10.9,4.6,1.6-.67,2.4-.167,3.486.849a2.534,2.534,0,0,1,.674,3.283c-2,4.885-.45,8.741,4.4,10.784,1.536.647,1.812,1.572,1.844,3.08a2.615,2.615,0,0,1-2,2.912c-4.594,1.847-6.241,6.019-4.3,10.657a2.709,2.709,0,0,1-.674,3.5,2.673,2.673,0,0,1-3.448.743c-4.865-2.076-8.664-.347-10.992,4.6a3.168,3.168,0,0,1-2.3,1.575c-1.046.016-2.654-.433-3.068-1.2-3.234-5.984-6.069-7.09-12.417-4.495A2.567,2.567,0,0,1,427.667,1044.028Zm1.433-18.575a13.7,13.7,0,0,0,5.98,11.64,14.152,14.152,0,0,0,15.468.436c4.718-2.922,7.5-8.6,6.449-13.8-.181-.895-1.6-1.539-2.452-2.3a19.23,19.23,0,0,0-2.024,2.469c-.253.427.03,1.152.01,1.74a9.62,9.62,0,0,1-9.729,9.28,9.511,9.511,0,0,1-8.987-9.707,9.314,9.314,0,0,1,13.938-7.764c1.64.883,3.181,1.594,4.25-.516.816-1.611-.211-2.7-1.57-3.481-4.588-2.63-9.3-2.869-13.946-.324A13.429,13.429,0,0,0,429.1,1025.453Z" transform="translate(-88.749 -4.564)" fill="#ffc403"/>
      <path id="Trazado_705909" data-name="Trazado 705909" d="M328.023,1064.333a16.138,16.138,0,0,1-16.057,16.315,16.309,16.309,0,0,1-16.391-16.059,16.477,16.477,0,0,1,16.271-16.5A16.252,16.252,0,0,1,328.023,1064.333Z" transform="translate(-27.848 -27.74)" fill="#fff"/>
      <path id="Trazado_705910" data-name="Trazado 705910" d="M501.69,1277.284c.874-.833,1.645-2,2.72-2.462a3.894,3.894,0,0,1,3.263.173c.494.348.494,2.305-.019,3a22.874,22.874,0,0,1-4.58,4.611,3.194,3.194,0,0,1-3.064.07c-1.277-1.243-2.716-2.882-2.923-4.51C496.866,1276.425,499.006,1276.036,501.69,1277.284Z" transform="translate(-127.368 -139.588)"/>
      <path id="Trazado_705911" data-name="Trazado 705911" d="M439.073,1035.384a13.429,13.429,0,0,1,7.388-12.324c4.642-2.545,9.357-2.306,13.946.324,1.359.779,2.387,1.87,1.57,3.481-1.069,2.11-2.61,1.4-4.25.516a9.314,9.314,0,0,0-13.938,7.764,9.511,9.511,0,0,0,8.987,9.706,9.62,9.62,0,0,0,9.729-9.28c.02-.588-.263-1.313-.01-1.74a19.226,19.226,0,0,1,2.024-2.469c.849.76,2.271,1.4,2.452,2.3,1.048,5.2-1.731,10.878-6.449,13.8a14.152,14.152,0,0,1-15.468-.436A13.7,13.7,0,0,1,439.073,1035.384Z" transform="translate(-98.723 -14.496)"/>
    </g>
  </g>
</svg>
