<svg id="Grupo_992530" data-name="Grupo 992530" xmlns="http://www.w3.org/2000/svg" xmlns:xlink="http://www.w3.org/1999/xlink" width="133.917" height="130.395" viewBox="0 0 133.917 130.395">
  <defs>
    <clipPath id="clip-path">
      <rect id="Rectángulo_349508" data-name="Rectángulo 349508" width="110.523" height="110.53" fill="none"/>
    </clipPath>
  </defs>
  <path id="Trazado_706291" data-name="Trazado 706291" d="M65.2,0A65.2,65.2,0,1,1,0,65.2,65.2,65.2,0,0,1,65.2,0" fill="#ffe8ce"/>
  <g id="Grupo_992531" data-name="Grupo 992531" transform="translate(23.395 16.864)">
    <g id="Grupo_992531-2" data-name="Grupo 992531" clip-path="url(#clip-path)">
      <path id="Trazado_706331" data-name="Trazado 706331" d="M79.9,75.5v27.752h-.629q-10.441,0-20.883,0a2.493,2.493,0,0,0-1.973.689,1.959,1.959,0,0,0-.548,2.118,2.261,2.261,0,0,0,1.974,1.53,3.333,3.333,0,0,0,.378,0H81.7a2.317,2.317,0,0,0,2.564-2.569q0-15.407-.01-30.814a.771.771,0,0,1,.566-.86c1.226-.5,2.423-1.077,3.68-1.646.011.123.036.271.036.419q0,18.213,0,36.426a3.011,3.011,0,0,1-3.309,3.317q-35.885,0-71.769,0a3.082,3.082,0,0,1-3.132-1.744,4.317,4.317,0,0,1-.3-1.241,8.728,8.728,0,0,1-.01-1.132q0-47.246-.009-94.493a3.259,3.259,0,0,1,.7-2.152,2.814,2.814,0,0,1,2.261-1.078c5.828-.011,11.656-.006,17.483-.016.359,0,.468.129.463.473-.013,1.079-.024,2.159.007,3.238.013.458-.145.577-.585.576-4.443-.013-8.885-.009-13.328-.008-1.846,0-2.717.866-2.717,2.7q0,44.009,0,88.017a2.314,2.314,0,0,0,1.7,2.5,2.52,2.52,0,0,0,.689.086q11.871.006,23.742,0a2.488,2.488,0,0,0,.69-.082,2.21,2.21,0,0,0,1.692-2.1,2.3,2.3,0,0,0-2.245-2.142c-.179-.015-.36-.007-.54-.007H18.658V18.669H30.9a7.036,7.036,0,0,0,.81,3.219,6.593,6.593,0,0,0,6.107,3.645q11.44.033,22.88,0a6.733,6.733,0,0,0,6.922-6.609c0-.07.023-.139.041-.248H79.922v.591q0,19.05-.013,38.1a1.28,1.28,0,0,1-.312.906,13.915,13.915,0,0,0-3.933,5.821c-1.638,3.79-3.341,7.552-4.993,11.335a2.1,2.1,0,0,0,1.42,3.12,2.34,2.34,0,0,0,1.34-.175c1.411-.578,2.795-1.223,4.189-1.844.734-.327,1.467-.658,2.285-1.024M33.725,49.719q3.211,0,6.421,0a2.362,2.362,0,0,0,2.647-2.669q0-6.4,0-12.79a2.368,2.368,0,0,0-2.7-2.672H27.36a2.366,2.366,0,0,0-2.7,2.674q0,6.422,0,12.844A2.344,2.344,0,0,0,27.3,49.719h6.421M42.793,64.4q0-3.184,0-6.368a2.367,2.367,0,0,0-2.672-2.7q-6.394,0-12.789,0a2.358,2.358,0,0,0-2.668,2.648q0,6.476,0,12.952a2.311,2.311,0,0,0,2.507,2.531q6.53.005,13.058,0a2.337,2.337,0,0,0,2.564-2.589q0-3.238,0-6.476M33.719,97.211q3.238,0,6.475,0a2.346,2.346,0,0,0,2.6-2.609q0-6.449,0-12.9a2.35,2.35,0,0,0-2.637-2.623q-6.422,0-12.843,0a2.36,2.36,0,0,0-2.649,2.668q0,6.449,0,12.9a2.327,2.327,0,0,0,2.581,2.565q3.238,0,6.475,0m29.372-9.128c.831-.807,1.639-1.571,2.422-2.358A9.817,9.817,0,0,0,66.73,84.36a2.07,2.07,0,0,0-1.145-3.133,2.146,2.146,0,0,0-2.262.623c-.944.938-1.883,1.881-2.827,2.82-.134.133-.281.254-.529.477-1.107-1.157-2.152-2.3-3.251-3.383a2.152,2.152,0,1,0-2.894,3.184c1.061,1.042,2.117,2.089,3.349,3.3a6.035,6.035,0,0,0-.788.546c-.876.854-1.744,1.715-2.593,2.6a2.161,2.161,0,0,0-.068,3.092,2.047,2.047,0,0,0,3.029-.019c.692-.628,1.349-1.3,1.993-1.973.42-.44.79-.927,1.194-1.406.272.257.376.351.476.45,1.008,1,2,2.025,3.028,3a2.079,2.079,0,0,0,3.039-.062,2.058,2.058,0,0,0-.01-2.917c-.817-.885-1.688-1.72-2.532-2.579-.261-.266-.514-.541-.846-.892M52.87,62.333A2.108,2.108,0,0,0,50.9,63.6a1.934,1.934,0,0,0,.328,2.308q2.457,2.539,5.007,4.986a1.912,1.912,0,0,0,2.532.1,8.1,8.1,0,0,0,1.007-.893c1.869-1.869,3.726-3.752,5.6-5.618,1.159-1.155,2.361-2.268,3.5-3.44a2.117,2.117,0,0,0-1.064-3.613,2.226,2.226,0,0,0-2.124.789c-2.543,2.544-5.1,5.08-7.623,7.64-.347.352-.543.328-.859,0-.895-.936-1.819-1.843-2.727-2.768a2.154,2.154,0,0,0-1.608-.759m-.013-23.746a2.1,2.1,0,0,0-1.963,1.28,1.976,1.976,0,0,0,.376,2.349q2.407,2.475,4.89,4.875a1.974,1.974,0,0,0,2.707.1,10.17,10.17,0,0,0,.99-.914c1.956-1.96,3.9-3.93,5.862-5.886,1.057-1.054,2.161-2.061,3.2-3.136A2.093,2.093,0,0,0,67.9,33.719a2.232,2.232,0,0,0-2.261.8q-3.814,3.817-7.623,7.637c-.278.281-.459.313-.743.018-.924-.957-1.872-1.892-2.8-2.84a2.147,2.147,0,0,0-1.612-.75M49.3,107.6a2.37,2.37,0,0,0,2.143-2.051,2.323,2.323,0,0,0-2.22-2.264A2.158,2.158,0,0,0,49.3,107.6" transform="translate(-5.665 -5.679)" fill="#b88181"/>
      <path id="Trazado_706333" data-name="Trazado 706333" d="M159.731,53.518V52.7q0-17.832,0-35.664c0-1.886-.848-2.74-2.722-2.74H143.79c-.692,0-.68,0-.674-.685.01-1.042.017-2.085-.007-3.127-.008-.356.094-.467.452-.467,5.737.009,11.474-.008,17.21.015A3.115,3.115,0,0,1,164,13.33q.006,17.778-.009,35.557a1.124,1.124,0,0,1-.253.722c-1.238,1.279-2.5,2.53-3.765,3.787a1.318,1.318,0,0,1-.244.122" transform="translate(-81.135 -5.678)" fill="#ae6464"/>
      <path id="Trazado_706335" data-name="Trazado 706335" d="M232.414,72.788a3.444,3.444,0,0,1,3.1,1.844,3.3,3.3,0,0,1-.322,3.786,14.767,14.767,0,0,1-1.172,1.263.348.348,0,0,1-.587,0c-1.454-1.468-2.921-2.924-4.37-4.4-.089-.091-.137-.369-.073-.439a5.641,5.641,0,0,1,2.371-1.886,7.793,7.793,0,0,1,1.054-.174" transform="translate(-129.807 -41.267)" fill="#ffc403"/>
      <path id="Trazado_706343" data-name="Trazado 706343" d="M97.9,229.694a2.158,2.158,0,0,1-.077-4.315,2.323,2.323,0,0,1,2.22,2.264,2.37,2.37,0,0,1-2.143,2.051" transform="translate(-54.266 -127.778)" fill="#161615"/>
      <rect id="Rectángulo_349509" data-name="Rectángulo 349509" width="65" height="88" transform="translate(11 11.333)" fill="#dffcfc"/>
      <path id="Trazado_706344" data-name="Trazado 706344" d="M58.585,188.968c-1.385,0-2.77-.01-4.155.007-.375,0-.5-.118-.5-.5q.018-4.209,0-8.419c0-.372.115-.5.495-.5q4.209.018,8.419,0c.373,0,.5.118.5.5q-.018,4.209,0,8.419c0,.375-.121.5-.5.5-1.421-.016-2.842-.007-4.263-.006" transform="translate(-30.576 -101.8)" fill="#06d1d1"/>
      <rect id="Rectángulo_349507" data-name="Rectángulo 349507" width="9.39" height="9.381" transform="translate(23.363 54.035)" fill="#06d1d1"/>
      <rect id="Rectángulo_349506" data-name="Rectángulo 349506" width="9.379" height="9.38" transform="translate(23.368 30.294)" fill="#06d1d1"/>
      <path id="Trazado_706342" data-name="Trazado 706342" d="M106.11,69.519a2.147,2.147,0,0,1,1.612.75c.933.949,1.881,1.883,2.8,2.84.285.295.465.262.743-.018q3.8-3.83,7.623-7.637a2.232,2.232,0,0,1,2.261-.8,2.093,2.093,0,0,1,1.015,3.532c-1.034,1.074-2.139,2.082-3.2,3.136-1.96,1.956-3.906,3.926-5.862,5.886a10.216,10.216,0,0,1-.99.913,1.973,1.973,0,0,1-2.707-.1q-2.487-2.394-4.89-4.875a1.976,1.976,0,0,1-.376-2.349,2.1,2.1,0,0,1,1.963-1.28" transform="translate(-58.917 -36.611)" fill="#161615"/>
      <path id="Trazado_706341" data-name="Trazado 706341" d="M106.114,124.344a2.155,2.155,0,0,1,1.608.759c.906.925,1.831,1.832,2.727,2.768.317.331.512.355.859,0,2.527-2.56,5.079-5.1,7.622-7.64a2.227,2.227,0,0,1,2.124-.789,2.117,2.117,0,0,1,1.064,3.613c-1.142,1.171-2.344,2.284-3.5,3.44-1.873,1.866-3.729,3.749-5.6,5.618a8.087,8.087,0,0,1-1.006.893,1.912,1.912,0,0,1-2.532-.1q-2.55-2.446-5.008-4.987a1.935,1.935,0,0,1-.328-2.308,2.108,2.108,0,0,1,1.971-1.268" transform="translate(-58.909 -67.69)" fill="#161615"/>
      <path id="Trazado_706340" data-name="Trazado 706340" d="M119.5,181.174c.332.35.584.626.846.892.844.859,1.715,1.695,2.532,2.579a2.058,2.058,0,0,1,.011,2.917,2.079,2.079,0,0,1-3.039.061c-1.033-.974-2.02-2-3.028-3-.1-.1-.2-.193-.476-.45-.4.479-.773.966-1.193,1.405-.645.676-1.3,1.345-1.994,1.973a2.046,2.046,0,0,1-3.028.02,2.162,2.162,0,0,1,.068-3.092c.849-.88,1.717-1.741,2.593-2.595a6.115,6.115,0,0,1,.788-.546c-1.231-1.215-2.288-2.261-3.348-3.3a2.152,2.152,0,1,1,2.893-3.184c1.1,1.086,2.144,2.227,3.251,3.384.248-.223.395-.344.529-.477q1.415-1.408,2.826-2.82a2.147,2.147,0,0,1,2.263-.622,2.07,2.07,0,0,1,1.145,3.133,9.927,9.927,0,0,1-1.216,1.365c-.783.787-1.591,1.552-2.422,2.358" transform="translate(-62.069 -98.77)" fill="#161615"/>
      <path id="Trazado_706339" data-name="Trazado 706339" d="M52.925,187.625q-3.238,0-6.475,0a2.327,2.327,0,0,1-2.581-2.565q0-6.449,0-12.9a2.361,2.361,0,0,1,2.649-2.668q6.421,0,12.843,0A2.35,2.35,0,0,1,62,172.118q0,6.449,0,12.9a2.346,2.346,0,0,1-2.6,2.61q-3.238,0-6.475,0m-.045-4.364c1.421,0,2.842-.01,4.263.006.377,0,.5-.125.5-.5q-.018-4.209,0-8.419c0-.379-.129-.5-.5-.5q-4.209.017-8.419,0c-.38,0-.5.13-.495.5q.017,4.21,0,8.419c0,.378.123.5.5.5,1.385-.017,2.77-.007,4.155-.007" transform="translate(-24.871 -96.093)" fill="#161615"/>
      <path id="Trazado_706338" data-name="Trazado 706338" d="M62,123.726q0,3.238,0,6.476a2.337,2.337,0,0,1-2.564,2.589q-6.53.006-13.059,0a2.31,2.31,0,0,1-2.507-2.53q0-6.476,0-12.952a2.359,2.359,0,0,1,2.669-2.648q6.394,0,12.789,0a2.367,2.367,0,0,1,2.672,2.7q0,3.184,0,6.368m-13.766,4.7h9.39V119.04h-9.39Z" transform="translate(-24.87 -65.006)" fill="#161615"/>
      <path id="Trazado_706337" data-name="Trazado 706337" d="M52.931,77.959H46.509a2.344,2.344,0,0,1-2.64-2.614q0-6.422,0-12.844a2.366,2.366,0,0,1,2.7-2.674H59.3A2.368,2.368,0,0,1,62,62.5q0,6.394,0,12.79a2.362,2.362,0,0,1-2.646,2.669q-3.211,0-6.422,0m4.688-13.746H48.239v9.38h9.379Z" transform="translate(-24.871 -33.918)" fill="#161615"/>
      <path id="Trazado_706330" data-name="Trazado 706330" d="M87.208,39.206c1.139-1.106,2.251-2.168,3.343-3.252q3.082-3.061,6.143-6.144a7.958,7.958,0,0,1,8.277-2.291,7.386,7.386,0,0,1,5.215,5.421,7.353,7.353,0,0,1-2.032,7.572c-2.451,2.534-4.976,5-7.469,7.489q-6.639,6.639-13.27,13.288a.958.958,0,0,0-.2.618c-.013,2.914-.008,5.828-.008,8.743V102.7a7.388,7.388,0,0,1-2.986,6.378,8,8,0,0,1-4.876,1.446q-22.071.005-44.141,0-13.733,0-27.467,0a7.285,7.285,0,0,1-5.928-2.561A7.905,7.905,0,0,1,0,102.728q-.009-9.687,0-19.374Q0,45.5,0,7.64A7.418,7.418,0,0,1,4.5.577,9.134,9.134,0,0,1,8.045.005Q35.727,0,63.41,0c5.379,0,10.757-.008,16.135,0a7.25,7.25,0,0,1,6.979,4.361,8.123,8.123,0,0,1,.684,3.624q0,15.3,0,30.6v.616M74.239,69.826c-.817.366-1.55.7-2.284,1.024-1.394.621-2.777,1.266-4.189,1.844a2.339,2.339,0,0,1-1.34.175,2.1,2.1,0,0,1-1.42-3.12C66.658,65.965,68.361,62.2,70,58.414a13.93,13.93,0,0,1,3.933-5.821,1.278,1.278,0,0,0,.312-.906q.023-19.05.013-38.1V13H61.99c-.019.109-.036.178-.041.248a6.733,6.733,0,0,1-6.922,6.609q-11.44.046-22.88,0a6.6,6.6,0,0,1-6.107-3.646,7.036,7.036,0,0,1-.81-3.219H12.992V97.578H34.343c.18,0,.361-.008.54.007a2.3,2.3,0,0,1,2.245,2.142,2.209,2.209,0,0,1-1.693,2.1,2.466,2.466,0,0,1-.689.082q-11.872.006-23.743,0a2.54,2.54,0,0,1-.689-.085,2.315,2.315,0,0,1-1.7-2.5V11.313c0-1.832.871-2.7,2.717-2.7,4.443,0,8.885-.005,13.329.008.44,0,.6-.118.585-.576-.032-1.078-.021-2.158-.007-3.238,0-.344-.105-.474-.463-.473-5.828.01-11.656,0-17.483.016A2.815,2.815,0,0,0,5.029,5.432a3.261,3.261,0,0,0-.7,2.152q.016,47.247.009,94.493a8.728,8.728,0,0,0,.01,1.132,4.316,4.316,0,0,0,.3,1.241,3.082,3.082,0,0,0,3.133,1.744q35.884-.01,71.768,0a3.011,3.011,0,0,0,3.31-3.316q.009-18.214,0-36.426c0-.148-.025-.3-.036-.419-1.257.568-2.453,1.143-3.68,1.646a.772.772,0,0,0-.566.861q.022,15.407.01,30.814a2.317,2.317,0,0,1-2.564,2.569H52.558a3.325,3.325,0,0,1-.378,0,2.261,2.261,0,0,1-1.975-1.53,1.959,1.959,0,0,1,.548-2.117,2.491,2.491,0,0,1,1.973-.69q10.441,0,20.883,0h.628ZM57.653,4.329H30.116a1.989,1.989,0,0,1-.216,0c-.308-.034-.4.1-.392.405.025,2.661.031,5.323.052,7.984a4.434,4.434,0,0,0,.1,1.121,2.408,2.408,0,0,0,2.624,1.7q10.575,0,21.15,0c.594,0,1.187.013,1.781,0a2.347,2.347,0,0,0,2.374-1.817,5.341,5.341,0,0,0,.089-1.126q.012-3.777,0-7.554c0-.212-.018-.424-.03-.706M78.6,47.84a1.305,1.305,0,0,0,.244-.123c1.26-1.258,2.526-2.509,3.765-3.787a1.127,1.127,0,0,0,.253-.722q.018-17.778.009-35.556a3.115,3.115,0,0,0-3.229-3.3c-5.737-.023-11.474-.006-17.211-.015-.357,0-.459.111-.452.466.024,1.042.016,2.085.007,3.128-.007.683-.018.684.674.684H75.873c1.874,0,2.723.854,2.723,2.74V47.84M95.943,36.786,76.494,56.331c.047.053.125.15.212.237,1.425,1.423,2.869,2.827,4.265,4.277.372.386.547.323.882-.013q9.316-9.336,18.658-18.646c.327-.326.248-.5-.044-.771-.711-.66-1.408-1.337-2.084-2.033-.812-.835-1.6-1.7-2.44-2.6m6.663-5.264a7.661,7.661,0,0,0-1.054.174,5.636,5.636,0,0,0-2.37,1.885c-.065.07-.016.348.073.439,1.449,1.474,2.915,2.93,4.37,4.4a.348.348,0,0,0,.587,0,14.831,14.831,0,0,0,1.172-1.263,3.3,3.3,0,0,0,.322-3.786,3.443,3.443,0,0,0-3.1-1.844M77.523,63.684l-3.53-3.571-2.759,6.213.1.077,6.185-2.72" transform="translate(0 0)" fill="#161615"/>
      <path id="Trazado_706332" data-name="Trazado 706332" d="M96.285,9.989c.013.283.03.495.03.706q0,3.777,0,7.554a5.371,5.371,0,0,1-.089,1.126,2.347,2.347,0,0,1-2.374,1.817c-.593.017-1.187,0-1.781,0q-10.575,0-21.15,0a2.408,2.408,0,0,1-2.624-1.7,4.433,4.433,0,0,1-.1-1.121c-.022-2.661-.027-5.323-.052-7.984,0-.307.084-.439.392-.405a1.989,1.989,0,0,0,.216,0H96.285Z" transform="translate(-38.632 -5.659)" fill="#4980b8"/>
      <path id="Trazado_706334" data-name="Trazado 706334" d="M196.087,84.944c.842.9,1.627,1.762,2.44,2.6.676.7,1.374,1.372,2.085,2.032.292.271.37.446.043.771q-9.342,9.31-18.657,18.646c-.334.335-.511.4-.882.013-1.4-1.45-2.84-2.855-4.265-4.277-.087-.087-.165-.184-.212-.237l19.448-19.545" transform="translate(-100.145 -48.159)" fill="#b20d0d"/>
      <path id="Trazado_706336" data-name="Trazado 706336" d="M170.78,142.383l-6.185,2.72-.1-.077,2.759-6.213,3.53,3.571" transform="translate(-93.257 -78.699)" fill="#ffdbdb"/>
    </g>
  </g>
</svg>
