<svg xmlns="http://www.w3.org/2000/svg" width="111.086" height="111.086" viewBox="0 0 111.086 111.086">
  <g id="Grupo_992318" data-name="Grupo 992318" transform="translate(-383.313 -1304.289)">
    <path id="Trazado_705812" data-name="Trazado 705812" d="M111.086,80.432A55.543,55.543,0,1,1,55.543,24.889a55.543,55.543,0,0,1,55.543,55.543" transform="translate(383.313 1279.4)" fill="#ffc403"/>
    <path id="Trazado_705872" data-name="Trazado 705872" d="M97.356,139.142a82.974,82.974,0,0,1-13.756.968c-2.439-.055-4.876-.238-7.31-.415a57.589,57.589,0,0,1-11.251-1.948,25.493,25.493,0,0,1-7.88-3.308,7.014,7.014,0,0,1-3.1-4.1,5.179,5.179,0,0,1-.139-1.214q-.01-27.856-.008-55.711a6.02,6.02,0,0,1,2.476-4.946,21.351,21.351,0,0,1,6.6-3.281A57.722,57.722,0,0,1,74.5,62.8a76.662,76.662,0,0,1,11.732-.572c2.773.1,5.544.338,8.308.59A51.272,51.272,0,0,1,104,64.583a26.52,26.52,0,0,1,7.2,2.912,10.135,10.135,0,0,1,2.762,2.473A5.028,5.028,0,0,1,115,72.937c.009.614.032,1.228.032,1.842q0,17.174,0,34.348v1.654c.394-.145.769-.3,1.151-.423a7.421,7.421,0,0,1,8.839,3.184c1.4,2.309,2.721,4.668,4.079,7,1.915,3.3,3.839,6.586,5.745,9.887,1.4,2.428,2.773,4.874,4.169,7.306a7.657,7.657,0,0,1-5.507,11.389,10.439,10.439,0,0,1-1.485.116q-13.451.011-26.9,0a7.711,7.711,0,0,1-7.99-6.619,6.761,6.761,0,0,1,.166-2.993c.029-.113.056-.227.076-.342a.609.609,0,0,0-.022-.155m21.228,7.3c4.636,0,9.273.014,13.909-.017a4.975,4.975,0,0,0,1.867-.384,4.813,4.813,0,0,0,2.243-6.924c-3.564-6.238-7.182-12.445-10.77-18.668q-1.487-2.58-2.934-5.184a4.963,4.963,0,0,0-8.676.082q-.643,1.146-1.3,2.286-4.565,7.911-9.135,15.82c-1.132,1.958-2.346,3.873-3.4,5.872a4.869,4.869,0,0,0,4.372,7.118h13.822m-34.655-81.5,0,.167c-1.111,0-2.223-.032-3.332.006a67.748,67.748,0,0,0-11.1,1.224,34.618,34.618,0,0,0-8.87,2.787,10.761,10.761,0,0,0-3.048,2.03,2.17,2.17,0,0,0,.03,3.475,13.314,13.314,0,0,0,4.595,2.75,44.361,44.361,0,0,0,9.961,2.488,85.676,85.676,0,0,0,9.956.849,86.645,86.645,0,0,0,13.478-.667,51.6,51.6,0,0,0,9.983-2.229,16.54,16.54,0,0,0,5.6-3.011c1.407-1.22,1.436-2.389.11-3.691a13.656,13.656,0,0,0-4.837-2.848,53.241,53.241,0,0,0-14.811-2.977c-2.562-.213-5.139-.242-7.71-.354m28.284,12.746a1.434,1.434,0,0,0-.233.087,25.511,25.511,0,0,1-7.011,3.133,65.138,65.138,0,0,1-14.181,2.432,87.221,87.221,0,0,1-15.026-.19,61.967,61.967,0,0,1-10.3-1.825,25.469,25.469,0,0,1-8.427-3.558,1.57,1.57,0,0,0-.3-.127,2.255,2.255,0,0,0-.03.241c0,2.983-.01,5.965.038,8.948a2.735,2.735,0,0,0,.476,1.413,5.94,5.94,0,0,0,1.267,1.257,15.651,15.651,0,0,0,4.369,2.285,47.589,47.589,0,0,0,8.4,2.116.959.959,0,0,0,.852-.154,17.548,17.548,0,0,1,5.217-2.816,20.613,20.613,0,0,1,7.385-1.3,20.88,20.88,0,0,1,12.209,4.131.91.91,0,0,0,.6.146c.594-.07,1.185-.178,1.772-.295a34.8,34.8,0,0,0,9.044-2.819,11.2,11.2,0,0,0,3.178-2.153,2.518,2.518,0,0,0,.741-1.817c-.019-2.719-.024-5.439-.034-8.158,0-.3,0-.608,0-.982m-45.88,32.9c-.137,10.364,8.7,18.186,18.208,18.2,8.873.013,18.563-7.558,18.095-19.036a18.283,18.283,0,0,0-18.243-17.32c-10.036-.036-18.294,8.7-18.06,18.157M56.736,120a2.06,2.06,0,0,0-.033.217q.007,4.364.018,8.728a4.366,4.366,0,0,0,.041.7,3.517,3.517,0,0,0,1.725,2.273,24.211,24.211,0,0,0,7.984,3.375,72.379,72.379,0,0,0,14.66,1.936,77.843,77.843,0,0,0,10.214-.209c2.414-.2,4.815-.572,7.222-.859a.985.985,0,0,0,.8-.569c2.121-3.7,4.263-7.387,6.4-11.079.315-.545.616-1.1.972-1.733-.218.056-.327.082-.436.111-1.732.468-3.455.975-5.2,1.386a3.422,3.422,0,0,0-1.78,1,18.564,18.564,0,0,1-4.55,3.537,20.915,20.915,0,0,1-25.672-4.063,1.082,1.082,0,0,0-.509-.3c-.836-.2-1.685-.359-2.519-.571a29.13,29.13,0,0,1-8.736-3.521c-.179-.115-.364-.221-.594-.36m-.03-21.1c0,.09,0,.233,0,.376,0,2.762.034,5.524-.011,8.285a3.237,3.237,0,0,0,1.273,2.741,16.536,16.536,0,0,0,4.079,2.361c.519.217,1.052.4,1.692.639a19.951,19.951,0,0,1,1.436-10.781c-1.476-.524-2.944-.964-4.345-1.563s-2.733-1.356-4.124-2.058m55.506-.079a29.447,29.447,0,0,1-8.433,3.651,21.571,21.571,0,0,1,1.514,10.711,1.117,1.117,0,0,0,.233-.03c1.139-.488,2.3-.936,3.409-1.482a8.093,8.093,0,0,0,2.7-1.994,2.5,2.5,0,0,0,.619-1.687c-.02-1.929-.029-3.859-.037-5.788,0-1.094,0-2.188,0-3.381m-.032-7.029c-3.756,2.492-7.993,3.584-12.322,4.509a1.751,1.751,0,0,0,.126.253c.791,1.066,1.579,2.135,2.387,3.187a.5.5,0,0,0,.431.131c1.159-.348,2.329-.672,3.46-1.1a16.186,16.186,0,0,0,4.874-2.711,2.458,2.458,0,0,0,1.023-1.537c.085-.888.021-1.791.021-2.733M56.706,91.69c0,.743.009,1.381,0,2.018a2.45,2.45,0,0,0,.772,1.938,17.28,17.28,0,0,0,2.1,1.631A24.983,24.983,0,0,0,66.2,99.888a.5.5,0,0,0,.414-.171c.742-.976,1.464-1.967,2.191-2.955.1-.137.19-.281.313-.464-4.392-.877-8.625-2.025-12.406-4.608m9.559,29.523.08-.164c-.1-.195-.2-.386-.287-.585-.5-1.149-1.035-2.286-1.471-3.458a1.235,1.235,0,0,0-.891-.867,23.9,23.9,0,0,1-6.756-3.056.884.884,0,0,0-.223-.071,13.925,13.925,0,0,1-.008,1.474,3.278,3.278,0,0,0,1.545,3.13,14.081,14.081,0,0,0,3.423,1.931c1.519.581,3.057,1.113,4.587,1.667m36.337-.074c.52-.149.958-.271,1.395-.4a24.289,24.289,0,0,0,4.727-1.833,1.419,1.419,0,0,0,.537-.488c1-1.7,1.973-3.414,2.952-5.126a1.382,1.382,0,0,0,.09-.287,1.456,1.456,0,0,0-.6.237c-.432.273-.847.576-1.293.824a26.449,26.449,0,0,1-5.232,2.1,1.017,1.017,0,0,0-.777.768,12.936,12.936,0,0,1-.6,1.643c-.362.826-.762,1.635-1.2,2.561" transform="translate(348.386 1255.236)" fill="#161615"/>
    <path id="Trazado_705873" data-name="Trazado 705873" d="M203.063,239.473H189.241a4.869,4.869,0,0,1-4.372-7.118c1.054-2,2.268-3.913,3.4-5.871q4.573-7.907,9.135-15.82.657-1.138,1.3-2.285a4.963,4.963,0,0,1,8.676-.082q1.446,2.6,2.934,5.184c3.589,6.223,7.207,12.43,10.77,18.668a4.813,4.813,0,0,1-2.243,6.924,4.974,4.974,0,0,1-1.867.384c-4.636.032-9.273.017-13.909.017m3.247-18.407h.017c.051-1.943.112-3.886.15-5.83a3.074,3.074,0,0,0-1.06-2.453,3.68,3.68,0,0,0-3.325-.618c-1.686.3-2.563,1.6-2.5,3.491q.171,5,.354,9.992a11.1,11.1,0,0,0,.151,1.656,2.992,2.992,0,0,0,3.034,2.394,2.949,2.949,0,0,0,2.94-2.848c.087-1.928.16-3.856.239-5.784m-6.746,13.082a3.6,3.6,0,0,0,3.333,3.571,3.512,3.512,0,1,0,.193-7.02,3.517,3.517,0,0,0-3.525,3.449" transform="translate(263.908 1162.206)" fill="#b20d0d"/>
    <path id="Trazado_705874" data-name="Trazado 705874" d="M89.1,70c2.571.112,5.148.141,7.71.354a53.245,53.245,0,0,1,14.811,2.977,13.662,13.662,0,0,1,4.837,2.848c1.327,1.3,1.3,2.472-.11,3.691a16.541,16.541,0,0,1-5.6,3.011,51.607,51.607,0,0,1-9.983,2.229,86.644,86.644,0,0,1-13.478.667,85.685,85.685,0,0,1-9.956-.849,44.353,44.353,0,0,1-9.961-2.488,13.315,13.315,0,0,1-4.595-2.75,2.17,2.17,0,0,1-.03-3.475,10.755,10.755,0,0,1,3.048-2.03,34.622,34.622,0,0,1,8.87-2.787,67.753,67.753,0,0,1,11.1-1.224c1.109-.038,2.221-.006,3.332-.006,0-.056,0-.111,0-.167m13.08,13.07.02.107c1.15-.187,2.318-.3,3.445-.579a6.3,6.3,0,0,0,3.9-2.422,3.292,3.292,0,0,0-.17-4.2,6.054,6.054,0,0,0-2.477-1.759,12.83,12.83,0,0,0-7.494-.573A7.386,7.386,0,0,0,95.189,75.9a3.384,3.384,0,0,0,.119,4.813,7.013,7.013,0,0,0,1.586,1.147,11.3,11.3,0,0,0,5.286,1.214" transform="translate(343.214 1250.172)" fill="#afafaf"/>
    <path id="Trazado_705875" data-name="Trazado 705875" d="M117.356,106.111c0,.374,0,.678,0,.982.01,2.719.016,5.439.034,8.158a2.519,2.519,0,0,1-.741,1.817,11.21,11.21,0,0,1-3.178,2.153,34.8,34.8,0,0,1-9.044,2.819c-.587.117-1.178.225-1.771.295a.91.91,0,0,1-.6-.147,20.882,20.882,0,0,0-12.209-4.131,20.615,20.615,0,0,0-7.385,1.3,17.54,17.54,0,0,0-5.217,2.816.96.96,0,0,1-.852.154,47.582,47.582,0,0,1-8.4-2.116,15.654,15.654,0,0,1-4.369-2.285,5.948,5.948,0,0,1-1.267-1.257,2.739,2.739,0,0,1-.476-1.413c-.048-2.982-.033-5.965-.038-8.948a2.182,2.182,0,0,1,.03-.241,1.565,1.565,0,0,1,.3.127,25.475,25.475,0,0,0,8.427,3.558,62.045,62.045,0,0,0,10.3,1.825,87.189,87.189,0,0,0,15.026.189,65.114,65.114,0,0,0,14.181-2.431,25.508,25.508,0,0,0,7.012-3.133,1.42,1.42,0,0,1,.233-.087" transform="translate(343.243 1226.811)" fill="#afafaf"/>
    <path id="Trazado_705876" data-name="Trazado 705876" d="M89.181,166.213c-.234-9.458,8.024-18.193,18.06-18.157a18.283,18.283,0,0,1,18.243,17.32c.469,11.479-9.221,19.05-18.095,19.037-9.509-.014-18.345-7.835-18.208-18.2m22.39,4.6c.357-.487.711-.9.985-1.363a8.1,8.1,0,0,0,.685-1.462.47.47,0,0,1,.546-.392q4.014.034,8.028.024c1.162,0,1.7-.566,1.619-1.732a19.671,19.671,0,0,0-.354-2.908,15.918,15.918,0,0,0-7.483-10.558,1.364,1.364,0,0,0-2.2.564q-2.023,3.46-4,6.947a.448.448,0,0,1-.587.267,5.561,5.561,0,0,0-2.862,0,.562.562,0,0,1-.728-.331q-1.958-3.447-3.962-6.868a1.385,1.385,0,0,0-2.257-.556,16.208,16.208,0,0,0-7.814,13.5c-.061,1.1.5,1.68,1.643,1.683,2.676.006,5.352-.009,8.028-.03a.479.479,0,0,1,.539.37,9.687,9.687,0,0,0,.742,1.574,12.659,12.659,0,0,0,.978,1.249c-1.414,2.443-2.823,4.867-4.222,7.3a1.39,1.39,0,0,0,.611,2.192,15.835,15.835,0,0,0,15.6.021,1.367,1.367,0,0,0,.645-2.2c-1.389-2.435-2.793-4.862-4.186-7.283" transform="translate(325.538 1199.604)" fill="#ffc403"/>
    <path id="Trazado_705877" data-name="Trazado 705877" d="M61.877,226.383c.23.139.415.245.594.36a29.13,29.13,0,0,0,8.736,3.521c.834.212,1.682.367,2.518.571a1.083,1.083,0,0,1,.509.3,20.914,20.914,0,0,0,25.672,4.063,18.543,18.543,0,0,0,4.55-3.537,3.422,3.422,0,0,1,1.781-1c1.746-.411,3.468-.918,5.2-1.386.108-.029.218-.056.436-.111-.356.636-.657,1.188-.972,1.733-2.134,3.692-4.276,7.379-6.4,11.079a.985.985,0,0,1-.8.569c-2.407.288-4.808.656-7.222.86a77.9,77.9,0,0,1-10.214.209,72.378,72.378,0,0,1-14.66-1.936,24.208,24.208,0,0,1-7.984-3.375,3.515,3.515,0,0,1-1.725-2.273,4.409,4.409,0,0,1-.042-.7q-.012-4.364-.018-8.728a1.961,1.961,0,0,1,.033-.217" transform="translate(343.245 1148.857)" fill="#afafaf"/>
    <path id="Trazado_705878" data-name="Trazado 705878" d="M61.829,166.475c1.391.7,2.723,1.459,4.124,2.059s2.868,1.04,4.345,1.563a19.947,19.947,0,0,0-1.436,10.781c-.639-.241-1.173-.423-1.692-.639a16.543,16.543,0,0,1-4.079-2.361,3.238,3.238,0,0,1-1.273-2.741c.045-2.761.012-5.523.011-8.285v-.376" transform="translate(343.263 1187.67)" fill="#afafaf"/>
    <path id="Trazado_705879" data-name="Trazado 705879" d="M203.964,166.25c0,1.192,0,2.287,0,3.381.008,1.929.018,3.859.037,5.788a2.5,2.5,0,0,1-.62,1.687,8.082,8.082,0,0,1-2.7,1.994c-1.111.546-2.27.994-3.409,1.482a1.116,1.116,0,0,1-.233.03A21.567,21.567,0,0,0,195.53,169.9a29.454,29.454,0,0,0,8.434-3.651" transform="translate(256.634 1187.816)" fill="#afafaf"/>
    <path id="Trazado_705880" data-name="Trazado 705880" d="M196.717,146.288c0,.943.064,1.845-.021,2.733a2.457,2.457,0,0,1-1.023,1.537,16.181,16.181,0,0,1-4.874,2.711c-1.131.427-2.3.752-3.46,1.1a.5.5,0,0,1-.431-.132c-.808-1.053-1.6-2.121-2.387-3.187a1.738,1.738,0,0,1-.126-.253c4.329-.925,8.566-2.016,12.322-4.509" transform="translate(263.848 1200.749)" fill="#1a1919"/>
    <path id="Trazado_705881" data-name="Trazado 705881" d="M61.848,145.973c3.781,2.584,8.015,3.731,12.406,4.608-.123.183-.212.327-.313.463-.726.988-1.449,1.979-2.19,2.955a.5.5,0,0,1-.415.171,25.007,25.007,0,0,1-6.615-2.611,17.248,17.248,0,0,1-2.1-1.632,2.447,2.447,0,0,1-.772-1.937c.011-.637,0-1.275,0-2.018" transform="translate(343.244 1200.953)" fill="#1a1919"/>
    <path id="Trazado_705882" data-name="Trazado 705882" d="M71.378,214.725c-1.53-.554-3.067-1.086-4.586-1.667a14.076,14.076,0,0,1-3.424-1.93A3.279,3.279,0,0,1,61.823,208a13.927,13.927,0,0,0,.008-1.474.892.892,0,0,1,.224.071,23.883,23.883,0,0,0,6.756,3.056,1.233,1.233,0,0,1,.89.866c.437,1.173.972,2.309,1.471,3.458.087.2.191.39.288.585l-.081.164" transform="translate(343.273 1161.724)" fill="#1a1919"/>
    <path id="Trazado_705883" data-name="Trazado 705883" d="M192.194,214.637c.436-.926.836-1.735,1.2-2.561a12.938,12.938,0,0,0,.6-1.643,1.017,1.017,0,0,1,.777-.768,26.448,26.448,0,0,0,5.232-2.1c.446-.248.861-.551,1.293-.824a1.456,1.456,0,0,1,.6-.237,1.382,1.382,0,0,1-.09.287c-.979,1.712-1.955,3.425-2.952,5.126a1.418,1.418,0,0,1-.537.488,24.288,24.288,0,0,1-4.727,1.833c-.436.13-.875.252-1.395.4" transform="translate(258.795 1161.738)" fill="#1a1919"/>
    <path id="Trazado_705884" data-name="Trazado 705884" d="M234.436,232.579c-.079,1.928-.152,3.856-.239,5.784a2.948,2.948,0,0,1-2.94,2.847,2.992,2.992,0,0,1-3.034-2.394,11.1,11.1,0,0,1-.151-1.656q-.187-5-.354-9.992c-.064-1.886.812-3.187,2.5-3.491a3.68,3.68,0,0,1,3.325.618,3.074,3.074,0,0,1,1.06,2.453c-.038,1.943-.1,3.887-.15,5.83h-.017m-2.652-6.161h-.607c-.675,0-.679,0-.654.66q.2,5.452.416,10.9c.006.144.111.391.2.4.289.045.241-.216.248-.394q.218-5.582.43-11.164a4.029,4.029,0,0,0-.03-.409" transform="translate(235.781 1150.692)" fill="#161615"/>
    <path id="Trazado_705885" data-name="Trazado 705885" d="M227.644,280a3.5,3.5,0,1,1,6.993.159,3.561,3.561,0,0,1-3.66,3.412A3.6,3.6,0,0,1,227.644,280m3.43.761a.657.657,0,0,0,.735-.678.626.626,0,0,0-.617-.731.7.7,0,0,0-.8.664.713.713,0,0,0,.687.745" transform="translate(235.828 1116.357)" fill="#161615"/>
    <path id="Trazado_705886" data-name="Trazado 705886" d="M161.7,89.211A11.3,11.3,0,0,1,156.416,88a7,7,0,0,1-1.586-1.147,3.383,3.383,0,0,1-.119-4.813,7.387,7.387,0,0,1,4.213-2.256,12.833,12.833,0,0,1,7.494.573,6.048,6.048,0,0,1,2.477,1.759,3.292,3.292,0,0,1,.17,4.2,6.3,6.3,0,0,1-3.9,2.422c-1.128.278-2.3.392-3.445.579l-.02-.107m.219-2.755c.694-.079,1.4-.115,2.081-.249a5.3,5.3,0,0,0,2.527-1.14c.586-.508.61-.939,0-1.4a6.049,6.049,0,0,0-1.512-.856,10.114,10.114,0,0,0-5.015-.4,5.868,5.868,0,0,0-3.047,1.232c-.585.488-.608.943,0,1.406a6.071,6.071,0,0,0,1.432.82,10.341,10.341,0,0,0,3.536.593" transform="translate(283.693 1244.034)" fill="#161615"/>
    <path id="Trazado_705887" data-name="Trazado 705887" d="M115.27,178.227c1.393,2.421,2.8,4.847,4.186,7.283a1.367,1.367,0,0,1-.645,2.2,15.836,15.836,0,0,1-15.6-.021,1.391,1.391,0,0,1-.611-2.192c1.4-2.429,2.808-4.853,4.222-7.3a12.626,12.626,0,0,1-.978-1.249,9.669,9.669,0,0,1-.742-1.573.479.479,0,0,0-.539-.37c-2.676.021-5.352.036-8.028.03-1.142,0-1.7-.584-1.643-1.683a16.21,16.21,0,0,1,7.814-13.5,1.386,1.386,0,0,1,2.257.556q1.995,3.426,3.962,6.868a.562.562,0,0,0,.728.331,5.568,5.568,0,0,1,2.862,0,.448.448,0,0,0,.588-.267q1.978-3.486,4-6.947a1.364,1.364,0,0,1,2.2-.564,15.918,15.918,0,0,1,7.483,10.558,19.675,19.675,0,0,1,.354,2.908c.08,1.166-.457,1.729-1.619,1.732q-4.014.012-8.028-.024a.47.47,0,0,0-.546.392,8.108,8.108,0,0,1-.685,1.462c-.274.461-.628.875-.985,1.363m-4.065,8.718a13.056,13.056,0,0,0,4.873-.934c.331-.13.384-.25.2-.568q-1.643-2.815-3.244-5.655c-.139-.246-.29-.222-.5-.172a6.142,6.142,0,0,1-2.991.042c-.27-.071-.389.046-.514.262q-1.585,2.724-3.187,5.437c-.263.446-.258.482.229.68a13.9,13.9,0,0,0,5.14.909m13.03-14.72c.207-2.719-2.946-8.194-5.392-9.35-.073.118-.15.237-.221.36-1.083,1.869-2.162,3.742-3.255,5.605a.338.338,0,0,0,.066.487,6.124,6.124,0,0,1,1.5,2.542.459.459,0,0,0,.533.377c1.813-.017,3.627-.017,5.44-.023.435,0,.87,0,1.334,0m-26.4-.031a1.561,1.561,0,0,0,.156.017c2.235.013,4.47.031,6.7.025a.529.529,0,0,0,.379-.305,6.608,6.608,0,0,1,1.554-2.61c.173-.177.144-.3.033-.493-.9-1.55-1.792-3.108-2.687-4.662-.252-.438-.5-.874-.754-1.305-2.435,1.152-5.587,6.633-5.386,9.333m13.2,4.841a3.32,3.32,0,0,0,3.373-3.307,3.359,3.359,0,0,0-3.438-3.528,3.417,3.417,0,0,0,.065,6.834" transform="translate(321.838 1192.194)" fill="#161615"/>
    <path id="Trazado_705888" data-name="Trazado 705888" d="M236.937,231.693a4.026,4.026,0,0,1,.03.409q-.212,5.582-.43,11.164c-.007.177.042.438-.248.394-.087-.013-.192-.261-.2-.4q-.219-5.451-.416-10.9c-.024-.659-.02-.659.654-.66h.607" transform="translate(230.629 1145.417)" fill="#ffc403"/>
    <path id="Trazado_705889" data-name="Trazado 705889" d="M236.117,285.908a.713.713,0,0,1-.687-.745.7.7,0,0,1,.8-.664.626.626,0,0,1,.617.731.657.657,0,0,1-.735.678" transform="translate(230.785 1111.206)" fill="#ffc403"/>
    <path id="Trazado_705890" data-name="Trazado 705890" d="M166.97,91.593A10.341,10.341,0,0,1,163.434,91a6.072,6.072,0,0,1-1.432-.82c-.606-.463-.582-.917,0-1.406a5.868,5.868,0,0,1,3.047-1.232,10.114,10.114,0,0,1,5.015.4,6.05,6.05,0,0,1,1.512.856c.61.466.586.9,0,1.4a5.3,5.3,0,0,1-2.527,1.14c-.684.133-1.387.169-2.081.249" transform="translate(278.645 1238.897)" fill="#727997"/>
    <path id="Trazado_705891" data-name="Trazado 705891" d="M131.035,223.908a13.9,13.9,0,0,1-5.14-.909c-.487-.2-.491-.235-.229-.68q1.6-2.715,3.187-5.437c.125-.215.244-.333.514-.262a6.138,6.138,0,0,0,2.991-.042c.215-.05.365-.074.5.173q1.6,2.837,3.244,5.655c.186.318.133.438-.2.568a13.049,13.049,0,0,1-4.873.934" transform="translate(302.009 1155.23)" fill="#b20d0d"/>
    <path id="Trazado_705892" data-name="Trazado 705892" d="M161.78,178.448c-.464,0-.9,0-1.334,0-1.813,0-3.627.005-5.44.022a.458.458,0,0,1-.533-.377,6.125,6.125,0,0,0-1.5-2.543.338.338,0,0,1-.065-.487c1.093-1.864,2.171-3.736,3.255-5.605.071-.123.149-.243.221-.36,2.447,1.157,5.6,6.631,5.392,9.35" transform="translate(284.293 1185.971)" fill="#b20d0d"/>
    <path id="Trazado_705893" data-name="Trazado 705893" d="M103.258,178.39c-.2-2.7,2.951-8.181,5.386-9.333.249.431.5.868.754,1.305.894,1.555,1.785,3.112,2.687,4.662.111.19.139.316-.033.492a6.609,6.609,0,0,0-1.554,2.61.529.529,0,0,1-.378.306c-2.235.006-4.47-.012-6.705-.025-.043,0-.086-.01-.156-.018" transform="translate(316.42 1185.998)" fill="#b20d0d"/>
    <path id="Trazado_705894" data-name="Trazado 705894" d="M134.428,196.735a3.417,3.417,0,0,1-.066-6.834,3.359,3.359,0,0,1,3.438,3.528,3.32,3.32,0,0,1-3.373,3.307" transform="translate(298.451 1172.494)" fill="#ffc403"/>
  </g>
</svg>
