<svg xmlns="http://www.w3.org/2000/svg" width="111.086" height="111.086" viewBox="0 0 111.086 111.086">
  <g id="Grupo_992320" data-name="Grupo 992320" transform="translate(-638.721 -1297.403)">
    <path id="Trazado_705811" data-name="Trazado 705811" d="M836.419,60.876A55.543,55.543,0,1,1,780.876,5.333a55.543,55.543,0,0,1,55.543,55.543" transform="translate(-86.612 1292.07)" fill="#ffc403"/>
    <path id="Trazado_705814" data-name="Trazado 705814" d="M850.638,14.209c0,.119,0,.222,0,.325.011,1.852.012,3.7.039,5.556a2.1,2.1,0,0,0,2.012,2.166c.737.061,1.48.053,2.22.056,1.439.006,2.879.007,4.319-.011.284,0,.356.074.355.352q-.012,5.159,0,10.318,0,14.668,0,29.335c0,.052-.005.1-.01.184H821.608c-.006-.11-.017-.222-.017-.334q.006-8.984.011-17.969a1.8,1.8,0,0,0-.1-.68.865.865,0,0,0-.975-.485.89.89,0,0,0-.777.8,5.984,5.984,0,0,0-.03.7q-.006,8.874-.007,17.747a4.159,4.159,0,0,0,.053.79,1.7,1.7,0,0,0,1.751,1.357q4.1.005,8.193,0c2.974-.008,5.948-.029,8.921-.044h.218c-.336.2-21.047,3.812-21.555,3.773l-7.815-45.563,10.234-1.752c0,.39,0,.7,0,1.02q0,8.524,0,17.049a5.748,5.748,0,0,0,.033.76.882.882,0,0,0,.943.8.925.925,0,0,0,.9-.863c.026-.57.018-1.142.018-1.714q0-11.715,0-23.43c0-.072.006-.144.011-.24Zm-9.871,20.616q6.59,0,13.179,0a3.285,3.285,0,0,0,.693-.064.946.946,0,0,0,.731-.921.934.934,0,0,0-.81-.916,3.837,3.837,0,0,0-.569-.039q-13.148,0-26.3,0a4.293,4.293,0,0,0-.7.052.932.932,0,0,0-.771.919.9.9,0,0,0,.729.913,3.6,3.6,0,0,0,.694.057q6.558,0,13.116,0m.016,20.275h13.273a3.889,3.889,0,0,0,.475-.017.954.954,0,0,0,.834-.832.921.921,0,0,0-.549-.949,2.094,2.094,0,0,0-.713-.107q-13.162-.006-26.324,0a5.429,5.429,0,0,0-.79.048.88.88,0,0,0-.769.934.923.923,0,0,0,.814.908,3.823,3.823,0,0,0,.476.015h13.273m-.017-6.775v0h12.384c.444,0,.89.014,1.332-.014a.915.915,0,0,0,.876-.878,1,1,0,0,0-.838-.974,3.606,3.606,0,0,0-.538-.036q-13.178,0-26.355,0a4.327,4.327,0,0,0-.57.03.95.95,0,0,0-.825.938.933.933,0,0,0,.88.912c.211.018.423.026.634.026q6.509,0,13.019,0m0-6.763q6.685,0,13.369,0a2.157,2.157,0,0,0,.6-.067.871.871,0,0,0,.585-1.079,1.063,1.063,0,0,0-1.179-.755q-13.338,0-26.676,0a1.9,1.9,0,0,0-.562.077.9.9,0,0,0-.662.81.826.826,0,0,0,.457.872,1.766,1.766,0,0,0,.735.137q6.669.011,13.338.005m-.031-13.572v.026q6.619,0,13.238,0a4.4,4.4,0,0,0,.569-.036.9.9,0,0,0,.077-1.784,8.819,8.819,0,0,0-1.233-.046q-12.4-.007-24.795-.01c-.455,0-.91-.015-1.365-.005a.962.962,0,0,0-.992.945.918.918,0,0,0,.944.91c.518.021,1.037,0,1.555,0h12" transform="translate(-141.128 1286.319)" fill="#abffff"/>
    <path id="Trazado_705815" data-name="Trazado 705815" d="M937.6,21.579h-.433c-1.5,0-3,.013-4.507.01-.771,0-.771-.012-.771-.768q0-2.221,0-4.442v-.356l5.765,5.452-.053.1" transform="translate(-220.434 1285.144)" fill="#fff"/>
    <path id="Trazado_705816" data-name="Trazado 705816" d="M871.59,69.179q-6.558,0-13.116,0a3.568,3.568,0,0,1-.694-.057.9.9,0,0,1-.729-.913.933.933,0,0,1,.771-.919,4.291,4.291,0,0,1,.7-.052q13.148,0,26.3,0a3.844,3.844,0,0,1,.569.039.934.934,0,0,1,.81.916.946.946,0,0,1-.731.921,3.3,3.3,0,0,1-.693.064q-6.59.005-13.179,0" transform="translate(-171.95 1251.966)" fill="#161615"/>
    <path id="Trazado_705817" data-name="Trazado 705817" d="M871.589,126.825H858.316a3.825,3.825,0,0,1-.476-.015.924.924,0,0,1-.814-.908.881.881,0,0,1,.769-.934,5.429,5.429,0,0,1,.79-.048q13.162,0,26.324,0a2.094,2.094,0,0,1,.713.107.921.921,0,0,1,.549.949.954.954,0,0,1-.834.832,3.9,3.9,0,0,1-.476.017H871.589" transform="translate(-171.933 1214.596)" fill="#161615"/>
    <path id="Trazado_705818" data-name="Trazado 705818" d="M871.6,107.587q-6.509,0-13.019,0c-.211,0-.423-.008-.634-.026a.933.933,0,0,1-.881-.912.951.951,0,0,1,.825-.938,4.269,4.269,0,0,1,.57-.03q13.178,0,26.355,0a3.616,3.616,0,0,1,.538.036,1,1,0,0,1,.838.974.915.915,0,0,1-.876.878c-.443.029-.888.015-1.332.015H871.6Z" transform="translate(-171.957 1227.059)" fill="#161615"/>
    <path id="Trazado_705819" data-name="Trazado 705819" d="M871.594,88.386q-6.669,0-13.338-.006a1.755,1.755,0,0,1-.735-.137.826.826,0,0,1-.457-.872.9.9,0,0,1,.662-.81,1.923,1.923,0,0,1,.562-.077q13.338-.005,26.676,0a1.063,1.063,0,0,1,1.179.755.871.871,0,0,1-.585,1.079,2.157,2.157,0,0,1-.6.068q-6.685.005-13.369,0" transform="translate(-171.954 1239.496)" fill="#161615"/>
    <path id="Trazado_705820" data-name="Trazado 705820" d="M871.57,49.928h-12c-.518,0-1.037.02-1.555,0a.918.918,0,0,1-.944-.91.962.962,0,0,1,.992-.945c.455-.01.91,0,1.365.005q12.4,0,24.795.01a8.82,8.82,0,0,1,1.233.046.9.9,0,0,1-.077,1.784,4.4,4.4,0,0,1-.569.036q-6.619,0-13.239,0v-.026" transform="translate(-171.961 1264.383)" fill="#161615"/>
    <path id="Trazado_705825" data-name="Trazado 705825" d="M763.418,218.992H738.9c-.37,0-.74.012-1.109,0a.9.9,0,0,1-.879-.861.936.936,0,0,1,.8-.975,3.664,3.664,0,0,1,.5-.028q25.074,0,50.149,0a7.389,7.389,0,0,1,.775.026.908.908,0,0,1,.806.936.879.879,0,0,1-.892.9c-1.59,0-3.18,0-4.771,0H763.418" transform="translate(-94.112 1154.853)" fill="#8d0a0a"/>
    <path id="Trazado_705826" data-name="Trazado 705826" d="M831.291,152.525a1.813,1.813,0,0,1-1.677,1.915,20.445,20.445,0,0,1-2.3,0,1.858,1.858,0,0,1-1.711-1.653c-.021-.173.018-.264.209-.264,1.819,0,3.639,0,5.478,0" transform="translate(-151.572 1196.709)" fill="#8d0a0a"/>
    <path id="Trazado_705827" data-name="Trazado 705827" d="M785.438,152.5c.85,0,1.7.007,2.55,0,.251,0,.326.077.284.325a1.855,1.855,0,0,1-1.76,1.6c-.728.035-1.46.032-2.188,0a1.891,1.891,0,0,1-1.74-1.595c-.038-.227.008-.333.277-.328.859.016,1.718.006,2.578.006Z" transform="translate(-123.696 1196.727)" fill="#8d0a0a"/>
    <path id="Trazado_705830" data-name="Trazado 705830" d="M756.792,246.472c-.462,0-.924.013-1.386,0a.9.9,0,0,1-.923-.7q-.394-1.3-.758-2.6a.9.9,0,0,1,.612-1.142.88.88,0,0,1,1.138.563c.2.565.349,1.146.5,1.725a.326.326,0,0,0,.384.289c.554-.019,1.109-.019,1.663-.014a1.015,1.015,0,0,1,1,.523.912.912,0,0,1-.734,1.35c-.247.025-.5.013-.748.015s-.5,0-.749,0v-.006" transform="translate(-104.982 1138.754)" fill="#161615"/>
    <path id="Trazado_705846" data-name="Trazado 705846" d="M966.914,191.208q0,3.855,0,7.71a.912.912,0,0,1-1.048,1.047q-3.356,0-6.711,0c-.75,0-1.1-.353-1.1-1.106q0-7.681,0-15.363c0-.838.343-1.17,1.184-1.169q3.212,0,6.425,0c.076,0,.152,0,.229,0a.933.933,0,0,1,1.006,1.025c.007.6,0,1.2,0,1.8q0,3.027,0,6.054Zm-1.791,6.987V184.068c-1.712,0-3.4,0-5.1,0-.2,0-.2.112-.2.261q0,6.825,0,13.65a1.513,1.513,0,0,0,.032.217Z" transform="translate(-237.39 1177.4)" fill="#161615"/>
    <path id="Trazado_705895" data-name="Trazado 705895" d="M381.79,55.475,371.6,27.795,384.337,22.7,388.8,55.475Z" transform="translate(284.779 1289.506)" fill="#abffff"/>
    <path id="Trazado_705813" data-name="Trazado 705813" d="M811.368,63.462c-.706.119-1.412.236-2.118.356q-4.032.687-8.064,1.377c-2.521.433-5.046.847-7.559,1.319A1.66,1.66,0,0,1,791.56,65.1c-.642-3.846-1.3-7.689-1.963-11.533q-.937-5.468-1.883-10.934-.841-4.906-1.674-9.812c-.478-2.781-.966-5.559-1.438-8.341-.044-.26-.127-.281-.351-.2q-4.748,1.634-9.5,3.25c-.245.083-.249.182-.175.388q1.495,4.142,2.98,8.288,1.849,5.142,3.7,10.285a1.5,1.5,0,0,1,.086.705.835.835,0,0,1-.759.7.782.782,0,0,1-.864-.4,6.645,6.645,0,0,1-.4-.961q-2.166-5.988-4.325-11.978c-.752-2.086-1.474-4.184-2.253-6.26a1.716,1.716,0,0,1,1.176-2.463q4.857-1.66,9.714-3.318c.716-.245.618-.074.5-.841-.134-.856-.3-1.707-.429-2.564A1.547,1.547,0,0,1,785,17.256c.734-.154,1.477-.261,2.217-.388q4.125-.708,8.251-1.411c.266-.045.353-.126.349-.423-.022-1.534-.035-3.069,0-4.6a1.6,1.6,0,0,1,1.792-1.692l27.439.007c.963,0,1.928.016,2.89-.012a1.8,1.8,0,0,1,1.372.536c1.321,1.267,2.651,2.526,3.972,3.794,1.244,1.194,2.477,2.4,3.725,3.593a1.732,1.732,0,0,1,.555,1.329q-.006,20.48,0,40.959a1.752,1.752,0,0,1-1.936,1.926c-2.784,0-5.569-.053-8.352,0-1.08.021-2.154.286-3.234.408a26.9,26.9,0,0,0-5.891,1.811c-5.088,1.8-10.162,3.643-15.242,5.468q-6.068,2.181-12.137,4.364a1.638,1.638,0,0,1-2.37-1.117q-3.6-10.016-7.2-20.034a3.453,3.453,0,0,1-.17-.608.9.9,0,0,1,1.712-.511c.224.535.413,1.085.61,1.632q2.855,7.945,5.708,15.891c.321.894.655,1.784.96,2.684.083.245.187.292.415.21,1.054-.378,2.113-.743,3.166-1.122q6.442-2.315,12.881-4.634,2.326-.837,4.655-1.665c.087-.031.169-.074.253-.112,0-.024-.008-.049-.012-.073m15.352-52.8H797.7c0,.1-.011.168-.011.24q0,11.715,0,23.43c0,.571.008,1.144-.018,1.714a.924.924,0,0,1-.9.863.881.881,0,0,1-.943-.8,5.681,5.681,0,0,1-.033-.76q0-8.524,0-17.049v-1.02L785.56,19.034,793.375,64.6c.508.039,21.219-3.575,21.555-3.773h-.218c-2.974.015-5.948.036-8.922.044q-4.1.011-8.193,0a1.7,1.7,0,0,1-1.751-1.356,4.135,4.135,0,0,1-.053-.791q0-8.874.007-17.747a6,6,0,0,1,.03-.7.891.891,0,0,1,.777-.8.865.865,0,0,1,.975.485,1.8,1.8,0,0,1,.1.68q0,8.985-.011,17.97c0,.112.011.225.017.334h37.966c0-.08.009-.132.009-.184q0-14.668,0-29.336c0-3.44-.005-6.879,0-10.318,0-.278-.071-.356-.355-.352-1.44.018-2.879.017-4.319.011-.74,0-1.483.005-2.219-.056a2.1,2.1,0,0,1-2.012-2.167c-.026-1.852-.027-3.7-.039-5.555,0-.1,0-.205,0-.325m7.655,6.195.053-.1L828.664,11.3v.356q0,2.221,0,4.442c0,.756,0,.766.771.768,1.5,0,3-.006,4.507-.01h.433" transform="translate(-117.21 1289.868)" fill="#161615"/>
    <path id="Trazado_705848" data-name="Trazado 705848" d="M968.362,201.395h-5.271a1.5,1.5,0,0,1-.032-.217q0-6.825,0-13.65c0-.149.006-.262.2-.261,1.693,0,3.385,0,5.1,0Z" transform="translate(-240.63 1174.2)" fill="#a03d3d"/>
    <path id="Trazado_705847" data-name="Trazado 705847" d="M895.4,126.48a2.887,2.887,0,0,1-2.784-1.575,3.241,3.241,0,0,1-.085-2.4,3.455,3.455,0,0,1,2.725-2.627,2.889,2.889,0,0,1,3.008,1,2.955,2.955,0,0,1,.424,2.716,3.554,3.554,0,0,1-2.495,2.756,6.264,6.264,0,0,1-.793.131m.016-1.788a.849.849,0,0,0,.862-.309,13.6,13.6,0,0,0,.823-1.485.8.8,0,0,0-.181-.849,1.455,1.455,0,0,0-2.141-.019,4.888,4.888,0,0,0-.56.987c-.424,1.066-.014,1.656,1.2,1.676" transform="translate(-194.812 1217.906)" fill="#161615"/>
    <path id="Trazado_705842" data-name="Trazado 705842" d="M930.192,249.9c.674.608,1.345,1.21,2.01,1.82a.348.348,0,0,1,.085.229c.009.409.005.818.007,1.227,0,.13-.022.209-.189.209-1.892,0-3.784,0-5.676.008a.709.709,0,0,1-.122-.044l3.885-3.449" transform="translate(-216.818 1133.619)" fill="#ffe8ce"/>
    <path id="Trazado_705841" data-name="Trazado 705841" d="M1002.057,253.386l3.91-3.467,3.87,3.467Z" transform="translate(-265.895 1133.609)" fill="#a03d3d"/>
    <path id="Trazado_705840" data-name="Trazado 705840" d="M1000.283,138.531l4.544-6.656,4.547,6.656Z" transform="translate(-264.746 1210.087)" fill="#a03d3d"/>
    <path id="Trazado_705839" data-name="Trazado 705839" d="M981.658,119.2v1.985H965.946c0-.619-.006-1.233.011-1.847,0-.052.156-.141.24-.142.542-.006,1.085.014,1.627.014q6.854-.007,13.708-.017c.037,0,.073,0,.126.007" transform="translate(-242.499 1218.303)" fill="#a03d3d"/>
    <path id="Trazado_705838" data-name="Trazado 705838" d="M905.813,104.2v2.022h-.5q-7.423,0-14.846.005c-.26,0-.348-.057-.333-.333.025-.455,0-.913-.006-1.369,0-.1,0-.2,0-.325Z" transform="translate(-193.376 1228.02)" fill="#ffe8ce"/>
    <path id="Trazado_705837" data-name="Trazado 705837" d="M950.491,137.37l.369-.537c1.451-2.119,2.907-4.234,4.348-6.36a.821.821,0,0,1,.772-.431c4.712.018,9.424.014,14.136.016h.74a1.947,1.947,0,0,1-.1.189q-2.376,3.491-4.762,6.976a.488.488,0,0,1-.358.141q-3.884.012-7.768.006h-7.378Z" transform="translate(-232.487 1211.274)" fill="#a03d3d"/>
    <path id="Trazado_705835" data-name="Trazado 705835" d="M927.475,117.794c.234.459.443.882.663,1.3q1.9,3.577,3.8,7.148a.36.36,0,0,1-.046.432c-.69,1.059-1.371,2.124-2.061,3.183a1.8,1.8,0,0,0-.271,1.029q.005,7.253,0,14.506,0,8.823.007,17.647c0,.255,0,.509,0,.826-.106-.076-.167-.111-.216-.157-.293-.272-.577-.553-.876-.819a3.393,3.393,0,0,0-.524-.391.824.824,0,0,0-1.224.12l-4.406,3.9c-.054.048-.114.089-.208.162v-.425q0-17.333,0-34.666c0-1.142-.024-2.284-.024-3.426a1.082,1.082,0,0,1,.116-.488q2.547-4.813,5.109-9.619c.039-.073.089-.14.163-.256" transform="translate(-214.085 1219.21)" fill="#ffe8ce"/>
    <path id="Trazado_705834" data-name="Trazado 705834" d="M1008.64,155.854v35.505c-.115-.1-.189-.16-.261-.223-1.441-1.272-2.877-2.55-4.326-3.814-.625-.545-.961-.524-1.584.033l-.042.038-4.327,3.811c-.034.03-.07.056-.154.123v-.456l-.01-34.574a1.313,1.313,0,0,0,0-.171c-.028-.211.055-.278.27-.276.942.011,1.884,0,2.826,0h7.605" transform="translate(-263.223 1194.554)" fill="#a03d3d"/>
    <path id="Trazado_705833" data-name="Trazado 705833" d="M948.369,192.473v-36.6c.1,0,.18-.012.262-.012l15.021,0c.417,0,.421,0,.421.409q.01,13.349.019,26.7,0,4.269,0,8.538c0,.229-.03.458-.014.685s-.062.269-.274.269q-5.269-.012-10.537-.007c-1.561,0-3.122.013-4.683.02h-.214m12.266-18.411h-.012q0-3.027,0-6.054c0-.6.009-1.2,0-1.8a.933.933,0,0,0-1.006-1.025c-.076,0-.152,0-.228,0q-3.212,0-6.425,0c-.841,0-1.184.331-1.184,1.169q0,7.681,0,15.363c0,.754.345,1.105,1.1,1.106q3.356,0,6.711,0a.912.912,0,0,0,1.048-1.048q0-3.855,0-7.71" transform="translate(-231.112 1194.547)" fill="#a03d3d"/>
    <path id="Trazado_705829" data-name="Trazado 705829" d="M788.926,206.5H784.6a.356.356,0,0,1,0-.105c.182-.541.353-1.087.554-1.62a1.7,1.7,0,0,1,3.173,0c.21.558.39,1.128.6,1.728" transform="translate(-125.009 1163.563)" fill="#8d0a0a"/>
    <path id="Trazado_705828" data-name="Trazado 705828" d="M827.517,206.491c.227-.646.409-1.277.669-1.874a1.554,1.554,0,0,1,1.563-.939,1.514,1.514,0,0,1,1.469.948c.258.6.444,1.225.67,1.865Z" transform="translate(-152.815 1163.567)" fill="#8d0a0a"/>
    <path id="Trazado_705823" data-name="Trazado 705823" d="M791.784,227.94c-.261.872-.521,1.707-.761,2.548q-1.114,3.912-2.217,7.827a3.95,3.95,0,0,1-.154.444.784.784,0,0,1-.649.5,4.246,4.246,0,0,1-.58.027q-3.883,0-7.766,0c-.093,0-.185,0-.278,0a.968.968,0,0,1-1.057-.823c-.3-1.036-.594-2.075-.892-3.112-.058-.2-.114-.41-.19-.607a1.846,1.846,0,0,0-3.52.067c-.338,1.082-.639,2.176-.956,3.265-.02.071-.037.143-.057.214a1.11,1.11,0,0,1-1.305,1l-7.96,0a1.039,1.039,0,0,1-1.209-.86c-.354-1.136-.671-2.282-1-3.425a1.953,1.953,0,0,0-1.231-1.4,1.752,1.752,0,0,0-2.266.942c-.281.7-.454,1.44-.668,2.165-.172.584-.327,1.173-.5,1.755a.964.964,0,0,1-1.11.82q-2.385,0-4.771,0-1.636,0-3.273.006c-.813,0-1.1-.188-1.325-.969q-1.258-4.359-2.5-8.724c-.154-.539-.306-1.079-.469-1.656Zm-41.839,9.437v.006c.25,0,.5,0,.749,0s.5.01.748-.015a.912.912,0,0,0,.735-1.35,1.015,1.015,0,0,0-1-.523c-.555-.005-1.109,0-1.663.014a.326.326,0,0,1-.385-.289c-.153-.579-.305-1.16-.5-1.725a.88.88,0,0,0-1.138-.563.9.9,0,0,0-.612,1.142q.362,1.306.758,2.6a.9.9,0,0,0,.923.7c.462.016.924,0,1.386,0" transform="translate(-98.135 1147.849)" fill="#8d0a0a"/>
    <path id="Trazado_705822" data-name="Trazado 705822" d="M787.92,152.342a37.209,37.209,0,0,1,3.792.223,4.538,4.538,0,0,1,3.775,4.541q0,7.764,0,15.528c0,.192,0,.384,0,.6-.1.005-.189.013-.278.013-2.543,0-5.085,0-7.628.006a.323.323,0,0,1-.365-.27c-.226-.7-.455-1.4-.709-2.1a3.524,3.524,0,0,0-5.81-1.3,3.816,3.816,0,0,0-.924,1.526c-.22.646-.449,1.289-.664,1.936a.248.248,0,0,1-.274.2q-3.231-.007-6.463,0c-.171,0-.218-.085-.263-.218-.236-.689-.47-1.379-.719-2.064a3.551,3.551,0,0,0-5.743-1.528,3.742,3.742,0,0,0-1.022,1.654c-.223.655-.444,1.31-.655,1.969a.224.224,0,0,1-.252.189q-3.939-.008-7.877-.008a.96.96,0,0,1-.112-.017v-.37q0-7.57-.01-15.14a5.21,5.21,0,0,1,.362-2.386,4.647,4.647,0,0,1,4.08-2.881c1.03-.053,2.066-.01,3.031-.01a13.061,13.061,0,0,0,.55,1.678,3.48,3.48,0,0,0,3.12,2.055,17.624,17.624,0,0,0,2.466-.012,3.647,3.647,0,0,0,3.4-3.365c.049-.414-.054-.394.427-.392q2.524.007,5.048,0c.2,0,.272.045.287.256a3.69,3.69,0,0,0,3.1,3.484,2.116,2.116,0,0,0,.386.035c.813,0,1.628.03,2.44-.008a3.672,3.672,0,0,0,3.463-3.332c.013-.136.028-.273.051-.5" transform="translate(-106.295 1196.827)" fill="#ffdbdb"/>
    <path id="Trazado_705821" data-name="Trazado 705821" d="M767.938,176.182c-.32,1.126-.653,2.249-.958,3.378a2.9,2.9,0,0,1-2.928,2.349c-2.719.005-5.437-.023-8.156.015a3,3,0,0,1-2.966-2.234c-.284-1.1-.619-2.183-.932-3.274-.025-.085-.055-.169-.108-.329-.072.21-.127.351-.169.5-.313,1.09-.6,2.188-.94,3.271a2.78,2.78,0,0,1-2.8,2.055q-4.161.013-8.322,0a2.7,2.7,0,0,1-2.745-2c-.559-1.835-1.068-3.686-1.6-5.531-.538-1.88-1.077-3.761-1.6-5.644-.053-.188-.174-.237-.323-.294a2.762,2.762,0,0,1-1.863-2.628,2.916,2.916,0,0,1,2.654-2.848c.167-.02.216-.068.215-.235q-.017-3.854-.023-7.709c0-3-.042-6.009.006-9.012a9.526,9.526,0,0,1,9.8-9.549q15.9,0,31.791,0a9.178,9.178,0,0,1,4.836,1.315,9.338,9.338,0,0,1,4.591,7,12.3,12.3,0,0,1,.073,1.659q0,8.181-.008,16.361a1.327,1.327,0,0,0,.016.133c.139.026.281.057.423.079a2.763,2.763,0,0,1,2.421,2.6,2.656,2.656,0,0,1-1.764,2.786.676.676,0,0,0-.448.521q-1.535,5.4-3.093,10.8a2.773,2.773,0,0,1-2.927,2.185q-4.147.021-8.295,0a2.691,2.691,0,0,1-2.66-1.923c-.363-1.123-.661-2.266-.989-3.4-.04-.138-.09-.272-.136-.408l-.073,0m4.311-34.127c-.023.225-.038.361-.051.5a3.671,3.671,0,0,1-3.463,3.332c-.811.038-1.626.01-2.44.008a2.119,2.119,0,0,1-.386-.035,3.69,3.69,0,0,1-3.1-3.484c-.015-.211-.089-.256-.287-.256q-2.524.009-5.048,0c-.481,0-.378-.021-.426.393a3.647,3.647,0,0,1-3.4,3.365,17.629,17.629,0,0,1-2.466.012,3.48,3.48,0,0,1-3.12-2.055,13.059,13.059,0,0,1-.55-1.678c-.966,0-2-.044-3.031.009a4.647,4.647,0,0,0-4.08,2.881,5.2,5.2,0,0,0-.361,2.386q.018,7.57.01,15.14v.371a1.048,1.048,0,0,0,.112.017q3.939,0,7.877.008a.224.224,0,0,0,.252-.189c.211-.659.431-1.314.655-1.969a3.743,3.743,0,0,1,1.022-1.654,3.551,3.551,0,0,1,5.743,1.527c.248.685.482,1.375.719,2.064.045.132.093.218.263.218q3.231-.009,6.463,0a.247.247,0,0,0,.273-.2c.215-.648.444-1.291.664-1.936a3.816,3.816,0,0,1,.924-1.526,3.524,3.524,0,0,1,5.81,1.3c.254.693.483,1.394.709,2.1a.323.323,0,0,0,.366.27c2.543-.008,5.085-.005,7.628-.006.089,0,.179-.008.279-.013v-.6q0-7.764,0-15.528a4.538,4.538,0,0,0-3.775-4.541,37.2,37.2,0,0,0-3.792-.223m12.024,26.62H735.608c.163.577.315,1.117.469,1.656q1.248,4.362,2.5,8.724c.225.781.513.972,1.325.969q1.636-.006,3.273-.006,2.385,0,4.77,0a.964.964,0,0,0,1.11-.819c.176-.583.331-1.172.5-1.755.214-.725.387-1.467.668-2.165a1.752,1.752,0,0,1,2.266-.942,1.953,1.953,0,0,1,1.231,1.4c.33,1.143.647,2.29,1,3.426a1.039,1.039,0,0,0,1.209.86l7.96,0a1.11,1.11,0,0,0,1.305-1c.019-.071.036-.143.057-.214.317-1.089.618-2.182.956-3.265a1.846,1.846,0,0,1,3.52-.067c.076.2.131.4.19.607.3,1.037.591,2.076.892,3.112a.969.969,0,0,0,1.057.824c.092,0,.185,0,.278,0q3.883,0,7.766,0a4.248,4.248,0,0,0,.58-.027.784.784,0,0,0,.649-.5,4.007,4.007,0,0,0,.154-.444q1.109-3.913,2.216-7.826c.24-.842.5-1.677.761-2.548m-.666-5.73v-.625q0-7.944,0-15.888c0-.379,0-.759-.029-1.136a7.586,7.586,0,0,0-7.881-6.946q-15.6.013-31.2.009a11.6,11.6,0,0,0-2.044.125A7.248,7.248,0,0,0,737.374,142a7.065,7.065,0,0,0-1.114,3.746q.007,8.388,0,16.776v.414h1.906v-.8q0-7.556,0-15.111a6.734,6.734,0,0,1,.141-1.456,6.6,6.6,0,0,1,6.484-5.3c3.088-.042,6.176-.017,9.264-.017q10.4,0,20.8,0a6.66,6.66,0,0,1,6.821,6.551c.027,5.287.015,10.574.019,15.86v.282Zm-23.677,3.786h20.858c1.59,0,3.18.008,4.771,0a.88.88,0,0,0,.892-.9.908.908,0,0,0-.806-.936,7.3,7.3,0,0,0-.776-.026q-25.074,0-50.148,0a3.667,3.667,0,0,0-.5.028.936.936,0,0,0-.8.975.9.9,0,0,0,.88.861c.369.011.74,0,1.109,0h24.52m10.413-24.61c-1.839,0-3.658,0-5.478,0-.192,0-.231.091-.209.264a1.858,1.858,0,0,0,1.711,1.653,20.6,20.6,0,0,0,2.3,0,1.813,1.813,0,0,0,1.677-1.915m-17.977,0v0c-.859,0-1.719.01-2.578-.006-.268,0-.315.1-.277.328a1.891,1.891,0,0,0,1.741,1.6c.728.036,1.46.038,2.188,0a1.855,1.855,0,0,0,1.76-1.6c.042-.248-.033-.329-.284-.325-.85.011-1.7,0-2.55,0m12.96,20.827H769.7c-.227-.64-.412-1.268-.671-1.865a1.514,1.514,0,0,0-1.469-.948,1.555,1.555,0,0,0-1.563.939c-.26.6-.442,1.228-.669,1.874m-10.785.008c-.206-.6-.386-1.169-.6-1.728a1.7,1.7,0,0,0-3.173,0c-.2.534-.372,1.079-.554,1.62a.358.358,0,0,0,0,.105Z" transform="translate(-90.624 1207.114)" fill="#161615"/>
    <path id="Trazado_705836" data-name="Trazado 705836" d="M874.225,124.865c.364-.692.7-1.328,1.036-1.966q2.044-3.885,4.084-7.774a.365.365,0,0,1,.364-.248q3.512.022,7.024.027,3.641.006,7.282,0h.974c-.293.533-.568,1.018-.829,1.511q-2.185,4.133-4.359,8.272a.369.369,0,0,1-.395.2q-2.97,0-5.94,0-4.383,0-8.767,0c-.141,0-.282-.012-.475-.02m9.436-1.578a6.263,6.263,0,0,0,.793-.131,3.555,3.555,0,0,0,2.495-2.756,2.954,2.954,0,0,0-.424-2.716,2.889,2.889,0,0,0-3.008-1,3.454,3.454,0,0,0-2.725,2.627,3.239,3.239,0,0,0,.085,2.4,2.886,2.886,0,0,0,2.784,1.576" transform="translate(-183.076 1221.1)" fill="#ffe8ce"/>
    <path id="Trazado_705849" data-name="Trazado 705849" d="M898.567,127.928c-1.21-.02-1.62-.61-1.2-1.676a4.885,4.885,0,0,1,.56-.987,1.455,1.455,0,0,1,2.141.019.8.8,0,0,1,.181.849,13.633,13.633,0,0,1-.823,1.485.849.849,0,0,1-.862.309" transform="translate(-197.966 1214.669)" fill="#ffe8ce"/>
    <path id="Trazado_705824" data-name="Trazado 705824" d="M792.319,166.417h-1.908c0-.1,0-.193,0-.282,0-5.287.008-10.574-.018-15.86a6.66,6.66,0,0,0-6.821-6.551q-10.4.009-20.8,0c-3.088,0-6.177-.025-9.264.017a6.6,6.6,0,0,0-6.484,5.3,6.745,6.745,0,0,0-.142,1.456q-.012,7.556,0,15.111v.8h-1.905v-.414q0-8.388,0-16.776a7.061,7.061,0,0,1,1.114-3.746,7.248,7.248,0,0,1,5.075-3.515,11.64,11.64,0,0,1,2.044-.125q15.6-.011,31.2-.009a7.586,7.586,0,0,1,7.881,6.946c.029.377.028.757.028,1.136q0,7.944,0,15.888v.625" transform="translate(-99.336 1203.643)" fill="#8d0a0a"/>
    <path id="Trazado_705831" data-name="Trazado 705831" d="M897.619,112.731c.866-1.266,1.7-2.471,2.514-3.687a.983.983,0,0,0,.125-.512c.01-.942,0-1.885,0-2.827a3.134,3.134,0,0,1,.035-.511.82.82,0,0,1,.691-.7,3.585,3.585,0,0,1,.6-.043q8.4-.006,16.792-.007c.769,0,1.119.349,1.118,1.116,0,1.018-.017,2.037,0,3.055a1.08,1.08,0,0,0,.2.545c.887,1.318,1.788,2.627,2.684,3.938.993,1.453,1.982,2.908,2.981,4.358a2.074,2.074,0,0,1,.376,1.227q-.011,18.79-.007,37.581a1.911,1.911,0,0,1-.026.4.8.8,0,0,1-.889.739c-1.856.021-3.712.048-5.568.05q-14.051.02-28.1.027-9.71,0-19.419-.024c-1.018,0-2.037.008-3.056.012-.133,0-.267,0-.4-.009a.869.869,0,0,1-.912-.975c0-2.265.012-4.531,0-6.8-.011-3.065-.043-6.13-.054-9.195q-.04-10.808-.062-21.616c0-1.093.057-2.188.125-3.28a2.154,2.154,0,0,1,.274-.827c1.108-2.1,2.23-4.2,3.347-6.293.791-1.485,1.578-2.972,2.375-4.453a1.762,1.762,0,0,0,.212-.9c-.017-.97-.017-1.941-.006-2.912.009-.732.337-1.052,1.075-1.07.466-.012.933,0,1.4,0l15.593,0a2.306,2.306,0,0,1,.4.026.8.8,0,0,1,.74.808c.023,1.056,0,2.112.025,3.168a1.952,1.952,0,0,0,.177.843c1.447,2.75,2.915,5.49,4.376,8.233.083.156.162.315.27.524m-12.8,42.966v-.425q0-14.892,0-29.784,0-4.383,0-8.767c0-.2-.053-.266-.256-.254-.265.016-.532,0-.8,0q-7.226-.008-14.451-.019c-.189,0-.25.055-.246.243.011.524.007,1.047.007,1.571q0,18.562-.006,37.124c0,.277.075.357.338.314a2.564,2.564,0,0,1,.4,0l13.451,0h1.559m10.989.02h.214c1.561-.007,3.122-.019,4.683-.019q5.269,0,10.537.007c.212,0,.289-.05.275-.269s.014-.456.014-.684q0-4.269,0-8.538-.008-13.349-.019-26.7c0-.408,0-.409-.421-.409l-15.021,0c-.083,0-.166.007-.262.012Zm28.16-36.612h-7.605c-.942,0-1.884.006-2.826,0-.216,0-.3.065-.27.276a1.324,1.324,0,0,1,0,.171l.01,34.574v.456c.084-.067.12-.093.154-.123l4.327-3.811.042-.038c.624-.557.96-.578,1.584-.033,1.448,1.263,2.884,2.541,4.325,3.813.072.064.146.125.261.223ZM891.94,105.7c-.074.115-.124.183-.163.256q-2.558,4.808-5.109,9.619a1.076,1.076,0,0,0-.115.488c0,1.142.024,2.284.024,3.426q0,17.332,0,34.666v.425c.094-.073.154-.115.207-.162l4.407-3.9a.824.824,0,0,1,1.224-.12,3.375,3.375,0,0,1,.524.391c.3.265.583.546.876.819a2.658,2.658,0,0,0,.217.157v-.826q0-8.823-.007-17.647,0-7.253,0-14.506a1.806,1.806,0,0,1,.271-1.029c.69-1.059,1.371-2.124,2.061-3.183a.36.36,0,0,0,.046-.432q-1.913-3.568-3.8-7.148c-.22-.416-.429-.838-.663-1.3m-22.241,8.96c.193.009.334.02.475.02q4.383,0,8.767.005,2.97,0,5.94,0a.369.369,0,0,0,.395-.2q2.172-4.14,4.359-8.272c.261-.493.536-.978.828-1.511h-.974q-3.641,0-7.282,0-3.512-.006-7.024-.027a.366.366,0,0,0-.364.248q-2.037,3.89-4.084,7.774c-.335.637-.672,1.274-1.036,1.966m26.855,2.68h7.378q3.884,0,7.768-.006a.489.489,0,0,0,.358-.141q2.392-3.48,4.762-6.976a1.957,1.957,0,0,0,.1-.19h-.74c-4.712,0-9.424,0-14.136-.015a.82.82,0,0,0-.772.431c-1.441,2.126-2.9,4.241-4.348,6.36l-.369.537m-5.568-16.429H875.3c0,.121,0,.223,0,.325,0,.456.03.914.006,1.369-.015.276.074.333.333.333q7.423-.011,14.846-.005h.5Zm26.722,5.289c-.053,0-.09-.008-.126-.008q-6.854.009-13.708.017c-.542,0-1.085-.02-1.627-.014-.084,0-.238.09-.24.142-.017.614-.011,1.228-.011,1.847h15.712Zm-3.621,11.114h9.091l-4.547-6.656-4.544,6.656m.624,38.377h7.78l-3.87-3.467-3.91,3.467m-22.788-3.473-3.885,3.449a.706.706,0,0,0,.122.044c1.892,0,3.784-.01,5.676-.008.167,0,.19-.08.189-.209,0-.409,0-.818-.007-1.227a.348.348,0,0,0-.084-.229c-.664-.61-1.335-1.211-2.01-1.82" transform="translate(-178.55 1231.303)" fill="#161615"/>
    <path id="Trazado_705832" data-name="Trazado 705832" d="M888.188,187.552h-1.559l-13.451,0a2.517,2.517,0,0,0-.4,0c-.263.043-.337-.038-.337-.314q.011-18.562.006-37.124c0-.524,0-1.047-.007-1.57,0-.188.057-.243.246-.243q7.225.014,14.45.019c.267,0,.534.02.8,0,.2-.012.256.049.256.254q-.009,4.383,0,8.767,0,14.892,0,29.784Zm-7.9-23.505q-2,0-4,0a.855.855,0,0,0-.8.5.809.809,0,0,0,.07.863,1,1,0,0,0,.925.4q3.839,0,7.677,0a1.756,1.756,0,0,0,.4-.045.83.83,0,0,0,.567-1.18.9.9,0,0,0-.9-.535h-3.939m.059-2.691v0q1.87,0,3.739,0a2.712,2.712,0,0,0,.538-.036.8.8,0,0,0,.674-.832.86.86,0,0,0-.7-.853,3.326,3.326,0,0,0-.6-.035q-3.54,0-7.079,0c-.219,0-.439-.013-.656,0a.86.86,0,0,0-.809.65.818.818,0,0,0,.358.941,1.409,1.409,0,0,0,.649.154c1.294.014,2.587.007,3.881.007m-1.36,8.859c.884,0,1.768.006,2.652,0a.894.894,0,0,0,.9-.821.875.875,0,0,0-.78-.9,3.3,3.3,0,0,0-.482-.037q-2.353,0-4.7,0a1.312,1.312,0,0,0-.506.05,1.252,1.252,0,0,0-.537.379.871.871,0,0,0,.805,1.325c.884.011,1.768,0,2.652,0" transform="translate(-181.919 1199.447)" fill="#ffe8ce"/>
    <path id="Trazado_705845" data-name="Trazado 705845" d="M884.4,207.3c-.884,0-1.768.008-2.652,0a.871.871,0,0,1-.805-1.325,1.252,1.252,0,0,1,.537-.379,1.311,1.311,0,0,1,.506-.05q2.353-.006,4.7,0a3.308,3.308,0,0,1,.482.038.874.874,0,0,1,.78.9.894.894,0,0,1-.9.821c-.884.008-1.768,0-2.652,0" transform="translate(-187.336 1162.359)" fill="#161615"/>
    <path id="Trazado_705844" data-name="Trazado 705844" d="M885.835,182.145c-1.294,0-2.588.007-3.881-.007a1.407,1.407,0,0,1-.649-.154.817.817,0,0,1-.358-.941.86.86,0,0,1,.809-.65c.218-.016.437,0,.656,0q3.539,0,7.079,0a3.33,3.33,0,0,1,.6.035.86.86,0,0,1,.7.853.8.8,0,0,1-.674.832,2.714,2.714,0,0,1-.538.036q-1.869,0-3.739,0v0" transform="translate(-187.41 1178.658)" fill="#161615"/>
    <path id="Trazado_705843" data-name="Trazado 705843" d="M885.717,193.02h3.939a.9.9,0,0,1,.9.535.83.83,0,0,1-.568,1.18,1.754,1.754,0,0,1-.4.045q-3.839,0-7.678,0a1,1,0,0,1-.924-.4.809.809,0,0,1-.07-.863.855.855,0,0,1,.8-.5q2,0,4,0" transform="translate(-187.351 1170.473)" fill="#161615"/>
  </g>
</svg>
