<svg xmlns="http://www.w3.org/2000/svg" width="111.086" height="111.086" viewBox="0 0 111.086 111.086">
  <g id="Grupo_992319" data-name="Grupo 992319" transform="translate(-517.903 -1295.525)">
    <path id="Trazado_705850" data-name="Trazado 705850" d="M493.308,55.543A55.543,55.543,0,1,1,437.765,0a55.543,55.543,0,0,1,55.543,55.543" transform="translate(135.681 1295.525)" fill="#ffc403"/>
    <path id="Trazado_705851" data-name="Trazado 705851" d="M446.588,127.205c-1.215,2.809-2.423,5.625-3.659,8.428a.59.59,0,0,0,.16.789c.591.561,1.16,1.145,1.795,1.776.433-1.031.827-1.981,1.232-2.927q1.008-2.354,2.036-4.7c.048-.11.253-.261.322-.234.769.307,1.526.645,2.323.99-.592,1.415-1.156,2.787-1.74,4.15q-.957,2.234-1.95,4.453a.461.461,0,0,0,.11.611c.651.631,1.289,1.275,1.92,1.926.2.208.334.239.563.007,1.539-1.562,3.133-3.074,4.638-4.668a4.089,4.089,0,0,1,6.708.962c.479.9.869,1.848,1.322,2.762a2.934,2.934,0,0,0,.449.537c.171-.16.4-.289.5-.486.4-.79.761-1.6,1.159-2.452a4.078,4.078,0,0,1-3.394-4.105c-.055-2.3,1.291-3.617,3.465-4.222l-1.179-3.024a9.775,9.775,0,0,1-3.353,1.39,8.075,8.075,0,0,1-5.465-.9c-.853-.448-1.714-.881-2.567-1.33a1.438,1.438,0,0,1-.85-2.017,21.644,21.644,0,0,1,9.542-12.237,10.635,10.635,0,0,1,10.078-.661c.094.039.188.082.284.114a.654.654,0,0,0,.165,0,.866.866,0,0,0,0-.2,13.463,13.463,0,0,0-7.554-9.241,3.468,3.468,0,0,1-.745-.451,1.2,1.2,0,0,1-.3-1.544,2.552,2.552,0,0,1,.274-.447c1.764-2.257,3.524-4.518,5.3-6.764a1.355,1.355,0,0,1,2.174-.164,18.642,18.642,0,0,1,3.409,4.156,19.319,19.319,0,0,1,2.711,7.846c.011.085.032.169.055.291a1.248,1.248,0,0,0,.236-.117,12.586,12.586,0,0,1,8.112-2.825c1.579-.018,3.159-.011,4.738,0a1.533,1.533,0,0,1,1.685,1.739,13.043,13.043,0,0,1-3.147,7.959c-.29.327-.57.664-.891,1.038a2.955,2.955,0,0,0,.348.295,21.889,21.889,0,0,1,8.11,11.338,1.331,1.331,0,0,1-.745,1.827,36.7,36.7,0,0,1-4.389,2.066,7.8,7.8,0,0,1-7.117-1.154l-1.176,3.024a4.256,4.256,0,0,1,.148,8.324,9.3,9.3,0,0,0,1.211,2.71c.063.1.279.131.428.145a7.643,7.643,0,0,1,3.005.712c.536.292,1.04.643,1.545.986.725.493,1.457.979,2.152,1.512a1.212,1.212,0,0,1,.386,1.8c-1.777,2.85-3.482,5.753-5.411,8.5a7.9,7.9,0,0,1-7,3.316,8.495,8.495,0,0,1-5.1-2c-.078-.062-.155-.127-.254-.208a8.7,8.7,0,0,1-6.693,2.148,8.559,8.559,0,0,1-6.012-3.7,10.256,10.256,0,0,1-.7.775,11.161,11.161,0,0,1-8.271,2.969,17.806,17.806,0,0,1-8.33-2.575,4.068,4.068,0,0,1-.91-6.537c1.564-1.639,3.2-3.212,4.8-4.812a1.267,1.267,0,0,1,.246-.139c-.314-.329-.558-.593-.81-.849-.482-.489-.978-.967-1.451-1.465a.42.42,0,0,0-.566-.1c-2.85,1.235-5.707,2.455-8.622,3.7-.237-.548-.472-1.076-.7-1.609-.123-.293-.38-.649-.3-.874s.516-.305.8-.429c2.306-.989,4.615-1.974,6.964-2.978a1.391,1.391,0,0,0-.166-.263c-.561-.576-1.12-1.154-1.7-1.708a.5.5,0,0,0-.443-.06q-4.272,1.815-8.533,3.655a.9.9,0,0,1-.154.02c-.222-.511-.457-1.039-.681-1.572-.376-.894-.383-.919.476-1.289,2.265-.976,4.54-1.93,6.811-2.893l.218-.091a4.767,4.767,0,0,0-.3-.377c-.511-.523-1.037-1.031-1.539-1.563a.417.417,0,0,0-.565-.1q-4.214,1.839-8.44,3.649a1.522,1.522,0,0,1-.187.045c-.218-.5-.444-1-.655-1.5-.134-.32-.411-.71-.321-.957s.56-.342.875-.477c2.279-.979,4.561-1.95,6.884-2.942a1.416,1.416,0,0,0-.165-.262c-.561-.576-1.119-1.156-1.7-1.71a.508.508,0,0,0-.448-.055q-4.272,1.813-8.535,3.65a.9.9,0,0,1-.152.021c-.235-.539-.482-1.094-.72-1.653-.343-.8-.348-.821.439-1.164,2.34-1.02,4.687-2.025,7.084-3.059a3.625,3.625,0,0,0-.275-.347c-1.559-1.564-3.116-3.13-4.688-4.68a1.294,1.294,0,0,0-.64-.324q-6.032-1.106-12.069-2.186c-.761-.138-1.52-.289-2.282-.427a1.554,1.554,0,0,1-1.437-1.361c-.03-.66.444-1.2,1.295-1.444,2.763-.793,5.527-1.586,8.3-2.36a.841.841,0,0,0,.666-.676c.768-2.755,1.562-5.5,2.354-8.252.259-.9.793-1.374,1.456-1.325.737.055,1.185.534,1.357,1.481.852,4.7,1.7,9.4,2.559,14.1a1.709,1.709,0,0,0,.4.85c1.583,1.622,3.194,3.217,4.8,4.818a1.546,1.546,0,0,0,.234.148c.4-.951.791-1.886,1.19-2.817.678-1.583,1.358-3.165,2.052-4.741.049-.11.252-.264.321-.237.771.3,1.53.637,2.324.977-.15.376-.276.713-.418,1.043q-1.625,3.782-3.261,7.559a.489.489,0,0,0,.119.645c.6.593,1.173,1.216,1.834,1.909.461-1.1.855-2.045,1.26-2.99q1.008-2.354,2.036-4.7c.048-.109.255-.257.325-.229.769.3,1.527.641,2.327.985-.7,1.67-1.382,3.3-2.075,4.915-.534,1.248-1.09,2.487-1.626,3.734-.05.118-.089.327-.027.393.64.675,1.3,1.33,2.018,2.05.442-1.057.838-2.023,1.249-2.983q1-2.335,2.024-4.658c.047-.107.256-.251.328-.223.745.3,1.476.624,2.211.945.024.01.037.044.106.13m20.034-13.3a7.19,7.19,0,0,0-4.734,1.284,19.81,19.81,0,0,0-7.736,9.388c-.111.268-.034.4.206.516.684.329,1.34.729,2.047.994a5.482,5.482,0,0,0,5.868-.919,16.626,16.626,0,0,1,12.411-4.161,15.914,15.914,0,0,1,8.049,2.8c.733.505,1.414,1.086,2.137,1.607a5.288,5.288,0,0,0,4.484.957,22.918,22.918,0,0,0,3.105-1.268c.3-.123.322-.287.208-.583a19.6,19.6,0,0,0-7.58-9.242.547.547,0,0,0-.638-.026,11.732,11.732,0,0,1-4.9,1.378c-1.781.064-3.566.035-5.348.094a3.148,3.148,0,0,1-2.12-.669c-.208-.161-.434-.3-.647-.452a7.263,7.263,0,0,0-4.818-1.7m14.305,28.747c-.055-.117-.088-.2-.128-.273a15.746,15.746,0,0,1-1.048-12.646c.369-1.12.855-2.2,1.3-3.3.093-.23.106-.371-.147-.535a13.976,13.976,0,0,0-10.087-1.938,13.459,13.459,0,0,0-4.895,1.941c-.234.142-.24.278-.148.5.268.647.511,1.3.779,1.951a15.8,15.8,0,0,1,.541,11.544c-.325.944-.762,1.85-1.159,2.8a6.837,6.837,0,0,1,2.755,2.263c.316.455.582.944.87,1.418a2.389,2.389,0,0,0,2.178,1.227c1.024,0,2.048-.03,3.07.01a2.6,2.6,0,0,0,2.637-1.511,7.487,7.487,0,0,1,3.24-3.287,2.94,2.94,0,0,0,.245-.167m-17.616,2.124c.027.26.034.447.067.629a10.932,10.932,0,0,1-.662,6.442,1.418,1.418,0,0,0,.194,1.575,5.865,5.865,0,0,0,6.332,2.426,5.948,5.948,0,0,0,2.574-1.52,2.182,2.182,0,0,1,3.053-.123c.207.162.4.339.6.508a5.6,5.6,0,0,0,8.237-1.008c1.517-2.2,2.879-4.5,4.294-6.771a.428.428,0,0,0-.087-.408c-.586-.41-1.178-.817-1.8-1.169a4.322,4.322,0,0,0-4.274-.05,4.96,4.96,0,0,0-2.091,2.232,5.015,5.015,0,0,1-4.1,2.777,37.747,37.747,0,0,1-4.159.067,4.668,4.668,0,0,1-3.606-1.717,12.731,12.731,0,0,1-1.045-1.561,4.855,4.855,0,0,0-3.527-2.33m-11.28,11.293c.7-.071,1.4-.1,2.084-.221a8.21,8.21,0,0,0,6.583-6.887,14.238,14.238,0,0,0-2.185-9.112,1.286,1.286,0,0,0-1.026-.59c-.7-.087-1.1.383-1.522.806q-5.541,5.563-11.076,11.132a7.476,7.476,0,0,0-.576.6,1.277,1.277,0,0,0,.036,1.721,2.665,2.665,0,0,0,.7.507,16.075,16.075,0,0,0,6.978,2.042M488.4,105.483c-1.4,0-2.729-.011-4.056.006a9.025,9.025,0,0,0-1.394.132,9.434,9.434,0,0,0-6.1,3.7,9.572,9.572,0,0,0-1.946,4.59h.5c1.1,0,2.192.008,3.289,0a9.638,9.638,0,0,0,8.01-4.136,9.293,9.293,0,0,0,1.7-4.286M469.48,96.317a1.611,1.611,0,0,0-.175.155c-1.056,1.344-2.108,2.693-3.17,4.032-.179.226-.075.313.114.437.672.441,1.368.853,1.992,1.354a16.659,16.659,0,0,1,5,6.969c.04.1.1.193.206.415a3.271,3.271,0,0,0,.3-.871,20.813,20.813,0,0,0-.286-4.973,18.916,18.916,0,0,0-1.442-3.888,14.319,14.319,0,0,0-2.546-3.63m-45.5,22.9-1.363-7.516a.851.851,0,0,0-.192.371c-.322,1.121-.653,2.24-.96,3.364a1.688,1.688,0,0,1-1.257,1.267c-1.108.313-2.213.635-3.319.952-.124.036-.248.069-.372.1,0,.033.008.067.013.1l7.45,1.358M465.02,136.33a7.845,7.845,0,0,0,.02-2.707,1.269,1.269,0,0,0-1.219,1.274,1.342,1.342,0,0,0,1.2,1.433m16.747-2.7c0,.841-.007,1.678.016,2.515,0,.052.257.165.36.135a1.344,1.344,0,0,0,.849-1.511,1.28,1.28,0,0,0-1.225-1.138" transform="translate(118.424 1235.367)" fill="#161615"/>
    <path id="Trazado_705852" data-name="Trazado 705852" d="M422.862,33.043a7.526,7.526,0,0,1,3.238.829.627.627,0,0,0,.507.015,6.9,6.9,0,0,1,8.77,1.9.527.527,0,0,0,.424.177,6.576,6.576,0,0,1,6.227,2.233,1.482,1.482,0,0,0,1.085.521,6.826,6.826,0,0,1,3.079,1.045,2.714,2.714,0,0,0,1.106.352,6.713,6.713,0,0,1,5.688,3.894.4.4,0,0,0,.425.258c5.338,0,10.675.012,16.012-.013a5.057,5.057,0,0,0,3.6-1.581,9.005,9.005,0,0,1,5.876-2.607,3.988,3.988,0,0,1,2.507,7.288c-.17.114-.348.215-.518.328a.862.862,0,0,0-.008,1.578,4.8,4.8,0,0,1,1.75,1.619,3.772,3.772,0,0,1-.1,4.183,3.929,3.929,0,0,1-3.885,1.8,8.921,8.921,0,0,1-5.6-2.525,5.825,5.825,0,0,0-4.256-1.652q-7.611,0-15.223,0a.617.617,0,0,0-.665.383,6.69,6.69,0,0,1-5.5,3.753,2.946,2.946,0,0,0-1.348.439,7.4,7.4,0,0,1-3.353,1.051.629.629,0,0,0-.4.177,6.579,6.579,0,0,1-4.637,2.528c-.6.076-1.222-.011-1.833.01a.829.829,0,0,0-.46.213c-.175.149-.294.363-.466.518a1.27,1.27,0,0,1-1.468.219,1.311,1.311,0,0,1-.827-1.238,3.676,3.676,0,0,1,.056-.654,2.88,2.88,0,0,0-2.595-3.194,1.5,1.5,0,0,1-1.6-1.609,2.788,2.788,0,0,0-2.788-2.606,2.757,2.757,0,0,0-2.829,2.6,1.5,1.5,0,0,1-1.545,1.616,2.859,2.859,0,0,0-2.689,2.728,1.476,1.476,0,0,1-1.689,1.493,6.96,6.96,0,0,1-6.521-5.671,17.537,17.537,0,0,1-.075-2.392.841.841,0,0,0-.114-.433,6.851,6.851,0,0,1-.127-8.116,1.265,1.265,0,0,0,.2-.8,6.912,6.912,0,0,1,4.594-7.439,19.691,19.691,0,0,1,2.182-.426.769.769,0,0,0,.426-.228,7.179,7.179,0,0,1,5.366-2.561m-5.4,5.586c-.356.021-.666.014-.968.061a4.177,4.177,0,0,0-3.335,5.171,1.748,1.748,0,0,1-.475,1.837,4.161,4.161,0,0,0-.023,5.587,1.911,1.911,0,0,1,.49,1.848A4.217,4.217,0,0,0,415.593,58c.355.178.491.136.635-.236a5.571,5.571,0,0,1,3.608-3.392.614.614,0,0,0,.474-.477,5.693,5.693,0,0,1,5.559-4.011,5.509,5.509,0,0,1,5.142,4.014.692.692,0,0,0,.366.419,5.511,5.511,0,0,1,3.711,3.393.769.769,0,0,0,.419.382,4.084,4.084,0,0,0,4.845-1.641,1.861,1.861,0,0,1,1.934-.974,3.477,3.477,0,0,0,2.669-.768,2.98,2.98,0,0,1,1.927-.649,4.072,4.072,0,0,0,4-4.749,6.452,6.452,0,0,1,.015-1.657,4.166,4.166,0,0,0-4.223-4.788,2.238,2.238,0,0,1-1.57-.515,3.817,3.817,0,0,0-2.984-.885,1.659,1.659,0,0,1-1.692-.839,4.1,4.1,0,0,0-4.873-1.793,1.418,1.418,0,0,1-1.96-.785,4.212,4.212,0,0,0-6.186-1.426,1.464,1.464,0,0,1-2.137-.01,4.1,4.1,0,0,0-5.861,1.04c-.5.734-1.061,1.207-1.949.973M453.687,49.88h.61c4.809,0,9.618-.007,14.427,0a7.921,7.921,0,0,1,4.055.929,22.291,22.291,0,0,1,2.578,1.871,6.243,6.243,0,0,0,3.7,1.393,1.22,1.22,0,0,0,1.351-1.354,1.265,1.265,0,0,0-.766-.992,3.632,3.632,0,0,1-2.028-3.075,3.463,3.463,0,0,1,1.987-3.425c.688-.359.9-.8.74-1.406a1.28,1.28,0,0,0-1.381-.965,5.753,5.753,0,0,0-4.027,1.769,8.718,8.718,0,0,1-6.286,2.441q-7.191.011-14.383,0h-.579Z" transform="translate(118.449 1274.118)" fill="#161615"/>
    <path id="Trazado_705853" data-name="Trazado 705853" d="M422.767,238.461l-1.718-2.61,2.253-1.5c.43.641.852,1.267,1.271,1.895.292.437.593.869.863,1.319a.7.7,0,0,0,.606.321,1.415,1.415,0,0,0,1.6-.855c.46-.827,1.033-1.592,1.559-2.382.063-.1.141-.18.235-.3l2.244,1.5-1.736,2.615c.266.243.542.474.793.729a3.98,3.98,0,0,1,.974,4.281,3.688,3.688,0,0,1-3.212,2.685,17.6,17.6,0,0,1-4.491-.027A3.741,3.741,0,0,1,420.847,243a3.95,3.95,0,0,1,1.568-4.218c.1-.081.209-.157.313-.236.01-.008.012-.025.039-.084m3.552,5.029v0h.746c.263,0,.527.01.789,0a1.405,1.405,0,0,0-.043-2.806q-1.448-.01-2.9,0a1.4,1.4,0,0,0-.044,2.805c.482.014.965,0,1.447,0" transform="translate(110.734 1143.695)" fill="#161615"/>
    <path id="Trazado_705854" data-name="Trazado 705854" d="M632.8,82.779l2.26,1.512-1.736,2.624c.239.213.473.407.691.617a3.977,3.977,0,0,1,1.055,4.452,3.788,3.788,0,0,1-3.433,2.657,22.514,22.514,0,0,1-4.061-.02,4.058,4.058,0,0,1-3.36-3.256,3.994,3.994,0,0,1,1.762-4.259c.047-.034.091-.071.136-.109a.54.54,0,0,0,.048-.079L624.43,84.3l2.246-1.5c.1.145.2.282.3.423.623.936,1.235,1.88,1.877,2.8a.891.891,0,0,0,.519.285,1.406,1.406,0,0,0,1.673-.856c.5-.916,1.144-1.757,1.753-2.673m-3.068,9.157c.482,0,.965.008,1.448,0a1.4,1.4,0,0,0-.011-2.809q-1.426-.007-2.852,0a1.4,1.4,0,0,0-.033,2.807c.482.012.965,0,1.447,0" transform="translate(-21.042 1241.895)" fill="#161615"/>
    <path id="Trazado_705855" data-name="Trazado 705855" d="M518.523,118.884l-1.751-2.652,2.237-1.494c.077.1.163.191.232.3.646.973,1.3,1.944,1.93,2.925a.691.691,0,0,0,.569.3,1.428,1.428,0,0,0,1.636-.867c.454-.83,1.031-1.592,1.557-2.382.063-.094.143-.176.231-.282l2.237,1.5-1.738,2.614c.265.241.531.464.774.709a3.971,3.971,0,0,1,.962,4.4,3.755,3.755,0,0,1-3.368,2.617,23.486,23.486,0,0,1-4.193-.014,4.058,4.058,0,0,1-3.275-3.2,4,4,0,0,1,1.74-4.308c.058-.042.115-.086.218-.162m3.553,4.984c.5,0,.995.011,1.491,0a1.4,1.4,0,0,0-.022-2.806q-1.469-.011-2.939,0a1.4,1.4,0,0,0-.021,2.8c.5.015.994,0,1.491,0" transform="translate(48.707 1221.194)" fill="#161615"/>
    <path id="Trazado_705856" data-name="Trazado 705856" d="M549.87,152.6a7.263,7.263,0,0,1,4.818,1.7c.213.155.439.292.646.452a3.149,3.149,0,0,0,2.12.669c1.782-.059,3.566-.031,5.348-.094a11.733,11.733,0,0,0,4.9-1.378.547.547,0,0,1,.638.026,19.606,19.606,0,0,1,7.579,9.242c.114.3.089.46-.208.583a22.912,22.912,0,0,1-3.105,1.268,5.289,5.289,0,0,1-4.484-.957c-.723-.521-1.4-1.1-2.137-1.607a15.913,15.913,0,0,0-8.049-2.8,16.627,16.627,0,0,0-12.411,4.161,5.482,5.482,0,0,1-5.867.919c-.707-.266-1.363-.666-2.047-.994-.24-.115-.316-.248-.206-.516a19.81,19.81,0,0,1,7.736-9.388,7.189,7.189,0,0,1,4.733-1.284" transform="translate(35.177 1196.67)" fill="#b20d0d"/>
    <path id="Trazado_705857" data-name="Trazado 705857" d="M585.541,199.492a2.925,2.925,0,0,1-.245.167,7.487,7.487,0,0,0-3.24,3.287,2.6,2.6,0,0,1-2.637,1.511c-1.022-.04-2.047-.013-3.07-.01a2.389,2.389,0,0,1-2.178-1.227c-.288-.474-.554-.963-.87-1.418a6.831,6.831,0,0,0-2.755-2.263c.4-.951.835-1.857,1.159-2.8a15.8,15.8,0,0,0-.541-11.544c-.269-.647-.511-1.3-.779-1.951-.092-.223-.086-.359.148-.5a13.466,13.466,0,0,1,4.895-1.941,13.979,13.979,0,0,1,10.087,1.939c.253.163.239.306.147.535-.441,1.1-.927,2.179-1.3,3.3a15.746,15.746,0,0,0,1.048,12.646c.04.077.074.157.128.274m-10.317-8.539a3.928,3.928,0,0,0,1.222,3,2.233,2.233,0,0,0,2.925.176,3.9,3.9,0,0,0,.476-5.631,2.386,2.386,0,0,0-3.8.162,4.084,4.084,0,0,0-.828,2.294" transform="translate(13.811 1178.528)" fill="#ffe8ce"/>
    <path id="Trazado_705858" data-name="Trazado 705858" d="M562.12,240.294a4.856,4.856,0,0,1,3.527,2.33,12.7,12.7,0,0,0,1.045,1.561A4.668,4.668,0,0,0,570.3,245.9a37.746,37.746,0,0,0,4.159-.067,5.015,5.015,0,0,0,4.105-2.777,4.958,4.958,0,0,1,2.091-2.232,4.322,4.322,0,0,1,4.274.049c.621.352,1.213.759,1.8,1.169a.428.428,0,0,1,.087.408c-1.415,2.267-2.777,4.573-4.293,6.771a5.6,5.6,0,0,1-8.237,1.007c-.2-.169-.4-.346-.6-.507a2.182,2.182,0,0,0-3.053.122,5.946,5.946,0,0,1-2.574,1.52,5.865,5.865,0,0,1-6.332-2.426,1.417,1.417,0,0,1-.194-1.575,10.931,10.931,0,0,0,.662-6.442c-.033-.182-.04-.368-.067-.629" transform="translate(19.616 1139.851)" fill="#b20d0d"/>
    <path id="Trazado_705859" data-name="Trazado 705859" d="M516.688,241.434a16.068,16.068,0,0,1-6.977-2.042,2.661,2.661,0,0,1-.7-.507,1.276,1.276,0,0,1-.036-1.721,7.411,7.411,0,0,1,.575-.6q5.537-5.567,11.076-11.132c.421-.423.823-.893,1.522-.806a1.285,1.285,0,0,1,1.026.59,14.236,14.236,0,0,1,2.185,9.112,8.21,8.21,0,0,1-6.583,6.887c-.685.126-1.389.15-2.084.221m1.73-9.151a2.172,2.172,0,0,0,2.113,2.09,2.1,2.1,0,1,0-.081-4.2,2.115,2.115,0,0,0-2.033,2.112" transform="translate(53.768 1150.004)" fill="#ffe8ce"/>
    <path id="Trazado_705860" data-name="Trazado 705860" d="M609.915,128.708a9.289,9.289,0,0,1-1.7,4.286,9.638,9.638,0,0,1-8.01,4.136c-1.1.009-2.192,0-3.288,0h-.5a9.571,9.571,0,0,1,1.946-4.59,9.433,9.433,0,0,1,6.1-3.7,9.07,9.07,0,0,1,1.394-.132c1.327-.017,2.655-.006,4.056-.006" transform="translate(-3.09 1212.141)" fill="#03a418"/>
    <path id="Trazado_705861" data-name="Trazado 705861" d="M574.694,102.686a14.326,14.326,0,0,1,2.546,3.63,18.932,18.932,0,0,1,1.442,3.888,20.814,20.814,0,0,1,.286,4.973,3.273,3.273,0,0,1-.3.871c-.111-.223-.166-.316-.206-.415a16.66,16.66,0,0,0-5-6.969c-.624-.5-1.32-.913-1.992-1.354-.188-.124-.293-.211-.114-.437,1.062-1.34,2.113-2.688,3.17-4.032a1.6,1.6,0,0,1,.175-.155" transform="translate(13.21 1228.998)" fill="#03a418"/>
    <path id="Trazado_705862" data-name="Trazado 705862" d="M438.077,153.885l-7.451-1.359-.013-.1c.124-.035.249-.068.373-.1,1.106-.318,2.211-.64,3.319-.952a1.689,1.689,0,0,0,1.257-1.267c.307-1.125.638-2.243.96-3.364a.85.85,0,0,1,.193-.371c.448,2.472.9,4.943,1.363,7.516" transform="translate(104.329 1200.696)" fill="#ffe8ce"/>
    <path id="Trazado_705863" data-name="Trazado 705863" d="M566.144,211.34a1.342,1.342,0,0,1-1.2-1.433,1.269,1.269,0,0,1,1.219-1.274,7.855,7.855,0,0,1-.02,2.707" transform="translate(17.3 1160.357)" fill="#a03d3d"/>
    <path id="Trazado_705864" data-name="Trazado 705864" d="M615.912,208.643a1.28,1.28,0,0,1,1.225,1.138,1.344,1.344,0,0,1-.849,1.511c-.1.031-.358-.083-.359-.135-.023-.837-.016-1.674-.016-2.515" transform="translate(-15.721 1160.351)" fill="#a03d3d"/>
    <path id="Trazado_705865" data-name="Trazado 705865" d="M422.57,43.731c.888.234,1.449-.239,1.949-.973a4.1,4.1,0,0,1,5.861-1.041,1.463,1.463,0,0,0,2.137.01,4.212,4.212,0,0,1,6.186,1.426,1.418,1.418,0,0,0,1.96.785,4.1,4.1,0,0,1,4.873,1.793,1.658,1.658,0,0,0,1.692.839,3.817,3.817,0,0,1,2.984.885,2.238,2.238,0,0,0,1.57.515,4.165,4.165,0,0,1,4.223,4.788,6.454,6.454,0,0,0-.015,1.657,4.072,4.072,0,0,1-4,4.749,2.978,2.978,0,0,0-1.927.649,3.477,3.477,0,0,1-2.669.768,1.86,1.86,0,0,0-1.933.974,4.085,4.085,0,0,1-4.845,1.641.769.769,0,0,1-.419-.382,5.512,5.512,0,0,0-3.711-3.393.692.692,0,0,1-.366-.419,5.509,5.509,0,0,0-5.142-4.014A5.694,5.694,0,0,0,425.419,59a.613.613,0,0,1-.474.477,5.571,5.571,0,0,0-3.608,3.392c-.144.373-.28.414-.635.236a4.217,4.217,0,0,1-2.442-4.871,1.911,1.911,0,0,0-.49-1.848,4.161,4.161,0,0,1,.023-5.587,1.748,1.748,0,0,0,.474-1.837,4.177,4.177,0,0,1,3.335-5.171c.3-.047.611-.04.968-.061" transform="translate(113.34 1269.016)" fill="#a03d3d"/>
    <path id="Trazado_705866" data-name="Trazado 705866" d="M536.24,67.944V65.137h.579q7.191,0,14.383,0a8.718,8.718,0,0,0,6.286-2.441,5.753,5.753,0,0,1,4.027-1.769,1.28,1.28,0,0,1,1.381.965c.164.609-.052,1.047-.741,1.406a3.463,3.463,0,0,0-1.987,3.425A3.632,3.632,0,0,0,562.2,69.8a1.265,1.265,0,0,1,.766.992,1.22,1.22,0,0,1-1.351,1.354,6.243,6.243,0,0,1-3.7-1.393,22.288,22.288,0,0,0-2.578-1.871,7.921,7.921,0,0,0-4.055-.929c-4.809-.011-9.618,0-14.427,0Z" transform="translate(35.896 1256.054)" fill="#ffe8ce"/>
    <path id="Trazado_705867" data-name="Trazado 705867" d="M431.48,255.132c-.482,0-.965.011-1.447,0a1.4,1.4,0,0,1,.044-2.805q1.447-.01,2.9,0a1.405,1.405,0,0,1,.043,2.806c-.263.01-.526,0-.789,0h-.746v0" transform="translate(105.573 1132.055)" fill="#b0c0d2"/>
    <path id="Trazado_705868" data-name="Trazado 705868" d="M634.856,103.6c-.482,0-.965.01-1.447,0a1.4,1.4,0,0,1,.033-2.806q1.426-.008,2.852,0a1.4,1.4,0,0,1,.011,2.809c-.482.009-.965,0-1.448,0" transform="translate(-26.17 1230.225)" fill="#b0c0d2"/>
    <path id="Trazado_705869" data-name="Trazado 705869" d="M527.208,135.5c-.5,0-.994.012-1.491,0a1.4,1.4,0,0,1,.021-2.8q1.469-.013,2.939,0a1.4,1.4,0,0,1,.022,2.806c-.5.014-.994,0-1.491,0" transform="translate(43.575 1209.56)" fill="#b0c0d2"/>
    <path id="Trazado_705870" data-name="Trazado 705870" d="M584.231,203.922a4.083,4.083,0,0,1,.828-2.294,2.386,2.386,0,0,1,3.8-.162,3.9,3.9,0,0,1-.476,5.631,2.233,2.233,0,0,1-2.925-.176,3.928,3.928,0,0,1-1.222-3" transform="translate(4.804 1165.56)" fill="#161615"/>
    <path id="Trazado_705871" data-name="Trazado 705871" d="M536.382,242.507a2.115,2.115,0,0,1,2.033-2.112,2.1,2.1,0,1,1-2.033,2.112" transform="translate(35.804 1139.779)" fill="#161615"/>
  </g>
</svg>
