<svg xmlns="http://www.w3.org/2000/svg" xmlns:xlink="http://www.w3.org/1999/xlink" width="125.712" height="125.712" viewBox="0 0 125.712 125.712">
  <defs>
    <clipPath id="clip-path">
      <rect id="Rectángulo_349423" data-name="Rectángulo 349423" width="93.282" height="120.5" fill="none"/>
    </clipPath>
  </defs>
  <g id="Grupo_992396" data-name="Grupo 992396" transform="translate(-220.788 -7284)">
    <path id="Trazado_700038" data-name="Trazado 700038" d="M137.731,62.856A62.856,62.856,0,1,1,74.875,0a62.856,62.856,0,0,1,62.856,62.856" transform="translate(208.769 7284)" fill="#ffdeb8"/>
    <g id="Grupo_992395" data-name="Grupo 992395" transform="translate(237.003 7289.212)" clip-path="url(#clip-path)">
      <path id="Trazado_705928" data-name="Trazado 705928" d="M84.7,45.2A85.787,85.787,0,0,1,91.4,64.717a81.494,81.494,0,0,1,1.57,23.54A84.426,84.426,0,0,1,89.4,106.8c-.528,1.695-1.136,3.366-1.749,5.033-.161.438.081.534.357.676a9.658,9.658,0,0,1-3.491,18.19c-.784.072-1.575.111-2.362.112q-35.961.009-71.922.01a9.489,9.489,0,0,1-7.851-3.4A9.6,9.6,0,0,1,5.4,112.437c.347-.164.352-.328.226-.657A83.524,83.524,0,0,1,1.075,94.4a74.587,74.587,0,0,1-1-12.088C.111,79.3.3,76.28.589,73.282A80.333,80.333,0,0,1,5.6,52.226c.908-2.374,1.954-4.695,2.949-7.067-.266-.094-.591-.2-.908-.322A5.746,5.746,0,0,1,9.058,33.721a2.109,2.109,0,0,1,.541-.062,3.23,3.23,0,0,0,2.76-1.177,51.2,51.2,0,0,1,7.531-6.018A30.615,30.615,0,0,1,31.4,22.342a29.538,29.538,0,0,1,4.953-.362,48.584,48.584,0,0,0,11.611-1.226,28.087,28.087,0,0,1,15.079,1.016A29.57,29.57,0,0,1,78.362,33.138a1.016,1.016,0,0,0,.938.492c1.7.008,3.406-.037,5.093.12a5.629,5.629,0,0,1,5.015,5.2,5.808,5.808,0,0,1-3.9,5.982c-.248.082-.5.168-.8.271m-8.929,70.105c-.222.021-.438.057-.654.059-1.214.017-2.429.035-3.643.035q-19.529,0-39.059,0c-7.551-.008-15.1-.059-22.655-.08a7.119,7.119,0,0,0-1.507.133,5.829,5.829,0,0,0,1.466,11.481q36.842,0,73.683,0a6.448,6.448,0,0,0,1.149-.06,5.812,5.812,0,0,0-.837-11.543c-1.093,0-2.186.016-3.279.019-.234,0-.469-.022-.7-.035v-3.8c1.124,0,2.213-.019,3.3.009a.757.757,0,0,0,.853-.565,79.3,79.3,0,0,0,5.217-22.914,85.377,85.377,0,0,0-.647-18.289,81.335,81.335,0,0,0-7.608-23.877.937.937,0,0,0-1.01-.6q-16.735.023-33.471.012-16.492,0-32.985-.009a.8.8,0,0,0-.884.521c-.949,2.165-2.009,4.285-2.893,6.475A77.9,77.9,0,0,0,4.265,74.728,80.493,80.493,0,0,0,4.53,91.7a77.193,77.193,0,0,0,4.913,19.342.682.682,0,0,0,.759.5q31.952-.017,63.9-.015h1.667ZM73.889,33.588a.668.668,0,0,0-.057-.2,5.751,5.751,0,0,0-.391-.464c-4.809-4.958-10.488-8.179-17.494-8.737a26.659,26.659,0,0,0-7.375.287c-1.664.332-3.325.677-4.99,1a46.616,46.616,0,0,1-8.112.37,27.339,27.339,0,0,0-6.361.817,28.373,28.373,0,0,0-12,6.707c-.046.041-.056.124-.094.215Zm-27.235,3.92H10.086c-.182,0-.365-.005-.546,0a1.949,1.949,0,0,0-.028,3.881c.464.024.931,0,1.4,0H82.525c.425,0,.851.019,1.275,0a1.873,1.873,0,0,0,1.719-1.469,1.934,1.934,0,0,0-1.994-2.414H46.654" transform="translate(0 -10.325)" fill="#161615"/>
      <rect id="Rectángulo_349417" data-name="Rectángulo 349417" width="3.821" height="3.81" transform="translate(13.647)" fill="#161615"/>
      <rect id="Rectángulo_349418" data-name="Rectángulo 349418" width="3.818" height="3.813" transform="translate(68.066 0.012)" fill="#161615"/>
      <rect id="Rectángulo_349419" data-name="Rectángulo 349419" width="3.809" height="3.834" transform="translate(50.576 1.939)" fill="#161615"/>
      <rect id="Rectángulo_349420" data-name="Rectángulo 349420" width="3.834" height="3.792" transform="translate(33.06 3.9)" fill="#161615"/>
      <rect id="Rectángulo_349421" data-name="Rectángulo 349421" width="3.83" height="3.819" transform="translate(21.419 7.771)" fill="#161615"/>
      <rect id="Rectángulo_349422" data-name="Rectángulo 349422" width="3.809" height="3.82" transform="translate(73.912 9.726)" fill="#161615"/>
      <path id="Trazado_705929" data-name="Trazado 705929" d="M79.841,141.726v-3.782H78.174q-31.952,0-63.9.014a.681.681,0,0,1-.759-.5A77.194,77.194,0,0,1,8.6,118.118a80.493,80.493,0,0,1-.266-16.972,77.877,77.877,0,0,1,5.345-22.457c.884-2.191,1.945-4.31,2.893-6.475a.8.8,0,0,1,.884-.521q16.492.016,32.985.008,16.735,0,33.471-.012a.939.939,0,0,1,1.01.6A81.32,81.32,0,0,1,92.526,96.17a85.346,85.346,0,0,1,.647,18.289,79.286,79.286,0,0,1-5.217,22.913.757.757,0,0,1-.852.565c-1.088-.028-2.177-.009-3.3-.009v3.8c.233.012.467.036.7.035,1.093,0,2.186-.023,3.279-.019a5.812,5.812,0,0,1,.837,11.543,6.357,6.357,0,0,1-1.149.06q-36.841,0-73.683,0a5.829,5.829,0,0,1-1.467-11.481,7.092,7.092,0,0,1,1.508-.134c7.552.022,15.1.073,22.655.081q19.529.022,39.059,0c1.214,0,2.429-.019,3.643-.035.216,0,.431-.038.653-.059m-1.905-36.9a27.2,27.2,0,0,0-54.377-.919,26.9,26.9,0,0,0,26.759,28c15.755.26,27.416-12.344,27.617-27.082" transform="translate(-4.068 -36.742)" fill="#03a4a4"/>
      <path id="Trazado_705930" data-name="Trazado 705930" d="M91.777,37.71H34.9c.039-.091.048-.173.094-.215a28.374,28.374,0,0,1,12-6.707,27.366,27.366,0,0,1,6.362-.817,46.618,46.618,0,0,0,8.112-.37c1.665-.324,3.327-.668,4.99-1a26.64,26.64,0,0,1,7.375-.288c7.005.558,12.684,3.779,17.494,8.737a5.724,5.724,0,0,1,.391.463.655.655,0,0,1,.058.2" transform="translate(-17.888 -14.448)" fill="#642727"/>
      <path id="Trazado_705931" data-name="Trazado 705931" d="M54.814,55.76H91.685a1.934,1.934,0,0,1,1.994,2.414,1.873,1.873,0,0,1-1.719,1.469c-.424.022-.85,0-1.275,0H19.068c-.466,0-.932.02-1.4,0a1.949,1.949,0,0,1,.028-3.881c.182-.008.364,0,.546,0H54.814" transform="translate(-8.16 -28.578)" fill="#06d1d1"/>
      <path id="Trazado_705932" data-name="Trazado 705932" d="M94.35,111c-.2,14.738-11.862,27.342-27.617,27.081a27.171,27.171,0,0,1,.479-54.34A27.2,27.2,0,0,1,94.35,111M81.661,129.176c.717-.638,1.467-1.226,2.124-1.9A23.33,23.33,0,0,0,64.673,87.694a22.259,22.259,0,0,0-15.093,7.8,22.762,22.762,0,0,0-5.24,20.437,22.3,22.3,0,0,0,7.717,12.8c.3.251.543.475.991.168a24.3,24.3,0,0,1,8.059-3.542c1.327-.326,2.685-.529,4.039-.79V120.7c-.874-.061-1.7-.091-2.525-.18a10.422,10.422,0,0,1-8.982-8.407,1.711,1.711,0,0,1,.958-1.976,8.962,8.962,0,0,1,9.137.205c.474.29.926.614,1.443.958.021-.9.189-1.74-.678-2.341a4.2,4.2,0,0,1-.828-.963,11.208,11.208,0,0,1-2.317-7.91c.273-3.374,2.126-5.915,4.59-8.07a1.665,1.665,0,0,1,2.412.015,19.985,19.985,0,0,1,1.465,1.452,11.178,11.178,0,0,1-.446,15.918c-.122.117-.276.283-.279.429-.023,1.122-.013,2.245-.013,3.353.087.018.111.031.122.023a2.3,2.3,0,0,0,.2-.137,9.008,9.008,0,0,1,10.014-1.12,1.894,1.894,0,0,1,1.178,2.419,10.411,10.411,0,0,1-8.375,7.977c-1.025.176-2.072.227-3.139.339v1.965a26.437,26.437,0,0,1,12.58,4.53M56.2,131.424a22.207,22.207,0,0,0,13.549,2.68,20.145,20.145,0,0,0,8.318-2.644c-7.283-4.058-14.562-4.038-21.868-.036m10.946-25.28c2.7-2.656,2.394-7.74-.029-9.915a7.257,7.257,0,0,0,.029,9.915m8.99,8.735a6.728,6.728,0,0,0-6.676,3.788c3.106.272,6.334-1.537,6.676-3.788M64.871,116.7c-1.852-2.753-4.858-4.378-6.818-3.716.837,2.477,3.814,4.117,6.818,3.716" transform="translate(-20.482 -42.918)" fill="#161615"/>
      <path id="Trazado_705933" data-name="Trazado 705933" d="M85.673,133.2a26.445,26.445,0,0,0-12.58-4.53V126.7c1.067-.112,2.114-.162,3.139-.339a10.41,10.41,0,0,0,8.375-7.977,1.894,1.894,0,0,0-1.178-2.419,9.008,9.008,0,0,0-10.014,1.12c-.063.05-.13.095-.2.138-.011.007-.036-.006-.122-.024,0-1.108-.01-2.231.013-3.353,0-.146.157-.313.28-.429A11.178,11.178,0,0,0,73.833,97.5a20.09,20.09,0,0,0-1.465-1.452,1.665,1.665,0,0,0-2.412-.015c-2.463,2.155-4.316,4.7-4.59,8.07a11.209,11.209,0,0,0,2.317,7.909,4.2,4.2,0,0,0,.828.964c.867.6.7,1.44.678,2.341-.517-.345-.97-.669-1.443-.959a8.962,8.962,0,0,0-9.137-.2,1.711,1.711,0,0,0-.958,1.975,10.422,10.422,0,0,0,8.982,8.407c.822.089,1.651.119,2.525.181v3.869c-1.354.261-2.712.464-4.039.79a24.3,24.3,0,0,0-8.059,3.542c-.448.308-.694.084-.991-.167a22.3,22.3,0,0,1-7.717-12.8,22.764,22.764,0,0,1,5.241-20.437,22.257,22.257,0,0,1,15.093-7.8A23.358,23.358,0,0,1,87.8,131.294c-.658.678-1.407,1.266-2.124,1.9" transform="translate(-24.495 -46.941)" fill="#ffc403"/>
      <path id="Trazado_705934" data-name="Trazado 705934" d="M73.271,178.4c7.305-4,14.584-4.022,21.868.037a20.149,20.149,0,0,1-8.318,2.644,22.2,22.2,0,0,1-13.55-2.68" transform="translate(-37.553 -89.894)" fill="#a03d3d"/>
      <path id="Trazado_705935" data-name="Trazado 705935" d="M93.653,119.274a7.257,7.257,0,0,1-.029-9.915c2.424,2.176,2.732,7.259.029,9.915" transform="translate(-46.989 -56.049)" fill="#03a403"/>
      <path id="Trazado_705936" data-name="Trazado 705936" d="M107.15,147.561c-.342,2.25-3.571,4.06-6.676,3.787a6.727,6.727,0,0,1,6.676-3.787" transform="translate(-51.495 -75.601)" fill="#03a403"/>
      <path id="Trazado_705937" data-name="Trazado 705937" d="M83.89,147.292c-3,.4-5.98-1.239-6.818-3.716,1.96-.662,4.965.963,6.818,3.716" transform="translate(-39.501 -73.511)" fill="#03a403"/>
    </g>
  </g>
</svg>
