<svg xmlns="http://www.w3.org/2000/svg" width="103" height="103" viewBox="0 0 103 103">
  <g id="Grupo_992571" data-name="Grupo 992571" transform="translate(-285 -4436)">
    <circle id="Elipse_5662" data-name="Elipse 5662" cx="51.5" cy="51.5" r="51.5" transform="translate(285 4436)" fill="#b20d0d"/>
    <path id="Trazado_705904" data-name="Trazado 705904" d="M387.175,47.642h5.758a.973.973,0,0,1,.973.973V60.2a.973.973,0,0,1-.973.972h-5.758a.973.973,0,0,0-.973.973V76.284a.972.972,0,0,1-.972.973H369.635a.972.972,0,0,1-.973-.973V62.146a.972.972,0,0,0-.973-.973h-22.9a6.63,6.63,0,0,1-6.625-6.892l.141-3.572a.972.972,0,0,1,.146-.475l30.207-48.6V1.477H385.23a.972.972,0,0,1,.972.973v44.22a.973.973,0,0,0,.973.973m-30.457,0H367.69a.972.972,0,0,0,.973-.973V24.325l-1.093,1.77L355.878,46.18a.973.973,0,0,0,.84,1.462" transform="translate(-32.163 4447.523)" fill="#fff"/>
  </g>
</svg>
