<svg xmlns="http://www.w3.org/2000/svg" width="103" height="103" viewBox="0 0 103 103">
  <g id="Grupo_992568" data-name="Grupo 992568" transform="translate(-285 -4037)">
    <circle id="Elipse_5659" data-name="Elipse 5659" cx="51.5" cy="51.5" r="51.5" transform="translate(285 4037)" fill="#b20d0d"/>
    <path id="Trazado_705907" data-name="Trazado 705907" d="M30.759,80.411H17.139a1.269,1.269,0,0,1-1.269-1.269V30.667a1.268,1.268,0,0,0-1.624-1.218L1.624,33.137A1.269,1.269,0,0,1,0,31.92V22.278a1.268,1.268,0,0,1,.854-1.2l29.49-10.2a1.282,1.282,0,0,1,.415-.069,1.268,1.268,0,0,1,1.269,1.269V79.142a1.268,1.268,0,0,1-1.269,1.269" transform="translate(317 4041.19)" fill="#fff"/>
  </g>
</svg>
