<svg xmlns="http://www.w3.org/2000/svg" xmlns:xlink="http://www.w3.org/1999/xlink" width="92.833" height="94.333" viewBox="0 0 92.833 94.333">
  <defs>
    <clipPath id="clip-path">
      <rect id="Rectángulo_340257" data-name="Rectángulo 340257" width="92.833" height="94.333" fill="none"/>
    </clipPath>
    <clipPath id="clip-path-2">
      <rect id="Rectángulo_349269" data-name="Rectángulo 349269" width="81.751" height="69.444" fill="none"/>
    </clipPath>
  </defs>
  <g id="Grupo_991991" data-name="Grupo 991991" transform="translate(-210 -1276)">
    <g id="Grupo_974382" data-name="Grupo 974382" transform="translate(210 1276)" clip-path="url(#clip-path)">
      <path id="Trazado_700763" data-name="Trazado 700763" d="M94.69,62.19c0,24.165-20.518,43.755-45.829,43.755S3.032,86.355,3.032,62.19,23.55,18.435,48.861,18.435,94.69,38.025,94.69,62.19" transform="translate(-1.857 -11.612)" fill="#ffdeb8"/>
    </g>
    <g id="Grupo_991990" data-name="Grupo 991990" transform="translate(216 1288)">
      <rect id="Rectángulo_349268" data-name="Rectángulo 349268" width="20.927" height="11.246" transform="translate(30.19 0.631)" fill="#f5c938"/>
      <path id="Trazado_705485" data-name="Trazado 705485" d="M30.651,4.191,11.29,4.618,4.03,20.278v3.559l1.139,1.424L9.582,70.674l19.077.427L24.245,24.264l-1.281-2.847Z" transform="translate(-2.739 -2.849)" fill="#abf4f5"/>
      <path id="Trazado_705486" data-name="Trazado 705486" d="M167.141,2.858l19.361.427,7.261,15.66V22.5l-1.139,1.424L188.21,69.341l-19.077.427,4.413-46.837,1.281-2.847Z" transform="translate(-113.603 -1.943)" fill="#b20d0d"/>
      <g id="Grupo_991989" data-name="Grupo 991989">
        <g id="Grupo_991988" data-name="Grupo 991988" clip-path="url(#clip-path-2)">
          <path id="Trazado_705487" data-name="Trazado 705487" d="M81.675,69.439c-4.086,0-8.171-.014-12.257.006a4.2,4.2,0,0,1-4.063-3.053,11.514,11.514,0,0,1-.277-1.889c-.308-3.5-.6-6.994-.9-10.491q-.472-5.464-.957-10.927-.477-5.443-.955-10.886-.4-4.569-.8-9.139a.961.961,0,0,0-.422-.793,2.332,2.332,0,0,1-1.016-1.978c-.005-.7,0-1.41.008-2.115a2.546,2.546,0,0,1,1.321-2.226,1.007,1.007,0,0,0,.394-.453Q63.891,9.9,66,4.288c.286-.757.515-1.542.871-2.265A3.382,3.382,0,0,1,70.028.018c1.61-.026,3.22-.011,4.831-.006A1.146,1.146,0,0,1,76,.78a1.076,1.076,0,0,1-.3,1.335,1.973,1.973,0,0,1-.922.3c-.689.044-1.383.025-2.075.011-.322-.006-.442.1-.441.439.007,2.448,0,4.9-.007,7.343,0,.7.167.864.872.864H90.1c.789,0,.978-.185.978-.994,0-2.395-.011-4.789,0-7.184,0-.383-.136-.471-.486-.47-3.46.008-6.92,0-10.38.006A1.4,1.4,0,0,1,79.033,1.9,1.211,1.211,0,0,1,79.721.089a5.139,5.139,0,0,1,.713-.07C84.719.013,89,.029,93.29,0a3.781,3.781,0,0,1,3.355,2.276c.851,2.3,1.74,4.593,2.607,6.892.8,2.124,1.59,4.254,2.4,6.375a.849.849,0,0,0,.361.391,2.452,2.452,0,0,1,1.32,2.255c.006.692,0,1.384,0,2.075a2.618,2.618,0,0,1-1.019,2.072,1.1,1.1,0,0,0-.363.652c-.227,2.368-.42,4.74-.63,7.11-.254,2.873-.52,5.745-.773,8.618-.2,2.251-.383,4.5-.581,6.754-.229,2.608-.468,5.216-.7,7.824-.2,2.251-.382,4.5-.581,6.754-.173,1.959-.291,3.926-.556,5.873a4.1,4.1,0,0,1-4.123,3.513c-4.112.015-8.224,0-12.337,0m-.022-46.583v0H64.569c-.16,0-.319.007-.479,0-.207,0-.286.094-.266.3q.127,1.288.246,2.576.2,2.121.387,4.242c.09,1.018.166,2.038.256,3.056.147,1.652.307,3.3.452,4.956.122,1.389.223,2.779.346,4.167.174,1.957.366,3.912.538,5.869.147,1.679.267,3.361.415,5.04.172,1.957.365,3.911.542,5.867.187,2.062.358,4.126.551,6.187a1.9,1.9,0,0,0,2.1,1.912q12.015,0,24.03,0a1.855,1.855,0,0,0,2.092-1.864c.234-2.379.447-4.76.658-7.142.2-2.236.382-4.474.578-6.711q.344-3.91.7-7.82.228-2.56.454-5.121c.14-1.575.283-3.149.418-4.724.121-1.416.232-2.833.353-4.25.171-2.012.352-4.023.519-6.036.042-.5.024-.5-.48-.5H81.653M93.524,2.484c0,.222,0,.38,0,.537q-.006,3.611-.012,7.221a3.15,3.15,0,0,1-3.264,3.273h-10.7c-2.169,0-4.337.005-6.506,0a3.128,3.128,0,0,1-3.217-3.226q0-2.474,0-4.948c0-.838,0-1.676,0-2.513,0-.1-.042-.273-.107-.3a.353.353,0,0,0-.316.087,3.061,3.061,0,0,0-.469.678c-.166.36-.27.748-.412,1.12q-1.868,4.911-3.739,9.82c-.163.429-.313.863-.488,1.346H99.051c-.091-.276-.157-.5-.239-.721Q97.361,11,95.9,7.149c-.494-1.3-.99-2.605-1.5-3.9a.986.986,0,0,0-.881-.763M81.637,20.422H100a4.34,4.34,0,0,1,.479,0c.32.036.47-.079.45-.417s-.008-.665-.01-1c-.006-.961-.006-.961-.964-.961l-34.734,0c-.8,0-1.6.014-2.4,0-.3-.005-.4.1-.389.393.015.505.021,1.012-.006,1.516-.02.37.111.474.48.473q9.362-.016,18.724-.007" transform="translate(-40.799 -0.001)" fill="#161615"/>
          <path id="Trazado_705488" data-name="Trazado 705488" d="M4.217,15.631c.178.009.306.021.433.021l10.54-.012a6.129,6.129,0,0,1,.678.023,1.182,1.182,0,0,1,1.057,1.075,1.123,1.123,0,0,1-.9,1.233,3.569,3.569,0,0,1-.791.074q-6.149.007-12.3,0c-.541,0-.541,0-.542.539,0,.465.018.932-.011,1.4-.022.349.089.46.445.458,2.568-.017,5.136-.018,7.7-.017,1.717,0,3.433,0,5.15.025a1.168,1.168,0,0,1,.346,2.3,3.7,3.7,0,0,1-.831.081q-5.609,0-11.218-.011a1.217,1.217,0,0,0-.179.039c.04.573.072,1.152.122,1.729Q4.357,29.6,4.8,34.6c.189,2.132.4,4.262.587,6.394.262,2.953.512,5.907.772,8.86.061.688.148,1.374.205,2.063a2.166,2.166,0,0,1-.031.71A1.17,1.17,0,0,1,5.1,53.5,1.218,1.218,0,0,1,4,52.334c-.142-1.415-.271-2.832-.4-4.249q-.26-2.919-.508-5.84c-.152-1.775-.295-3.55-.451-5.325-.168-1.907-.354-3.812-.52-5.719-.157-1.8-.293-3.6-.448-5.4q-.129-1.49-.3-2.976a.588.588,0,0,0-.219-.384,2.4,2.4,0,0,1-1.13-1.966,20.568,20.568,0,0,1,.053-2.706,2.325,2.325,0,0,1,1.239-1.8,1.068,1.068,0,0,0,.427-.48Q4.092,9.3,6.414,3.114c.122-.323.225-.653.365-.968A3.262,3.262,0,0,1,9.887.031c4.1-.037,8.2-.014,12.3-.008a1.407,1.407,0,0,1,1.165.414,1.157,1.157,0,0,1,.234,1.228,1.2,1.2,0,0,1-1.054.74,4.108,4.108,0,0,1-.518.009c-3.1,0-6.2.01-9.3,0-.406,0-.507.11-.5.516.022,2.368.009,4.736.011,7.1,0,.91.168,1.074,1.067,1.074,1.57,0,3.141-.012,4.711.01a2.275,2.275,0,0,1,.912.223,1.1,1.1,0,0,1,.555,1.108,1.167,1.167,0,0,1-.919.986,2.989,2.989,0,0,1-.554.058c-1.677.005-3.354.023-5.03,0a2.947,2.947,0,0,1-3.014-2.352,6.052,6.052,0,0,1-.1-1.308c-.01-2.328,0-4.656-.013-6.983A1.56,1.56,0,0,0,9.7,2.421c-.137.07-.319.107-.4.217a3.55,3.55,0,0,0-.51.841Q6.939,8.317,5.118,13.164q-.388,1.025-.77,2.051c-.045.12-.077.245-.13.416" transform="translate(0 -0.007)" fill="#161615"/>
          <path id="Trazado_705489" data-name="Trazado 705489" d="M201.149,22.856h-.734q-5.409,0-10.818,0a1.435,1.435,0,0,1-1.371-.557,1.184,1.184,0,0,1,.9-1.836c.225-.017.452-.006.678-.006q6.008,0,12.016-.006c.9,0,.743.039.753-.746,0-.426-.013-.852.008-1.277.014-.286-.1-.37-.371-.368-.852.009-1.7,0-2.555,0-3.353,0-6.707.014-10.06-.007a2.29,2.29,0,0,1-1.12-.3,1.086,1.086,0,0,1-.379-1.282,1.144,1.144,0,0,1,1.088-.8c.585-.023,1.171-.006,1.756-.006l9.181,0h.579c-.054-.2-.082-.353-.136-.495Q198.3,9.189,196.027,3.214a.992.992,0,0,0-.876-.727V3.14c0,2.381.012,4.762,0,7.143a3.129,3.129,0,0,1-3.08,3.233q-2.574.032-5.149,0a1.979,1.979,0,0,1-.935-.265,1.124,1.124,0,0,1-.463-1.222,1.264,1.264,0,0,1,1.221-.916c.732-.019,1.464-.007,2.2-.007.985,0,1.97,0,2.954,0,.58,0,.815-.234.843-.82.005-.106,0-.213,0-.319q-.005-3.492-.012-6.983c0-.519-.005-.531-.534-.532q-4.631-.005-9.261,0a3.325,3.325,0,0,1-.788-.076,1.161,1.161,0,0,1-.86-1.072,1.251,1.251,0,0,1,.909-1.179,3.678,3.678,0,0,1,.792-.075Q188.952.031,194.92.034a3.209,3.209,0,0,1,3.169,2.007c.647,1.5,1.19,3.04,1.77,4.566,1.111,2.929,2.211,5.862,3.333,8.786a1.3,1.3,0,0,0,.479.6,2.472,2.472,0,0,1,1.263,1.972,20.391,20.391,0,0,1-.031,2.745,2.447,2.447,0,0,1-1.045,1.722.961.961,0,0,0-.286.607c-.135,1.349-.238,2.7-.354,4.051-.075.874-.141,1.749-.233,2.621a1.179,1.179,0,1,1-2.352-.16c.078-1.3.2-2.6.3-3.9.071-.912.138-1.824.212-2.8" transform="translate(-123.215 -0.022)" fill="#161615"/>
          <path id="Trazado_705490" data-name="Trazado 705490" d="M192.264,140.677q-2.934,0-5.868,0a1.361,1.361,0,0,1-1.329-.634,1.114,1.114,0,0,1,.717-1.688,3.1,3.1,0,0,1,.711-.065q5.369,0,10.738,0c.226,0,.453,0,.678-.008a1.881,1.881,0,0,0,2-1.814c.157-1.6.275-3.2.417-4.806.167-1.88.345-3.759.51-5.638.156-1.775.294-3.55.45-5.324.164-1.867.345-3.732.509-5.6.155-1.761.294-3.523.446-5.284.108-1.245.216-2.49.342-3.733a1.252,1.252,0,0,1,.934-1.246,1.164,1.164,0,0,1,1.438,1.22c-.061,1.168-.166,2.334-.266,3.5-.191,2.225-.392,4.449-.589,6.673q-.392,4.409-.784,8.819c-.171,1.946-.328,3.894-.5,5.84-.182,2.038-.341,4.08-.575,6.112a4.11,4.11,0,0,1-4.144,3.668c-1.942.016-3.885,0-5.828,0Z" transform="translate(-125.673 -71.237)" fill="#161615"/>
          <path id="Trazado_705491" data-name="Trazado 705491" d="M24.613,188.774c-1.889,0-3.777,0-5.666,0a4.091,4.091,0,0,1-4.3-3.792c-.256-2.243-.431-4.5-.637-6.745-.044-.476-.077-.954-.091-1.432a1.14,1.14,0,0,1,1.051-1.225,1.153,1.153,0,0,1,1.261,1.021c.108.843.173,1.692.249,2.538.165,1.853.316,3.707.488,5.559a1.778,1.778,0,0,0,1.8,1.678c.744.031,1.489.02,2.234.02q4.649,0,9.3,0a3.6,3.6,0,0,1,.829.08,1.133,1.133,0,0,1,.864,1.148,1.087,1.087,0,0,1-.921,1.092,3.992,3.992,0,0,1-.753.057q-2.853.007-5.706,0Z" transform="translate(-9.459 -119.335)" fill="#161615"/>
          <path id="Trazado_705492" data-name="Trazado 705492" d="M89.708,71.346h17.323c.5,0,.521,0,.48.5-.167,2.013-.348,4.024-.519,6.036-.121,1.416-.231,2.833-.353,4.25-.135,1.575-.278,3.149-.418,4.724q-.227,2.56-.454,5.121-.349,3.91-.7,7.82c-.2,2.237-.379,4.475-.578,6.711-.212,2.381-.425,4.762-.659,7.142a1.855,1.855,0,0,1-2.092,1.864q-12.015.005-24.03,0a1.9,1.9,0,0,1-2.1-1.912c-.193-2.062-.364-4.125-.551-6.187-.177-1.956-.37-3.911-.542-5.867-.148-1.679-.268-3.361-.415-5.04-.171-1.957-.364-3.912-.538-5.869-.123-1.388-.225-2.778-.346-4.167-.145-1.653-.3-3.3-.452-4.956-.091-1.018-.166-2.038-.256-3.056q-.187-2.121-.387-4.242-.119-1.289-.246-2.576c-.02-.2.059-.3.266-.3.16,0,.319,0,.479,0H89.708ZM89.555,98.82a4.438,4.438,0,0,0-.464.81,1.185,1.185,0,0,0,2,1.126c.779-.781,1.535-1.586,2.269-2.409a1.047,1.047,0,0,0-.009-1.489q-1.15-1.27-2.377-2.47a1.083,1.083,0,0,0-1.546.018,1.163,1.163,0,0,0-.174,1.552c.084.124.17.247.27.39a1.007,1.007,0,0,1-.178.047c-2.008,0-4.017,0-6.025-.018A.945.945,0,0,1,82.5,95c.129-.276.3-.53.435-.806a1.147,1.147,0,0,0-.362-1.392,1.08,1.08,0,0,0-1.459.03,3.321,3.321,0,0,0-1.092,2.834,3.4,3.4,0,0,0,3.564,3.15c1.769.008,3.538,0,5.307,0h.66M86.2,89.035c.164-.257.27-.421.373-.587.766-1.229,1.553-2.446,2.289-3.693a1.087,1.087,0,0,1,1.955-.027,7.782,7.782,0,0,0,.508.81,1.181,1.181,0,0,0,1.57.3,1.138,1.138,0,0,0,.465-1.449,8.031,8.031,0,0,0-.826-1.357A3.254,3.254,0,0,0,89.61,81.7a3.529,3.529,0,0,0-2.843,1.875q-1.167,1.9-2.341,3.8c-.045.074-.106.139-.2.26-.075-.2-.123-.342-.184-.482a1.176,1.176,0,0,0-2.246.629c.218,1.052.445,2.1.717,3.142a1.208,1.208,0,0,0,1.539,1.014c.184-.021.367-.055.549-.092.884-.181,1.776-.329,2.647-.559a1.128,1.128,0,0,0,.8-1.333,1.216,1.216,0,0,0-1.364-.952c-.128.015-.258.015-.487.028M94.539,90.9a1.676,1.676,0,0,1,.175.2c.76,1.232,1.524,2.463,2.271,3.7a1.326,1.326,0,0,1,.184.6c.026.552-.32.9-.928.988-.9.129-1.34.611-1.255,1.379.077.7.671,1.105,1.529,1.038a3.406,3.406,0,0,0,2.626-5.043c-.791-1.4-1.668-2.747-2.505-4.119a2.3,2.3,0,0,1-.114-.263c.208.011.366.023.525.028a1.187,1.187,0,0,0,1.317-1.009,1.243,1.243,0,0,0-.995-1.345c-1.065-.219-2.136-.413-3.21-.591a1.127,1.127,0,0,0-1.3.809,9.049,9.049,0,0,0-.234.926c-.18.856-.383,1.709-.512,2.573a1.124,1.124,0,0,0,.844,1.163,1.15,1.15,0,0,0,1.332-.553c.084-.146.154-.3.246-.479" transform="translate(-48.854 -48.49)" fill="#ffc403"/>
          <path id="Trazado_705493" data-name="Trazado 705493" d="M102.584,7.753a.986.986,0,0,1,.881.763c.51,1.3,1.006,2.6,1.5,3.9q1.459,3.853,2.908,7.711c.082.219.148.445.239.721H73.355c.175-.483.324-.917.487-1.346q1.868-4.911,3.739-9.821c.142-.372.246-.76.412-1.12a3.059,3.059,0,0,1,.469-.678.354.354,0,0,1,.316-.087c.065.025.105.193.107.3.008.838,0,1.676,0,2.513q0,2.474,0,4.947a3.128,3.128,0,0,0,3.217,3.227c2.169.008,4.337,0,6.506,0h10.7a3.15,3.15,0,0,0,3.264-3.273q.007-3.611.012-7.221c0-.158,0-.315,0-.537" transform="translate(-49.858 -5.27)" fill="#ffc403"/>
          <path id="Trazado_705494" data-name="Trazado 705494" d="M86.74,58.713q-9.362,0-18.724.008c-.369,0-.5-.1-.48-.473.027-.5.021-1.011.006-1.516-.009-.291.09-.4.389-.393.8.014,1.6,0,2.4,0l34.734,0c.958,0,.958,0,.964.961,0,.332-.009.666.01,1s-.13.453-.45.417a4.259,4.259,0,0,0-.479,0H86.74" transform="translate(-45.902 -38.292)" fill="#f5c938"/>
          <path id="Trazado_705495" data-name="Trazado 705495" d="M106.8,143.786h-.66c-1.769,0-3.538,0-5.307,0a3.4,3.4,0,0,1-3.564-3.15,3.322,3.322,0,0,1,1.092-2.834,1.08,1.08,0,0,1,1.459-.03,1.147,1.147,0,0,1,.362,1.392c-.13.276-.306.53-.435.806a.945.945,0,0,0,.821,1.378c2.008.021,4.017.015,6.025.018a1.024,1.024,0,0,0,.178-.046c-.1-.144-.186-.266-.269-.39a1.163,1.163,0,0,1,.174-1.552,1.083,1.083,0,0,1,1.546-.018q1.225,1.2,2.377,2.47a1.047,1.047,0,0,1,.009,1.488c-.735.823-1.49,1.628-2.269,2.409a1.185,1.185,0,0,1-2-1.126,4.459,4.459,0,0,1,.465-.81" transform="translate(-66.095 -93.456)" fill="#161615"/>
          <path id="Trazado_705496" data-name="Trazado 705496" d="M107.207,111c.229-.013.359-.014.487-.029a1.216,1.216,0,0,1,1.364.952,1.128,1.128,0,0,1-.8,1.333c-.871.229-1.763.378-2.647.559-.182.037-.365.071-.549.092a1.208,1.208,0,0,1-1.539-1.014c-.272-1.038-.5-2.09-.717-3.141a1.175,1.175,0,0,1,2.245-.63c.061.14.109.285.184.482.094-.121.154-.186.2-.26q1.173-1.9,2.341-3.8a3.529,3.529,0,0,1,2.843-1.875,3.255,3.255,0,0,1,2.921,1.332,8.049,8.049,0,0,1,.826,1.357,1.137,1.137,0,0,1-.465,1.449,1.182,1.182,0,0,1-1.57-.3,7.891,7.891,0,0,1-.508-.81,1.087,1.087,0,0,0-1.956.027c-.736,1.247-1.523,2.464-2.289,3.693-.1.166-.21.33-.374.587" transform="translate(-69.864 -70.46)" fill="#161615"/>
          <path id="Trazado_705497" data-name="Trazado 705497" d="M137.47,122.935c-.092.179-.162.333-.246.48a1.15,1.15,0,0,1-1.332.553,1.124,1.124,0,0,1-.844-1.163c.128-.864.332-1.717.512-2.573a9.053,9.053,0,0,1,.234-.926,1.127,1.127,0,0,1,1.3-.809c1.073.178,2.144.372,3.21.591a1.243,1.243,0,0,1,.995,1.345,1.187,1.187,0,0,1-1.317,1.009c-.159,0-.317-.016-.525-.028a2.3,2.3,0,0,0,.114.263c.837,1.372,1.715,2.721,2.505,4.119a3.406,3.406,0,0,1-2.626,5.043c-.857.067-1.452-.337-1.529-1.038-.084-.768.354-1.25,1.255-1.379.607-.087.954-.436.928-.988a1.326,1.326,0,0,0-.184-.6c-.747-1.24-1.511-2.471-2.271-3.7a1.676,1.676,0,0,0-.175-.2" transform="translate(-91.784 -80.528)" fill="#161615"/>
        </g>
      </g>
    </g>
  </g>
</svg>
