<svg xmlns="http://www.w3.org/2000/svg" width="188" height="201" viewBox="0 0 188 201">
  <g id="Grupo_992579" data-name="Grupo 992579" transform="translate(-287 -1968)">
    <rect id="Rectángulo_349399" data-name="Rectángulo 349399" width="188" height="201" rx="42" transform="translate(287 1968)" fill="#03a4a4"/>
    <g id="Grupo_992313" data-name="Grupo 992313" transform="translate(871.555 1015.308)">
      <path id="Trazado_705830" data-name="Trazado 705830" d="M-442.77,1059.1c1.965-1.58,3.212-2.709,3.236-5.1.121-11.818,7.972-15.307,17.208-14.776,2.22.127,2.422,1.754,2.387,3.291-.2,9.134-3.165,15.505-14.574,16.326-4.113.3-8.243,4.506-8.244,8.617,0,4.367,0,8.735,0,13.53,3.7-1.97,6.593-.745,9.006,1.86,3.845,4.151,8.424,6.018,14.086,5.071a7.057,7.057,0,0,1,2.984.05c.709.2,1.255.978,1.873,1.5a8.831,8.831,0,0,1-1.82,1.923,4.768,4.768,0,0,1-2.15.115q-71.6,0-143.206,0c-.637,0-1.4.189-1.884-.088a11.356,11.356,0,0,1-1.977-1.8,9.535,9.535,0,0,1,2.018-1.654,5.685,5.685,0,0,1,2.161-.061q46.46,0,92.92.034a6.759,6.759,0,0,0,5.162-1.824c1.7-1.639,3.622-3.044,5.451-4.546,3.83-3.146,5.937-3.192,9.932-.235.41.3.842.578,1.25.857,1.868-5.684-.576-9.578-4.823-12.681a4.771,4.771,0,0,0-2.538-.6c-10.051-.324-15.2-5.7-15.094-15.7.026-2.5.825-3.769,3.6-3.864,10.1-.347,15.725,4.9,16.124,14.955.066,1.656,1.286,3.267,1.973,4.9l.9-.226a10.067,10.067,0,0,0,.273-1.649q.027-12.161.007-24.324c-.006-2.8-4.75-7.539-7.593-7.631-9.99-.325-14.91-5.3-15.2-15.369-.108-3.734.4-4.259,4.161-4.255,10.016.008,15.057,5,15.5,14.978.072,1.618,1.327,3.184,2.036,4.774l.954-.289c.059-.759.165-1.518.169-2.277.018-3.643-.168-7.3.05-10.929.317-5.275-.55-9.643-4.263-14.107-7.629-9.172-1.837-18.047,4.853-23.6a3.048,3.048,0,0,1,2.868.345c8.684,7.739,11.1,16.472,2.594,25.744a8.222,8.222,0,0,0-2.429,6.506c.192,3.864.05,7.744.05,11.948,2.237-1.407,3.182-2.844,3.236-5.247.262-11.578,8.035-15,17.244-14.451,2.269.134,2.352,1.838,2.32,3.329-.193,8.957-2.966,15.421-14.6,16.291-4.151.31-8.181,4.483-8.181,8.655C-442.771,1044.482-442.77,1051.547-442.77,1059.1Zm-1.859-71.1c-7,6.451-7.795,13.737-1.778,19.331a15.643,15.643,0,0,1,.075-3.963,10.427,10.427,0,0,1,1.872-2.739,10.1,10.1,0,0,1,1.639,2.7,21.15,21.15,0,0,1,.068,4.344C-436.935,1000.81-437.676,994.407-444.629,988Zm-20.851,31.432c-.592,7.05,2.877,11.6,8.883,11.844-.29-1.787-3.982-2.582-1.748-4.818.578-.578,3.023.71,4.51,1.114C-453.527,1022.635-458,1019.231-465.48,1019.43Zm41.656,23.291c-7.334-.076-11.538,3.178-11.652,8.933,1.693-.336,2.683-3.807,4.683-1.682,2.135,2.269-1.634,3.046-1.947,4.833C-426.261,1054.081-423.026,1049.789-423.824,1042.72Zm-8.9-17.878c5.788-.29,9.846-4.942,8.812-12.108-7.068-.3-11.984,3.508-11.453,8.2,1.487-.373,3.9-1.59,4.463-1.01C-428.671,1022.22-432.355,1022.926-432.729,1024.842Zm-21.01,37.03c.254-5.276-4.789-9.859-11.823-8.6-.29,7.114,3.634,12.135,8.236,11.44-.418-1.473-1.721-3.8-1.146-4.44C-456.391,1057.949-455.549,1061.4-453.739,1061.872Zm5.064,23.963c-3.777-4.323-6.786-3.729-10.722,2.171C-455.729,1087.233-451.786,1089.462-448.675,1085.835Zm14.887,1.992c-4.928-5.468-7.143-5.429-10.715,0Z" transform="translate(-0.014 0)"/>
      <path id="Trazado_705831" data-name="Trazado 705831" d="M-530.9,1061.368c.225-3.473,1.262-6.412,4.765-7.864.419-.174.588-1.027.809-1.59a7.06,7.06,0,0,1,6.548-4.908,7.157,7.157,0,0,0,2.42-1.213c.073-.039.1-.16.166-.213.927-.716,1.99-2.159,2.767-2.019,4.579.825,7.4-4.27,11.773-3.349a12.511,12.511,0,0,1,4.381,2.489c1.33.974,2.451,2.231,3.689,3.334,2.759,2.457,5.214,5.528,8.4,7.148,2.669,1.356,4.222,4.243,7.664,4.668,1.671.207,3.6,2.422,4.448,4.191,1.168,2.45.212,5.033-1.876,6.9-6.785,6.057-13.449,12.269-20.488,18.018a109.172,109.172,0,0,1-12.97,8.506,13.386,13.386,0,0,1-13.063.7c-4.038-1.859-8.1-3.714-11.956-5.906-5.027-2.855-10.422-1.935-15.734-2.066a.892.892,0,0,0-.69.307c-2.213,4.006-6.042,3.407-9.656,3.419a15.565,15.565,0,0,1-3.806-.077,9.141,9.141,0,0,1-2.574-1.747c.833-.632,1.616-1.71,2.507-1.808a44.88,44.88,0,0,1,7.092-.065c2.312.114,3.373-.814,3.365-3.151q-.047-13.114,0-26.228c.005-2.165-.927-3.157-3.153-3.064a44.04,44.04,0,0,1-7.091-.075c-.962-.116-1.8-1.24-2.7-1.905.867-.564,1.7-1.538,2.608-1.614a37.748,37.748,0,0,1,7.9.016,7.429,7.429,0,0,1,4.471,2.083,4.054,4.054,0,0,0,3.932,1.586c5.306-.485,10.163.383,13.963,4.544a4.012,4.012,0,0,0,1.142.736A4.617,4.617,0,0,0-530.9,1061.368Zm-18.266-1.88v24.738a4.44,4.44,0,0,0,.9.3,12.058,12.058,0,0,0,1.91.052,28.386,28.386,0,0,1,18.667,4.7c1.494,1,3.289,1.541,4.864,2.437,5.384,3.063,10.416,2.459,15.608-.762,11.156-6.922,20.7-15.745,29.972-24.9.721-.711.828-2.784.342-3.808-.762-1.605-2.495-1.587-4.022-.7-8.478,4.917-16.935,9.87-25.433,14.753a8.569,8.569,0,0,1-3.756,1.416q-10.381.213-20.767,0c-.725-.014-1.429-1.15-2.143-1.765a8.919,8.919,0,0,1,2.069-1.655,6.924,6.924,0,0,1,2.436-.084c5.83-.008,11.661.049,17.49-.049a4.024,4.024,0,0,0,4.279-4.026c.029-2.281-1.585-3.911-4.184-4.162-.813-.079-1.638-.045-2.458-.043q-6.7.012-13.391.036c-3.2.015-6.329-.636-8.56-2.935C-539.252,1059-543.952,1058.908-549.162,1059.488Zm46.244,10.2c6.213-3.453,12.221-6.787,18.221-10.136a10.824,10.824,0,0,0,1.186-.924c-.466-.41-.754-.884-1.106-.939-2.34-.361-3.218-2.845-4.649-3.619-2.939-1.59-5.09-3.974-7.744-5.773a25.9,25.9,0,0,1-2.411-2.1c-.954-.838-1.906-2.328-2.868-2.336a4.893,4.893,0,0,0-3.3,2.064c-.993,1.382-1.618,2.139-3.441,1.186-2.346-1.225-4.062-.465-4.884,2.011-.63,1.9-1.369,2.763-3.526,1.824a2.99,2.99,0,0,0-4.4,2.5c-.087,2.244-.9,3.1-3.03,3.693-.935.259-1.876,2.1-2,3.306-.17,1.7,1.314,2.017,2.858,1.988,3.907-.071,7.817-.026,11.726-.023C-506.786,1062.415-504.611,1064.034-502.918,1069.69Z" transform="translate(0 -25.401)"/>
      <path id="Trazado_705832" data-name="Trazado 705832" d="M-373.583,1201.115a6.087,6.087,0,0,1-5.985-5.847,6.332,6.332,0,0,1,6.137-6.07,6.209,6.209,0,0,1,5.794,6.08A5.978,5.978,0,0,1-373.583,1201.115Zm3.247-5.972c-1.547-1.059-2.556-2.246-3.2-2.073-.909.243-1.547,1.494-2.3,2.314.791.672,1.544,1.811,2.383,1.877C-372.69,1197.323-371.832,1196.222-370.336,1195.143Z" transform="translate(-84.46 -92.992)"/>
      <path id="Trazado_705833" data-name="Trazado 705833" d="M-516.157,1214.992a5.83,5.83,0,0,1,5.984,5.76,5.76,5.76,0,0,1-5.743,5.99,5.726,5.726,0,0,1-5.957-5.747A5.78,5.78,0,0,1-516.157,1214.992Zm.174,9.093c1.042-1.412,2.284-2.386,2.142-3.076-.194-.945-1.438-1.673-2.232-2.495-.76.847-1.97,1.616-2.132,2.566C-518.324,1221.772-517.065,1222.7-515.983,1224.085Z" transform="translate(-19.948 -104.686)"/>
      <path id="Trazado_705834" data-name="Trazado 705834" d="M-319.029,1218.012a5.642,5.642,0,0,1-5.636-5.458,5.522,5.522,0,0,1,5.74-5.58,5.445,5.445,0,0,1,5.472,5.549A5.554,5.554,0,0,1-319.029,1218.012Zm3-5.446c-1.475-1.023-2.263-1.983-3.055-1.987a2.535,2.535,0,0,0-1.737,1.837,2.529,2.529,0,0,0,1.634,1.925C-318.407,1214.392-317.561,1213.486-316.031,1212.565Z" transform="translate(-109.35 -101.051)"/>
      <path id="Trazado_705835" data-name="Trazado 705835" d="M-546.779,1189.2a5.618,5.618,0,0,1,5.328,5.473,5.559,5.559,0,0,1-5.159,5.343,5.356,5.356,0,0,1-5.377-5.318A5.35,5.35,0,0,1-546.779,1189.2Zm-.048,2.962c-.777,1.212-1.622,1.954-1.523,2.533a2.477,2.477,0,0,0,1.752,1.464c.383.071,1.378-.987,1.366-1.52C-545.247,1193.983-546.021,1193.341-546.827,1192.166Z" transform="translate(-6.296 -92.996)"/>
      <path id="Trazado_705836" data-name="Trazado 705836" d="M-474.533,1199.15a5.336,5.336,0,0,1-5.516,5.161,5.315,5.315,0,0,1-5.15-5.509,5.176,5.176,0,0,1,5.628-4.963A5.237,5.237,0,0,1-474.533,1199.15Zm-5.188,2.253c.7-1.225,1.415-1.927,1.364-2.568-.043-.545-1.137-1.529-1.473-1.42a2.606,2.606,0,0,0-1.635,1.646C-481.534,1199.608-480.606,1200.281-479.721,1201.4Z" transform="translate(-36.571 -95.095)"/>
      <path id="Trazado_705837" data-name="Trazado 705837" d="M-423.395,1211.853a5,5,0,0,1,5.141,5.2,5.064,5.064,0,0,1-5.313,5.295,5.106,5.106,0,0,1-5.154-5.2A5.055,5.055,0,0,1-423.395,1211.853Zm2.288,5.644c-.928-.975-1.445-1.968-2.067-2.04a2.291,2.291,0,0,0-1.81,1.35c-.13.484.684,1.639,1.254,1.778C-423.121,1218.734-422.307,1218.039-421.107,1217.5Z" transform="translate(-62.178 -103.263)"/>
      <path id="Trazado_705838" data-name="Trazado 705838" d="M-296.3,1205.1c-.96.789-1.6,1.724-2.248,1.73-.625.006-1.26-.946-1.891-1.477.593-.673,1.091-1.71,1.81-1.9C-298.121,1203.321-297.314,1204.338-296.3,1205.1Z" transform="translate(-120.332 -99.45)"/>
      <path id="Trazado_705839" data-name="Trazado 705839" d="M-443.894,1230.875c-1.248.963-1.925,1.879-2.644,1.913-.57.027-1.613-.99-1.667-1.611a2.288,2.288,0,0,1,1.448-1.776C-446.044,1229.332-445.247,1230.125-443.894,1230.875Z" transform="translate(-53.344 -111.217)"/>
      <path id="Trazado_705840" data-name="Trazado 705840" d="M-529.727,1216.159c-.84-.995-1.864-1.723-1.758-2.2.163-.722,1.107-1.268,1.72-1.888.569.573,1.534,1.108,1.595,1.731C-528.112,1214.41-528.982,1215.1-529.727,1216.159Z" transform="translate(-15.587 -103.364)"/>
      <path id="Trazado_705841" data-name="Trazado 705841" d="M-346.953,1216.7c-.754-1.127-1.659-1.906-1.529-2.426.178-.712,1.141-1.228,1.768-1.828.5.636,1.368,1.256,1.4,1.912C-345.293,1214.971-346.156,1215.623-346.953,1216.7Z" transform="translate(-98.547 -103.532)"/>
      <path id="Trazado_705842" data-name="Trazado 705842" d="M-391.99,1199.585c-.734-1.107-1.639-1.89-1.51-2.421.172-.7,1.151-1.211,1.784-1.8.5.636,1.391,1.263,1.4,1.909C-390.3,1197.9-391.185,1198.54-391.99,1199.585Z" transform="translate(-78.139 -95.787)"/>
      <path id="Trazado_705843" data-name="Trazado 705843" d="M-539.176,1228.44c.738,1.092,1.572,1.784,1.515,2.393s-.988,1.165-1.537,1.742c-.6-.615-1.548-1.161-1.69-1.868C-540.989,1230.2-540.008,1229.483-539.176,1228.44Z" transform="translate(-11.324 -110.783)"/>
      <path id="Trazado_705844" data-name="Trazado 705844" d="M-395.8,1233.414c-.839-1.072-1.805-1.781-1.719-2.327.113-.718,1.052-1.307,1.636-1.951.535.59,1.44,1.146,1.5,1.781S-395.109,1232.272-395.8,1233.414Z" transform="translate(-76.319 -111.099)"/>
      <path id="Trazado_705845" data-name="Trazado 705845" d="M-460.972,1226c-1.045.8-1.841,1.808-2.316,1.675-.725-.2-1.228-1.2-1.825-1.856.61-.538,1.207-1.479,1.835-1.5S-462,1225.2-460.972,1226Z" transform="translate(-45.68 -108.913)"/>
      <path id="Trazado_705846" data-name="Trazado 705846" d="M-426.282,1198.809c-1.2.733-1.946,1.544-2.582,1.469s-1.138-1.051-1.7-1.631c.608-.534,1.2-1.464,1.829-1.491S-427.42,1197.992-426.282,1198.809Z" transform="translate(-61.342 -96.6)"/>
      <path id="Trazado_705847" data-name="Trazado 705847" d="M-481.829,1227.844c-.96.85-1.554,1.788-2.158,1.8s-1.8-1-1.73-1.4a2.862,2.862,0,0,1,1.55-1.949C-483.732,1226.133-482.892,1227.1-481.829,1227.844Z" transform="translate(-36.338 -109.801)"/>
      <path id="Trazado_705848" data-name="Trazado 705848" d="M-505.675,1201.772c-1.03.854-1.645,1.76-2.219,1.735-.647-.028-1.257-.895-1.883-1.4.565-.651,1.028-1.606,1.732-1.844C-507.6,1200.114-506.788,1201.025-505.675,1201.772Z" transform="translate(-25.431 -98.003)"/>
      <path id="Trazado_705849" data-name="Trazado 705849" d="M-442.376,1216.335c-.735-1.15-1.573-1.883-1.49-2.491s1.114-1.584,1.659-1.538a2.325,2.325,0,0,1,1.577,1.673C-440.6,1214.586-441.52,1215.249-442.376,1216.335Z" transform="translate(-55.309 -103.468)"/>
      <path id="Trazado_705850" data-name="Trazado 705850" d="M-313.155,1193.292c-.706-1.123-1.6-1.935-1.451-2.457.193-.693,1.2-1.161,1.852-1.725.478.641,1.344,1.294,1.326,1.921S-312.335,1192.283-313.155,1193.292Z" transform="translate(-113.903 -92.953)"/>
      <path id="Trazado_705851" data-name="Trazado 705851" d="M-362.244,1233.283c-.815-1.005-1.717-1.63-1.72-2.259s.886-1.274,1.384-1.911c.66.577,1.667,1.056,1.865,1.762C-360.572,1231.383-361.509,1232.194-362.244,1233.283Z" transform="translate(-91.534 -111.088)"/>
      <path id="Trazado_705852" data-name="Trazado 705852" d="M-349.289,1194.1c-.934-1-1.941-1.615-1.917-2.184a2.346,2.346,0,0,1,1.56-1.718,2.345,2.345,0,0,1,1.769,1.471C-347.748,1192.2-348.6,1192.977-349.289,1194.1Z" transform="translate(-97.318 -93.443)"/>
      <path id="Trazado_705853" data-name="Trazado 705853" d="M-380.434,1221.923c-1,.8-1.649,1.728-2.242,1.694-.654-.037-1.257-.953-1.883-1.487.6-.65,1.111-1.615,1.843-1.834C-382.259,1220.159-381.465,1221.147-380.434,1221.923Z" transform="translate(-82.198 -107.086)"/>
      <path id="Trazado_705854" data-name="Trazado 705854" d="M-551.711,1225.131c-1.028.845-1.678,1.787-2.266,1.75a2.286,2.286,0,0,1-1.626-1.593,2.322,2.322,0,0,1,1.5-1.745C-553.531,1223.455-552.8,1224.359-551.711,1225.131Z" transform="translate(-4.657 -108.561)"/>
      <path id="Trazado_705855" data-name="Trazado 705855" d="M-493.508,1212.382c-1.1.894-1.759,1.827-2.339,1.784-.637-.049-1.206-1-1.8-1.553.548-.584,1.03-1.532,1.663-1.646C-495.415,1210.864-494.678,1211.67-493.508,1212.382Z" transform="translate(-30.929 -102.858)"/>
      <path id="Trazado_705856" data-name="Trazado 705856" d="M-412.8,1189.694c-1.156.758-1.88,1.6-2.493,1.53a2.27,2.27,0,0,1-1.532-1.657,2.269,2.269,0,0,1,1.648-1.539C-414.555,1187.995-413.888,1188.879-412.8,1189.694Z" transform="translate(-67.571 -92.462)"/>
      <path id="Trazado_705857" data-name="Trazado 705857" d="M-333.869,1195.77c1.141-.739,1.875-1.586,2.481-1.5a2.268,2.268,0,0,1,1.5,1.693,2.3,2.3,0,0,1-1.656,1.567C-332.158,1197.553-332.808,1196.625-333.869,1195.77Z" transform="translate(-105.177 -95.289)"/>
      <path id="Trazado_705858" data-name="Trazado 705858" d="M-448.852,1192.107c-.823-1.179-1.669-1.86-1.608-2.445.067-.632.981-1.176,1.526-1.757.568.56,1.506,1.067,1.6,1.7C-447.255,1190.185-448.075,1190.9-448.852,1192.107Z" transform="translate(-52.321 -92.407)"/>
      <path id="Trazado_705859" data-name="Trazado 705859" d="M-495.824,1192.016c-.84-1.168-1.71-1.85-1.654-2.446.059-.631,1-1.179,1.553-1.763.57.56,1.516,1.069,1.6,1.7C-494.241,1190.1-495.06,1190.815-495.824,1192.016Z" transform="translate(-31.006 -92.363)"/>
      <path id="Trazado_705860" data-name="Trazado 705860" d="M-455.794,1202.5c.743,1.187,1.542,1.9,1.449,2.466-.1.626-1.021,1.12-1.584,1.671-.553-.579-1.481-1.119-1.548-1.749C-457.537,1204.314-456.654,1203.646-455.794,1202.5Z" transform="translate(-49.14 -99.022)"/>
      <path id="Trazado_705861" data-name="Trazado 705861" d="M-402.277,1207.656c-1.129.788-1.927,1.737-2.425,1.6-.731-.2-1.249-1.181-1.858-1.829.654-.49,1.289-1.328,1.967-1.365C-403.987,1206.03-403.335,1206.883-402.277,1207.656Z" transform="translate(-72.224 -100.638)"/>
      <path id="Trazado_705862" data-name="Trazado 705862" d="M-338.06,1224.609c.862,1.111,1.751,1.756,1.72,2.354-.033.638-.934,1.232-1.457,1.844-.611-.537-1.609-1-1.721-1.631C-339.624,1226.586-338.8,1225.828-338.06,1224.609Z" transform="translate(-102.613 -109.046)"/>
      <path id="Trazado_705863" data-name="Trazado 705863" d="M-519.7,1191.573c-1.092.841-1.724,1.706-2.323,1.683s-1.65-.91-1.659-1.433a2.26,2.26,0,0,1,1.449-1.7C-521.639,1190.028-520.9,1190.841-519.7,1191.573Z" transform="translate(-19.128 -93.41)"/>
      <path id="Trazado_705864" data-name="Trazado 705864" d="M-348.933,991.256c6.953,6.409,7.694,12.813,1.877,19.672a21.153,21.153,0,0,0-.068-4.344,10.1,10.1,0,0,0-1.639-2.7,10.424,10.424,0,0,0-1.872,2.739,15.639,15.639,0,0,0-.075,3.963C-356.728,1004.993-355.938,997.707-348.933,991.256Z" transform="translate(-95.71 -3.258)" fill="#abffff"/>
      <path id="Trazado_705865" data-name="Trazado 705865" d="M-382.3,1048.747c7.479-.2,11.953,3.2,11.645,8.14-1.487-.4-3.932-1.691-4.51-1.114-2.235,2.236,1.458,3.03,1.747,4.818C-379.426,1060.346-382.9,1055.8-382.3,1048.747Z" transform="translate(-83.191 -29.317)" fill="#abffff"/>
      <path id="Trazado_705866" data-name="Trazado 705866" d="M-315.712,1091.358c.8,7.069-2.436,11.361-8.916,12.085.313-1.787,4.082-2.565,1.947-4.833-2-2.125-2.99,1.346-4.683,1.682C-327.25,1094.536-323.046,1091.282-315.712,1091.358Z" transform="translate(-108.126 -48.638)" fill="#abffff"/>
      <path id="Trazado_705867" data-name="Trazado 705867" d="M-324.561,1048.6c.374-1.916,4.058-2.622,1.822-4.919-.565-.58-2.976.637-4.463,1.01-.532-4.691,4.384-8.5,11.453-8.2C-314.714,1043.658-318.773,1048.311-324.561,1048.6Z" transform="translate(-108.182 -23.758)" fill="#abffff"/>
      <path id="Trazado_705868" data-name="Trazado 705868" d="M-370.588,1119.088c-1.81-.473-2.652-3.923-4.733-1.6-.575.643.728,2.967,1.146,4.44-4.6.695-8.526-4.326-8.236-11.441C-375.377,1109.229-370.334,1113.812-370.588,1119.088Z" transform="translate(-83.164 -57.216)" fill="#abffff"/>
      <path id="Trazado_705869" data-name="Trazado 705869" d="M-360.4,1167.891c-3.111,3.627-7.054,1.4-10.722,2.171C-367.186,1164.162-364.177,1163.568-360.4,1167.891Z" transform="translate(-88.289 -82.056)" fill="#fff"/>
      <path id="Trazado_705870" data-name="Trazado 705870" d="M-333.162,1170.484h-10.715C-340.305,1165.055-338.089,1165.016-333.162,1170.484Z" transform="translate(-100.64 -82.657)" fill="#fff"/>
      <path id="Trazado_705871" data-name="Trazado 705871" d="M-535.3,1075.352c5.21-.58,9.91-.486,13.824,3.548,2.231,2.3,5.358,2.95,8.56,2.935q6.7-.032,13.391-.036c.819,0,1.644-.036,2.458.043,2.6.251,4.213,1.881,4.184,4.162a4.024,4.024,0,0,1-4.279,4.026c-5.829.1-11.66.04-17.49.049a6.921,6.921,0,0,0-2.436.084,8.917,8.917,0,0,0-2.069,1.655c.714.615,1.417,1.751,2.143,1.765,6.921.131,13.846.143,20.767,0a8.567,8.567,0,0,0,3.756-1.416c8.5-4.882,16.955-9.836,25.433-14.753,1.527-.886,3.26-.9,4.022.7.485,1.024.379,3.1-.342,3.808-9.271,9.151-18.816,17.974-29.972,24.9-5.192,3.221-10.224,3.825-15.608.762-1.575-.9-3.37-1.435-4.864-2.437a28.386,28.386,0,0,0-18.667-4.7,12.045,12.045,0,0,1-1.91-.052,4.446,4.446,0,0,1-.9-.3Z" transform="translate(-13.86 -41.265)" fill="#ffe8ce"/>
      <path id="Trazado_705872" data-name="Trazado 705872" d="M-470.573,1072.808c-1.693-5.656-3.868-7.275-9.356-7.279-3.909,0-7.819-.048-11.726.023-1.544.028-3.028-.284-2.858-1.988.12-1.2,1.061-3.047,2-3.306,2.129-.59,2.943-1.449,3.03-3.693a2.99,2.99,0,0,1,4.4-2.5c2.157.939,2.9.073,3.526-1.824.822-2.475,2.538-3.236,4.884-2.011,1.823.952,2.448.2,3.441-1.186a4.892,4.892,0,0,1,3.3-2.064c.963.008,1.914,1.5,2.868,2.336a25.873,25.873,0,0,0,2.411,2.1c2.654,1.8,4.8,4.183,7.744,5.773,1.431.774,2.309,3.258,4.649,3.619.352.055.64.529,1.106.939a10.852,10.852,0,0,1-1.186.924C-458.352,1066.02-464.36,1069.355-470.573,1072.808Zm4.731-17.168a5.488,5.488,0,0,0-5.483,5.3c-.029,2.863,2.277,5.547,4.912,5.41.769-.04,1.492-.963,2.237-1.48a19.565,19.565,0,0,0-1.508-1.984,24.378,24.378,0,0,0-2.064-1.733c.686-.7,1.4-1.363,2.048-2.095.54-.613,1.509-1.456,1.369-1.922C-464.551,1056.409-465.542,1055.909-465.842,1055.64Zm-15.088,7.59c2.359.048,4.788-1.967,4.839-4.258a2.62,2.62,0,0,0-1.129-2.087,2.33,2.33,0,0,0-2.076.945c-1.085,2.16-1.84,2.839-2.99.036-.236-.575-1.71-1.263-2.055-1.039a3.031,3.031,0,0,0-1.279,2.262C-485.49,1061.313-483.188,1063.184-480.931,1063.23Z" transform="translate(-32.345 -28.519)" fill="#a03d3d"/>
      <path id="Trazado_705873" data-name="Trazado 705873" d="M-367.242,1198.342c-1.5,1.078-2.353,2.179-3.118,2.118-.839-.067-1.592-1.205-2.383-1.877.754-.82,1.392-2.071,2.3-2.314C-369.8,1196.1-368.789,1197.283-367.242,1198.342Z" transform="translate(-87.554 -96.191)" fill="#fff"/>
      <path id="Trazado_705874" data-name="Trazado 705874" d="M-512.948,1227.006c-1.082-1.383-2.341-2.312-2.223-3,.163-.95,1.372-1.719,2.133-2.566.794.822,2.038,1.55,2.232,2.495C-510.664,1224.62-511.906,1225.594-512.948,1227.006Z" transform="translate(-22.983 -107.607)" fill="#fff"/>
      <path id="Trazado_705875" data-name="Trazado 705875" d="M-312.845,1215.555c-1.53.921-2.376,1.827-3.158,1.775a2.529,2.529,0,0,1-1.634-1.925,2.535,2.535,0,0,1,1.737-1.837C-315.108,1213.572-314.321,1214.532-312.845,1215.555Z" transform="translate(-112.536 -104.041)" fill="#fff"/>
      <path id="Trazado_705876" data-name="Trazado 705876" d="M-543.817,1194.622c.806,1.175,1.579,1.818,1.595,2.478.013.532-.982,1.59-1.366,1.52a2.477,2.477,0,0,1-1.752-1.464C-545.439,1196.576-544.594,1195.834-543.817,1194.622Z" transform="translate(-9.306 -95.452)" fill="#fff"/>
      <path id="Trazado_705877" data-name="Trazado 705877" d="M-476.623,1204.365c-.885-1.122-1.813-1.795-1.744-2.342a2.606,2.606,0,0,1,1.635-1.646c.337-.109,1.431.875,1.473,1.42C-475.208,1202.439-475.926,1203.141-476.623,1204.365Z" transform="translate(-39.669 -98.057)" fill="#fff"/>
      <path id="Trazado_705878" data-name="Trazado 705878" d="M-418.02,1220.483c-1.2.542-2.014,1.237-2.623,1.088-.57-.139-1.384-1.294-1.254-1.778a2.29,2.29,0,0,1,1.81-1.35C-419.464,1218.515-418.948,1219.509-418.02,1220.483Z" transform="translate(-65.265 -106.25)" fill="#fff"/>
      <path id="Trazado_705879" data-name="Trazado 705879" d="M-446.6,1062.824c.3.27,1.292.769,1.512,1.5.139.465-.829,1.308-1.369,1.922-.645.732-1.362,1.4-2.048,2.095a24.411,24.411,0,0,1,2.064,1.733,19.571,19.571,0,0,1,1.508,1.984c-.745.518-1.468,1.44-2.237,1.48-2.635.137-4.941-2.546-4.912-5.41A5.488,5.488,0,0,1-446.6,1062.824Z" transform="translate(-51.585 -35.703)"/>
      <path id="Trazado_705880" data-name="Trazado 705880" d="M-473.548,1071.363c-2.258-.047-4.559-1.918-4.691-4.141a3.032,3.032,0,0,1,1.279-2.262c.345-.224,1.819.464,2.055,1.039,1.15,2.8,1.9,2.124,2.99-.037a2.33,2.33,0,0,1,2.076-.945,2.62,2.62,0,0,1,1.129,2.087C-468.76,1069.4-471.189,1071.412-473.548,1071.363Z" transform="translate(-39.728 -36.652)"/>
    </g>
  </g>
</svg>
