<svg id="Grupo_991987" data-name="Grupo 991987" xmlns="http://www.w3.org/2000/svg" xmlns:xlink="http://www.w3.org/1999/xlink" width="92.833" height="94.333" viewBox="0 0 92.833 94.333">
  <defs>
    <clipPath id="clip-path">
      <rect id="Rectángulo_340257" data-name="Rectángulo 340257" width="92.833" height="94.333" fill="none"/>
    </clipPath>
  </defs>
  <g id="Grupo_974383" data-name="Grupo 974383">
    <g id="Grupo_974382" data-name="Grupo 974382" clip-path="url(#clip-path)">
      <path id="Trazado_700763" data-name="Trazado 700763" d="M94.69,62.19c0,24.165-20.518,43.755-45.829,43.755S3.032,86.355,3.032,62.19,23.55,18.435,48.861,18.435,94.69,38.025,94.69,62.19" transform="translate(-1.857 -11.612)" fill="#ffdeb8"/>
    </g>
  </g>
  <g id="Grupo_974385" data-name="Grupo 974385">
    <g id="Grupo_974384" data-name="Grupo 974384" clip-path="url(#clip-path)">
      <path id="Trazado_700764" data-name="Trazado 700764" d="M48.854,102.889q7.533,0,15.066.01c.4,0,.5-.083.5-.47-.022-2.166,0-4.333-.02-6.5,0-.342.078-.442.444-.427.755.031,1.513.025,2.269,0,.316-.01.4.075.4.376-.014,2.182,0,4.364-.018,6.546,0,.383.093.472.494.472q14.945-.018,29.89-.005c.8,0,1.563.134,1.9.981a2.127,2.127,0,0,1,.181.791c0,3.227,0,6.454.007,9.681,0,.283-.068.364-.369.355-.772-.023-1.546-.026-2.317,0-.341.012-.422-.078-.42-.4.015-2.674,0-5.348.018-8.021,0-.36-.093-.448-.469-.447q-14.221.016-28.441,0c-.368,0-.476.075-.474.443.019,2.673,0,5.347.018,8.021,0,.316-.068.418-.415.405-.756-.028-1.513-.026-2.269,0-.335.011-.426-.069-.424-.4.016-2.674,0-5.347.017-8.021,0-.353-.081-.452-.465-.451q-14.221.017-28.441,0c-.361,0-.48.064-.478.439.019,2.674,0,5.347.018,8.021,0,.312-.06.422-.412.409-.788-.029-1.577-.017-2.366,0-.241,0-.328-.046-.328-.3.012-3.35,0-6.7.018-10.049a1.509,1.509,0,0,1,1.682-1.453c1.625-.012,3.251-.007,4.877-.007H48.854" transform="translate(-19.56 -60.155)"/>
      <path id="Trazado_700765" data-name="Trazado 700765" d="M93.315,32.418a18.21,18.21,0,0,1-5.046-.575,16.987,16.987,0,0,1-7.351-4.051,15.108,15.108,0,0,1-2.581-3.227,16.03,16.03,0,0,1-1.4-2.481,15.67,15.67,0,0,1-1.005-3.724,18.3,18.3,0,0,1,.057-4.722A16.142,16.142,0,0,1,77.2,9.652a18.747,18.747,0,0,1,1.583-2.667,17.969,17.969,0,0,1,3-3.173,13.656,13.656,0,0,1,4.081-2.47A21.507,21.507,0,0,1,89.942.16a3.924,3.924,0,0,1,.885-.1C91.617.078,92.4-.013,93.194,0a18.357,18.357,0,0,1,5.379.982,15.671,15.671,0,0,1,7.813,5.538,15.28,15.28,0,0,1,2.527,4.538,18.962,18.962,0,0,1,.815,4.018,15.288,15.288,0,0,1-1.48,7.8,14.741,14.741,0,0,1-5.269,6.231,9.436,9.436,0,0,1-1.2.808,25.459,25.459,0,0,1-3.9,1.686,17.338,17.338,0,0,1-4.56.812M78.9,16.16c-.117,7.057,6.118,13.607,14.5,13.282a13.721,13.721,0,0,0,9.366-3.993,12.707,12.707,0,0,0,3.871-10.274c-.37-6.3-5.9-12.237-13.942-12.269-7.5-.031-13.873,6-13.8,13.254" transform="translate(-46.417 0)"/>
      <path id="Trazado_700766" data-name="Trazado 700766" d="M27.747,176.688a2.455,2.455,0,0,1-1.455,2.367.634.634,0,0,0-.387.687c.028.567.016,1.137,0,1.7a.469.469,0,0,0,.29.512,2.917,2.917,0,0,1,1.613,2.034,2.031,2.031,0,0,1-.314,1.526c-.718,1.184-1.446,2.365-2.24,3.5a2.771,2.771,0,0,1-3.331.75,1.3,1.3,0,0,0-1.576.044,8.725,8.725,0,0,1-1.352.7.488.488,0,0,0-.331.491,2.775,2.775,0,0,1-3.05,2.812q-1.883,0-3.766,0A2.731,2.731,0,0,1,9.2,191.6c-.04-.261-.185-.507-.033-.786.053-.1-.07-.177-.185-.226a13.132,13.132,0,0,1-1.967-1,.66.66,0,0,0-.708.013,2.793,2.793,0,0,1-3.42-.319,3.43,3.43,0,0,1-.708-.918q-.928-1.432-1.825-2.882a2.372,2.372,0,0,1,1-3.369.934.934,0,0,0,.585-1.094,7.388,7.388,0,0,1,.021-1.424.459.459,0,0,0-.3-.5,2.656,2.656,0,0,1-1.63-2.591,3.147,3.147,0,0,1,.607-1.369c.546-.912,1.159-1.787,1.735-2.683a3.081,3.081,0,0,1,1.62-1.314,2.9,2.9,0,0,1,2.49.414.386.386,0,0,0,.45.021c.681-.363,1.353-.741,2.047-1.08.213-.1.216-.237.218-.4a2.667,2.667,0,0,1,2.469-2.812,5.963,5.963,0,0,1,1.2-.025c.917,0,1.836-.026,2.752.008a3.7,3.7,0,0,1,1.7.35,2.223,2.223,0,0,1,1.257,1.818,4.235,4.235,0,0,1,.1.762c-.016.179.123.274.276.34a12.8,12.8,0,0,1,1.929,1.033.458.458,0,0,0,.561-.038,2.934,2.934,0,0,1,4.28,1.21c.467.945,1.177,1.761,1.678,2.694a2.148,2.148,0,0,1,.348,1.254M6.61,186.4a3.138,3.138,0,0,1,1.831.519,14.962,14.962,0,0,0,2.059,1.09,2.549,2.549,0,0,1,1.729,2.433c0,.3.123.4.435.392.821-.017,1.642-.024,2.462,0,.377.012.51-.094.512-.46a2.446,2.446,0,0,1,1.53-2.272,23.876,23.876,0,0,0,2.353-1.244,2.872,2.872,0,0,1,3.088-.035c.308.171.415.076.554-.15.374-.608.729-1.228,1.143-1.811.219-.31.238-.457-.131-.662a2.572,2.572,0,0,1-1.4-2.445,11.713,11.713,0,0,0,.04-1.685,2.861,2.861,0,0,1,1.521-3.289c.24-.12.214-.253.09-.441-.409-.624-.832-1.241-1.195-1.888-.169-.3-.279-.364-.607-.192a3.04,3.04,0,0,1-3.382-.226,8.01,8.01,0,0,0-1.679-.892,2.654,2.654,0,0,1-1.927-2.588c0-.231-.086-.326-.341-.323-.917.011-1.835.013-2.752,0-.262,0-.33.08-.317.316a2.5,2.5,0,0,1-1.76,2.537,12.447,12.447,0,0,0-1.934,1.02,2.988,2.988,0,0,1-3.3.13c-.271-.148-.38-.086-.516.143a16.3,16.3,0,0,1-1.12,1.768c-.3.387-.194.537.167.755a2.514,2.514,0,0,1,1.318,2.442c-.049.829-.026,1.658,0,2.488a2.487,2.487,0,0,1-1.495,2.428c-.236.121-.243.231-.119.426.434.681.866,1.362,1.282,2.053.138.228.258.263.486.107A2.861,2.861,0,0,1,6.61,186.4" transform="translate(0 -105.342)"/>
      <path id="Trazado_700767" data-name="Trazado 700767" d="M108.992,173.614a7.726,7.726,0,0,1,2.429.4,3.812,3.812,0,0,1,2.486,2.578,11.989,11.989,0,0,1,.374,3.2q0,4.818,0,9.635a2.2,2.2,0,0,1-.3,1.208,1.2,1.2,0,0,1-.876.543,41.328,41.328,0,0,1-6.466.158c-3.025.051-6.052.018-9.078.009a1.649,1.649,0,0,1-1.82-1.752c0-3.919-.032-7.838.024-11.755a4.364,4.364,0,0,1,3.948-4.116c.4-.041.789-.071,1.286-.089a5.8,5.8,0,0,1-2.17-4.834,5.582,5.582,0,0,1,2.688-4.469,6.48,6.48,0,0,1,8.262,1.105,5.662,5.662,0,0,1-.782,8.181m-3.965,14.766c1.883,0,3.766-.011,5.65.009.383,0,.509-.06.507-.462-.021-3.166-.01-6.331-.012-9.5a1.6,1.6,0,0,0-1.818-1.81c-2.993-.033-5.988-.02-8.981,0a1.5,1.5,0,0,0-1.54,1.436c.029,3.334.017,6.669,0,10,0,.325.145.328.4.327,1.932-.007,3.863,0,5.795,0M108,169.111c.1-1.446-1.189-2.943-3.509-2.781a2.929,2.929,0,0,0,.507,5.834,2.889,2.889,0,0,0,3-3.053" transform="translate(-58.618 -102.875)"/>
      <path id="Trazado_700768" data-name="Trazado 700768" d="M165.487,175.249a9.087,9.087,0,0,1,2.1-6.135,9.354,9.354,0,0,1,5.907-3.523,10.334,10.334,0,0,1,2-.239,13.555,13.555,0,0,1,2.73.373,9.457,9.457,0,0,1,6.605,5.635,8.4,8.4,0,0,1,.734,4.291,8.3,8.3,0,0,1-1.832,4.793c-.126.146-.091.21.033.327.469.442.936.888,1.381,1.353.194.2.313.184.487-.01a1.938,1.938,0,0,1,1.2-.738,1.8,1.8,0,0,1,1.532.6q2.615,2.518,5.231,5.034a1.358,1.358,0,0,1,.035,1.962c-1.06,1.072-2.147,2.124-3.273,3.133a1.63,1.63,0,0,1-2.4-.146c-1.683-1.61-3.353-3.232-5.062-4.817a2.006,2.006,0,0,1-.6-1.821c.028-.253.43-.482.688-.692.213-.174.265-.333.064-.53q-.641-.627-1.288-1.247c-.166-.158-.323-.12-.5,0a9.841,9.841,0,0,1-4.284,1.56,10.161,10.161,0,0,1-6.735-1.329,9.765,9.765,0,0,1-3.97-4.526,6.9,6.9,0,0,1-.783-3.315m9.775,6.347c3.149.25,6.963-2.072,7.219-5.926a6.528,6.528,0,0,0-6.29-7.277,6.636,6.636,0,1,0-.929,13.2m14.927,6.419c.036-.144-.1-.2-.184-.285q-1.107-1.056-2.213-2.114c-.236-.225-.508-.64-.714-.614-.284.036-.509.423-.78.634s-.231.37,0,.588c.9.848,1.792,1.712,2.69,2.567.055.052.064.149.205.134.23-.024.993-.681.994-.91" transform="translate(-101.328 -104.151)"/>
      <path id="Trazado_700769" data-name="Trazado 700769" d="M83.784,21.106c-.076-7.259,6.3-13.285,13.8-13.254,8.046.033,13.572,5.967,13.941,12.269a12.707,12.707,0,0,1-3.87,10.274,13.721,13.721,0,0,1-9.366,3.993c-8.383.325-14.619-6.225-14.5-13.282M97.42,22.589a7.769,7.769,0,0,1,2.282.188,1.45,1.45,0,0,1,.987,1.175,1.515,1.515,0,0,1-1.668,1.594c-.853.009-1.706,0-2.559,0a1.709,1.709,0,0,1-1.82-1.22c-.086-.247-.2-.258-.405-.256-.611,0-1.223,0-1.834,0-1,0-1.05.061-.764.984,0,.014.02.025.024.039a5.33,5.33,0,0,0,2.712,3.024,2.021,2.021,0,0,0,.916.3c.859.038.857.07.857.932a3.152,3.152,0,0,1,0,.368c-.024.208.069.261.275.256.514-.012,1.028,0,1.542,0,.4,0,.926.138,1.173-.05.29-.221.09-.745.095-1.135,0-.252.081-.35.346-.378a4.989,4.989,0,0,0,1.363-.32A4.221,4.221,0,0,0,102.9,21.5a4.981,4.981,0,0,0-3.987-1.852c-.916-.032-1.834,0-2.752-.01a1.674,1.674,0,0,1-1.558-1.61,1.655,1.655,0,0,1,1.513-1.313,11.052,11.052,0,0,1,3.641.209,1.234,1.234,0,0,1,.93.972c.043.229.144.274.345.273.5,0,1,0,1.5,0,1.384,0,1.384,0,1.059-1.3a4.508,4.508,0,0,0-3.554-2.944c-.8-.061-.8-.061-.8-.837a2.711,2.711,0,0,1,0-.368c.048-.34-.051-.494-.456-.463-.5.038-1,0-1.5.011-.366,0-.846-.107-1.067.07s-.089.664-.065,1.009c.025.365-.114.459-.48.5a4.5,4.5,0,0,0-4.137,4.381,4.511,4.511,0,0,0,2.9,3.989,6.416,6.416,0,0,0,2.982.372" transform="translate(-51.304 -4.946)" fill="#ffc403"/>
      <path id="Trazado_700770" data-name="Trazado 700770" d="M11.961,191.5a2.861,2.861,0,0,0-1.375.442c-.228.156-.348.121-.486-.107-.416-.691-.848-1.373-1.282-2.053-.124-.2-.117-.3.119-.426a2.486,2.486,0,0,0,1.495-2.428c-.026-.829-.048-1.659,0-2.488A2.514,2.514,0,0,0,9.114,182c-.362-.218-.472-.368-.167-.756a16.265,16.265,0,0,0,1.12-1.768c.136-.229.245-.291.516-.143a2.988,2.988,0,0,0,3.3-.13,12.468,12.468,0,0,1,1.934-1.02,2.5,2.5,0,0,0,1.76-2.537c-.014-.235.055-.32.317-.316.917.015,1.835.013,2.752,0,.255,0,.341.092.341.323a2.654,2.654,0,0,0,1.927,2.588,8.011,8.011,0,0,1,1.679.892,3.039,3.039,0,0,0,3.382.226c.328-.172.438-.109.607.192.363.647.786,1.265,1.195,1.888.123.188.15.321-.09.442a2.861,2.861,0,0,0-1.521,3.288,11.711,11.711,0,0,1-.04,1.685,2.573,2.573,0,0,0,1.4,2.446c.37.2.35.352.131.662-.414.583-.769,1.2-1.143,1.811-.139.227-.247.321-.554.15a2.871,2.871,0,0,0-3.088.035,23.873,23.873,0,0,1-2.353,1.244,2.445,2.445,0,0,0-1.529,2.272c0,.366-.136.472-.512.46-.82-.026-1.642-.02-2.462,0-.312.006-.437-.093-.435-.392a2.549,2.549,0,0,0-1.729-2.433,14.891,14.891,0,0,1-2.059-1.089,3.14,3.14,0,0,0-1.832-.519m7.359-11.526a5.773,5.773,0,0,0-6.035,5.6,5.866,5.866,0,0,0,5.854,5.79,5.707,5.707,0,1,0,.181-11.393" transform="translate(-5.35 -110.439)" fill="#9cfdff"/>
      <path id="Trazado_700771" data-name="Trazado 700771" d="M109.933,210.979c-1.932,0-3.863,0-5.795,0-.254,0-.4,0-.4-.327.015-3.335.027-6.67,0-10a1.5,1.5,0,0,1,1.54-1.436c2.994-.016,5.988-.029,8.982,0a1.6,1.6,0,0,1,1.818,1.81c0,3.166-.009,6.331.012,9.5,0,.4-.123.466-.507.462-1.883-.02-3.767-.009-5.65-.009" transform="translate(-63.524 -125.473)" fill="#b20d0d"/>
      <path id="Trazado_700772" data-name="Trazado 700772" d="M117.749,174.209a2.889,2.889,0,0,1-3,3.053,2.929,2.929,0,0,1-.507-5.834c2.32-.162,3.608,1.335,3.509,2.781" transform="translate(-68.364 -107.973)" fill="#ffdeb8"/>
      <path id="Trazado_700773" data-name="Trazado 700773" d="M180.193,186.721a6.636,6.636,0,1,1,.93-13.2,6.528,6.528,0,0,1,6.289,7.277c-.256,3.854-4.07,6.176-7.219,5.926" transform="translate(-106.258 -109.278)" fill="#9cfdff"/>
      <path id="Trazado_700774" data-name="Trazado 700774" d="M222.786,221.461c0,.229-.764.886-.994.91-.141.014-.15-.083-.205-.134-.9-.854-1.786-1.718-2.69-2.567-.232-.218-.275-.376,0-.588s.5-.6.78-.634c.205-.026.478.389.714.614q1.109,1.055,2.213,2.114c.088.084.22.141.184.285" transform="translate(-133.924 -137.598)" fill="#b20d0d"/>
      <path id="Trazado_700775" data-name="Trazado 700775" d="M109.59,30.057a6.416,6.416,0,0,1-2.982-.372,4.511,4.511,0,0,1-2.9-3.989,4.5,4.5,0,0,1,4.137-4.381c.366-.04.5-.134.48-.5-.024-.345-.168-.822.065-1.009s.7-.066,1.067-.07c.5-.006,1,.028,1.5-.011.405-.031.5.123.456.463a2.71,2.71,0,0,0,0,.368c0,.776,0,.776.8.837a4.508,4.508,0,0,1,3.554,2.944c.324,1.3.324,1.3-1.059,1.3-.5,0-1,0-1.5,0-.2,0-.3-.044-.345-.273a1.234,1.234,0,0,0-.93-.972,11.052,11.052,0,0,0-3.641-.209,1.655,1.655,0,0,0-1.513,1.313,1.674,1.674,0,0,0,1.558,1.61c.917.012,1.836-.022,2.752.01a4.981,4.981,0,0,1,3.987,1.852,4.221,4.221,0,0,1-1.96,6.587,4.989,4.989,0,0,1-1.363.32c-.266.027-.343.126-.346.378-.005.391.2.915-.095,1.135-.248.188-.772.048-1.173.05-.514,0-1.028-.007-1.542,0-.205,0-.3-.049-.275-.256a3.154,3.154,0,0,0,0-.368c0-.861,0-.894-.857-.932a2.021,2.021,0,0,1-.916-.3,5.33,5.33,0,0,1-2.712-3.024c0-.014-.02-.025-.024-.039-.286-.923-.239-.984.764-.984.612,0,1.223,0,1.834,0,.2,0,.32.009.405.256a1.709,1.709,0,0,0,1.82,1.22c.853,0,1.706.007,2.558,0a1.515,1.515,0,0,0,1.668-1.594,1.45,1.45,0,0,0-.987-1.175,7.769,7.769,0,0,0-2.282-.188" transform="translate(-63.474 -12.413)"/>
      <path id="Trazado_700776" data-name="Trazado 700776" d="M26.5,187.846a5.707,5.707,0,1,1-.181,11.393,5.866,5.866,0,0,1-5.854-5.79,5.772,5.772,0,0,1,6.035-5.6m-.172,8.329a2.647,2.647,0,0,0,3.017-2.564c.055-1.8-1.158-2.805-3.286-2.779a2.707,2.707,0,0,0-2.508,2.681c-.011,1.238,1.289,2.888,2.777,2.661" transform="translate(-12.533 -118.308)"/>
    </g>
  </g>
</svg>
