<svg xmlns="http://www.w3.org/2000/svg" width="178.201" height="181.309" viewBox="0 0 178.201 181.309">
  <g id="Grupo_992294" data-name="Grupo 992294" transform="translate(-156.055 -262.337)">
    <path id="Trazado_705802" data-name="Trazado 705802" d="M323.316,287.951c2.464-.582,4.047.287,5.242,2.593,15.5,29.908-2.093,67.268-35.052,74.239a49.973,49.973,0,0,1-28.849-2.12c-2.269-.876-2.52-.1-2.9,1.759-3.245,16.144-12.763,27.056-27.982,33.055a35.746,35.746,0,0,1-7.329,1.928c-1.495.244-1.824.8-1.809,2.161.07,6.414.06,12.829.083,19.243.023,6.568,4.49,10.729,8.316,15.213.666.781,1.8.4,2.714.4q22.784.024,45.568.015a14.087,14.087,0,0,1,2.539.093,3.42,3.42,0,0,1,3.1,3.47,3.462,3.462,0,0,1-3.279,3.6,14.687,14.687,0,0,1-1.979.031q-52.36,0-104.722-.007a6.117,6.117,0,0,1-3.044-.377,3.4,3.4,0,0,1-1.874-4.01,3.322,3.322,0,0,1,3.456-2.764c3.3-.094,6.6-.091,9.9-.013a3.971,3.971,0,0,0,3.129-1.422,24.152,24.152,0,0,0,7.522-20.424,105.1,105.1,0,0,1-.02-12.446c.056-1.744-.415-2.261-2.178-2.178-6.337.3-12.562-.1-18.489-2.817a32.491,32.491,0,0,1-13.522-48.244,3.361,3.361,0,0,0,.41-3.538A24.615,24.615,0,0,1,198.1,315.616a4.806,4.806,0,0,0,4.891.3,41.148,41.148,0,0,1,25.184-2c2.059.5,2.644.145,2.717-2.1a51.531,51.531,0,0,1,42.928-48.685,50.754,50.754,0,0,1,29.022,3.418c2.6,1.088,3.69,2.757,2.922,5.52-1.616,2.021-3.582,2.089-5.8,1.117a43.484,43.484,0,0,0-25.4-2.843c-27.812,4.783-44.317,34.939-33.256,60.849a45.265,45.265,0,0,0,49.664,26.879c28.671-5.343,44.485-37.3,31.471-63.695C321.223,291.9,320.78,289.789,323.316,287.951ZM224.78,392.185c.692-.057,1.159-.052,1.608-.139a36.318,36.318,0,0,0,28.86-32.367c.11-1.275-.585-1.778-1.495-2.4a51.918,51.918,0,0,1-22.187-33.4,2.66,2.66,0,0,0-2.265-2.359c-9.051-2.336-17.916-1.893-26.35,2.308-2.574,1.282-4.433,1.084-6.641-.687-6.828-5.474-15.519-5.3-22.29.24a17.4,17.4,0,0,0-4.059,21.478c1.324,2.476,1.029,4.228-.7,6.328-6.085,7.406-7.666,15.8-4.45,24.827,4.236,11.894,16.525,18.759,29.956,15.936-3.688-3.9-7.835-7.352-11.607-11.17a10.809,10.809,0,0,1,15.17-15.4c1.119,1.041,1.712,1.211,2.912.1,5.534-5.124,11.173-10.137,16.775-15.19,4.613-4.161,11.111-4.113,15.241.111,4.169,4.265,3.937,10.9-.6,15.388-2.144,2.12-4.373,4.155-6.6,6.192a3.6,3.6,0,0,0-1.311,2.925C224.82,380.556,224.78,386.212,224.78,392.185Zm-1.735,43.8a25.313,25.313,0,0,1-5.953-16.051c-.037-15.745-.013-31.489-.048-47.234a5.382,5.382,0,0,1,1.784-4.247c2.832-2.624,5.613-5.306,8.391-7.988,1.474-1.423,2.014-3.178.471-4.714-1.473-1.467-3.182-1.106-4.733.308-5.777,5.268-11.643,10.439-17.382,15.748-5.466,5.056-6.559,5.341-11.631-.1-2.017-2.163-3.858-2.363-5.342-.768-1.893,2.034-.889,3.716.722,5.354,4.162,4.233,8.259,8.53,12.438,12.747a5.89,5.89,0,0,1,1.794,4.526c-.074,7.353-.217,14.714.024,22.06.245,7.438-.917,14.355-6.054,20.358Z" transform="translate(0)" fill="#0b0c0b"/>
    <path id="Trazado_705803" data-name="Trazado 705803" d="M385.9,293.515c-2.536,1.839-2.093,3.945-.872,6.42,13.014,26.4-2.8,58.352-31.471,63.695a45.266,45.266,0,0,1-49.664-26.879c-11.06-25.911,5.444-56.067,33.256-60.849a43.484,43.484,0,0,1,25.4,2.843c2.218.972,4.184.9,5.8-1.117,2.781,1.083,4.847,3.325,7.492,4.629-1.119,1.805-1.5,3.662.233,5.248,1.755,1.605,3.545,1.042,5.192-.349A27.474,27.474,0,0,0,385.9,293.515Zm-39.945,36.333a12.509,12.509,0,0,0,12.72-12.625,12.71,12.71,0,1,0-12.72,12.625Zm-23.394.005a9.769,9.769,0,0,0,7.516-2.937c1.852-1.719,2.125-4,.64-5.477-1.689-1.682-3.5-1.574-5.253-.014-1.249,1.111-2.581,1.808-4.345,1.265-3.325-1.024-5.151-4.251-4.012-7.206a5.594,5.594,0,0,1,7.849-3.148c2.9,1.255,4.844.861,5.745-1.161.944-2.119,0-3.892-2.809-5.289a12.6,12.6,0,0,0-13.927,1.883,12.736,12.736,0,0,0-3.484,13.876A12.506,12.506,0,0,0,322.563,329.853Zm48.962,6.069c2-3.288,4.394-5.887,5.082-9.411a8.269,8.269,0,0,0-6.449-9.2c-4.779-.79-9.457,2.4-9.82,6.688a3.442,3.442,0,0,0,2.3,3.805,3.315,3.315,0,0,0,4.181-1.443c.26-.383.365-.868.611-1.264.3-.487.708-.931,1.368-.68a1.085,1.085,0,0,1,.538,1.646,15.762,15.762,0,0,1-1.461,2.4c-2.022,2.837-4.148,5.6-6.1,8.491-1.655,2.453-.68,5.5,1.956,5.732a80.676,80.676,0,0,0,10.739.125c1.93-.086,2.959-1.463,2.927-3.479a3.176,3.176,0,0,0-3.063-3.4A23.028,23.028,0,0,0,371.525,335.921Z" transform="translate(-62.586 -5.564)" fill="#abffff"/>
    <path id="Trazado_705804" data-name="Trazado 705804" d="M354.853,483.295a32.875,32.875,0,0,1,2.157,2.737,3.371,3.371,0,0,1-.681,4.795,3.152,3.152,0,0,1-4.589-.233c-2.664-2.918-5.216-5.947-7.662-9.049-1.109-1.407-.793-3,.31-4.422,2.251-2.9,4.464-5.821,6.728-8.706,1.421-1.81,3.212-2.387,5.137-.906s1.766,3.37.526,5.253c-.659,1-1.694,1.75-2.037,2.993a10.313,10.313,0,0,0,10.1-9.111c.2-1.866.113-3.766.377-5.619.278-1.954,1.557-2.9,3.575-2.818a3.3,3.3,0,0,1,3.372,3.139A18.738,18.738,0,0,1,359.326,482.3C358.007,482.735,356.6,482.914,354.853,483.295Z" transform="translate(-81.212 -84.912)" fill="#0b0c0b"/>
    <path id="Trazado_705805" data-name="Trazado 705805" d="M239.59,303.425c1.49-11.858,10.326-18.67,21.855-17.264,2.153.262,3.274,1.5,3.21,3.536a3.225,3.225,0,0,1-3.394,3.382c-2.336.092-4.681-.173-6.975.63a10.348,10.348,0,0,0-7.169,9.561c1.351-.084,2.055-1.195,2.96-1.852,1.952-1.417,3.764-1.34,5.212.5,1.487,1.893.9,3.722-.891,5.144q-4.3,3.418-8.69,6.734a3.686,3.686,0,0,1-5.1-.157c-2.5-2.143-5.046-4.23-7.541-6.377-2.114-1.818-2.524-3.989-.972-5.568,1.793-1.826,3.665-1.551,5.473.087C238.116,302.278,238.713,302.716,239.59,303.425Z" transform="translate(-32.559 -10.249)" fill="#0b0c0b"/>
    <path id="Trazado_705806" data-name="Trazado 705806" d="M163.12,573.552a3.372,3.372,0,0,1-3.671,3.373c-1.991-.227-3.326-1.323-3.295-3.465.033-2.244,1.408-3.4,3.546-3.521A3.356,3.356,0,0,1,163.12,573.552Z" transform="translate(-0.043 -133.35)" fill="#0b0c0b"/>
    <path id="Trazado_705807" data-name="Trazado 705807" d="M438.253,291.947c-1.647,1.391-3.436,1.955-5.192.35-1.734-1.586-1.352-3.443-.233-5.248,1.651-.95,3.346-1.261,4.9.073C439.36,288.514,439.1,290.227,438.253,291.947Z" transform="translate(-119.574 -10.356)" fill="#0b0c0b"/>
    <path id="Trazado_705808" data-name="Trazado 705808" d="M230.236,435.645c0-5.973.04-11.63-.031-17.285a3.6,3.6,0,0,1,1.311-2.925c2.225-2.037,4.455-4.071,6.6-6.192,4.537-4.489,4.769-11.123.6-15.388-4.13-4.224-10.628-4.272-15.241-.111-5.6,5.052-11.24,10.065-16.775,15.19-1.2,1.111-1.793.941-2.912-.1a10.809,10.809,0,0,0-15.17,15.4c3.772,3.818,7.919,7.267,11.607,11.17-13.431,2.823-25.72-4.041-29.957-15.936-3.216-9.03-1.635-17.421,4.45-24.827,1.725-2.1,2.021-3.852.7-6.328a17.4,17.4,0,0,1,4.059-21.478c6.771-5.539,15.462-5.714,22.29-.24,2.209,1.771,4.068,1.969,6.641.687,8.434-4.2,17.3-4.643,26.35-2.308a2.66,2.66,0,0,1,2.265,2.359,51.918,51.918,0,0,0,22.187,33.4c.91.621,1.6,1.124,1.495,2.4a36.318,36.318,0,0,1-28.86,32.367C231.4,435.593,230.928,435.588,230.236,435.645Z" transform="translate(-5.456 -43.46)" fill="#139f75"/>
    <path id="Trazado_705809" data-name="Trazado 705809" d="M247.166,506.759H221.647c5.137-6,6.3-12.92,6.054-20.358-.241-7.346-.1-14.706-.024-22.06a5.89,5.89,0,0,0-1.794-4.526c-4.178-4.217-8.275-8.514-12.438-12.747-1.612-1.639-2.615-3.321-.722-5.354,1.484-1.6,3.326-1.395,5.342.768,5.072,5.439,6.165,5.154,11.631.1,5.739-5.309,11.6-10.48,17.382-15.748,1.55-1.414,3.26-1.775,4.733-.308,1.543,1.536,1,3.291-.471,4.714-2.778,2.683-5.559,5.364-8.391,7.989a5.382,5.382,0,0,0-1.784,4.247c.035,15.745.011,31.489.048,47.234A25.313,25.313,0,0,0,247.166,506.759Z" transform="translate(-24.121 -70.771)" fill="#8d0a0a"/>
    <path id="Trazado_705810" data-name="Trazado 705810" d="M371.086,352.355a12.6,12.6,0,0,1-12.7-12.688,12.71,12.71,0,0,1,25.42.063A12.509,12.509,0,0,1,371.086,352.355Zm5.517-12.481a5.5,5.5,0,1,0-10.989-.191,5.5,5.5,0,1,0,10.989.191Z" transform="translate(-87.715 -28.072)" fill="#0b0c0b"/>
    <path id="Trazado_705811" data-name="Trazado 705811" d="M329.657,352.368a12.506,12.506,0,0,1-12.079-8.205,12.736,12.736,0,0,1,3.484-13.876,12.6,12.6,0,0,1,13.927-1.883c2.811,1.4,3.753,3.169,2.809,5.289-.9,2.022-2.85,2.415-5.745,1.161A5.594,5.594,0,0,0,324.2,338c-1.139,2.954.687,6.181,4.012,7.206,1.763.543,3.1-.154,4.345-1.265,1.753-1.56,3.564-1.669,5.253.014,1.485,1.479,1.212,3.758-.64,5.477A9.769,9.769,0,0,1,329.657,352.368Z" transform="translate(-69.68 -28.08)" fill="#0b0c0b"/>
    <path id="Trazado_705812" data-name="Trazado 705812" d="M417.364,368.079a23.028,23.028,0,0,1,2.811.019,3.176,3.176,0,0,1,3.063,3.4c.032,2.016-1,3.393-2.927,3.479a80.682,80.682,0,0,1-10.739-.125c-2.636-.236-3.611-3.279-1.956-5.732,1.948-2.887,4.074-5.654,6.1-8.491a15.762,15.762,0,0,0,1.461-2.4,1.085,1.085,0,0,0-.538-1.646c-.66-.251-1.065.193-1.368.68-.246.4-.351.881-.611,1.264a3.315,3.315,0,0,1-4.181,1.443,3.442,3.442,0,0,1-2.3-3.805c.363-4.285,5.042-7.478,9.82-6.688a8.269,8.269,0,0,1,6.449,9.2C421.758,362.192,419.361,364.792,417.364,368.079Z" transform="translate(-108.425 -37.722)" fill="#0b0c0b"/>
    <path id="Trazado_705813" data-name="Trazado 705813" d="M382.134,345.319a5.5,5.5,0,1,1-10.989-.191,5.5,5.5,0,1,1,10.989.191Z" transform="translate(-93.246 -33.516)" fill="#abffff"/>
  </g>
</svg>
