<svg id="Grupo_974256" data-name="Grupo 974256" xmlns="http://www.w3.org/2000/svg" xmlns:xlink="http://www.w3.org/1999/xlink" width="159" height="159" viewBox="0 0 159 159">
  <defs>
    <clipPath id="clip-path">
      <rect id="Rectángulo_340225" data-name="Rectángulo 340225" width="159" height="159" fill="none"/>
    </clipPath>
  </defs>
  <g id="Grupo_974255" data-name="Grupo 974255" transform="translate(0 0)" clip-path="url(#clip-path)">
    <path id="Trazado_700357" data-name="Trazado 700357" d="M169.349,53.525A47.086,47.086,0,1,1,122.263,6.439a47.087,47.087,0,0,1,47.086,47.086" transform="translate(-30.92 -2.648)" fill="#ffdeb8"/>
    <path id="Trazado_700358" data-name="Trazado 700358" d="M167.928,48.758V60.847h12.085Z" transform="translate(-69.069 -20.054)" fill="#fff"/>
    <path id="Trazado_700359" data-name="Trazado 700359" d="M135.358,60.856V46.863H92.575V126.4h57.561V61.645H136.147a.789.789,0,0,1-.789-.789" transform="translate(-38.076 -19.275)" fill="#b0fffd"/>
    <path id="Trazado_700360" data-name="Trazado 700360" d="M149.845,60.543a.078.078,0,0,1-.024,0h-.789V125.3H91.472V45.761h42.783v-.788a.789.789,0,0,1,.487-.728.778.778,0,0,1,.357-.049c-.019,0-.036-.011-.055-.011H90.684a.789.789,0,0,0-.789.789v81.111a.789.789,0,0,0,.789.789h59.138a.788.788,0,0,0,.788-.789V59.872a.778.778,0,0,1-.765.672" transform="translate(-36.974 -18.173)" fill="#303030"/>
    <path id="Trazado_700361" data-name="Trazado 700361" d="M167.013,44.269a.764.764,0,0,1,.078.028.716.716,0,0,0-.078-.028" transform="translate(-68.692 -18.208)" fill="#303030"/>
    <path id="Trazado_700362" data-name="Trazado 700362" d="M182.216,59.261l-14.68-14.685,14.673,14.679.008.006" transform="translate(-68.907 -18.334)" fill="#303030"/>
    <rect id="Rectángulo_340217" data-name="Rectángulo 340217" width="0.001" height="17.095" transform="translate(98.859 28.704) rotate(-44.989)" fill="#303030"/>
    <path id="Trazado_700363" data-name="Trazado 700363" d="M165.736,44.25a.79.79,0,0,0-.487.728V59.76a.788.788,0,0,0,.788.789h14.778a.078.078,0,0,0,.024,0,.788.788,0,0,0,.437-1.443l-.007-.006L166.6,44.42a.792.792,0,0,0-.23-.154c-.025-.011-.051-.018-.078-.027a.758.758,0,0,0-.2-.039.791.791,0,0,0-.356.049m1.09,2.633v0l12.086,12.091H166.826Z" transform="translate(-67.967 -18.178)" fill="#303030"/>
    <path id="Trazado_700364" data-name="Trazado 700364" d="M213.032,87.667V99.756h12.085Z" transform="translate(-87.62 -36.057)" fill="#fff"/>
    <path id="Trazado_700365" data-name="Trazado 700365" d="M180.462,99.765V85.772H137.679v79.534H195.24V100.554H181.251a.789.789,0,0,1-.789-.789" transform="translate(-56.627 -35.278)" fill="#d4fffd"/>
    <path id="Trazado_700366" data-name="Trazado 700366" d="M194.95,99.452a.079.079,0,0,1-.024,0h-.789V164.2H136.577V84.67H179.36v-.788a.768.768,0,0,1,.844-.778c-.019,0-.036-.011-.055-.011h-44.36a.789.789,0,0,0-.789.789v81.111a.788.788,0,0,0,.789.788h59.138a.788.788,0,0,0,.788-.788V98.781a.778.778,0,0,1-.765.672" transform="translate(-55.525 -34.176)" fill="#303030"/>
    <path id="Trazado_700367" data-name="Trazado 700367" d="M212.117,83.178a.765.765,0,0,1,.078.028.718.718,0,0,0-.078-.028" transform="translate(-87.243 -34.211)" fill="#303030"/>
    <path id="Trazado_700368" data-name="Trazado 700368" d="M227.321,98.171l-14.68-14.686,14.673,14.679.008.006" transform="translate(-87.459 -34.337)" fill="#303030"/>
    <rect id="Rectángulo_340218" data-name="Rectángulo 340218" width="0.001" height="17.095" transform="translate(125.412 51.61) rotate(-44.989)" fill="#303030"/>
    <path id="Trazado_700369" data-name="Trazado 700369" d="M210.84,83.159a.79.79,0,0,0-.487.728V98.669a.788.788,0,0,0,.789.788h14.777a.055.055,0,0,0,.024,0,.787.787,0,0,0,.437-1.443l-.007-.006L211.7,83.329a.784.784,0,0,0-.23-.154.8.8,0,0,0-.078-.027.759.759,0,0,0-.195-.039.792.792,0,0,0-.357.049m1.09,2.633v0L224.016,97.88H211.93Z" transform="translate(-86.518 -34.182)" fill="#303030"/>
    <path id="Trazado_700370" data-name="Trazado 700370" d="M46.851,243.923h.2a.788.788,0,0,1-.2-.04Z" transform="translate(-19.27 -100.309)" fill="#fff"/>
    <path id="Trazado_700371" data-name="Trazado 700371" d="M68.276,104.134v9.336h7.545v-4.412L72.8,111.636l-2.317-2.952a.973.973,0,1,1,1.531-1.2l1.066,1.358,2.743-2.34v-2.366Z" transform="translate(-28.082 -42.83)" fill="#ffc403"/>
    <path id="Trazado_700372" data-name="Trazado 700372" d="M68.276,134.41v9.336h7.545v-4.412L72.8,141.912l-2.317-2.952a.973.973,0,0,1,1.531-1.2l1.065,1.356,2.745-2.34V134.41Z" transform="translate(-28.082 -55.283)" fill="#ffc403"/>
    <path id="Trazado_700373" data-name="Trazado 700373" d="M68.276,198.047v9.336h7.545v-4.412L72.8,205.549,70.481,202.6a.973.973,0,0,1,1.531-1.2l1.065,1.356,2.745-2.341v-2.365Z" transform="translate(-28.082 -81.456)" fill="#ffc403"/>
    <path id="Trazado_700374" data-name="Trazado 700374" d="M164.1,243.726h.649V243.4a.832.832,0,0,1-.649.323" transform="translate(-67.494 -100.111)" fill="#fff"/>
    <path id="Trazado_700375" data-name="Trazado 700375" d="M110.575,85.96a.83.83,0,0,1-.828-.832V81.789H102.5v3.339a.828.828,0,1,1-1.656,0V81.789h-7.24v3.339a.828.828,0,1,1-1.655,0V81.789H84.71v3.339a.828.828,0,1,1-1.655,0V81.789H75.813v3.339a.828.828,0,1,1-1.655,0V81.789h-7.24v3.339a.828.828,0,1,1-1.657,0V81.789H58.017v3.339a.828.828,0,1,1-1.655,0V81.789H51.027v93.775h65.72V81.789H111.4v3.339a.83.83,0,0,1-.828.832M75.6,150.438l-4.209,3.61v6.6a.83.83,0,0,1-.828.832H61.526a.83.83,0,0,1-.828-.832V149.788a.83.83,0,0,1,.828-.832h9.041a.83.83,0,0,1,.828.832v1.741l2.972-2.55a.951.951,0,0,1,1.343.107.963.963,0,0,1-.107,1.352m0-18.987-4.209,3.61v6.6a.83.83,0,0,1-.828.832H61.526a.83.83,0,0,1-.828-.832V130.8a.83.83,0,0,1,.828-.832h9.041a.83.83,0,0,1,.828.832v1.741l2.972-2.549a.95.95,0,0,1,1.343.107.962.962,0,0,1-.107,1.351m0-17.9-4.209,3.611v6.6a.83.83,0,0,1-.828.832H61.526a.83.83,0,0,1-.828-.832V112.9a.83.83,0,0,1,.828-.832h9.041a.83.83,0,0,1,.828.832v1.741l2.972-2.549a.951.951,0,0,1,1.343.107.962.962,0,0,1-.107,1.351M75.6,96l-4.209,3.61v6.6a.83.83,0,0,1-.828.832H61.526a.83.83,0,0,1-.828-.832V95.352a.83.83,0,0,1,.828-.832h9.041a.83.83,0,0,1,.828.832v1.741l2.972-2.55a.95.95,0,0,1,1.343.108A.962.962,0,0,1,75.6,96m30.113,63.81H78.028c-.294,0-.532-.373-.532-.832s.238-.832.532-.832h27.688c.294,0,.532.372.532.832s-.238.832-.532.832m.127-4.979H84.782c-.224,0-.405-.373-.405-.832s.181-.832.405-.832h21.062c.224,0,.405.372.405.832s-.181.832-.405.832m-.127-4.292H78.028c-.294,0-.532-.373-.532-.832s.238-.832.532-.832h27.688c.294,0,.532.373.532.832s-.238.832-.532.832m0-9.715H78.028c-.294,0-.532-.373-.532-.832s.238-.832.532-.832h27.688c.294,0,.532.372.532.832s-.238.832-.532.832m.127-4.98H84.782c-.224,0-.405-.373-.405-.832s.181-.832.405-.832h21.062c.224,0,.405.373.405.832s-.181.832-.405.832m-.127-4.292H78.028c-.294,0-.532-.373-.532-.832s.238-.832.532-.832h27.688c.294,0,.532.373.532.832s-.238.832-.532.832m0-8.629H78.028c-.294,0-.532-.372-.532-.832s.238-.832.532-.832h27.688c.294,0,.532.373.532.832s-.238.832-.532.832m.127-4.979H84.782c-.224,0-.405-.373-.405-.832s.181-.832.405-.832h21.062c.224,0,.405.372.405.832s-.181.832-.405.832m-.127-4.293H78.028c-.294,0-.532-.372-.532-.832s.238-.832.532-.832h27.688c.294,0,.532.373.532.832s-.238.832-.532.832m0-8.277H78.028c-.294,0-.532-.373-.532-.832s.238-.832.532-.832h27.688c.294,0,.532.373.532.832s-.238.832-.532.832m.127-4.979H84.782c-.224,0-.405-.373-.405-.832s.181-.832.405-.832h21.062c.224,0,.405.373.405.832s-.181.832-.405.832m-.127-4.293H78.028c-.294,0-.532-.373-.532-.832s.238-.832.532-.832h27.688c.294,0,.532.372.532.832s-.238.832-.532.832" transform="translate(-20.987 -33.64)" fill="#d4fffd"/>
    <path id="Trazado_700376" data-name="Trazado 700376" d="M68.276,165.291v9.336h7.545v-4.412L72.8,172.793l-2.317-2.952a.973.973,0,1,1,1.531-1.2L73.076,170l2.745-2.34v-2.365Z" transform="translate(-28.082 -67.984)" fill="#ffc403"/>
    <path id="Trazado_700377" data-name="Trazado 700377" d="M116.267,77.275a.845.845,0,0,0-.845-.845h-6.3v1.69h5.458v95.24H47.439V78.12h5.45V76.43H46.594a.845.845,0,0,0-.846.845V174.2a.833.833,0,0,0,.649.805.82.82,0,0,0,.2.04h68.827a.877.877,0,0,0,.845-.845Z" transform="translate(-18.816 -31.435)" fill="#303030"/>
    <rect id="Rectángulo_340219" data-name="Rectángulo 340219" width="7.397" height="1.69" transform="translate(63.033 44.994)" fill="#303030"/>
    <rect id="Rectángulo_340220" data-name="Rectángulo 340220" width="7.398" height="1.69" transform="translate(44.855 44.994)" fill="#303030"/>
    <rect id="Rectángulo_340221" data-name="Rectángulo 340221" width="7.396" height="1.69" transform="translate(72.121 44.994)" fill="#303030"/>
    <rect id="Rectángulo_340222" data-name="Rectángulo 340222" width="7.398" height="1.69" transform="translate(53.944 44.994)" fill="#303030"/>
    <rect id="Rectángulo_340223" data-name="Rectángulo 340223" width="7.4" height="1.69" transform="translate(35.765 44.994)" fill="#303030"/>
    <rect id="Rectángulo_340224" data-name="Rectángulo 340224" width="7.401" height="1.69" transform="translate(81.209 44.994)" fill="#303030"/>
    <path id="Trazado_700378" data-name="Trazado 700378" d="M74.639,112.289H67.094v-9.336h7.545v2.366l1.691-1.442v-1.768a.846.846,0,0,0-.846-.845H66.248a.845.845,0,0,0-.845.845v11.026a.845.845,0,0,0,.845.845h9.236a.846.846,0,0,0,.846-.845v-6.7l-1.691,1.442Z" transform="translate(-26.9 -41.649)" fill="#303030"/>
    <path id="Trazado_700379" data-name="Trazado 700379" d="M123.382,101.127H95.1c-.3,0-.543.379-.543.845s.243.845.543.845h28.285c.3,0,.544-.379.544-.845s-.244-.845-.544-.845" transform="translate(-38.89 -41.593)" fill="#303030"/>
    <path id="Trazado_700380" data-name="Trazado 700380" d="M123.382,117.122H95.1c-.3,0-.543.379-.543.845s.243.845.543.845h28.285c.3,0,.544-.379.544-.845s-.244-.845-.544-.845" transform="translate(-38.89 -48.172)" fill="#303030"/>
    <path id="Trazado_700381" data-name="Trazado 700381" d="M128.423,108.532H106.907c-.228,0-.414.379-.414.845s.185.845.414.845h21.516c.228,0,.414-.379.414-.845s-.185-.845-.414-.845" transform="translate(-43.8 -44.639)" fill="#303030"/>
    <path id="Trazado_700382" data-name="Trazado 700382" d="M104.2,75.16v3.391a.846.846,0,0,0,1.691,0V70.078a.846.846,0,0,0-1.691,0V75.16Z" transform="translate(-42.857 -28.475)" fill="#303030"/>
    <path id="Trazado_700383" data-name="Trazado 700383" d="M150.518,75.16v3.391a.846.846,0,0,0,1.691,0V70.078a.846.846,0,0,0-1.691,0V75.16Z" transform="translate(-61.908 -28.475)" fill="#303030"/>
    <path id="Trazado_700384" data-name="Trazado 700384" d="M135.073,75.16v3.391a.846.846,0,0,0,1.691,0V70.078a.846.846,0,0,0-1.691,0V75.16Z" transform="translate(-55.555 -28.475)" fill="#303030"/>
    <path id="Trazado_700385" data-name="Trazado 700385" d="M119.636,75.16v3.391a.846.846,0,0,0,1.691,0V70.078a.846.846,0,0,0-1.691,0V75.16Z" transform="translate(-49.206 -28.475)" fill="#303030"/>
    <path id="Trazado_700386" data-name="Trazado 700386" d="M57.879,75.16v3.391a.846.846,0,0,0,1.691,0V70.078a.846.846,0,0,0-1.691,0V75.16Z" transform="translate(-23.806 -28.475)" fill="#303030"/>
    <path id="Trazado_700387" data-name="Trazado 700387" d="M88.76,75.16v3.391a.846.846,0,0,0,1.691,0V70.078a.846.846,0,0,0-1.691,0V75.16Z" transform="translate(-36.507 -28.475)" fill="#303030"/>
    <path id="Trazado_700388" data-name="Trazado 700388" d="M73.321,75.16v3.391a.846.846,0,0,0,1.691,0V70.078a.846.846,0,0,0-1.691,0V75.16Z" transform="translate(-30.157 -28.475)" fill="#303030"/>
    <path id="Trazado_700389" data-name="Trazado 700389" d="M81.944,101.142l-3.036,2.589-1.691,1.443-2.744,2.34-1.066-1.357a.973.973,0,1,0-1.531,1.2l2.317,2.952,3.024-2.579,1.691-1.442,4.3-3.666a.973.973,0,1,0-1.263-1.481" transform="translate(-29.477 -41.504)" fill="#303030"/>
    <path id="Trazado_700390" data-name="Trazado 700390" d="M74.639,142.564H67.094v-9.336h7.545v2.365l1.691-1.442v-1.768a.846.846,0,0,0-.846-.845H66.248a.845.845,0,0,0-.845.845v11.026a.845.845,0,0,0,.845.845h9.236a.846.846,0,0,0,.846-.845v-6.7l-1.691,1.442Z" transform="translate(-26.9 -54.101)" fill="#303030"/>
    <path id="Trazado_700391" data-name="Trazado 700391" d="M123.382,131.4H95.1c-.3,0-.543.379-.543.845s.243.845.543.845h28.285c.3,0,.544-.379.544-.845s-.244-.845-.544-.845" transform="translate(-38.89 -54.045)" fill="#303030"/>
    <path id="Trazado_700392" data-name="Trazado 700392" d="M123.382,147.4H95.1c-.3,0-.543.379-.543.845s.243.845.543.845h28.285c.3,0,.544-.379.544-.845s-.244-.845-.544-.845" transform="translate(-38.89 -60.624)" fill="#303030"/>
    <path id="Trazado_700393" data-name="Trazado 700393" d="M128.423,138.807H106.907c-.228,0-.414.379-.414.845s.185.845.414.845h21.516c.228,0,.414-.378.414-.845s-.185-.845-.414-.845" transform="translate(-43.8 -57.091)" fill="#303030"/>
    <path id="Trazado_700394" data-name="Trazado 700394" d="M81.944,131.417l-3.036,2.589-1.691,1.442-2.745,2.34-1.065-1.356a.973.973,0,1,0-1.531,1.2l2.317,2.952,3.023-2.578,1.691-1.442,4.3-3.667a.973.973,0,0,0-1.263-1.481" transform="translate(-29.477 -53.956)" fill="#303030"/>
    <path id="Trazado_700395" data-name="Trazado 700395" d="M74.639,173.447H67.094v-9.336h7.545v2.365l1.691-1.443v-1.768a.845.845,0,0,0-.846-.845H66.248a.845.845,0,0,0-.845.845v11.026a.845.845,0,0,0,.845.845h9.236a.845.845,0,0,0,.846-.845v-6.7l-1.691,1.443Z" transform="translate(-26.9 -66.804)" fill="#303030"/>
    <path id="Trazado_700396" data-name="Trazado 700396" d="M123.382,162.284H95.1c-.3,0-.543.379-.543.845s.243.845.543.845h28.285c.3,0,.544-.379.544-.845s-.244-.845-.544-.845" transform="translate(-38.89 -66.747)" fill="#303030"/>
    <path id="Trazado_700397" data-name="Trazado 700397" d="M123.382,178.28H95.1c-.3,0-.543.379-.543.845s.243.845.543.845h28.285c.3,0,.544-.379.544-.845s-.244-.845-.544-.845" transform="translate(-38.89 -73.326)" fill="#303030"/>
    <path id="Trazado_700398" data-name="Trazado 700398" d="M128.423,169.689H106.907c-.228,0-.414.379-.414.845s.185.845.414.845h21.516c.228,0,.414-.379.414-.845s-.185-.845-.414-.845" transform="translate(-43.8 -69.793)" fill="#303030"/>
    <path id="Trazado_700399" data-name="Trazado 700399" d="M81.944,162.3l-3.036,2.589-1.691,1.442-2.745,2.34-1.065-1.356a.973.973,0,1,0-1.531,1.2l2.317,2.952,3.023-2.578,1.691-1.442,4.3-3.667a.973.973,0,0,0-1.263-1.481" transform="translate(-29.477 -66.658)" fill="#303030"/>
    <path id="Trazado_700400" data-name="Trazado 700400" d="M74.639,206.2H67.094v-9.336h7.545v2.365l1.691-1.442v-1.768a.846.846,0,0,0-.846-.845H66.248a.845.845,0,0,0-.845.845v11.026a.845.845,0,0,0,.845.845h9.236a.846.846,0,0,0,.846-.845v-6.7l-1.691,1.442Z" transform="translate(-26.9 -80.276)" fill="#303030"/>
    <path id="Trazado_700401" data-name="Trazado 700401" d="M123.382,195.039H95.1c-.3,0-.543.379-.543.845s.243.845.543.845h28.285c.3,0,.544-.378.544-.845s-.244-.845-.544-.845" transform="translate(-38.89 -80.219)" fill="#303030"/>
    <path id="Trazado_700402" data-name="Trazado 700402" d="M123.382,211.035H95.1c-.3,0-.543.379-.543.845s.243.845.543.845h28.285c.3,0,.544-.379.544-.845s-.244-.845-.544-.845" transform="translate(-38.89 -86.798)" fill="#303030"/>
    <path id="Trazado_700403" data-name="Trazado 700403" d="M128.423,202.445H106.907c-.228,0-.414.379-.414.845s.185.845.414.845h21.516c.228,0,.414-.379.414-.845s-.185-.845-.414-.845" transform="translate(-43.8 -83.265)" fill="#303030"/>
    <path id="Trazado_700404" data-name="Trazado 700404" d="M81.944,195.055l-3.036,2.589-1.691,1.442-2.745,2.34-1.065-1.356a.973.973,0,1,0-1.531,1.2l2.317,2.952,3.023-2.578,1.691-1.442,4.3-3.667a.973.973,0,0,0-1.263-1.481" transform="translate(-29.477 -80.131)" fill="#303030"/>
    <path id="Trazado_700405" data-name="Trazado 700405" d="M200.556,239.265a2.023,2.023,0,0,0-1.748,3.043,2.081,2.081,0,0,0,2.766.736,2.025,2.025,0,0,0-1.017-3.779" transform="translate(-81.658 -98.409)" fill="#fff"/>
    <path id="Trazado_700406" data-name="Trazado 700406" d="M187.621,210.315l-10.544,6.122,13.3,22.619,10.455-6.066Zm5.785,21.962a3.342,3.342,0,1,1,1.224-4.562,3.343,3.343,0,0,1-1.224,4.562" transform="translate(-72.832 -86.502)" fill="#b20d0d"/>
    <path id="Trazado_700407" data-name="Trazado 700407" d="M202.538,238.7a3.346,3.346,0,1,0-1.225,4.562,3.358,3.358,0,0,0,1.225-4.562m-1.884,3.422a2.08,2.08,0,0,1-2.766-.736,2.026,2.026,0,1,1,2.766.736" transform="translate(-80.739 -97.489)" fill="#303030"/>
    <path id="Trazado_700408" data-name="Trazado 700408" d="M178.935,209.921a.661.661,0,0,1-.571-.33l-4.92-8.52a.658.658,0,0,1,.306-.934,20.2,20.2,0,0,0,1.967-.989,19.644,19.644,0,0,0,1.837-1.213.669.669,0,0,1,.527-.118.653.653,0,0,1,.438.316l4.921,8.53a.659.659,0,0,1-.241.9l-3.935,2.269a.662.662,0,0,1-.328.088m-3.988-8.882,4.229,7.323,2.795-1.611-4.228-7.329c-.421.29-.872.576-1.363.865q-.7.4-1.433.752" transform="translate(-71.301 -81.357)" fill="#303030"/>
    <path id="Trazado_700409" data-name="Trazado 700409" d="M189.817,239.372a.668.668,0,0,1-.17-.022.66.66,0,0,1-.4-.307l-13.221-22.9a.66.66,0,0,1,.241-.9L187,209.051a.661.661,0,0,1,.9.241l13.219,22.892a.66.66,0,0,1-.241.9l-10.732,6.2a.661.661,0,0,1-.33.089M177.5,216.052l12.562,21.762,9.592-5.541-12.561-21.752Z" transform="translate(-72.363 -85.946)" fill="#303030"/>
    <path id="Trazado_700410" data-name="Trazado 700410" d="M142.051,172.6a22.959,22.959,0,0,0,2.57-45.774c-.155-.016-.309-.032-.464-.047-.253-.023-.508-.043-.764-.058q-.5-.027-.993-.034c-.1,0-.2-.007-.3-.008a23.085,23.085,0,0,0-23,22.527c0,.092-.006.183-.007.275,0,.152,0,.3,0,.454A22.957,22.957,0,0,0,142.051,172.6m-14.577-23.2a17.072,17.072,0,0,1,29.362,0,.658.658,0,0,1,0,.673,17.083,17.083,0,0,1-29.362,0,.658.658,0,0,1,0-.673" transform="translate(-48.983 -52.103)" fill="#ffdeb8"/>
    <path id="Trazado_700411" data-name="Trazado 700411" d="M163.934,154.311q.332.2.642.427l.149.111a7.9,7.9,0,0,1,.612.527c.022.022.047.042.07.064a7.575,7.575,0,0,1,.579.642c.062.077.118.158.178.238.111.148.217.3.317.457.068.107.135.214.2.324.085.149.162.3.237.458.042.087.094.167.132.255.006.015.008.031.013.046A7.589,7.589,0,0,1,162.643,168a15.854,15.854,0,0,0,10.764-7.144,15.851,15.851,0,0,0-10.77-7.154,7.461,7.461,0,0,1,1.182.542c.039.022.077.047.115.07" transform="translate(-66.892 -63.216)" fill="#fff"/>
    <path id="Trazado_700412" data-name="Trazado 700412" d="M155.419,160.064a2.122,2.122,0,1,1-.615-.468,4,4,0,0,1-1.04-4.424,6.32,6.32,0,1,0,6.191,4.71,4.029,4.029,0,0,1-4.537.182" transform="translate(-60.7 -63.822)" fill="#b0fffd"/>
    <path id="Trazado_700413" data-name="Trazado 700413" d="M162.79,156.593c-.052-.041-.107-.081-.161-.12q-.193-.141-.4-.268c-.054-.034-.108-.068-.164-.1-.137-.08-.279-.153-.423-.223-.061-.029-.12-.059-.181-.087-.138-.062-.28-.115-.423-.167-.072-.026-.142-.056-.215-.079-.119-.038-.242-.066-.363-.1-.091-.024-.181-.052-.274-.071a2.745,2.745,0,0,0,4.32,3.288c-.016-.032-.03-.066-.047-.1-.034-.063-.073-.122-.109-.184a6.333,6.333,0,0,0-.354-.541c-.078-.107-.154-.215-.239-.316-.051-.062-.108-.118-.162-.178-.1-.107-.194-.214-.3-.315-.052-.051-.107-.1-.161-.146-.114-.1-.23-.2-.351-.3" transform="translate(-65.748 -63.908)" fill="#d9eaef"/>
    <path id="Trazado_700414" data-name="Trazado 700414" d="M146.373,168a7.592,7.592,0,0,1,.006-14.3,15.852,15.852,0,0,0-10.776,7.155A15.853,15.853,0,0,0,146.373,168" transform="translate(-55.773 -63.216)" fill="#fff"/>
    <path id="Trazado_700415" data-name="Trazado 700415" d="M156.964,165.312a.771.771,0,1,0,.771-.774.769.769,0,0,0-.771.774" transform="translate(-64.559 -67.674)" fill="#d9eaef"/>
    <path id="Trazado_700416" data-name="Trazado 700416" d="M162.344,136.627a24.365,24.365,0,0,0-33.3-8.917A24.37,24.37,0,0,0,120.126,161a24.375,24.375,0,1,0,42.218-24.376m-9.58,32.161a23.067,23.067,0,0,1-34.589-19.773c0-.152-.005-.3,0-.454,0-.091,0-.183.007-.275a23.227,23.227,0,0,1,.785-5.437,23.071,23.071,0,0,1,22.213-17.089h.037c.088,0,.175.008.264.009.331,0,.663.015.993.033.256.014.51.036.764.058.155.014.31.029.464.047a23.048,23.048,0,0,1,9.067,42.884" transform="translate(-48.06 -51.182)" fill="#303030"/>
    <path id="Trazado_700417" data-name="Trazado 700417" d="M147.949,168.464a17.164,17.164,0,0,0,14.678-8.349.657.657,0,0,0,0-.673,17.073,17.073,0,0,0-29.362,0,.658.658,0,0,0,0,.673,17.167,17.167,0,0,0,14.685,8.349m-2.57-15.84a7.292,7.292,0,0,1,3.535-.388.708.708,0,0,1,.079,0c.075.011.147.034.221.046q.279.047.55.114c.1.025.2.048.3.077.155.045.307.1.458.151a15.854,15.854,0,0,1,10.77,7.155,15.859,15.859,0,0,1-10.764,7.144,7.48,7.48,0,0,1-5.151,0,15.853,15.853,0,0,1-10.77-7.144,15.85,15.85,0,0,1,10.776-7.155" transform="translate(-54.773 -62.141)" fill="#303030"/>
    <path id="Trazado_700418" data-name="Trazado 700418" d="M166.9,159.568a6.337,6.337,0,0,1,.354.541,6.383,6.383,0,0,0-.354-.541" transform="translate(-68.644 -65.63)" fill="#303030"/>
    <path id="Trazado_700419" data-name="Trazado 700419" d="M167.737,160.892c-.016-.032-.037-.061-.054-.092.017.032.031.066.047.1l.007-.006" transform="translate(-68.968 -66.137)" fill="#303030"/>
    <path id="Trazado_700420" data-name="Trazado 700420" d="M165.6,158.091c-.052-.051-.107-.1-.161-.146.054.048.109.1.161.146" transform="translate(-68.044 -64.963)" fill="#303030"/>
    <path id="Trazado_700421" data-name="Trazado 700421" d="M169.738,159.938c-.075-.155-.152-.309-.237-.458.085.149.161.3.237.458" transform="translate(-69.716 -65.594)" fill="#303030"/>
    <path id="Trazado_700422" data-name="Trazado 700422" d="M166.215,158.728c.054.06.111.117.162.178-.052-.062-.109-.118-.162-.178" transform="translate(-68.364 -65.285)" fill="#303030"/>
    <path id="Trazado_700423" data-name="Trazado 700423" d="M164.567,157.234c.054.039.108.079.161.12-.053-.041-.107-.081-.161-.12" transform="translate(-67.686 -64.67)" fill="#303030"/>
    <path id="Trazado_700424" data-name="Trazado 700424" d="M162.591,156.083c.061.027.12.058.18.087-.06-.029-.119-.06-.18-.087" transform="translate(-66.873 -64.197)" fill="#303030"/>
    <path id="Trazado_700425" data-name="Trazado 700425" d="M161.507,155.666c.073.024.144.053.215.079-.072-.026-.142-.056-.215-.079" transform="translate(-66.428 -64.025)" fill="#303030"/>
    <path id="Trazado_700426" data-name="Trazado 700426" d="M163.5,154.134a7.585,7.585,0,0,0-1.182-.542c-.151-.054-.3-.107-.458-.152a7.645,7.645,0,0,1,1.64.693" transform="translate(-66.572 -63.11)" fill="#303030"/>
    <path id="Trazado_700427" data-name="Trazado 700427" d="M163.616,156.61c.055.032.11.066.164.1-.055-.034-.109-.068-.164-.1" transform="translate(-67.295 -64.413)" fill="#303030"/>
    <path id="Trazado_700428" data-name="Trazado 700428" d="M160.425,155.376v0c.093.019.182.047.274.071-.091-.024-.18-.054-.273-.074" transform="translate(-65.982 -63.906)" fill="#303030"/>
    <path id="Trazado_700429" data-name="Trazado 700429" d="M167.342,156.657a7.8,7.8,0,0,1,.579.642,7.586,7.586,0,0,0-.579-.642" transform="translate(-68.828 -64.433)" fill="#303030"/>
    <path id="Trazado_700430" data-name="Trazado 700430" d="M166.795,156.18a7.674,7.674,0,0,0-.612-.527,7.554,7.554,0,0,1,.612.527" transform="translate(-68.351 -64.02)" fill="#303030"/>
    <path id="Trazado_700431" data-name="Trazado 700431" d="M168.944,158.609c-.1-.157-.206-.308-.317-.457q.166.223.317.457" transform="translate(-69.356 -65.048)" fill="#303030"/>
    <path id="Trazado_700432" data-name="Trazado 700432" d="M165.483,155.166a7.683,7.683,0,0,0-.642-.427c.221.131.435.274.642.427" transform="translate(-67.799 -63.644)" fill="#303030"/>
    <path id="Trazado_700433" data-name="Trazado 700433" d="M145.344,160.535a7.608,7.608,0,1,0,14.6-2.993.656.656,0,0,1-.094.618,4.077,4.077,0,0,1-.818.8,6.288,6.288,0,1,1-6.191-4.71,4.024,4.024,0,0,1,.537-1,.654.654,0,0,1,.539-.256,7.617,7.617,0,0,0-8.576,7.543" transform="translate(-59.78 -62.897)" fill="#303030"/>
    <path id="Trazado_700434" data-name="Trazado 700434" d="M160.423,153.118c.185.032.369.069.55.114-.181-.045-.364-.083-.55-.114" transform="translate(-65.982 -62.977)" fill="#303030"/>
    <path id="Trazado_700435" data-name="Trazado 700435" d="M154.726,164.391a2.088,2.088,0,1,0,3.632-1.4,4.075,4.075,0,0,1-.615-.468,2.057,2.057,0,0,0-.928-.228,2.094,2.094,0,0,0-2.088,2.092m2.859,0a.771.771,0,1,1-.771-.774.769.769,0,0,1,.771.774" transform="translate(-63.639 -66.753)" fill="#303030"/>
    <path id="Trazado_700436" data-name="Trazado 700436" d="M158.43,153.3a4.015,4.015,0,0,0-.537,1,4.062,4.062,0,0,0,3.789,5.5,4.091,4.091,0,0,0,3.22-1.591.652.652,0,0,0,.094-.618c-.005-.015-.006-.031-.013-.045-.038-.088-.09-.169-.132-.256-.075-.155-.152-.309-.237-.458-.063-.111-.13-.218-.2-.325q-.151-.235-.317-.456c-.059-.079-.115-.161-.177-.238a7.79,7.79,0,0,0-.579-.642c-.023-.022-.048-.042-.07-.064a7.76,7.76,0,0,0-.612-.527c-.049-.038-.1-.075-.149-.111a7.539,7.539,0,0,0-.642-.427c-.039-.024-.077-.048-.115-.071a7.638,7.638,0,0,0-1.64-.693c-.1-.029-.2-.052-.3-.077-.181-.045-.365-.082-.55-.114-.075-.012-.147-.035-.222-.046a.7.7,0,0,0-.079,0,.654.654,0,0,0-.539.256m3.951,2.777c.1.1.2.208.3.315.054.06.111.117.162.178.084.1.16.21.238.316a6.381,6.381,0,0,1,.354.541c.036.062.075.121.109.184.017.031.038.06.055.092l-.008.006a2.711,2.711,0,0,1-1.909.775,2.747,2.747,0,0,1-2.411-4.063v0c.092.019.181.049.273.073.122.031.244.059.363.1.073.024.144.053.215.079.143.052.285.1.423.167.061.027.121.058.181.087.144.069.286.142.423.223.055.032.109.067.164.1q.2.126.4.268c.054.039.108.079.161.12.121.094.237.195.351.3.054.048.108.1.161.146" transform="translate(-64.828 -62.944)" fill="#303030"/>
    <path id="Trazado_700437" data-name="Trazado 700437" d="M70.072,54.281a4.406,4.406,0,1,1,4.406-4.406,4.412,4.412,0,0,1-4.406,4.406m0-6.539A2.132,2.132,0,1,0,72.2,49.874a2.135,2.135,0,0,0-2.132-2.132" transform="translate(-27.008 -18.701)" fill="#303030"/>
    <path id="Trazado_700438" data-name="Trazado 700438" d="M32.344,247.772a3.928,3.928,0,1,1,3.927-3.927,3.932,3.932,0,0,1-3.927,3.927m0-5.581A1.653,1.653,0,1,0,34,243.845a1.655,1.655,0,0,0-1.653-1.654" transform="translate(-11.687 -98.678)" fill="#303030"/>
    <path id="Trazado_700439" data-name="Trazado 700439" d="M222.365,236.72a3.928,3.928,0,1,1,3.928-3.927,3.932,3.932,0,0,1-3.928,3.927m0-5.581a1.653,1.653,0,1,0,1.654,1.654,1.655,1.655,0,0,0-1.654-1.654" transform="translate(-89.843 -94.132)" fill="#303030"/>
    <path id="Trazado_700440" data-name="Trazado 700440" d="M24.381,131.55a1.842,1.842,0,1,1-1.841-1.841,1.841,1.841,0,0,1,1.841,1.841" transform="translate(-8.513 -53.349)" fill="#303030"/>
    <path id="Trazado_700441" data-name="Trazado 700441" d="M205.969,75.143a1.842,1.842,0,1,1-1.841-1.841,1.841,1.841,0,0,1,1.841,1.841" transform="translate(-83.2 -30.149)" fill="#303030"/>
  </g>
</svg>
