<svg id="Grupo_975112" data-name="Grupo 975112" xmlns="http://www.w3.org/2000/svg" xmlns:xlink="http://www.w3.org/1999/xlink" width="111.73" height="112.667" viewBox="0 0 111.73 112.667">
  <defs>
    <clipPath id="clip-path">
      <rect id="Rectángulo_340263" data-name="Rectángulo 340263" width="111.73" height="112.667" fill="none"/>
    </clipPath>
  </defs>
  <g id="Grupo_974398" data-name="Grupo 974398">
    <g id="Grupo_974397" data-name="Grupo 974397" clip-path="url(#clip-path)">
      <path id="Trazado_700806" data-name="Trazado 700806" d="M134.075,49.369A49.2,49.2,0,1,1,84.873,0a49.285,49.285,0,0,1,49.2,49.368" transform="translate(-22.345 -0.001)" fill="#ffdeb8"/>
    </g>
  </g>
  <g id="Grupo_974400" data-name="Grupo 974400">
    <g id="Grupo_974399" data-name="Grupo 974399" clip-path="url(#clip-path)">
      <path id="Trazado_700807" data-name="Trazado 700807" d="M36.9,111.315l-5.061,5.152c.345.334.732.7,1.112,1.079a4.479,4.479,0,0,1,1.4,2.565,3.7,3.7,0,0,1-.957,3.27c-1.141,1.184-2.309,2.343-3.485,3.494a1.263,1.263,0,0,1-2-.028c-.732-.715-1.444-1.45-2.2-2.215-.143.123-.274.22-.388.334q-7.4,7.412-14.809,14.822a6.068,6.068,0,0,1-9.942-1.72A5.681,5.681,0,0,1,1.7,131.513c2.271-2.4,4.648-4.7,6.986-7.038q4.082-4.082,8.179-8.15c.218-.216.158-.35-.028-.533q-.96-.949-1.9-1.918a1.316,1.316,0,0,1,.006-2.139q1.544-1.584,3.1-3.157A4.146,4.146,0,0,1,24,108.551c.44.432.87.874,1.261,1.268l5.222-5.049c-.668-.649-1.27-1.231-1.868-1.816a5.162,5.162,0,0,1-.268-7.312Q29.9,94.033,31.5,92.477a.658.658,0,0,0,.183-.844A33.716,33.716,0,0,1,29.3,78.5a32.961,32.961,0,0,1,.865-6.535c.033-.148.065-.3.1-.48a2.93,2.93,0,0,0-.343-.044c-8.21,0-16.421,0-24.631.027a5.15,5.15,0,0,1-5-3.592,6.475,6.475,0,0,1-.245-1.74C.036,61.247.047,56.359.043,51.47A5.066,5.066,0,0,1,4.6,46.4c.4-.019.8-.073,1.207-.073q18.044-.006,36.088,0a5.208,5.208,0,0,1,4.272,1.669,17.291,17.291,0,0,1,1.243,1.944c.361-.164.794-.356,1.224-.555A33.008,33.008,0,0,1,92.516,66.008,33.151,33.151,0,0,1,95.24,76.2a33.236,33.236,0,0,1-12.131,28.853,32.412,32.412,0,0,1-16.174,7.031,33.308,33.308,0,0,1-7.007.278,32.691,32.691,0,0,1-9.91-2.336.59.59,0,0,0-.763.155c-.964,1.01-1.937,2.013-2.932,2.992a5.117,5.117,0,0,1-7.448.032c-.637-.612-1.277-1.222-1.975-1.89M47.514,64.5h.025c0,.621.015,1.242,0,1.862a5.036,5.036,0,0,1-3.022,4.643,6.2,6.2,0,0,1-3.1.451.583.583,0,0,0-.663.472A21.284,21.284,0,0,0,39.683,82.01a22.024,22.024,0,0,0,7.762,14.533,22.732,22.732,0,0,0,34.5-28.583A22.585,22.585,0,0,0,71.84,58.718a19.97,19.97,0,0,0-6.672-1.894,24.423,24.423,0,0,0-6.537.06,22.7,22.7,0,0,0-10.807,4.864.929.929,0,0,0-.3.613c-.037.712-.014,1.427-.014,2.14M37.99,71.442h-.6c-1.288,0-2.576.014-3.864-.008-.33-.006-.45.087-.532.409a31.028,31.028,0,0,0-.836,9.783,29.793,29.793,0,0,0,2.6,10.257,30.111,30.111,0,0,0,8.934,11.38,29.283,29.283,0,0,0,14.657,6.125A30.1,30.1,0,0,0,85.9,98.465a29.218,29.218,0,0,0,6.553-15.976,29.956,29.956,0,0,0-1.688-13.626A29.494,29.494,0,0,0,79.656,54.532,30.115,30.115,0,0,0,58.962,49.3a29.447,29.447,0,0,0-11.1,3.477.568.568,0,0,0-.349.58c.022,1.474.025,2.948.034,4.422,0,.195,0,.389,0,.692a25.994,25.994,0,0,1,8.8-3.962,24.787,24.787,0,0,1,9.6-.458,26.273,26.273,0,0,1,9.063,3.059,25.615,25.615,0,0,1-20.535,46.648A24.772,24.772,0,0,1,41.709,94.48c-5.027-7.029-6.15-14.718-3.719-23.038M23.853,68.671v.009q9.194,0,18.388,0a3.314,3.314,0,0,0,.739-.059,2.293,2.293,0,0,0,1.768-2.461c0-4.639-.042-9.279.023-13.917.025-1.8-.739-3.2-3.189-3.181-9.434.068-18.868.035-28.3.041-2.685,0-5.369-.007-8.054.024a2.261,2.261,0,0,0-2.4,2.354c-.026.822-.008,1.644-.007,2.467,0,4.081-.008,8.161.022,12.241a2.35,2.35,0,0,0,2.579,2.484H23.853m-4.817,49.354c-.1.089-.192.167-.277.253q-7.278,7.273-14.553,14.549a8.138,8.138,0,0,0-.693.753,3.1,3.1,0,0,0-.352,3.415,3.136,3.136,0,0,0,2.879,1.881,3.675,3.675,0,0,0,2.818-1.311q7.156-7.165,14.326-14.316a6.927,6.927,0,0,1,.594-.48l-4.741-4.744m14.09-23.232a1.829,1.829,0,0,0-.266.176c-.758.755-1.52,1.507-2.267,2.274a2.4,2.4,0,0,0,.047,3.815q5.052,5.051,10.1,10.107a2.376,2.376,0,0,0,3.618.041c.808-.771,1.6-1.558,2.4-2.341a1.169,1.169,0,0,0,.141-.241,33.027,33.027,0,0,1-13.77-13.832M21.019,109.9a7.78,7.78,0,0,0-1.157.744c-.657.612-1.255,1.288-1.892,1.923-.211.211-.164.328.031.523q5.325,5.3,10.627,10.63c.23.232.358.218.561.012.631-.641,1.282-1.263,1.905-1.911a1.407,1.407,0,0,0-.013-2.3c-.192-.2-.393-.4-.591-.593-1.232-1.224-2.468-2.445-3.7-3.674-1.545-1.548-3.073-3.114-4.634-4.645a6.426,6.426,0,0,0-1.144-.712m14.031-.655-2.6-2.444L27.4,111.787l2.528,2.581,5.122-5.126" transform="translate(0 -29.015)"/>
      <path id="Trazado_700808" data-name="Trazado 700808" d="M152.019,234.268c6.083,0,12.166.009,18.249,0,3.247-.006,5.45,2.025,5.486,5.264.055,4.856.037,9.713.005,14.569a4.911,4.911,0,0,1-3.041,4.809,6.267,6.267,0,0,1-2.44.479q-18.342.044-36.684.017a5.081,5.081,0,0,1-5.183-4.007,6.96,6.96,0,0,1-.121-1.434c-.006-4.716-.014-9.433.016-14.15a7.117,7.117,0,0,1,.325-2.233,5,5,0,0,1,4.766-3.307c3.522-.008,7.045,0,10.567,0h8.054Zm.049,2.788h-14.9c-1.273,0-2.545-.012-3.817,0a2.224,2.224,0,0,0-2.285,2.21q-.008,7.517,0,15.035a2.251,2.251,0,0,0,1.822,2.22,8.123,8.123,0,0,0,1.481.095q17.318.008,34.636,0c.59,0,1.18,0,1.769-.015a2.232,2.232,0,0,0,2.2-2.2c.029-.821.015-1.644.015-2.467,0-4.158-.025-8.316.012-12.474a2.557,2.557,0,0,0-2.506-2.436c-6.144.049-12.29.022-18.435.022" transform="translate(-80.356 -146.74)"/>
      <path id="Trazado_700809" data-name="Trazado 700809" d="M113.735,81.79c0-.714-.023-1.429.014-2.14a.929.929,0,0,1,.3-.613,22.7,22.7,0,0,1,10.807-4.864,24.423,24.423,0,0,1,6.537-.06,19.971,19.971,0,0,1,6.672,1.894,22.634,22.634,0,0,1,13.121,21.078A22.723,22.723,0,0,1,105.9,99.3a21.288,21.288,0,0,1,1.073-10.082.584.584,0,0,1,.663-.473,6.2,6.2,0,0,0,3.1-.45,5.035,5.035,0,0,0,3.022-4.643c.018-.62,0-1.241,0-1.862h-.025m11.033,16.962c-.316-.318-.56-.554-.794-.8-1.482-1.565-2.971-3.123-4.438-4.7a5.085,5.085,0,0,0-2.875-1.667,4.58,4.58,0,0,0-5.321,4.375,4.92,4.92,0,0,0,1.543,3.566c1.513,1.558,3,3.141,4.5,4.713,1.423,1.494,2.831,3,4.274,4.477a4.045,4.045,0,0,0,2.565,1.188,4.748,4.748,0,0,0,4.105-1.652q5.39-5.76,10.809-11.491c1.725-1.826,3.472-3.63,5.216-5.438a5.065,5.065,0,0,0,1.328-2.357,4.574,4.574,0,0,0-4.868-5.547,4.958,4.958,0,0,0-3.126,1.75q-6.063,6.373-12.135,12.737c-.256.268-.5.545-.781.851" transform="translate(-66.221 -46.304)" fill="#9cfdff"/>
      <path id="Trazado_700810" data-name="Trazado 700810" d="M91.779,76.138C89.347,84.457,90.47,92.147,95.5,99.175a24.767,24.767,0,0,0,12.763,9.275A25.629,25.629,0,0,0,128.8,61.8a26.276,26.276,0,0,0-9.063-3.058,24.786,24.786,0,0,0-9.6.458,25.99,25.99,0,0,0-8.8,3.961c0-.3,0-.5,0-.692-.009-1.474-.012-2.948-.034-4.422a.567.567,0,0,1,.348-.58,29.449,29.449,0,0,1,11.1-3.477,30.113,30.113,0,0,1,20.693,5.235,29.494,29.494,0,0,1,11.109,14.331,29.952,29.952,0,0,1,1.688,13.626,29.219,29.219,0,0,1-6.552,15.976,30.1,30.1,0,0,1-27.552,10.924,29.286,29.286,0,0,1-14.657-6.126,30.11,30.11,0,0,1-8.933-11.38,29.791,29.791,0,0,1-2.6-10.257,31.026,31.026,0,0,1,.837-9.782c.082-.322.2-.415.531-.409,1.288.022,2.576.009,3.864.008h.6" transform="translate(-53.788 -33.711)" fill="#ffc403"/>
      <path id="Trazado_700811" data-name="Trazado 700811" d="M28.568,73.261H10.133a2.35,2.35,0,0,1-2.579-2.484c-.029-4.08-.017-8.161-.021-12.241,0-.822-.018-1.645.007-2.467a2.261,2.261,0,0,1,2.4-2.354c2.684-.031,5.369-.022,8.053-.024,9.434-.007,18.869.026,28.3-.042,2.45-.018,3.214,1.382,3.189,3.181-.065,4.638-.02,9.278-.023,13.917a2.294,2.294,0,0,1-1.768,2.461,3.287,3.287,0,0,1-.738.059q-9.194,0-18.388,0ZM28.461,68.6V68.6q7.587,0,15.174,0a5.342,5.342,0,0,0,1.016-.085A1.323,1.323,0,0,0,44.9,66a2.738,2.738,0,0,0-.947-.183q-15.384-.013-30.768,0a3.721,3.721,0,0,0-.828.1,1.314,1.314,0,0,0-1.026,1.323,1.334,1.334,0,0,0,1.08,1.283,5.905,5.905,0,0,0,1.018.075q7.517.007,15.035,0m4.726-7.445q5.192,0,10.384,0a5.811,5.811,0,0,0,1.063-.082,1.334,1.334,0,0,0,1.071-1.247,1.373,1.373,0,0,0-.92-1.319,2.95,2.95,0,0,0-.867-.133q-10.571-.011-21.142,0a3.507,3.507,0,0,0-.873.108,1.345,1.345,0,0,0,.024,2.6,3.318,3.318,0,0,0,.783.072q5.238.006,10.477,0m-18.049-.071v.071c.759,0,1.519.015,2.278,0a1.381,1.381,0,0,0,1.333-.84,1.279,1.279,0,0,0-.226-1.428,1.654,1.654,0,0,0-1.343-.516q-2.046-.01-4.091,0a2.922,2.922,0,0,0-.779.105,1.255,1.255,0,0,0-.95,1.033,1.277,1.277,0,0,0,1.087,1.559c.891.074,1.793.017,2.69.017" transform="translate(-4.714 -33.605)" fill="#fff"/>
      <path id="Trazado_700812" data-name="Trazado 700812" d="M23.744,238.241l4.741,4.744a6.923,6.923,0,0,0-.594.48q-7.168,7.153-14.326,14.316a3.675,3.675,0,0,1-2.818,1.311,3.136,3.136,0,0,1-2.879-1.882,3.1,3.1,0,0,1,.353-3.415,8.141,8.141,0,0,1,.692-.753q7.275-7.277,14.554-14.549c.086-.086.179-.163.277-.253" transform="translate(-4.708 -149.231)" fill="#ffc403"/>
      <path id="Trazado_700813" data-name="Trazado 700813" d="M82.877,176.059a33.027,33.027,0,0,0,13.77,13.832,1.152,1.152,0,0,1-.141.241c-.8.783-1.589,1.57-2.4,2.341a2.377,2.377,0,0,1-3.618-.042q-5.047-5.056-10.1-10.107a2.4,2.4,0,0,1-.047-3.815c.746-.767,1.508-1.519,2.267-2.274a1.857,1.857,0,0,1,.265-.176" transform="translate(-49.751 -110.281)" fill="#ffc403"/>
      <path id="Trazado_700814" data-name="Trazado 700814" d="M50.917,216.489a6.436,6.436,0,0,1,1.143.712c1.561,1.531,3.088,3.1,4.634,4.645,1.227,1.229,2.463,2.449,3.7,3.674.2.2.4.391.591.593a1.407,1.407,0,0,1,.013,2.3c-.623.649-1.274,1.271-1.905,1.912-.2.206-.331.219-.561-.012q-5.3-5.329-10.627-10.63c-.2-.195-.242-.312-.031-.523.636-.635,1.234-1.311,1.891-1.923a7.8,7.8,0,0,1,1.157-.744" transform="translate(-29.898 -135.606)" fill="#ffc403"/>
      <path id="Trazado_700815" data-name="Trazado 700815" d="M80.989,210.636l-5.122,5.126-2.528-2.581,5.045-4.989,2.6,2.444" transform="translate(-45.939 -130.409)" fill="#ffc403"/>
      <path id="Trazado_700816" data-name="Trazado 700816" d="M156.73,241.7c6.145,0,12.29.028,18.435-.022a2.557,2.557,0,0,1,2.506,2.436c-.038,4.158-.012,8.316-.013,12.474,0,.822.014,1.645-.015,2.466a2.232,2.232,0,0,1-2.2,2.2c-.589.021-1.179.015-1.769.015q-17.318,0-34.636,0a8.192,8.192,0,0,1-1.481-.095,2.252,2.252,0,0,1-1.823-2.22q-.007-7.517,0-15.035a2.224,2.224,0,0,1,2.284-2.21c1.272-.017,2.545,0,3.818,0h14.9m-.1,12.11q-7.726,0-15.452,0a3.087,3.087,0,0,0-.646.056,1.335,1.335,0,0,0-1.079,1.33,1.364,1.364,0,0,0,1.1,1.318,4.263,4.263,0,0,0,.829.08q15.312.006,30.625,0a3.238,3.238,0,0,0,1.042-.176,1.269,1.269,0,0,0,.838-1.269,1.4,1.4,0,0,0-1.018-1.25,3.529,3.529,0,0,0-.783-.083q-7.727-.007-15.452,0m4.9-7.449v0q-5.281,0-10.562,0a4.443,4.443,0,0,0-.74.046,1.3,1.3,0,0,0-1.135,1.225,1.407,1.407,0,0,0,1.005,1.4,3.434,3.434,0,0,0,.872.1q10.538.008,21.077,0a3.08,3.08,0,0,0,1.039-.189,1.269,1.269,0,0,0,.8-1.295,1.4,1.4,0,0,0-1.008-1.209,3.479,3.479,0,0,0-.782-.084q-5.281-.008-10.562,0m-18.35.007v-.006c-.744,0-1.488,0-2.232,0a1.388,1.388,0,1,0,.009,2.768c1.533.052,3.068.034,4.6.006A1.425,1.425,0,0,0,147,248.05a1.393,1.393,0,0,0-1.453-1.675c-.789-.032-1.58-.006-2.371-.006" transform="translate(-85.018 -151.385)" fill="#fff"/>
      <path id="Trazado_700817" data-name="Trazado 700817" d="M134.193,114.625c.28-.305.526-.582.781-.851q6.066-6.369,12.134-12.737a4.961,4.961,0,0,1,3.126-1.75,4.574,4.574,0,0,1,4.868,5.547,5.075,5.075,0,0,1-1.328,2.358c-1.744,1.808-3.491,3.612-5.216,5.438q-5.418,5.734-10.809,11.491a4.748,4.748,0,0,1-4.105,1.652,4.044,4.044,0,0,1-2.565-1.188c-1.444-1.474-2.852-2.983-4.275-4.477-1.5-1.573-2.985-3.155-4.5-4.713a4.918,4.918,0,0,1-1.542-3.566,4.58,4.58,0,0,1,5.321-4.375,5.087,5.087,0,0,1,2.875,1.667c1.466,1.579,2.956,3.138,4.438,4.7.234.247.479.483.794.8m-10.635-2.832a1.991,1.991,0,0,0,.745,1.692q4.163,4.391,8.332,8.777a1.834,1.834,0,0,0,3.009.016c1.057-1.072,2.11-2.146,3.142-3.241,2.894-3.07,5.77-6.157,8.667-9.224,1.459-1.545,2.962-3.05,4.42-4.6a1.836,1.836,0,0,0-.012-2.665,1.787,1.787,0,0,0-2.608.18c-.7.708-1.378,1.43-2.059,2.151q-5.864,6.209-11.725,12.421c-.91.964-1.629.979-2.564.031-.61-.618-1.188-1.267-1.785-1.9-1.5-1.591-2.995-3.19-4.512-4.766a1.8,1.8,0,0,0-3.051,1.123" transform="translate(-75.645 -62.178)"/>
      <path id="Trazado_700818" data-name="Trazado 700818" d="M34.834,88.988q-7.517,0-15.034,0a5.983,5.983,0,0,1-1.018-.075,1.334,1.334,0,0,1-1.08-1.283A1.314,1.314,0,0,1,18.728,86.3a3.722,3.722,0,0,1,.828-.1q15.384-.007,30.768,0a2.733,2.733,0,0,1,.948.183,1.323,1.323,0,0,1-.247,2.512,5.344,5.344,0,0,1-1.016.085q-7.587.008-15.174,0v-.006" transform="translate(-11.088 -53.997)"/>
      <path id="Trazado_700819" data-name="Trazado 700819" d="M55.62,69.054q-5.238,0-10.477,0a3.319,3.319,0,0,1-.783-.071,1.346,1.346,0,0,1-.024-2.605,3.524,3.524,0,0,1,.873-.107q10.571-.008,21.142,0a2.965,2.965,0,0,1,.867.132,1.374,1.374,0,0,1,.92,1.319,1.334,1.334,0,0,1-1.071,1.248A5.843,5.843,0,0,1,66,69.05q-5.192.008-10.384,0" transform="translate(-27.148 -41.506)"/>
      <path id="Trazado_700820" data-name="Trazado 700820" d="M21.525,68.977c-.9,0-1.8.056-2.69-.017A1.277,1.277,0,0,1,17.748,67.4a1.255,1.255,0,0,1,.95-1.033,2.922,2.922,0,0,1,.779-.105q2.046-.015,4.091,0a1.655,1.655,0,0,1,1.343.516,1.279,1.279,0,0,1,.226,1.428,1.381,1.381,0,0,1-1.333.84c-.758.02-1.518,0-2.278,0v-.071" transform="translate(-11.102 -41.501)"/>
      <path id="Trazado_700821" data-name="Trazado 700821" d="M162.876,274.151q7.726,0,15.452,0a3.507,3.507,0,0,1,.783.083,1.4,1.4,0,0,1,1.018,1.25,1.269,1.269,0,0,1-.838,1.269,3.247,3.247,0,0,1-1.042.176q-15.312.013-30.625,0a4.287,4.287,0,0,1-.829-.08,1.364,1.364,0,0,1-1.1-1.319,1.334,1.334,0,0,1,1.078-1.329,3.061,3.061,0,0,1,.646-.056q7.726,0,15.452,0" transform="translate(-91.265 -171.725)"/>
      <path id="Trazado_700822" data-name="Trazado 700822" d="M183.929,254.21q5.281,0,10.562,0a3.481,3.481,0,0,1,.782.084,1.4,1.4,0,0,1,1.008,1.209,1.269,1.269,0,0,1-.8,1.295,3.079,3.079,0,0,1-1.038.189q-10.539.016-21.077,0a3.454,3.454,0,0,1-.872-.1,1.407,1.407,0,0,1-1.005-1.4,1.3,1.3,0,0,1,1.134-1.224,4.415,4.415,0,0,1,.741-.046q5.281,0,10.562,0Z" transform="translate(-107.419 -159.234)"/>
      <path id="Trazado_700823" data-name="Trazado 700823" d="M149.413,254.214c.791,0,1.582-.025,2.371.006a1.393,1.393,0,0,1,1.453,1.675,1.425,1.425,0,0,1-1.444,1.088c-1.534.028-3.07.046-4.6-.006a1.388,1.388,0,1,1-.009-2.768c.744-.007,1.488,0,2.232,0v.006" transform="translate(-91.253 -159.231)"/>
      <path id="Trazado_700824" data-name="Trazado 700824" d="M128.239,116.493a1.8,1.8,0,0,1,3.051-1.123c1.517,1.576,3.011,3.175,4.512,4.766.6.632,1.175,1.281,1.785,1.9.935.948,1.654.932,2.564-.031q5.864-6.209,11.725-12.421c.681-.721,1.363-1.443,2.059-2.151a1.787,1.787,0,0,1,2.608-.18,1.836,1.836,0,0,1,.012,2.665c-1.459,1.546-2.961,3.051-4.42,4.6-2.9,3.067-5.773,6.154-8.667,9.224-1.032,1.095-2.086,2.17-3.142,3.241a1.834,1.834,0,0,1-3.009-.016q-4.171-4.384-8.332-8.777a1.992,1.992,0,0,1-.745-1.692" transform="translate(-80.327 -66.878)" fill="#b20d0d"/>
    </g>
  </g>
</svg>
