<svg id="Grupo_992527" data-name="Grupo 992527" xmlns="http://www.w3.org/2000/svg" width="130.395" height="130.395" viewBox="0 0 130.395 130.395">
  <path id="Trazado_706291" data-name="Trazado 706291" d="M65.2,0A65.2,65.2,0,1,1,0,65.2,65.2,65.2,0,0,1,65.2,0" fill="#ffe8ce"/>
  <g id="Grupo_992528" data-name="Grupo 992528" transform="translate(-1.469 -9)">
    <path id="Trazado_706305" data-name="Trazado 706305" d="M60.42,25.5a7.036,7.036,0,0,1-3.856-1.147v6.326h7.713V24.353A7.037,7.037,0,0,1,60.42,25.5" transform="translate(5.424 2.259)" fill="#e8a700"/>
    <path id="Trazado_706306" data-name="Trazado 706306" d="M100.611,92.222a.725.725,0,0,0-.891,0l-5.783,4.5a.725.725,0,0,1-1.17-.571V76.09A15.7,15.7,0,0,1,103.13,46.828V33.339a1.207,1.207,0,0,0-1.207-1.207H84.266v8.839a.967.967,0,0,1-.967.967H47.834a.967.967,0,0,1-.967-.967V32.132H29.211A1.207,1.207,0,0,0,28,33.339v95.48a1.207,1.207,0,0,0,1.207,1.207h72.71a1.207,1.207,0,0,0,1.207-1.207V94.183Z" transform="translate(0.277 3.661)" fill="#a03d3d"/>
    <path id="Trazado_706307" data-name="Trazado 706307" d="M38.355,128.815V123.75H35a.725.725,0,0,1-.725-.725V39.13A.725.725,0,0,1,35,38.4h3.353V33.339a1.207,1.207,0,0,1,1.207-1.207H29.211A1.207,1.207,0,0,0,28,33.339v95.48a1.207,1.207,0,0,0,1.207,1.207H39.562a1.207,1.207,0,0,1-1.207-1.207Z" transform="translate(0.277 3.661)" fill="#a03d3d"/>
    <path id="Trazado_706308" data-name="Trazado 706308" d="M92.979,95.769a.725.725,0,0,1-1.17-.571V75.126A15.7,15.7,0,0,1,95.9,45.943V38.178a.725.725,0,0,0-.725-.725H83.308v2.566a.967.967,0,0,1-.967.967H46.876a.967.967,0,0,1-.967-.967V37.445H34.044a.725.725,0,0,0-.725.725v83.9a.725.725,0,0,0,.725.725H95.179a.725.725,0,0,0,.725-.725V93.494Z" transform="translate(1.234 4.618)" fill="#d8eff8"/>
    <path id="Trazado_706309" data-name="Trazado 706309" d="M40.566,122.066V38.172a.725.725,0,0,1,.725-.725H34.044a.725.725,0,0,0-.725.725v83.895a.725.725,0,0,0,.725.725H41.29a.725.725,0,0,1-.725-.725" transform="translate(1.234 4.619)" fill="#bde4f8"/>
    <path id="Trazado_706310" data-name="Trazado 706310" d="M80.456,42.614H44.991a1.207,1.207,0,0,1-1.211-1.2V30.921a1.207,1.207,0,0,1,1.207-1.207H80.453a1.207,1.207,0,0,1,1.207,1.207V41.406a1.207,1.207,0,0,1-1.2,1.207" transform="translate(3.12 3.225)" fill="#ffc403"/>
    <path id="Trazado_706311" data-name="Trazado 706311" d="M50.008,41.406V30.921a1.207,1.207,0,0,1,1.207-1.207H44.99a1.207,1.207,0,0,0-1.21,1.205V41.406a1.207,1.207,0,0,0,1.207,1.207h6.228A1.207,1.207,0,0,1,50.008,41.406Z" transform="translate(3.12 3.225)" fill="#e8a700"/>
    <path id="Trazado_706312" data-name="Trazado 706312" d="M90.277,71.228a15.621,15.621,0,0,1-7.4-1.852V89.44a.725.725,0,0,0,1.17.571l5.783-4.5a.725.725,0,0,1,.891,0l5.783,4.5a.725.725,0,0,0,1.17-.571V69.376a15.617,15.617,0,0,1-7.4,1.852" transform="translate(10.166 10.373)" fill="#b20d0d"/>
    <path id="Trazado_706313" data-name="Trazado 706313" d="M82.878,69.376V89.44a.725.725,0,0,0,1.17.571l4.988-3.884V71.173a15.6,15.6,0,0,1-6.157-1.8" transform="translate(10.166 10.373)" fill="#da0021"/>
    <path id="Trazado_706314" data-name="Trazado 706314" d="M91.543,44.342a15.7,15.7,0,1,1-15.7,15.7,15.7,15.7,0,0,1,15.7-15.7" transform="translate(8.898 5.861)" fill="#abffff"/>
    <path id="Trazado_706315" data-name="Trazado 706315" d="M83.845,60.04a15.7,15.7,0,0,1,11.7-15.182,15.7,15.7,0,1,0,0,30.365,15.7,15.7,0,0,1-11.7-15.182" transform="translate(8.9 5.861)" fill="#06d1d1"/>
    <path id="Trazado_706316" data-name="Trazado 706316" d="M60.909,13.358a7.062,7.062,0,1,1-7.062,7.062,7.062,7.062,0,0,1,7.062-7.062" transform="translate(4.934 0.277)" fill="#ffc403"/>
    <path id="Trazado_706317" data-name="Trazado 706317" d="M59.916,20.42a7.061,7.061,0,0,1,4.028-6.373,7.062,7.062,0,1,0,0,12.757,7.062,7.062,0,0,1-4.028-6.384" transform="translate(4.934 0.278)" fill="#e8a700"/>
    <path id="Trazado_706318" data-name="Trazado 706318" d="M49.939,50.243l-4.1,4.1L43.64,52.154a1.812,1.812,0,0,0-2.562,2.562l3.475,3.475a1.811,1.811,0,0,0,2.562,0L52.5,52.8a1.812,1.812,0,0,0-2.562-2.562Z" transform="translate(2.537 6.829)" fill="#040405"/>
    <path id="Trazado_706319" data-name="Trazado 706319" d="M49.939,64.461l-4.1,4.1L43.64,66.372a1.812,1.812,0,0,0-2.562,2.562l3.475,3.475a1.811,1.811,0,0,0,2.562,0L52.5,67.022a1.812,1.812,0,0,0-2.562-2.562Z" transform="translate(2.537 9.391)" fill="#040405"/>
    <path id="Trazado_706320" data-name="Trazado 706320" d="M55.878,72.371h25.94a1.812,1.812,0,0,0,0-3.623H55.878a1.812,1.812,0,0,0,0,3.623" transform="translate(4.973 10.26)" fill="#040405"/>
    <path id="Trazado_706321" data-name="Trazado 706321" d="M49.939,78.673l-4.1,4.1L43.64,80.584a1.812,1.812,0,0,0-2.562,2.562l3.475,3.476a1.811,1.811,0,0,0,2.562,0L52.5,81.235a1.812,1.812,0,0,0-2.562-2.562" transform="translate(2.537 11.953)" fill="#040405"/>
    <path id="Trazado_706322" data-name="Trazado 706322" d="M81.818,77.888H55.878a1.812,1.812,0,0,0,0,3.623h25.94a1.812,1.812,0,0,0,0-3.623" transform="translate(4.973 11.907)" fill="#040405"/>
    <path id="Trazado_706323" data-name="Trazado 706323" d="M81.818,82.96H55.878a1.812,1.812,0,0,0,0,3.623h25.94a1.812,1.812,0,0,0,0-3.623" transform="translate(4.973 12.821)" fill="#040405"/>
    <path id="Trazado_706324" data-name="Trazado 706324" d="M49.939,92.885l-4.1,4.106L43.64,94.8a1.812,1.812,0,0,0-2.562,2.562l3.475,3.475a1.811,1.811,0,0,0,2.562,0L52.5,95.447a1.812,1.812,0,0,0-2.562-2.562" transform="translate(2.537 14.514)" fill="#040405"/>
    <path id="Trazado_706325" data-name="Trazado 706325" d="M81.818,92.1H55.878a1.812,1.812,0,1,0,0,3.623h25.94a1.812,1.812,0,0,0,0-3.623" transform="translate(4.973 14.468)" fill="#040405"/>
    <path id="Trazado_706326" data-name="Trazado 706326" d="M83.63,98.985a1.811,1.811,0,0,0-1.812-1.812H55.878a1.812,1.812,0,1,0,0,3.623h25.94a1.811,1.811,0,0,0,1.813-1.81Z" transform="translate(4.973 15.382)" fill="#040405"/>
    <path id="Trazado_706327" data-name="Trazado 706327" d="M116.157,67.543A1.811,1.811,0,0,0,114,68.917v0a13.886,13.886,0,1,1-.4-7.48,1.812,1.812,0,0,0,3.449-1.113l-.018-.051a17.5,17.5,0,0,0-11.8-11.223V37a3.023,3.023,0,0,0-3.019-3.019H86.587a3.02,3.02,0,0,0-3.011-2.854H71.511V27.521a8.874,8.874,0,1,0-12.5-1.16,8.979,8.979,0,0,0,1.16,1.16v3.608H48.111A3.02,3.02,0,0,0,45.1,33.982H29.488A3.023,3.023,0,0,0,26.469,37v95.48a3.023,3.023,0,0,0,3.019,3.019H102.2a3.023,3.023,0,0,0,3.019-3.019V101.559l.34.264a2.536,2.536,0,0,0,4.094-2.006V80.792a17.576,17.576,0,0,0,7.88-11.094,1.812,1.812,0,0,0-1.374-2.155M101.595,48.432c-.382-.025-.766-.041-1.152-.041-.505,0-1,.026-1.5.068V42.794a2.539,2.539,0,0,0-2.536-2.536H86.6V37.6h15ZM65.843,15.447A5.251,5.251,0,1,1,60.593,20.7a5.251,5.251,0,0,1,5.251-5.251M63.8,29.331a8.8,8.8,0,0,0,4.089,0v1.8H63.8Zm37.8,102.541h-71.5V37.6h15v2.65H35.278a2.539,2.539,0,0,0-2.536,2.536v83.9a2.539,2.539,0,0,0,2.536,2.536H79.453a1.812,1.812,0,0,0,0-3.623H36.365V43.877h8.727v.757a3.023,3.023,0,0,0,3.019,3.019h6.468a1.812,1.812,0,1,0,0-3.623H48.714V34.751H82.972v9.277H63.026a1.812,1.812,0,1,0,0,3.623H83.57a3.023,3.023,0,0,0,3.019-3.019v-.754h8.727v5.279a17.578,17.578,0,0,0-9.478,7.091H60.851a1.812,1.812,0,0,0,0,3.623H84a17.45,17.45,0,0,0-.681,2.36H60.851a1.812,1.812,0,1,0,0,3.623H82.933V65.9a17.4,17.4,0,0,0,1.519,7.12h-23.6a1.812,1.812,0,1,0,0,3.623h25.78a17.629,17.629,0,0,0,4.6,4.14V99.815a2.533,2.533,0,0,0,4.089,2.006V125.6H87.908a1.812,1.812,0,0,0,0,3.623h8.5a2.539,2.539,0,0,0,2.536-2.536V99l1.5-1.166,1.152.9v33.143ZM106.03,97.59,102,94.453a2.535,2.535,0,0,0-3.117,0L94.857,97.59v-15.1a17.415,17.415,0,0,0,11.174,0Z" transform="translate(0 0)" fill="#040405"/>
    <path id="Trazado_706328" data-name="Trazado 706328" d="M96.243,53.678,89.524,60.4l-3.881-3.881a1.812,1.812,0,1,0-2.562,2.562l5.161,5.161a1.811,1.811,0,0,0,2.562,0l8-8a1.812,1.812,0,0,0-2.562-2.562Z" transform="translate(10.107 7.448)" fill="#040405"/>
    <path id="Trazado_706329" data-name="Trazado 706329" d="M71.868,35.457a1.811,1.811,0,0,0-1.812-1.812H52.793a1.812,1.812,0,0,0,0,3.623H70.056a1.811,1.811,0,0,0,1.812-1.812" transform="translate(4.418 3.934)" fill="#040405"/>
  </g>
</svg>
