<svg xmlns="http://www.w3.org/2000/svg" width="188" height="201" viewBox="0 0 188 201">
  <g id="Grupo_992578" data-name="Grupo 992578" transform="translate(-287 -1753)">
    <rect id="Rectángulo_349397" data-name="Rectángulo 349397" width="188" height="201" rx="42" transform="translate(287 1753)" fill="#03a4a4"/>
    <g id="Grupo_992312" data-name="Grupo 992312" transform="translate(509.99 1033.72)">
      <path id="Trazado_705822" data-name="Trazado 705822" d="M-131.763,855.656h-4.295c0,3.255-.037,6.411.015,9.564.028,1.684-.344,2.862-2.318,3.082-1.722.191-1.942,1.529-1.939,2.992q.029,13.543.009,27.086c0,3.444-.287,3.732-3.726,3.732q-21.9,0-43.8,0c-7.36,0-11.661-4.326-11.663-11.717q-.006-36.926,0-73.852c0-7.4,4.3-11.716,11.661-11.717q51.845-.007,103.689,0c7.226,0,11.562,4.351,11.565,11.6q.011,37.032,0,74.064c0,7.253-4.338,11.607-11.545,11.623-3.668.008-7.336-.038-11,.016-1.966.029-2.8-.819-2.795-2.789.028-15.729-.009-31.459.075-47.188a5.58,5.58,0,0,1,1.376-2.842,5.593,5.593,0,0,1,1.994-1.541c4.223-2.1,5.917-5.376,5.074-10.057a12.884,12.884,0,0,1,0-4.22c.59-3.732-.88-6.392-4.334-8.458,0,2.351-.155,4.624.041,6.865a5.37,5.37,0,0,1-2.748,5.633,70.416,70.416,0,0,0-6.1,4.544,2.5,2.5,0,0,1-3.441.028c-2.455-1.894-5.025-3.648-7.39-5.646a4.441,4.441,0,0,1-1.395-2.814c-.185-2.8-.065-5.614-.065-8.79-2.533,2.179-4.829,3.849-4.381,7.551.394,3.267-.006,6.624.142,9.933a4.028,4.028,0,0,0,1.274,2.564c1.8,1.571,3.885,2.82,5.667,4.409a4.325,4.325,0,0,1,1.4,2.812c.085,15.8.055,31.6.068,47.4,0,1.748-.776,2.605-2.545,2.6-3.809-.018-7.617.008-11.426-.01-2.317-.011-2.9-.629-2.9-3.07q-.011-13.649,0-27.3c0-2.966-.452-3.3-3.384-3.551-.962-.082-1.862-.881-2.791-1.353q.7-1.338,1.4-2.676c.177-.339.511-.672.518-1.013C-131.743,860.694-131.763,858.241-131.763,855.656Zm16.935,42.181v-2.371c0-12.132-.234-24.271.116-36.394.139-4.817-.72-8.457-5.3-10.619a4.8,4.8,0,0,1-1.835-1.4,5.848,5.848,0,0,1-1.379-2.841c-.135-5.145-.114-10.3-.014-15.445a4.262,4.262,0,0,1,1.075-2.588c2.4-2.576,4.89-5.086,7.482-7.473a3.212,3.212,0,0,1,2.678-.834,3.3,3.3,0,0,1,1.289,2.527c.14,3.733.1,7.475.035,11.213a2.832,2.832,0,0,0,1.357,2.816c1.718,1.084,3.353,3.3,4.98,3.257,1.751-.043,3.541-2.026,5.132-3.377a3.946,3.946,0,0,0,1.261-2.568c.138-3.733-.032-7.478.121-11.211a3.649,3.649,0,0,1,1.375-2.689c.552-.314,1.986.309,2.652.922,2.491,2.288,4.9,4.674,7.177,7.177a5.5,5.5,0,0,1,1.305,3.127c.18,2.81-.31,5.7.135,8.449,1.036,6.389-1.261,10.845-6.957,13.681-1.316.656-1.617,1.68-1.613,3.1.049,13.825.028,27.651.034,41.476,0,.679.064,1.358.105,2.177,3.194,0,6.216,0,9.237,0,5.278-.005,7.647-2.343,7.648-7.565q0-36.821,0-73.641c0-5.419-2.305-7.747-7.675-7.747q-51.633,0-103.267,0c-5.276,0-7.641,2.34-7.641,7.567q0,36.926,0,73.852c0,5.129,2.381,7.531,7.465,7.533q20.526.008,41.053,0h2.341c0-9.128.021-17.938-.013-26.748a6.77,6.77,0,0,1,3.2-6.257c1.17-.74,1.6-8.522.563-9.432-.1-.089-.318-.094-.366-.193-.394-.808-1.219-1.783-1.01-2.4a3.2,3.2,0,0,1,2.206-1.46,20.311,20.311,0,0,1,3.885-.062V823.021c0-.917.017-1.835,0-2.751-.032-1.441.444-2.647,2.025-2.673,1.719-.028,2.189,1.244,2.146,2.764-.014.494,0,.987,0,1.481V851.4a26.892,26.892,0,0,1,4.191.061,2.886,2.886,0,0,1,1.887,1.349c.252.516-.03,1.865-.409,2.018-1.821.735-1.412,2.194-1.431,3.535a46.3,46.3,0,0,0,.039,4.651,2.693,2.693,0,0,0,.927,1.847,6.982,6.982,0,0,1,3.276,6.446c-.039,8.111-.014,16.224-.014,24.335v2.2Z" transform="translate(0 -28.878)"/>
      <path id="Trazado_705823" data-name="Trazado 705823" d="M-57.1,767.163c0,.634.026,1.41-.006,2.185-.053,1.3-.708,2.213-2.04,2.232a1.988,1.988,0,0,1-2.091-2.171c-.053-1.338.008-2.68-.03-4.019a6.271,6.271,0,0,0-6.431-6.423q-10.577-.083-21.155,0a6.252,6.252,0,0,0-6.323,6.311,21.22,21.22,0,0,1-.112,4.21c-.2.814-1.218,1.939-1.915,1.972a2.718,2.718,0,0,1-2.019-1.8,27.5,27.5,0,0,1,.532-7.735,10.016,10.016,0,0,1,9.73-7.118c7.121-.086,14.245-.075,21.367-.009C-62.015,754.852-56.6,759.2-57.1,767.163Z" transform="translate(-57.8)"/>
      <path id="Trazado_705824" data-name="Trazado 705824" d="M20.5,937.928c0-6.7.015-13.393-.011-20.09-.006-1.479.249-2.829,1.993-2.888,1.885-.065,2.2,1.316,2.2,2.895q-.027,20.3,0,40.6c0,1.479-.251,2.83-1.994,2.89-1.883.064-2.2-1.316-2.194-2.9C20.516,951.6,20.5,944.766,20.5,937.928Z" transform="translate(-126.864 -92.39)"/>
      <path id="Trazado_705825" data-name="Trazado 705825" d="M-45.329,977.771c0,3.241-.021,6.481.009,9.722.014,1.439-.4,2.624-1.993,2.678-1.728.059-2.2-1.144-2.191-2.687q.031-9.933,0-19.867c-.005-1.439.4-2.622,1.992-2.678,1.73-.06,2.2,1.145,2.192,2.687C-45.348,971.007-45.329,974.389-45.329,977.771Z" transform="translate(-86.497 -121.22)"/>
      <path id="Trazado_705826" data-name="Trazado 705826" d="M-109.15,903.517h-8.531v-2.2c0-8.112-.025-16.224.014-24.335a6.982,6.982,0,0,0-3.276-6.446,2.693,2.693,0,0,1-.927-1.847,46.309,46.309,0,0,1-.039-4.651c.019-1.341-.39-2.8,1.431-3.535.379-.153.661-1.5.409-2.018a2.886,2.886,0,0,0-1.887-1.349,26.893,26.893,0,0,0-4.191-.06V827.523c0-.494-.013-.988,0-1.481.043-1.52-.427-2.792-2.146-2.764-1.581.025-2.057,1.231-2.025,2.673.02.916,0,1.834,0,2.751v28.366a20.3,20.3,0,0,0-3.885.062,3.2,3.2,0,0,0-2.206,1.459c-.208.622.617,1.6,1.01,2.4.048.1.264.1.366.193,1.036.91.607,8.693-.563,9.432a6.77,6.77,0,0,0-3.2,6.257c.033,8.81.013,17.62.013,26.748h-2.341q-20.526,0-41.053,0c-5.084,0-7.464-2.4-7.465-7.533q0-36.926,0-73.852c0-5.226,2.365-7.567,7.641-7.567q51.633,0,103.267,0c5.37,0,7.675,2.328,7.675,7.747q0,36.821,0,73.641c0,5.222-2.37,7.56-7.648,7.565-3.021,0-6.043,0-9.237,0-.041-.819-.105-1.5-.105-2.177-.006-13.825.015-27.651-.034-41.476,0-1.416.3-2.44,1.613-3.1,5.7-2.837,7.992-7.293,6.957-13.681-.445-2.749.045-5.639-.135-8.449a5.5,5.5,0,0,0-1.305-3.127c-2.273-2.5-4.686-4.889-7.177-7.177-.667-.613-2.1-1.235-2.652-.922a3.649,3.649,0,0,0-1.375,2.689c-.153,3.732.017,7.477-.121,11.211a3.947,3.947,0,0,1-1.261,2.568c-1.591,1.351-3.381,3.333-5.132,3.376-1.627.04-3.262-2.173-4.98-3.257a2.832,2.832,0,0,1-1.357-2.816c.066-3.738.1-7.48-.035-11.213a3.3,3.3,0,0,0-1.289-2.527,3.213,3.213,0,0,0-2.678.834c-2.591,2.387-5.077,4.9-7.482,7.473a4.263,4.263,0,0,0-1.075,2.588c-.1,5.147-.121,10.3.014,15.445a5.848,5.848,0,0,0,1.379,2.841,4.8,4.8,0,0,0,1.835,1.4c4.585,2.162,5.444,5.8,5.3,10.619-.35,12.122-.116,24.262-.116,36.394Zm-65.135-13.038h-.947c-.538.833-1.407,1.619-1.533,2.51a1.679,1.679,0,0,0,2.062,1.967,3.25,3.25,0,0,0,1.858-2.237C-172.735,892.072-173.763,891.232-174.285,890.479Zm8.466,0h-.947c-.538.833-1.407,1.619-1.533,2.51a1.679,1.679,0,0,0,2.062,1.967,3.25,3.25,0,0,0,1.858-2.237C-164.269,892.072-165.3,891.232-165.819,890.479Zm10.982,2.224c-1.422-.913-2.332-1.935-2.932-1.778a3.289,3.289,0,0,0-2.042,2.066,1.675,1.675,0,0,0,2.044,1.983C-156.9,894.8-156.2,893.81-154.837,892.7Z" transform="translate(-5.678 -34.558)" fill="#ffdbdb"/>
      <path id="Trazado_705827" data-name="Trazado 705827" d="M-156.77,993.767c.521.753,1.55,1.593,1.44,2.24a3.25,3.25,0,0,1-1.858,2.237,1.679,1.679,0,0,1-2.062-1.968c.127-.891,1-1.677,1.533-2.51Z" transform="translate(-23.193 -137.847)"/>
      <path id="Trazado_705828" data-name="Trazado 705828" d="M-136.77,993.767c.521.753,1.55,1.593,1.44,2.24a3.25,3.25,0,0,1-1.858,2.237,1.679,1.679,0,0,1-2.062-1.968c.127-.891,1-1.677,1.533-2.51Z" transform="translate(-34.728 -137.847)"/>
      <path id="Trazado_705829" data-name="Trazado 705829" d="M-114.251,996.578c-1.367,1.107-2.065,2.095-2.93,2.272a1.675,1.675,0,0,1-2.044-1.983,3.289,3.289,0,0,1,2.042-2.066C-116.583,994.643-115.673,995.664-114.251,996.578Z" transform="translate(-46.265 -138.433)"/>
    </g>
  </g>
</svg>
