<svg xmlns="http://www.w3.org/2000/svg" xmlns:xlink="http://www.w3.org/1999/xlink" width="97.85" height="102" viewBox="0 0 97.85 102">
  <defs>
    <clipPath id="clip-path">
      <rect id="Rectángulo_349528" data-name="Rectángulo 349528" width="97.85" height="97.812" fill="none"/>
    </clipPath>
  </defs>
  <g id="Grupo_992581" data-name="Grupo 992581" transform="translate(-272.685 -2573)">
    <circle id="Elipse_5683" data-name="Elipse 5683" cx="47.5" cy="47.5" r="47.5" transform="translate(274 2580)" fill="#06d1d1"/>
    <g id="Grupo_992577" data-name="Grupo 992577" transform="translate(272.685 2573)">
      <g id="Grupo_992576" data-name="Grupo 992576" clip-path="url(#clip-path)">
        <path id="Trazado_706376" data-name="Trazado 706376" d="M87.557,25.038a10.861,10.861,0,0,1-2.443,6.931,1.5,1.5,0,0,0-.218,1.993,39.459,39.459,0,0,1,4.453,19.843,2.9,2.9,0,0,0,.824,2.2c1.749,1.936,3.448,3.918,5.148,5.9,4.269,4.973,3.015,11.42-2.876,14.256A4.563,4.563,0,0,0,89.53,79.71a58.439,58.439,0,0,1-1.6,6.262,7.14,7.14,0,0,1-7.888,5.166,3.318,3.318,0,0,0-2.443.631c-2.183,1.376-4.2,2.984-7.045,3.06-1.1.029-2.189,1.172-3.241,1.872a5.425,5.425,0,0,1-6.1.32,2.121,2.121,0,0,0-2.274.078c-3.086,1.459-5.765.633-6.956-2.583-.775-2.094-2.2-1.529-3.614-1.747-1.527-.235-1.922.679-2.421,1.757-1.452,3.137-3.947,4.061-7,2.566a2.356,2.356,0,0,0-2.45.01,5.338,5.338,0,0,1-5.768-.3c-1.687-1.083-3.287-2.213-5.478-2.35-2.01-.125-3.451-1.787-5.127-2.791a3.2,3.2,0,0,0-2.282-.52,7.175,7.175,0,0,1-7.9-5.166,64.69,64.69,0,0,1-1.717-6.624,3.526,3.526,0,0,0-2.464-2.992A8.451,8.451,0,0,1,.54,70.914a8.24,8.24,0,0,1,1.513-8.4c1.861-2.259,3.8-4.459,5.753-6.636A3,3,0,0,0,8.6,53.653q-.111-21.4,17.056-34.221c.794-.59,1.206-.881.537-2.018a8.423,8.423,0,0,1,1.4-10.491,12.629,12.629,0,0,0,1.482-1.965A10.876,10.876,0,0,1,41.063.382a10.642,10.642,0,0,1,7.875,10.071c.025,1.281.412,1.559,1.595,1.6a39.145,39.145,0,0,1,17.456,4.774c.985.531,1.44.079,2.144-.406a10.569,10.569,0,0,1,11.506-.878,10.629,10.629,0,0,1,5.918,9.5M70.129,36.267c-.962-.5-1.233-.649-1.509-.787C62.745,32.547,61.6,25.8,66.172,21.028c.3-.316.54-.692.823-1.028.519-.616.282-.988-.354-1.311a38.635,38.635,0,0,0-10.008-3.548c-.861-.171-1.092.192-1.351.869-.927,2.427-1.826,4.87-2.9,7.232a4.083,4.083,0,0,0,.108,3.75c2,4.266,4.57,8.411,3.322,13.486a2.35,2.35,0,0,0-.032.761c.261,2.768-.723,4.562-3.674,5.064a18.608,18.608,0,0,0-3.014,1.143c-1.477.535-3.19,1.984-4.348,1.389-1.106-.568-1.592-2.618-2.046-4.109-.544-1.788-1.5-2.132-3.229-1.8-1.8.349-3.946.956-5.422.294-1.5-.673-1.633-3.109-2.433-4.739-.167-.341-.344-.68-.483-1.033a4.537,4.537,0,0,0-1.851-2.539c-2.9-1.715-5.775-3.466-8.566-5.342-1.277-.859-1.863-.531-2.663.614-6.689,9.567-8.564,20.037-6.085,31.374a7.952,7.952,0,0,0,3.124,5.005c2.138,1.58,4.346,3.236,4.416,6.345,4-2.122,5.8-1.8,8.939,1.531.26.277.4.492.911.4,4.883-.9,5.646-.534,8.371,4.074.47.795,1.106.492,1.651.478.682-.018.367-.656.381-1.041.051-1.413-.189-2.669-1.781-3.183a1.712,1.712,0,0,1-1.114-1.437c-.709-4.113-3.175-6.342-7.253-6.892-.063-.008-.125-.024-.188-.036-1.051-.206-1.211-.73-.925-1.771a39.539,39.539,0,0,0,1.4-6.5c.284-2.848,1.755-4.1,4.4-4.991a33.854,33.854,0,0,1,14.378-2c4.944.492,4.946.449,6.4,5.155a15.334,15.334,0,0,0,.719,2.164c1.023,2.11.807,3.824-1.331,5.121a2.938,2.938,0,0,0-1.1,1.281c-1.372,3.193-2.751,6.323-3.037,9.93-.23,2.892.52,6.238-2.28,8.515-1.144.931-1.667,1.953-.6,3.33a2.941,2.941,0,0,1,.352,2.22c-.133,1.027.217,1.284,1.225,1.3,1.1.013,1.054-.532,1-1.3a5.006,5.006,0,0,1,1.988-4.522,9.9,9.9,0,0,0,2.847-2.911,4.916,4.916,0,0,1,3.97-2.334c.988-.06,1.249-.475,1.527-1.259.918-2.589,3.193-4.234,5.514-3.88,2.507.382,3.823-.455,5.551-1.83,2.144-1.706,4.6-1.032,6.873.376a8.084,8.084,0,0,1,3.088-5.24c1.454-1.245,3.337-2.129,3.99-4.214a40.708,40.708,0,0,0,1.66-12.413c0-.421.149-1.085-.322-1.18-.4-.081-.905.3-1.354.5-.527.234-.608.8-.824,1.238-.949,1.936-1.9,3.873-2.764,5.846a2.518,2.518,0,0,1-1.92,1.584q-5.555,1.3-11.075,2.751a1.878,1.878,0,0,1-2.253-.845C64.78,58.577,63,56.251,61.16,53.98a1.435,1.435,0,0,1,.026-2.109c1.614-2.127,3.078-4.368,4.727-6.465.936-1.191,1.279-2.257.33-3.559a1.887,1.887,0,0,1,.511-2.93c1.055-.8,2.088-1.637,3.374-2.649M38.248,27.039h-.011c0,1.273-.008,2.546,0,3.819.008.847.12,1.626-1.2,1.608-1.4-.019-1.093-.931-1.1-1.7-.018-2.609-.029-5.218,0-7.827.011-.861-.159-1.324-1.168-1.141a7.56,7.56,0,0,1-5.137-.946A1.728,1.728,0,0,0,27.55,21a43.708,43.708,0,0,0-5.864,4.868c-.744.739-.726,1.142.2,1.7,2.346,1.4,4.554,3.056,6.972,4.312A10.115,10.115,0,0,1,33.9,37.734c1.253,3.386,1.391,3.335,4.922,2.852,4.327-.592,4.327-.592,6.127,3.446a6.4,6.4,0,0,1,.452,1.048c.219.9.684,1.068,1.52.717,1.756-.737,3.532-1.428,5.313-2.1a1.307,1.307,0,0,0,.987-1.2c.489-3.876.811-7.69-1.357-11.272-.816-1.349-1.286-2.9-2-4.321a3.746,3.746,0,0,1-.1-3.441c1.089-2.5,2.028-5.069,3.006-7.617.146-.38.541-.8.114-1.219-.728-.72-4.415.011-4.9.983a12,12,0,0,1-5.7,5.4c-1.311.656-3.376-.109-3.939,1.486-.479,1.358-.1,3.019-.1,4.547m7.515,26.718a43.432,43.432,0,0,0-4.739.389c-2.468.2-4.655,1.233-6.894,2.077-2.925,1.1-1.527,4.237-2.655,6.217-.118.207-.048.514-.144.742-.567,1.339.017,1.972,1.311,2.144,3.219.427,4.952,2.308,5.643,5.427.219.986.367,2.314,1.518,2.722,2.076.736,2.186,2.4,2.243,4.139A9.926,9.926,0,0,0,43.7,82.945c.491.735.9,1.014,1.635.32a6.467,6.467,0,0,0,2.445-4.551,42.824,42.824,0,0,1,.458-5.5c.689-4.164,1.893-8.139,4.977-11.255a1.625,1.625,0,0,0,.584-1.659c-1.207-5.8-1.935-6.43-7.841-6.547-.064,0-.127,0-.19,0M74.2,41.41c0-1.209.034-2.42-.016-3.626-.021-.514.322-1.252-.438-1.48a1.71,1.71,0,0,0-1.883.585,19.458,19.458,0,0,1-2.2,2.374c-1.167.972-1.466,1.953-.572,3.255a2.052,2.052,0,0,1-.223,2.748c-1.32,1.627-2.458,3.4-3.692,5.1-1.844,2.535-1.586,2.373,0,5.061,2.057,3.493,4.394,3.787,8.253,2.923,4.573-1.024,7.57-2.881,8.867-7.4a4.025,4.025,0,0,1,2.787-3.112c1.351-.353,1.559-1.249,1.307-2.474a47.114,47.114,0,0,0-2.67-8.521c-.675-1.633-1.293-2.721-3.237-1.419a5.268,5.268,0,0,1-2.369.637c-1.133.108-1.459.62-1.427,1.722.073,2.607.008,5.218.028,7.827.007.887-.358,1.264-1.253,1.253-.868-.011-1.284-.336-1.259-1.247.037-1.4.01-2.8.007-4.2M38.231,14.927c.9-.721,1.516-1.161,2.069-1.669.658-.6,1.145-1.081,1.983-.083.8.954.179,1.282-.413,1.779-1.023.86-2.018,1.753-3.041,2.613a1.264,1.264,0,0,0-.522,1.5c.268.643.877.346,1.335.27A8.487,8.487,0,0,0,46.7,11.847c.338-4.3-1.839-7.807-5.67-9.129A8.548,8.548,0,0,0,31.013,6.212,13.9,13.9,0,0,1,29.16,8.6a6.583,6.583,0,0,0-1.079,7.438,6.439,6.439,0,0,0,6.68,3.425c.6-.077,1.185-.119,1.16-.926-.055-1.8.7-3.925-1.966-4.653-.8-.218-.856-.781-.428-1.487.345-.569.559-1.207,1.393-.63.6.413.9.387,1.133-.457.185-.668.983-.347,1.514-.341.769.008.651.632.66,1.121.015.82,0,1.64,0,2.835M76.967,28.959c.595-.476,1.233-.967,1.85-1.484.528-.444.931-1.058,1.669-.145.6.749.718,1.229-.106,1.856-.91.691-1.762,1.463-2.6,2.237-.537.494-1.514.948-1.083,1.8.478.941,1.493.4,2.22.21a8.724,8.724,0,0,0,6.278-8.2,8.768,8.768,0,0,0-6.179-8.283,8.528,8.528,0,0,0-9.532,3.491A17.952,17.952,0,0,1,67.5,22.976a6.154,6.154,0,0,0-1.377,6.71,6.378,6.378,0,0,0,5.623,4.229,2.378,2.378,0,0,0,2.305-.562c.832-1.045-.091-4.163-1.3-4.922-.486-.3-1.553-.294-1.007-1.41.816-1.666,2.709-.922,3.938-1.766.578-.4.895.4.885,1.043-.008.509-.017,1.019.008,1.527.018.36-.128.775.394,1.134m12.3,29.508a1.625,1.625,0,0,0-.546,1.28c-.442,3.726-1.732,6.969-5.071,9.084a10.832,10.832,0,0,0-1.312,1.1c-1.805,1.6-2.143,3.373-1,5.225a3.943,3.943,0,0,0,5.317,1.362c1.835-.853,3.636-1.78,5.432-2.713a6.441,6.441,0,0,0,2.243-9.441c-1.555-2.065-3.367-3.937-5.062-5.894M8.791,58.26c-1.752,2.009-3.272,3.716-4.752,5.458A6.454,6.454,0,0,0,6.1,73.983c1.472.747,2.951,1.479,4.428,2.215,2.543,1.267,4.663.942,5.929-.907,1.338-1.955.882-3.829-1.4-5.763a13.227,13.227,0,0,0-1.32-1.1c-3.059-1.968-4.038-5.051-4.561-8.392-.077-.492-.208-.976-.383-1.778M26.932,77.489a3.32,3.32,0,0,0-2.187-3.331,3.26,3.26,0,0,0-3.967,1c-1.1,1.4-2.078,2.889-3.118,4.334-.675.938-1.193.907-2.323.3-1.255-.677-2.957-.606-4.472-.661-.388-.014-.149.782-.054,1.18.368,1.541.773,3.074,1.181,4.605a4.918,4.918,0,0,0,4.183,3.91,4.931,4.931,0,0,0,5.1-2.236c1.628-2.274,3.211-4.58,4.838-6.855a4.074,4.074,0,0,0,.814-2.237m47.753-3.57a3.455,3.455,0,0,0-3.258,1.716,3.388,3.388,0,0,0,.137,3.779c1.723,2.512,3.468,5.012,5.278,7.462a4.722,4.722,0,0,0,4.852,1.943A4.819,4.819,0,0,0,85.818,85.1c.388-1.4.65-2.844,1.09-4.229.429-1.35.627-2.285-1.339-1.586A3.321,3.321,0,0,1,83.5,79.22c-.434-.132-.713-.21-1.012.393-.619,1.25-1.476.962-2.178.008-.979-1.328-1.92-2.685-2.857-4.044a3.418,3.418,0,0,0-2.768-1.659m-48.109,18.5a4.133,4.133,0,0,0,3.52-1.967c1.766-3.152,3.5-6.329,5.1-9.564.848-1.7-.2-3.328-2.435-4.155a2.581,2.581,0,0,0-3.588,1.795,8.779,8.779,0,0,1-1.2,2.561q-2.9,4.016-5.8,8.032c-.249.342-.8.64-.14,1.037,1.453.87,2.708,2.152,4.544,2.261M66.232,76.488a3.451,3.451,0,0,0-3.35,4.943q2.222,4.31,4.591,8.545a4.112,4.112,0,0,0,4.77,2.264A16.327,16.327,0,0,0,75.7,90.265c.742-.425.306-.714-.009-1.158-2.557-3.607-5.628-6.879-7.228-11.113a2.606,2.606,0,0,0-2.23-1.506m1.491,17.2a9.774,9.774,0,0,1-2.908-3.751c-1.171-2.247-2.456-4.437-3.577-6.707-.691-1.4-1.532-1.915-3.01-1.178-1.867.931-2.456,2.022-1.663,3.585,1.375,2.711,2.783,5.408,4.3,8.043a3.435,3.435,0,0,0,4.94,1.241c.6-.341,1.169-.747,1.922-1.233m-37.443.078c4.073,2.712,5.414,2.373,7.664-1.84,1.045-1.957,2.12-3.9,3.143-5.867,1-1.928.6-2.962-1.344-3.985-1.7-.9-2.44-.028-3.245,1.385-1.967,3.45-3.271,7.305-6.218,10.306m13.44-7.674q-1.9,3.524-3.793,7.034c-.824,1.539-.258,2.417,1.519,2.361a2.587,2.587,0,0,0,2.347-1.674q.726-1.548,1.363-3.137c.831-2.068.479-3.187-1.436-4.584m10.42,0a3.069,3.069,0,0,0-1.752,3.574A14.438,14.438,0,0,0,54.53,94.48a2.3,2.3,0,0,0,3.2.675c.686-.336.974-.605.522-1.411-1.415-2.522-2.745-5.093-4.117-7.662" transform="translate(0 0)" fill="#0d0f0e"/>
        <path id="Trazado_706377" data-name="Trazado 706377" d="M87.769,60.657c-1.286,1.012-2.319,1.846-3.374,2.649a1.887,1.887,0,0,0-.511,2.93c.949,1.3.606,2.368-.33,3.559-1.649,2.1-3.114,4.338-4.727,6.465a1.435,1.435,0,0,0-.026,2.109c1.843,2.271,3.62,4.6,5.374,6.938a1.879,1.879,0,0,0,2.254.845Q91.945,84.7,97.5,83.4a2.518,2.518,0,0,0,1.92-1.584c.866-1.973,1.815-3.91,2.764-5.846.216-.44.3-1,.824-1.238.449-.2.952-.582,1.354-.5.471.1.321.759.322,1.18a40.71,40.71,0,0,1-1.66,12.413c-.653,2.084-2.535,2.968-3.99,4.214a8.085,8.085,0,0,0-3.088,5.24c-2.274-1.408-4.729-2.082-6.872-.376-1.728,1.375-3.045,2.212-5.551,1.83-2.322-.354-4.6,1.291-5.514,3.88-.278.784-.539,1.2-1.527,1.259a4.915,4.915,0,0,0-3.969,2.334,9.9,9.9,0,0,1-2.848,2.91,5.009,5.009,0,0,0-1.988,4.523c.05.772.094,1.316-1,1.3-1.008-.012-1.359-.269-1.225-1.3a2.94,2.94,0,0,0-.352-2.22c-1.067-1.377-.544-2.4.6-3.33,2.8-2.277,2.049-5.623,2.279-8.515.287-3.607,1.666-6.737,3.037-9.93a2.936,2.936,0,0,1,1.1-1.281c2.138-1.3,2.354-3.011,1.331-5.121a15.313,15.313,0,0,1-.719-2.163c-1.458-4.706-1.461-4.663-6.4-5.155a33.854,33.854,0,0,0-14.378,2c-2.644.893-4.116,2.142-4.4,4.991a39.617,39.617,0,0,1-1.4,6.5c-.286,1.04-.127,1.565.925,1.771.062.012.124.028.187.036,4.078.55,6.544,2.779,7.253,6.892a1.712,1.712,0,0,0,1.114,1.437c1.592.514,1.832,1.77,1.781,3.184-.014.385.3,1.023-.381,1.041-.545.014-1.181.317-1.651-.478C52.645,98.7,51.882,98.335,47,99.231c-.508.093-.651-.123-.912-.4-3.134-3.329-4.939-3.653-8.939-1.531-.07-3.109-2.278-4.765-4.416-6.345a7.949,7.949,0,0,1-3.123-5.005c-2.48-11.338-.6-21.807,6.085-31.374.8-1.144,1.386-1.472,2.663-.614,2.792,1.877,5.671,3.627,8.566,5.342a4.538,4.538,0,0,1,1.851,2.538c.139.353.315.692.483,1.033.8,1.631.934,4.067,2.433,4.74,1.476.663,3.626.055,5.422-.294,1.732-.337,2.684.007,3.229,1.8.454,1.491.94,3.541,2.046,4.108,1.159.595,2.871-.854,4.348-1.389a18.6,18.6,0,0,1,3.014-1.143c2.95-.5,3.934-2.3,3.674-5.064a2.331,2.331,0,0,1,.032-.762c1.248-5.075-1.327-9.22-3.322-13.485a4.085,4.085,0,0,1-.108-3.75C71.1,45.271,72,42.828,72.923,40.4c.259-.678.49-1.04,1.351-.869A38.635,38.635,0,0,1,84.282,43.08c.636.323.874.7.354,1.31-.283.336-.521.713-.824,1.029-4.568,4.769-3.428,11.519,2.447,14.452.276.138.547.285,1.509.787M41.053,75.878c0-.887.017-1.774-.005-2.66-.017-.664.239-1.475-.632-1.808-1.744-.667-3.275-1.853-5.164-2.135-.18-.027-.446.41-.648.652-1.1,1.312-2.167,2.644-3.282,3.939-.417.484-.675.816.016,1.324,1.986,1.462,3.9,3.03,5.9,4.466a3.738,3.738,0,0,0,3.46.2c.79-.289.257-1.487.344-2.275a15.714,15.714,0,0,0,.012-1.709" transform="translate(-17.64 -24.391)" fill="#3eb0db"/>
        <path id="Trazado_706378" data-name="Trazado 706378" d="M72.425,50.194c0-1.527-.38-3.189.1-4.547.563-1.595,2.628-.83,3.939-1.486a12,12,0,0,0,5.7-5.4c.485-.971,4.172-1.7,4.9-.983.426.421.031.839-.115,1.219-.978,2.549-1.917,5.116-3.006,7.617a3.743,3.743,0,0,0,.1,3.44c.711,1.419,1.18,2.972,2,4.321,2.168,3.582,1.846,7.4,1.357,11.272a1.307,1.307,0,0,1-.988,1.2c-1.781.675-3.557,1.366-5.313,2.1-.836.351-1.3.182-1.52-.717a6.487,6.487,0,0,0-.452-1.048c-1.8-4.038-1.8-4.038-6.127-3.446-3.531.483-3.669.534-4.922-2.852a10.113,10.113,0,0,0-5.036-5.858c-2.418-1.256-4.626-2.909-6.972-4.312-.929-.556-.947-.959-.2-1.7a43.738,43.738,0,0,1,5.864-4.868,1.728,1.728,0,0,1,2.087-.143,7.561,7.561,0,0,0,5.137.946c1.009-.184,1.179.28,1.168,1.141-.034,2.609-.023,5.218,0,7.828.005.765-.3,1.677,1.1,1.7,1.323.018,1.211-.761,1.2-1.608-.011-1.272,0-2.545,0-3.818h.011" transform="translate(-34.177 -23.155)" fill="#256e65"/>
        <path id="Trazado_706379" data-name="Trazado 706379" d="M96.021,140.58c.063,0,.127,0,.19,0,5.906.117,6.634.745,7.841,6.547a1.625,1.625,0,0,1-.584,1.659c-3.085,3.115-4.288,7.091-4.978,11.255a42.962,42.962,0,0,0-.458,5.5,6.466,6.466,0,0,1-2.445,4.55c-.733.7-1.144.415-1.635-.319a9.93,9.93,0,0,1-1.65-5.333c-.057-1.741-.168-3.4-2.243-4.138-1.151-.408-1.3-1.736-1.518-2.722-.692-3.119-2.424-5-5.644-5.427-1.293-.171-1.877-.805-1.311-2.144.1-.227.027-.535.145-.742,1.128-1.98-.27-5.116,2.655-6.217,2.238-.843,4.426-1.879,6.894-2.077a44.1,44.1,0,0,1,4.739-.391" transform="translate(-50.259 -86.826)" fill="#256e65"/>
        <path id="Trazado_706380" data-name="Trazado 706380" d="M177.4,97.69c0,1.4.029,2.8-.008,4.2-.024.912.391,1.237,1.26,1.248.9.011,1.26-.366,1.253-1.254-.021-2.609.045-5.219-.029-7.826-.031-1.1.294-1.614,1.427-1.722a5.272,5.272,0,0,0,2.369-.637c1.944-1.3,2.562-.214,3.237,1.419a47.084,47.084,0,0,1,2.67,8.521c.253,1.225.045,2.121-1.307,2.474a4.025,4.025,0,0,0-2.787,3.112c-1.3,4.52-4.294,6.377-8.867,7.4-3.859.864-6.2.57-8.253-2.923-1.583-2.687-1.841-2.525,0-5.061,1.234-1.7,2.373-3.47,3.692-5.1a2.053,2.053,0,0,0,.224-2.748c-.894-1.3-.594-2.283.572-3.255a19.429,19.429,0,0,0,2.2-2.374,1.71,1.71,0,0,1,1.883-.585c.759.229.417.966.438,1.48.05,1.207.016,2.418.018,3.627" transform="translate(-103.198 -56.28)" fill="#256e65"/>
        <path id="Trazado_706381" data-name="Trazado 706381" d="M82.472,18.558c0-1.195.011-2.015,0-2.835-.009-.489.108-1.113-.66-1.121-.531-.006-1.329-.328-1.514.341-.233.843-.537.869-1.133.457-.834-.577-1.048.061-1.393.63-.428.705-.372,1.268.428,1.487,2.668.728,1.911,2.854,1.966,4.653.024.807-.56.848-1.16.926a6.44,6.44,0,0,1-6.68-3.425A6.583,6.583,0,0,1,73.4,12.231a13.912,13.912,0,0,0,1.853-2.388A8.548,8.548,0,0,1,85.266,6.348c3.831,1.323,6.008,4.827,5.67,9.129a8.486,8.486,0,0,1-7.054,7.492c-.458.076-1.067.374-1.335-.269a1.264,1.264,0,0,1,.522-1.5c1.023-.86,2.018-1.753,3.041-2.613.592-.5,1.214-.826.413-1.779-.837-1-1.325-.521-1.983.083-.553.508-1.167.947-2.069,1.669" transform="translate(-44.24 -3.631)" fill="#68881e"/>
        <path id="Trazado_706382" data-name="Trazado 706382" d="M183.047,55.78c-.523-.359-.376-.775-.394-1.134-.026-.508-.016-1.018-.008-1.527.01-.64-.306-1.441-.885-1.043-1.229.844-3.122.1-3.938,1.766-.546,1.115.521,1.106,1.007,1.41,1.213.759,2.136,3.878,1.3,4.922a2.378,2.378,0,0,1-2.305.562,6.378,6.378,0,0,1-5.623-4.229,6.154,6.154,0,0,1,1.377-6.71,17.953,17.953,0,0,0,1.977-2.537,8.528,8.528,0,0,1,9.532-3.491,8.566,8.566,0,0,1-.1,16.482c-.727.192-1.742.731-2.22-.21-.431-.85.546-1.3,1.083-1.8.843-.774,1.695-1.545,2.6-2.237.824-.626.711-1.107.106-1.856-.738-.913-1.141-.3-1.669.145-.617.518-1.255,1.009-1.85,1.485" transform="translate(-106.08 -26.821)" fill="#68881e"/>
        <path id="Trazado_706383" data-name="Trazado 706383" d="M219.574,152.911c1.7,1.957,3.507,3.829,5.062,5.894a6.441,6.441,0,0,1-2.243,9.441c-1.8.933-3.6,1.859-5.432,2.713a3.944,3.944,0,0,1-5.317-1.362c-1.142-1.852-.8-3.628,1-5.225a10.868,10.868,0,0,1,1.312-1.1c3.34-2.114,4.629-5.357,5.071-9.083a1.626,1.626,0,0,1,.546-1.28" transform="translate(-130.311 -94.444)" fill="#f7b78f"/>
        <path id="Trazado_706384" data-name="Trazado 706384" d="M12.542,152.368c.174.8.306,1.285.382,1.778.523,3.341,1.5,6.423,4.562,8.392a13.269,13.269,0,0,1,1.32,1.1c2.285,1.934,2.741,3.809,1.4,5.763-1.266,1.849-3.386,2.174-5.928.907-1.477-.736-2.956-1.468-4.428-2.215A6.454,6.454,0,0,1,7.79,157.826c1.479-1.742,3-3.449,4.752-5.458" transform="translate(-3.751 -94.109)" fill="#f7b88f"/>
        <path id="Trazado_706385" data-name="Trazado 706385" d="M44.138,196.82a4.077,4.077,0,0,1-.814,2.237c-1.627,2.275-3.21,4.581-4.838,6.855a5.137,5.137,0,0,1-9.288-1.674c-.408-1.531-.813-3.064-1.181-4.605-.1-.4-.334-1.194.054-1.18,1.515.055,3.217-.016,4.472.661,1.13.61,1.648.641,2.323-.3,1.04-1.445,2.017-2.938,3.118-4.334a3.26,3.26,0,0,1,3.967-1,3.32,3.32,0,0,1,2.187,3.331" transform="translate(-17.206 -119.331)" fill="#f7b88f"/>
        <path id="Trazado_706386" data-name="Trazado 706386" d="M189.243,193.322a3.419,3.419,0,0,1,2.768,1.659c.937,1.359,1.878,2.716,2.857,4.044.7.954,1.559,1.242,2.178-.008.3-.6.579-.524,1.012-.393a3.319,3.319,0,0,0,2.069.068c1.966-.7,1.768.236,1.339,1.586-.44,1.385-.7,2.826-1.09,4.228a4.818,4.818,0,0,1-4.123,3.715,4.721,4.721,0,0,1-4.852-1.943c-1.81-2.45-3.555-4.949-5.278-7.461a3.387,3.387,0,0,1-.137-3.779,3.456,3.456,0,0,1,3.258-1.716" transform="translate(-114.557 -119.404)" fill="#f8b890"/>
        <path id="Trazado_706387" data-name="Trazado 706387" d="M61.661,216.025c-1.836-.11-3.091-1.391-4.544-2.261-.661-.4-.109-.695.14-1.037q2.912-4.007,5.8-8.032a8.777,8.777,0,0,0,1.2-2.561,2.581,2.581,0,0,1,3.588-1.795c2.233.827,3.283,2.452,2.435,4.155-1.609,3.234-3.338,6.411-5.1,9.563a4.134,4.134,0,0,1-3.52,1.968" transform="translate(-35.084 -123.606)" fill="#f7b88f"/>
        <path id="Trazado_706388" data-name="Trazado 706388" d="M167.208,200.036a2.607,2.607,0,0,1,2.23,1.506c1.6,4.233,4.671,7.506,7.228,11.113.314.444.751.733.009,1.157a16.32,16.32,0,0,1-3.457,1.974,4.111,4.111,0,0,1-4.77-2.264q-2.36-4.236-4.591-8.545a3.451,3.451,0,0,1,3.35-4.943" transform="translate(-100.976 -123.549)" fill="#f7b88f"/>
        <path id="Trazado_706389" data-name="Trazado 706389" d="M158.54,225.676c-.753.486-1.319.892-1.922,1.233a3.435,3.435,0,0,1-4.94-1.241c-1.513-2.635-2.922-5.333-4.3-8.043-.792-1.563-.2-2.653,1.663-3.585,1.477-.737,2.319-.222,3.01,1.178,1.121,2.271,2.406,4.46,3.577,6.707a9.77,9.77,0,0,0,2.908,3.751" transform="translate(-90.817 -131.993)" fill="#f7b78f"/>
        <path id="Trazado_706390" data-name="Trazado 706390" d="M79.192,225.744c2.946-3,4.251-6.856,6.218-10.306.806-1.413,1.541-2.28,3.245-1.385C90.6,215.076,91,216.11,90,218.038c-1.023,1.968-2.1,3.91-3.143,5.867-2.249,4.212-3.591,4.552-7.663,1.84" transform="translate(-48.912 -131.983)" fill="#f6b78f"/>
        <path id="Trazado_706391" data-name="Trazado 706391" d="M107.617,225.147c1.916,1.4,2.267,2.516,1.436,4.584q-.637,1.586-1.363,3.137a2.587,2.587,0,0,1-2.347,1.674c-1.777.057-2.343-.822-1.519-2.361q1.884-3.518,3.793-7.034" transform="translate(-63.897 -139.06)" fill="#f6b78e"/>
        <path id="Trazado_706392" data-name="Trazado 706392" d="M138.614,225.135c1.372,2.569,2.7,5.14,4.117,7.662.452.805.164,1.074-.522,1.411a2.3,2.3,0,0,1-3.2-.675,14.438,14.438,0,0,1-2.142-4.823,3.069,3.069,0,0,1,1.752-3.574" transform="translate(-84.475 -139.053)" fill="#f6b78e"/>
        <path id="Trazado_706393" data-name="Trazado 706393" d="M44.846,123.991a15.714,15.714,0,0,1-.012,1.709c-.086.788.446,1.986-.344,2.275a3.737,3.737,0,0,1-3.46-.2c-2-1.436-3.913-3-5.9-4.466-.691-.508-.433-.84-.015-1.324,1.115-1.3,2.186-2.627,3.282-3.939.2-.242.468-.679.648-.652,1.889.282,3.42,1.467,5.164,2.135.871.333.615,1.144.632,1.808.022.886.005,1.773.006,2.66M42.5,125.958c0-1.626.052-2.745-.013-3.858-.084-1.446-1.433-1.562-2.36-1.789-1.028-.252-1.424.938-1.856,1.632-.648,1.041.606,1.146,1.07,1.57.835.764,1.788,1.4,3.159,2.445" transform="translate(-21.433 -72.503)" fill="#040f10"/>
        <path id="Trazado_706394" data-name="Trazado 706394" d="M47.967,130.625c-1.372-1.046-2.325-1.681-3.159-2.445-.464-.424-1.718-.53-1.07-1.57.432-.694.829-1.884,1.856-1.632.926.227,2.276.343,2.36,1.789.065,1.113.013,2.233.013,3.858" transform="translate(-26.902 -77.17)" fill="#256d64"/>
      </g>
    </g>
  </g>
</svg>
