<svg xmlns="http://www.w3.org/2000/svg" xmlns:xlink="http://www.w3.org/1999/xlink" width="95" height="95" viewBox="0 0 95 95">
  <defs>
    <clipPath id="clip-path">
      <rect id="Rectángulo_349529" data-name="Rectángulo 349529" width="72.141" height="79.971" fill="none"/>
    </clipPath>
  </defs>
  <g id="Grupo_992582" data-name="Grupo 992582" transform="translate(-818 -2580)">
    <circle id="Elipse_5684" data-name="Elipse 5684" cx="47.5" cy="47.5" r="47.5" transform="translate(818 2580)" fill="#b20d0d"/>
    <g id="Grupo_992579" data-name="Grupo 992579" transform="translate(829.43 2586.52)">
      <g id="Grupo_992578" data-name="Grupo 992578" clip-path="url(#clip-path)">
        <path id="Trazado_706395" data-name="Trazado 706395" d="M72.139,41.3q0,16,0,31.991c0,3.5-1.51,5.658-4.433,6.5a6.517,6.517,0,0,1-1.85.178q-25.9.005-51.8,0c-3.794,0-6.176-2.363-6.284-6.209-.026-.936.268-2.012-.1-2.771-.405-.83-1.654-.406-2.51-.693A7.631,7.631,0,0,1,.02,63.849C-.1,62.592.35,61.967,1.637,61.975c1.664.011,3.33-.042,4.992.019.873.032,1.18-.222,1.15-1.126-.064-1.922-.019-3.849-.019-5.773q0-22.784,0-45.568c0-5.033,2.161-7.177,7.23-7.178,5.981,0,11.963-.011,17.944.013a3.367,3.367,0,0,0,2.139-.686,7.926,7.926,0,0,1,9.7-.035,3.6,3.6,0,0,0,2.284.723c6.033-.027,12.067-.018,18.1-.013,4.736,0,6.977,2.235,6.98,6.957q.007,16,0,31.991M49.153,14.039h3.419c-.868-1.693-2.036-2.4-3.734-2.142-3.335-.248-3.1-.122-3.091-3.524a8.468,8.468,0,0,0-.031-.934,5.786,5.786,0,0,0-5.981-4.987,5.724,5.724,0,0,0-5.562,5.263A18.9,18.9,0,0,0,34.159,9.9c.075,1.316-.507,1.935-1.828,1.906a18.707,18.707,0,0,0-2.179.057,3.222,3.222,0,0,0-2.8,2.18ZM66.312,67.388c-2.085,2.523-4.753,3.294-8,3.271-15.4-.112-30.794-.05-46.191-.05-.416,0-.832,0-1.249,0-.31,0-.563.011-.71.415-1.253,3.44.847,6.51,4.489,6.51q24.344,0,48.688-.005c.672,0,1.344-.093,2.016-.143,2.794.322,4.336-1.016,4.4-3.817,0-.156,0-.312,0-.468q0-31.965,0-63.93a6.735,6.735,0,0,0-.025-1.09,3.413,3.413,0,0,0-2.19-2.955V6.959q0,26.975.022,53.951a13.539,13.539,0,0,1-1.244,6.478m-52.7-5.519c.619.037,1.238.1,1.856.105,12.408.007,24.816.025,37.223-.021,1.544-.006,2.242.456,2.4,2.067a4.534,4.534,0,0,0,4.357,4.07c3.353.318,5.618-1.85,5.619-5.419q.009-27.334,0-54.668c0-3.391,0-3.391-3.43-3.222H47.606a22.485,22.485,0,0,1,.545,3.367c.018,1,.252,1.28,1.283,1.289a5.756,5.756,0,0,1,5.693,5.133c.123,1.352-.379,1.926-1.732,1.906-2.392-.035-4.785-.009-7.177-.009q-9.674,0-19.347,0c-2.026,0-2.487-.618-2-2.612a5.943,5.943,0,0,1,5.7-4.453c.5-.022,1.231.284,1.146-.728a12.99,12.99,0,0,1,.676-3.941H30.792c-4.733,0-9.468.079-14.2-.045-1.562-.041-1.809.426-1.8,1.872.055,17.009.033,34.018.042,51.026,0,.971.058,1.923-1.217,2.147-1.344-.295-1.217-1.354-1.217-2.345q0-25.194,0-50.387V5.01a3.979,3.979,0,0,0-2.257,4.007q.022,24.8.009,49.607c0,3.459,0,3.459,3.468,3.245m40.8,6.263A7.19,7.19,0,0,1,52.908,65.3c-.15-.784-.549-.953-1.29-.952q-24.015.029-48.029,0c-1.113,0-1.091.377-.651,1.164,1.147,2.048,2.941,2.72,5.2,2.715q22.377-.046,44.754-.018c.4,0,.809-.038,1.518-.074" transform="translate(0 0)" fill="#111214"/>
        <path id="Trazado_706396" data-name="Trazado 706396" d="M89.418,78.4a4.533,4.533,0,0,1-4.357-4.07c-.156-1.611-.854-2.072-2.4-2.067-12.408.046-24.816.027-37.224.021-.619,0-1.237-.068-1.856-.105l0-2.138c1.275-.224,1.218-1.176,1.217-2.147-.009-17.009.013-34.018-.042-51.026,0-1.446.243-1.913,1.8-1.872,4.73.124,9.465.045,14.2.045h1.594a12.98,12.98,0,0,0-.676,3.941c.086,1.012-.646.706-1.146.728a5.943,5.943,0,0,0-5.7,4.453c-.482,1.993-.022,2.609,2,2.612q9.674.011,19.348,0c2.393,0,4.785-.027,7.177.009,1.353.02,1.854-.554,1.731-1.906A5.755,5.755,0,0,0,79.4,19.748c-1.031-.009-1.265-.294-1.283-1.29a22.567,22.567,0,0,0-.545-3.367H91.609c0,18.961-.027,37.921.036,56.882A9.4,9.4,0,0,1,89.418,78.4M69.885,53.184c2.653,0,5.305.027,7.958-.007,3.275-.042,4.808-2.709,3.184-5.577q-3.907-6.9-7.9-13.75c-1.608-2.75-4.784-2.781-6.383-.052Q62.7,40.706,58.77,47.685c-1.568,2.779-.021,5.444,3.158,5.49,2.652.038,5.3.008,7.957.008m-.113,2.39H53.55c-.364,0-.728.012-1.092,0-.815-.026-1.361.387-1.343,1.165s.6,1.156,1.4,1.123c.311-.013.624,0,.936,0q16.456,0,32.912,0a13.264,13.264,0,0,0,1.4-.042,1.044,1.044,0,0,0,.958-1.057,1.058,1.058,0,0,0-1.012-1.16,11.746,11.746,0,0,0-1.246-.028H69.772m.066,6.973q8.267,0,16.534,0c.416,0,.832,0,1.247-.022a1.068,1.068,0,0,0,1.1-1.089,1.09,1.09,0,0,0-1.176-1.169c-.312-.009-.624-.008-.936-.008H53.226c-.312,0-.624,0-.936.008a1.091,1.091,0,0,0-1.177,1.169,1.069,1.069,0,0,0,1.1,1.09c.415.018.831.022,1.247.022q8.189,0,16.378,0m.148,2.393H66.71c-4.679,0-9.359.011-14.038-.009-.837,0-1.533.236-1.555,1.119s.647,1.222,1.493,1.18c.156-.008.312,0,.468,0q16.846,0,33.692,0c.919,0,1.958.025,1.934-1.2-.022-1.108-1-1.1-1.873-1.1q-8.423.019-16.846.007" transform="translate(-29.967 -10.31)" fill="#fcfcfc"/>
        <path id="Trazado_706397" data-name="Trazado 706397" d="M86.912,225.726c-.672.05-1.344.142-2.016.143q-24.344.012-48.688.005c-3.642,0-5.742-3.07-4.489-6.51.147-.4.4-.41.71-.415.416-.007.832,0,1.248,0,15.4,0,30.795-.062,46.191.05,3.25.024,5.919-.748,8-3.27-.132,3.352.533,6.781-.96,10" transform="translate(-21.56 -148.336)" fill="#485b95"/>
        <path id="Trazado_706398" data-name="Trazado 706398" d="M190.314,78.493a9.4,9.4,0,0,0,2.228-6.427c-.063-18.961-.035-37.921-.036-56.882,3.429-.17,3.429-.17,3.429,3.222q0,27.334,0,54.668c0,3.57-2.266,5.738-5.618,5.42" transform="translate(-130.864 -10.402)" fill="#dff2fa"/>
        <path id="Trazado_706399" data-name="Trazado 706399" d="M60.26,209.772c-.709.036-1.114.074-1.518.074q-22.377,0-44.754.018c-2.262,0-4.056-.667-5.2-2.715-.44-.786-.462-1.165.651-1.164q24.014.035,48.029,0c.74,0,1.139.168,1.29.952a7.19,7.19,0,0,0,1.506,2.832" transform="translate(-5.847 -141.64)" fill="#9dccd7"/>
        <path id="Trazado_706400" data-name="Trazado 706400" d="M209.2,88.683c1.493-3.221.828-6.65.96-10a13.545,13.545,0,0,0,1.243-6.478q-.059-26.975-.022-53.951V16.423a3.413,3.413,0,0,1,2.19,2.955,6.807,6.807,0,0,1,.025,1.09q0,31.965,0,63.93c0,.156,0,.312,0,.468-.061,2.8-1.6,4.14-4.4,3.817" transform="translate(-143.853 -11.293)" fill="#354169"/>
        <path id="Trazado_706401" data-name="Trazado 706401" d="M35.932,70.758q0,1.069,0,2.138c-3.468.214-3.468.214-3.468-3.245q0-24.8-.009-49.607a3.98,3.98,0,0,1,2.257-4.007v1.989q0,25.194,0,50.387c0,.991-.126,2.05,1.217,2.345" transform="translate(-22.318 -11.027)" fill="#485b95"/>
        <path id="Trazado_706402" data-name="Trazado 706402" d="M109.359,19.428h-21.8a3.223,3.223,0,0,1,2.8-2.18,18.7,18.7,0,0,1,2.179-.057c1.321.029,1.9-.59,1.828-1.906a18.83,18.83,0,0,1,.014-2.182A5.724,5.724,0,0,1,99.94,7.84a5.786,5.786,0,0,1,5.981,4.987,8.317,8.317,0,0,1,.031.934c-.008,3.4-.243,3.276,3.092,3.524l.315,2.142m-9.219-9.314a3.584,3.584,0,0,0-3.54,3.563,3.556,3.556,0,0,0,7.11-.031,3.583,3.583,0,0,0-3.57-3.533" transform="translate(-60.206 -5.389)" fill="#9ac9d4"/>
        <path id="Trazado_706403" data-name="Trazado 706403" d="M156.656,40.113l-.315-2.142c1.7-.259,2.865.449,3.734,2.142Z" transform="translate(-107.503 -26.074)" fill="#85abc2"/>
        <path id="Trazado_706404" data-name="Trazado 706404" d="M101.959,90.111c-2.652,0-5.305.03-7.957-.008-3.179-.046-4.726-2.711-3.158-5.49q3.934-6.973,7.973-13.888c1.6-2.728,4.775-2.7,6.383.052q4,6.845,7.9,13.75c1.624,2.869.092,5.536-3.184,5.577-2.652.034-5.305.007-7.958.007m.057-2.3c2.544,0,5.088.026,7.632-.009,1.7-.024,2.138-.788,1.295-2.268q-3.806-6.683-7.665-13.336c-.845-1.456-1.74-1.439-2.6.045q-3.819,6.586-7.59,13.2c-.93,1.629-.484,2.349,1.452,2.364,2.492.019,4.984,0,7.477,0" transform="translate(-62.041 -47.237)" fill="#0f0d0b"/>
        <path id="Trazado_706405" data-name="Trazado 706405" d="M86.356,144.9h16.69a11.667,11.667,0,0,1,1.246.028,1.057,1.057,0,0,1,1.011,1.16,1.043,1.043,0,0,1-.958,1.057,13.178,13.178,0,0,1-1.4.042q-16.456,0-32.912,0c-.312,0-.624-.014-.936,0-.8.033-1.379-.345-1.4-1.123s.529-1.191,1.343-1.165c.364.012.728,0,1.092,0H86.356" transform="translate(-46.551 -99.632)" fill="#060607"/>
        <path id="Trazado_706406" data-name="Trazado 706406" d="M86.419,162.182H70.041c-.416,0-.832,0-1.247-.022a1.07,1.07,0,0,1-1.1-1.089,1.091,1.091,0,0,1,1.177-1.169c.312-.009.624-.008.936-.008h33.379c.312,0,.624,0,.936.008a1.09,1.09,0,0,1,1.176,1.169,1.068,1.068,0,0,1-1.1,1.089c-.415.017-.832.022-1.247.022H86.419" transform="translate(-46.547 -109.945)" fill="#060607"/>
        <path id="Trazado_706407" data-name="Trazado 706407" d="M86.573,174.861q8.423,0,16.846-.007c.874,0,1.851-.008,1.873,1.1.024,1.225-1.016,1.2-1.934,1.2q-16.846-.009-33.692,0c-.156,0-.312-.007-.468,0-.847.042-1.516-.3-1.493-1.18s.718-1.123,1.555-1.119c4.679.02,9.359.009,14.038.009h3.276" transform="translate(-46.555 -120.232)" fill="#060607"/>
        <path id="Trazado_706408" data-name="Trazado 706408" d="M120.044,15.125a3.583,3.583,0,0,1,3.57,3.533,3.556,3.556,0,0,1-7.11.031,3.585,3.585,0,0,1,3.54-3.563m.067,2.4c-.615.03-1.093.26-1.154.968a1.061,1.061,0,0,0,1.032,1.281,1.047,1.047,0,0,0,1.179-1.138c.022-.7-.385-1.025-1.056-1.112" transform="translate(-80.11 -10.4)" fill="#0d1010"/>
        <path id="Trazado_706409" data-name="Trazado 706409" d="M107.286,93.137c-2.492,0-4.985.015-7.477,0-1.936-.015-2.382-.735-1.452-2.364q3.774-6.612,7.59-13.2c.86-1.483,1.755-1.5,2.6-.044q3.86,6.651,7.665,13.335c.843,1.48.408,2.244-1.295,2.268-2.544.035-5.088.009-7.632.009M106.132,84.2h-.011c0,.623-.017,1.246,0,1.867a1.07,1.07,0,0,0,1.158,1.175,1.017,1.017,0,0,0,1.095-1.068c.032-1.244.037-2.49-.007-3.733a1.038,1.038,0,0,0-1.135-1.039,1.07,1.07,0,0,0-1.1,1.086c-.027.569-.006,1.141-.006,1.711m1.1,4.266a1.038,1.038,0,0,0-1.1,1.2,1,1,0,0,0,1.074,1.065,1.022,1.022,0,0,0,1.181-1.114,1.038,1.038,0,0,0-1.155-1.15" transform="translate(-67.311 -52.565)" fill="#f49e50"/>
        <path id="Trazado_706410" data-name="Trazado 706410" d="M125.495,22.812c.671.087,1.078.416,1.056,1.112a1.047,1.047,0,0,1-1.179,1.138,1.061,1.061,0,0,1-1.032-1.281c.061-.708.539-.939,1.154-.968" transform="translate(-85.494 -15.686)" fill="#f7f6f7"/>
        <path id="Trazado_706411" data-name="Trazado 706411" d="M124.235,95.115c0-.57-.022-1.142.006-1.711a1.07,1.07,0,0,1,1.1-1.086,1.038,1.038,0,0,1,1.135,1.039c.043,1.243.038,2.489.007,3.733a1.017,1.017,0,0,1-1.095,1.068,1.069,1.069,0,0,1-1.158-1.174c-.022-.622,0-1.245,0-1.867h.011" transform="translate(-85.415 -63.479)" fill="#0f0a06"/>
        <path id="Trazado_706412" data-name="Trazado 706412" d="M125.379,114.931a1.037,1.037,0,0,1,1.154,1.15,1.021,1.021,0,0,1-1.181,1.114,1,1,0,0,1-1.073-1.065,1.037,1.037,0,0,1,1.1-1.2" transform="translate(-85.455 -79.029)" fill="#191108"/>
      </g>
    </g>
  </g>
</svg>
