<svg xmlns="http://www.w3.org/2000/svg" xmlns:xlink="http://www.w3.org/1999/xlink" width="1030" height="284" viewBox="0 0 1030 284">
  <defs>
    <linearGradient id="linear-gradient" x1="0.831" y1="1" x2="0.132" y2="1" gradientUnits="objectBoundingBox">
      <stop offset="0" stop-color="#ffe8ce"/>
      <stop offset="1" stop-color="#b20d0d"/>
    </linearGradient>
  </defs>
  <g id="Grupo_992583" data-name="Grupo 992583" transform="translate(-285 -12636)">
    <g id="Rectángulo_349504" data-name="Rectángulo 349504" transform="translate(285 12636)" fill="#fff" stroke="#ffe8ce" stroke-width="3">
      <rect width="1030" height="284" stroke="none"/>
      <rect x="1.5" y="1.5" width="1027" height="281" fill="none"/>
    </g>
    <path id="Trazado_706272" data-name="Trazado 706272" d="M10396,1046l30.667-34H10580l28.667,34H10590v106h-178V1046Z" transform="translate(-10027 11704)" fill="#03a4a4"/>
    <path id="Unión_5" data-name="Unión 5" d="M-4169,11753h15.072a7.1,7.1,0,0,1-.071-1v-27a7,7,0,0,1,7-7h22a7,7,0,0,1,7,7v27a7.028,7.028,0,0,1-.071,1H-4104l-32.5,34Z" transform="translate(-11120.5 8659.498) rotate(-90)" fill="#06d1d1"/>
    <path id="Unión_6" data-name="Unión 6" d="M-4169,11753h15.072a7.1,7.1,0,0,1-.071-1v-27a7,7,0,0,1,7-7h22a7,7,0,0,1,7,7v27a7.028,7.028,0,0,1-.071,1H-4104l-32.5,34Z" transform="translate(-10715.5 8659.498) rotate(-90)" fill="#06d1d1"/>
    <path id="Unión_7" data-name="Unión 7" d="M-4169,11772.624h3V11721.6a3.6,3.6,0,0,1,3.6-3.6,3.6,3.6,0,0,1,3.6,3.6v51.024h2.8l-6.5,14.377Z" transform="translate(-10819.374 8699.5) rotate(-90)" fill="#06d1d1"/>
    <g id="Grupo_992519" data-name="Grupo 992519" transform="translate(-21.371 -11)">
      <path id="Trazado_706273" data-name="Trazado 706273" d="M10844,1022.667s11.333,8,32,7.333,43-20,68-20,44,12.667,44,12.667" transform="translate(-9998 11718)" fill="none" stroke="#ffc403" stroke-linecap="round" stroke-width="3"/>
      <path id="Polígono_162" data-name="Polígono 162" d="M6.969,1.692a1,1,0,0,1,1.772,0l6.2,11.844A1,1,0,0,1,14.057,15H1.652a1,1,0,0,1-.886-1.464Z" transform="matrix(-0.438, 0.899, -0.899, -0.438, 1003.371, 12737.667)" fill="#a03d3d"/>
    </g>
    <g id="Grupo_992520" data-name="Grupo 992520" transform="translate(-19.371 5)">
      <path id="Trazado_706273-2" data-name="Trazado 706273" d="M10844,1022.667s11.333,8,32,7.333,43-20,68-20,44,12.667,44,12.667" transform="translate(-9998 11718)" fill="none" stroke="#ffc403" stroke-linecap="round" stroke-width="3"/>
      <path id="Polígono_162-2" data-name="Polígono 162" d="M6.969,1.692a1,1,0,0,1,1.772,0l6.2,11.844A1,1,0,0,1,14.057,15H1.652a1,1,0,0,1-.886-1.464Z" transform="matrix(-0.438, 0.899, -0.899, -0.438, 1003.371, 12737.667)" fill="#a03d3d"/>
    </g>
    <g id="Grupo_992521" data-name="Grupo 992521" transform="translate(-19.371 22)">
      <path id="Trazado_706273-3" data-name="Trazado 706273" d="M10844,1022.667s11.333,8,32,7.333,43-20,68-20,44,12.667,44,12.667" transform="translate(-9998 11718)" fill="none" stroke="#ffc403" stroke-linecap="round" stroke-width="3"/>
      <path id="Polígono_162-3" data-name="Polígono 162" d="M6.969,1.692a1,1,0,0,1,1.772,0l6.2,11.844A1,1,0,0,1,14.057,15H1.652a1,1,0,0,1-.886-1.464Z" transform="matrix(-0.438, 0.899, -0.899, -0.438, 1003.371, 12737.667)" fill="#a03d3d"/>
    </g>
    <path id="Trazado_706274" data-name="Trazado 706274" d="M10867.5,1126.75v-18.5l114.25,18.5Z" transform="translate(-10027 11704)" fill="url(#linear-gradient)"/>
    <line id="Línea_596" data-name="Línea 596" y1="14" x2="7" transform="translate(857.5 12856.5)" fill="none" stroke="#707070" stroke-width="1"/>
    <line id="Línea_597" data-name="Línea 597" x1="9" y1="18" transform="translate(871.5 12855.5)" fill="none" stroke="#707070" stroke-width="1"/>
    <circle id="Elipse_5680" data-name="Elipse 5680" cx="9" cy="9" r="9" transform="translate(859 12842)" fill="#03a4a4"/>
    <circle id="Elipse_5681" data-name="Elipse 5681" cx="9" cy="9" r="9" transform="translate(846 12864)" fill="#ffc403"/>
    <circle id="Elipse_5682" data-name="Elipse 5682" cx="9" cy="9" r="9" transform="translate(871 12864)" fill="#ffc403"/>
    <path id="Trazado_706275" data-name="Trazado 706275" d="M11187.75,999.5s-5.5,5.5-7.25,18.5-.5,23.75-11.75,36.25-31.25,42.75-35.25,50.5-6.25,20.5,5.75,26,27.5,6.5,27.5,14.5-9.25,12.75-9.25,18.5,6.75,9.75,6.75,9.75" transform="translate(-10027 11704)" fill="none" stroke="#000" stroke-width="3"/>
    <path id="Trazado_706276" data-name="Trazado 706276" d="M11187.75,1130.25s-1.5-10-18.5-9.25-14.25,9-6.25,9.25,7.5-6.75,14.25-7S11187.75,1130.25,11187.75,1130.25Z" transform="translate(-10027 11704)"/>
    <path id="Trazado_706277" data-name="Trazado 706277" d="M11182.25,1131.5c-9.75-5.25,9.75,8.5,18.75,0s.75-25.25-10-27.5-7.25-7.25-2.75-6.25,20.75,13.75,18,25.75S11192,1136.75,11182.25,1131.5Z" transform="translate(-10027 11704)"/>
    <path id="Trazado_706415" data-name="Trazado 706415" d="M15.044,20.5H6.753V29H1.611V7.672H15.879v3.97H6.753v4.907h8.291Zm19.7-12.832v13.96a8.023,8.023,0,0,1-1.011,4.109,6.548,6.548,0,0,1-2.9,2.644,10.218,10.218,0,0,1-4.468.908,8.827,8.827,0,0,1-6.138-2.021,7.21,7.21,0,0,1-2.285-5.537V7.672h5.171V21.837q.088,3.5,3.252,3.5a3.148,3.148,0,0,0,2.417-.879A4.108,4.108,0,0,0,29.6,21.6V7.672ZM51.182,19.947H43.1v5.1h9.551V29H37.954V7.672H52.676v3.97H43.1v4.5h8.086ZM72.554,29H67.441L59.883,15.729V29H54.741V7.672h5.142l7.544,13.271V7.672h5.127Zm19.57-17.358h-6.4V29H80.581V11.642H74.3V7.672H92.124Zm15.4,8.306H99.434v5.1h9.551V29H94.292V7.672h14.722v3.97h-9.58v4.5h8.086Z" transform="translate(416 12779)" fill="#f2f5f8"/>
    <path id="Trazado_706411" data-name="Trazado 706411" d="M35.749,19V4.781h4.58a6.737,6.737,0,0,1,3.389.854,6.006,6.006,0,0,1,2.349,2.412,7.283,7.283,0,0,1,.854,3.491v.654a7.325,7.325,0,0,1-.825,3.5,6.032,6.032,0,0,1-2.324,2.422A6.589,6.589,0,0,1,40.427,19ZM39.177,7.428v8.936h1.191a2.666,2.666,0,0,0,2.266-1.05,5.145,5.145,0,0,0,.791-3.12v-.615a5.1,5.1,0,0,0-.791-3.105,2.713,2.713,0,0,0-2.3-1.045ZM52,19H48.7V8.434H52ZM48.5,5.709a1.469,1.469,0,0,1,.508-1.152,2.159,2.159,0,0,1,2.637,0,1.469,1.469,0,0,1,.508,1.152,1.469,1.469,0,0,1-.508,1.152,2.159,2.159,0,0,1-2.637,0A1.469,1.469,0,0,1,48.5,5.709ZM59.558,16.031a.76.76,0,0,0-.439-.674,6.685,6.685,0,0,0-1.67-.527,7.615,7.615,0,0,1-2.031-.718A3.4,3.4,0,0,1,54.2,13.033a2.577,2.577,0,0,1-.42-1.455,2.92,2.92,0,0,1,1.2-2.4,4.948,4.948,0,0,1,3.145-.942,5.482,5.482,0,0,1,3.359.947,2.962,2.962,0,0,1,1.27,2.49h-3.3q0-1.27-1.338-1.27a1.326,1.326,0,0,0-.869.288.892.892,0,0,0-.352.718.819.819,0,0,0,.43.713,4.06,4.06,0,0,0,1.372.449,11.857,11.857,0,0,1,1.655.42,3.007,3.007,0,0,1,2.383,2.939,2.767,2.767,0,0,1-1.284,2.354,5.632,5.632,0,0,1-3.325.908,5.747,5.747,0,0,1-2.422-.488,4.05,4.05,0,0,1-1.66-1.328,3.007,3.007,0,0,1-.6-1.768h3.076a1.272,1.272,0,0,0,.488,1.069,2.009,2.009,0,0,0,1.2.337,1.58,1.58,0,0,0,1.011-.273A.875.875,0,0,0,59.558,16.031Zm14.521-2.236a6.372,6.372,0,0,1-1.108,3.931,3.554,3.554,0,0,1-2.993,1.47,3.046,3.046,0,0,1-2.393-1.064v4.932H64.294V8.434H67.37l.1.977a3.046,3.046,0,0,1,2.49-1.172A3.582,3.582,0,0,1,73,9.679a6.45,6.45,0,0,1,1.084,3.96Zm-3.291-.205q0-2.812-1.641-2.812a1.549,1.549,0,0,0-1.562.84v4.16a1.6,1.6,0,0,0,1.582.879q1.572,0,1.621-2.715ZM80.642,19.2a5.432,5.432,0,0,1-3.936-1.45,5.008,5.008,0,0,1-1.5-3.774V13.7a6.489,6.489,0,0,1,.6-2.861,4.395,4.395,0,0,1,1.753-1.919,5.292,5.292,0,0,1,2.734-.679A4.574,4.574,0,0,1,83.806,9.62a5.43,5.43,0,0,1,1.289,3.853v1.279H78.552a2.372,2.372,0,0,0,.771,1.4,2.3,2.3,0,0,0,1.543.508,2.958,2.958,0,0,0,2.441-1.094l1.5,1.777a4.2,4.2,0,0,1-1.743,1.353A5.891,5.891,0,0,1,80.642,19.2Zm-.371-8.418q-1.445,0-1.719,1.914h3.32v-.254a1.63,1.63,0,0,0-.4-1.226A1.593,1.593,0,0,0,80.271,10.777Zm12.539.635-1.084-.078a1.947,1.947,0,0,0-1.992.977V19H86.442V8.434h3.086l.107,1.357A2.548,2.548,0,0,1,91.95,8.238a3.209,3.209,0,0,1,.918.117Zm6.719,4.619a.76.76,0,0,0-.439-.674,6.685,6.685,0,0,0-1.67-.527,7.615,7.615,0,0,1-2.031-.718,3.4,3.4,0,0,1-1.221-1.079,2.577,2.577,0,0,1-.42-1.455,2.92,2.92,0,0,1,1.2-2.4,4.948,4.948,0,0,1,3.145-.942,5.482,5.482,0,0,1,3.359.947,2.962,2.962,0,0,1,1.27,2.49h-3.3q0-1.27-1.338-1.27a1.326,1.326,0,0,0-.869.288.892.892,0,0,0-.352.718.819.819,0,0,0,.43.713,4.06,4.06,0,0,0,1.372.449,11.857,11.857,0,0,1,1.655.42,3.007,3.007,0,0,1,2.383,2.939,2.767,2.767,0,0,1-1.284,2.354,5.631,5.631,0,0,1-3.325.908,5.747,5.747,0,0,1-2.422-.488,4.05,4.05,0,0,1-1.66-1.328,3.007,3.007,0,0,1-.6-1.768h3.076a1.272,1.272,0,0,0,.488,1.069,2.009,2.009,0,0,0,1.2.337,1.58,1.58,0,0,0,1.011-.273A.875.875,0,0,0,99.528,16.031ZM107.712,19h-3.3V8.434h3.3Zm-3.5-13.291a1.469,1.469,0,0,1,.508-1.152,2.159,2.159,0,0,1,2.637,0,1.469,1.469,0,0,1,.508,1.152,1.469,1.469,0,0,1-.508,1.152,2.159,2.159,0,0,1-2.637,0A1.469,1.469,0,0,1,104.216,5.709Zm5.107,7.91a6.236,6.236,0,0,1,.615-2.817,4.4,4.4,0,0,1,1.768-1.9,5.323,5.323,0,0,1,2.705-.664,4.858,4.858,0,0,1,3.74,1.47,5.64,5.64,0,0,1,1.367,4v.117a5.472,5.472,0,0,1-1.372,3.921,4.871,4.871,0,0,1-3.716,1.45,4.927,4.927,0,0,1-3.623-1.353,5.29,5.29,0,0,1-1.475-3.667Zm3.291.205a3.932,3.932,0,0,0,.459,2.148,1.529,1.529,0,0,0,1.357.684q1.758,0,1.8-2.705v-.332q0-2.842-1.816-2.842-1.65,0-1.787,2.451ZM114.86,4h3.477l-2.715,3.066-2.686,0Zm9.131,4.434.107,1.24a3.583,3.583,0,0,1,3.018-1.436,3.015,3.015,0,0,1,2.466.986,4.7,4.7,0,0,1,.845,2.969V19h-3.3V12.33a1.783,1.783,0,0,0-.322-1.177,1.491,1.491,0,0,0-1.172-.376,1.569,1.569,0,0,0-1.436.762V19h-3.291V8.434ZM9.642,38.806a13.589,13.589,0,0,1,.532-3.814,11.081,11.081,0,0,1,1.586-3.322,6.749,6.749,0,0,1,2.188-2.109l.334,1.072a7,7,0,0,0-2.1,3.006,13.031,13.031,0,0,0-.9,4.526l-.009.747A13.1,13.1,0,0,0,12.507,44.8a7.033,7.033,0,0,0,1.775,2.338l-.334.993a6.966,6.966,0,0,1-2.232-2.18A12.217,12.217,0,0,1,9.642,38.806Zm13.535,1.846H17.816L16.612,44h-1.74l4.887-12.8h1.477L26.13,44H24.4Zm-4.852-1.38h4.351L20.5,33.286Zm13.087,3.577a2.342,2.342,0,0,0,1.521-.527A1.855,1.855,0,0,0,33.654,41h1.538a2.949,2.949,0,0,1-.562,1.556,3.7,3.7,0,0,1-1.384,1.178,3.994,3.994,0,0,1-1.833.439,3.918,3.918,0,0,1-3.089-1.3,5.163,5.163,0,0,1-1.147-3.546v-.272a5.725,5.725,0,0,1,.51-2.47,3.883,3.883,0,0,1,1.463-1.679,4.157,4.157,0,0,1,2.254-.6,3.814,3.814,0,0,1,2.659.958,3.424,3.424,0,0,1,1.129,2.487H33.654a2.241,2.241,0,0,0-.7-1.516A2.174,2.174,0,0,0,31.4,35.65a2.276,2.276,0,0,0-1.92.892,4.19,4.19,0,0,0-.681,2.58v.308a4.106,4.106,0,0,0,.677,2.531A2.287,2.287,0,0,0,31.413,42.849Zm9.422,0a2.342,2.342,0,0,0,1.521-.527A1.855,1.855,0,0,0,43.076,41h1.538a2.949,2.949,0,0,1-.562,1.556,3.7,3.7,0,0,1-1.384,1.178,3.994,3.994,0,0,1-1.833.439,3.918,3.918,0,0,1-3.089-1.3A5.163,5.163,0,0,1,36.6,39.333v-.272a5.725,5.725,0,0,1,.51-2.47,3.883,3.883,0,0,1,1.463-1.679,4.157,4.157,0,0,1,2.254-.6,3.814,3.814,0,0,1,2.659.958,3.424,3.424,0,0,1,1.129,2.487H43.076a2.241,2.241,0,0,0-.7-1.516,2.174,2.174,0,0,0-1.551-.593,2.276,2.276,0,0,0-1.92.892,4.19,4.19,0,0,0-.681,2.58v.308a4.106,4.106,0,0,0,.677,2.531A2.287,2.287,0,0,0,40.834,42.849ZM48.208,44H46.583V34.49h1.626ZM46.451,31.968a.971.971,0,0,1,.242-.668.907.907,0,0,1,.716-.272.922.922,0,0,1,.721.272.96.96,0,0,1,.246.668.929.929,0,0,1-.246.659.938.938,0,0,1-.721.264.924.924,0,0,1-.716-.264A.938.938,0,0,1,46.451,31.968Zm3.929,7.189a5.617,5.617,0,0,1,.549-2.514,4.1,4.1,0,0,1,1.529-1.723,4.163,4.163,0,0,1,2.237-.606,4.01,4.01,0,0,1,3.142,1.345,5.174,5.174,0,0,1,1.2,3.577v.114a5.666,5.666,0,0,1-.532,2.492,4.038,4.038,0,0,1-1.521,1.718,4.211,4.211,0,0,1-2.272.615,4,4,0,0,1-3.133-1.345,5.147,5.147,0,0,1-1.2-3.56Zm1.635.193a4.068,4.068,0,0,0,.734,2.54,2.487,2.487,0,0,0,3.933-.013,4.449,4.449,0,0,0,.729-2.72,4.061,4.061,0,0,0-.743-2.536,2.361,2.361,0,0,0-1.973-.971,2.335,2.335,0,0,0-1.942.958A4.416,4.416,0,0,0,52.014,39.351ZM55.433,30.5H57.4l-2.355,2.584-1.31,0Zm7.181,3.99.053,1.2a3.465,3.465,0,0,1,2.848-1.371q3.015,0,3.041,3.4V44H66.929V37.707a2.189,2.189,0,0,0-.47-1.521,1.884,1.884,0,0,0-1.437-.492,2.347,2.347,0,0,0-1.389.422,2.865,2.865,0,0,0-.932,1.107V44H61.076V34.49Zm12.454,4.676a5.571,5.571,0,0,1,1.037-3.52,3.529,3.529,0,0,1,5.361-.189V30.5h1.626V44H81.6l-.079-1.02a3.311,3.311,0,0,1-2.716,1.2,3.248,3.248,0,0,1-2.694-1.354,5.634,5.634,0,0,1-1.042-3.533Zm1.626.185a4.218,4.218,0,0,0,.668,2.531,2.159,2.159,0,0,0,1.846.914,2.372,2.372,0,0,0,2.259-1.389V37.039a2.39,2.39,0,0,0-2.241-1.345,2.17,2.17,0,0,0-1.863.923A4.644,4.644,0,0,0,76.694,39.351Zm12.867,4.825a4.155,4.155,0,0,1-3.146-1.27,4.714,4.714,0,0,1-1.213-3.4v-.3a5.707,5.707,0,0,1,.541-2.527,4.217,4.217,0,0,1,1.512-1.74,3.8,3.8,0,0,1,2.1-.628,3.562,3.562,0,0,1,2.883,1.222,5.289,5.289,0,0,1,1.028,3.5v.677H86.828a3.38,3.38,0,0,0,.822,2.272,2.583,2.583,0,0,0,2,.866,2.832,2.832,0,0,0,1.459-.352,3.666,3.666,0,0,0,1.046-.932l.993.773A3.993,3.993,0,0,1,89.561,44.176Zm-.2-8.525a2.169,2.169,0,0,0-1.652.716,3.482,3.482,0,0,0-.826,2.008h4.764v-.123a3.1,3.1,0,0,0-.668-1.92A2.042,2.042,0,0,0,89.359,35.65ZM96.917,44H95.292V30.5h1.626Zm10.2-2.206,2.355-7.3h1.661L107.719,44H106.48l-3.445-9.51H104.7ZM114.46,44h-1.626V34.49h1.626ZM112.7,31.968a.971.971,0,0,1,.242-.668.907.907,0,0,1,.716-.272.922.922,0,0,1,.721.272.96.96,0,0,1,.246.668.929.929,0,0,1-.246.659.938.938,0,0,1-.721.264.924.924,0,0,1-.716-.264A.938.938,0,0,1,112.7,31.968Zm8.306,12.208a4.155,4.155,0,0,1-3.146-1.27,4.714,4.714,0,0,1-1.213-3.4v-.3a5.707,5.707,0,0,1,.541-2.527,4.217,4.217,0,0,1,1.512-1.74,3.8,3.8,0,0,1,2.1-.628,3.562,3.562,0,0,1,2.883,1.222,5.289,5.289,0,0,1,1.028,3.5v.677h-6.442a3.38,3.38,0,0,0,.822,2.272,2.583,2.583,0,0,0,2,.866,2.832,2.832,0,0,0,1.459-.352,3.666,3.666,0,0,0,1.046-.932l.993.773A3.993,3.993,0,0,1,121.008,44.176Zm-.2-8.525a2.169,2.169,0,0,0-1.652.716,3.482,3.482,0,0,0-.826,2.008h4.764v-.123a3.1,3.1,0,0,0-.668-1.92A2.042,2.042,0,0,0,120.806,35.65Zm7.33-1.16.053,1.2a3.465,3.465,0,0,1,2.848-1.371q3.015,0,3.041,3.4V44h-1.626V37.707a2.189,2.189,0,0,0-.47-1.521,1.884,1.884,0,0,0-1.437-.492,2.347,2.347,0,0,0-1.389.422,2.865,2.865,0,0,0-.932,1.107V44H126.6V34.49Zm10.6-2.3v2.3h1.775v1.257h-1.775v5.9a1.32,1.32,0,0,0,.237.858,1,1,0,0,0,.809.286,3.937,3.937,0,0,0,.773-.105V44a4.742,4.742,0,0,1-1.248.175,2.025,2.025,0,0,1-1.644-.659,2.832,2.832,0,0,1-.554-1.872v-5.9h-1.731V34.49h1.731v-2.3Zm3.067,6.97a5.617,5.617,0,0,1,.549-2.514,4.1,4.1,0,0,1,1.529-1.723,4.163,4.163,0,0,1,2.237-.606,4.01,4.01,0,0,1,3.142,1.345,5.174,5.174,0,0,1,1.2,3.577v.114a5.666,5.666,0,0,1-.532,2.492,4.038,4.038,0,0,1-1.521,1.718,4.211,4.211,0,0,1-2.272.615A4,4,0,0,1,143,42.831a5.147,5.147,0,0,1-1.2-3.56Zm1.635.193a4.068,4.068,0,0,0,.734,2.54,2.487,2.487,0,0,0,3.933-.013,4.449,4.449,0,0,0,.729-2.72,4.061,4.061,0,0,0-.743-2.536,2.361,2.361,0,0,0-1.973-.971,2.335,2.335,0,0,0-1.942.958A4.416,4.416,0,0,0,143.438,39.351Zm12.814-.457a13.6,13.6,0,0,1-.514,3.757,11.11,11.11,0,0,1-1.573,3.318,6.893,6.893,0,0,1-2.219,2.162l-.343-.993a7.066,7.066,0,0,0,2.175-3.221,13.935,13.935,0,0,0,.839-4.847v-.281a14.469,14.469,0,0,0-.387-3.432,11.583,11.583,0,0,0-1.077-2.843,6.567,6.567,0,0,0-1.551-1.96l.343-.993a6.866,6.866,0,0,1,2.21,2.145,11.134,11.134,0,0,1,1.573,3.313A13.909,13.909,0,0,1,156.252,38.894Z" transform="translate(652 12717)" fill="#12263f"/>
    <path id="Trazado_706412" data-name="Trazado 706412" d="M30.472,19V4.781h4.58a6.737,6.737,0,0,1,3.389.854,6.006,6.006,0,0,1,2.349,2.412,7.283,7.283,0,0,1,.854,3.491v.654a7.325,7.325,0,0,1-.825,3.5,6.032,6.032,0,0,1-2.324,2.422A6.589,6.589,0,0,1,35.149,19ZM33.9,7.428v8.936h1.191a2.666,2.666,0,0,0,2.266-1.05,5.145,5.145,0,0,0,.791-3.12v-.615a5.1,5.1,0,0,0-.791-3.105,2.713,2.713,0,0,0-2.3-1.045ZM46.722,19h-3.3V8.434h3.3Zm-3.5-13.291a1.469,1.469,0,0,1,.508-1.152,2.159,2.159,0,0,1,2.637,0,1.469,1.469,0,0,1,.508,1.152,1.469,1.469,0,0,1-.508,1.152,2.159,2.159,0,0,1-2.637,0A1.469,1.469,0,0,1,43.226,5.709ZM49.476,19V10.719H47.942V8.434h1.533v-.84a3.651,3.651,0,0,1,1.064-2.8,4.206,4.206,0,0,1,2.988-1A6.544,6.544,0,0,1,55.071,4l.01,2.422a3.007,3.007,0,0,0-.811-.088q-1.494,0-1.494,1.289v.811h2.061v2.285H52.776V19Zm12.813-1.143A3.393,3.393,0,0,1,59.466,19.2a3.328,3.328,0,0,1-2.632-1.011,4.251,4.251,0,0,1-.894-2.905V8.434h3.291V15.3a1.183,1.183,0,0,0,1.318,1.357,1.72,1.72,0,0,0,1.611-.811V8.434h3.311V19H62.386Zm10.518-1.826a.76.76,0,0,0-.439-.674,6.685,6.685,0,0,0-1.67-.527,7.615,7.615,0,0,1-2.031-.718,3.4,3.4,0,0,1-1.221-1.079,2.577,2.577,0,0,1-.42-1.455,2.92,2.92,0,0,1,1.2-2.4,4.948,4.948,0,0,1,3.145-.942,5.482,5.482,0,0,1,3.359.947A2.962,2.962,0,0,1,76,11.676H72.7q0-1.27-1.338-1.27a1.326,1.326,0,0,0-.869.288.892.892,0,0,0-.352.718.819.819,0,0,0,.43.713,4.06,4.06,0,0,0,1.372.449,11.857,11.857,0,0,1,1.655.42,3.007,3.007,0,0,1,2.383,2.939A2.767,2.767,0,0,1,74.7,18.287a5.631,5.631,0,0,1-3.325.908,5.747,5.747,0,0,1-2.422-.488,4.05,4.05,0,0,1-1.66-1.328,3.007,3.007,0,0,1-.6-1.768h3.076a1.272,1.272,0,0,0,.488,1.069,2.009,2.009,0,0,0,1.2.337,1.58,1.58,0,0,0,1.011-.273A.875.875,0,0,0,72.806,16.031ZM80.989,19h-3.3V8.434h3.3Zm-3.5-13.291A1.469,1.469,0,0,1,78,4.557a2.159,2.159,0,0,1,2.637,0,1.469,1.469,0,0,1,.508,1.152,1.469,1.469,0,0,1-.508,1.152,2.159,2.159,0,0,1-2.637,0A1.469,1.469,0,0,1,77.493,5.709Zm5.107,7.91a6.236,6.236,0,0,1,.615-2.817,4.4,4.4,0,0,1,1.768-1.9,5.323,5.323,0,0,1,2.705-.664,4.858,4.858,0,0,1,3.74,1.47,5.64,5.64,0,0,1,1.367,4v.117a5.472,5.472,0,0,1-1.372,3.921,4.871,4.871,0,0,1-3.716,1.45,4.927,4.927,0,0,1-3.623-1.353,5.29,5.29,0,0,1-1.475-3.667Zm3.291.205a3.932,3.932,0,0,0,.459,2.148,1.529,1.529,0,0,0,1.357.684q1.758,0,1.8-2.705v-.332q0-2.842-1.816-2.842-1.65,0-1.787,2.451ZM88.138,4h3.477L88.9,7.066l-2.686,0Zm9.131,4.434.107,1.24a3.583,3.583,0,0,1,3.018-1.436,3.015,3.015,0,0,1,2.466.986,4.7,4.7,0,0,1,.845,2.969V19h-3.3V12.33a1.783,1.783,0,0,0-.322-1.177,1.491,1.491,0,0,0-1.172-.376,1.569,1.569,0,0,0-1.436.762V19H94.183V8.434ZM14.424,33.806a13.589,13.589,0,0,1,.532-3.814,11.081,11.081,0,0,1,1.586-3.322A6.749,6.749,0,0,1,18.73,24.56l.334,1.072a7,7,0,0,0-2.1,3.006,13.031,13.031,0,0,0-.9,4.526l-.009.747A13.1,13.1,0,0,0,17.289,39.8a7.033,7.033,0,0,0,1.775,2.338l-.334.993a6.966,6.966,0,0,1-2.232-2.18A12.217,12.217,0,0,1,14.424,33.806Zm15.917,3.516a3.9,3.9,0,0,1-1.815,1.393,7.331,7.331,0,0,1-2.711.461,5.258,5.258,0,0,1-2.777-.734,4.889,4.889,0,0,1-1.876-2.087,7.21,7.21,0,0,1-.681-3.138V32.1a6.73,6.73,0,0,1,1.349-4.482,4.7,4.7,0,0,1,3.792-1.591,4.856,4.856,0,0,1,3.226,1.024,4.461,4.461,0,0,1,1.494,2.9H28.653a2.79,2.79,0,0,0-3.023-2.549A2.987,2.987,0,0,0,23.059,28.6a5.82,5.82,0,0,0-.883,3.453V33.1a5.454,5.454,0,0,0,.984,3.426A3.191,3.191,0,0,0,25.823,37.8a5.882,5.882,0,0,0,1.661-.21,2.569,2.569,0,0,0,1.178-.71V34.008H25.7v-1.38h4.641ZM37.5,30.949a4.873,4.873,0,0,0-.8-.062,2.143,2.143,0,0,0-2.171,1.362V39H32.9V29.49H34.48l.026,1.1a2.532,2.532,0,0,1,2.268-1.274,1.661,1.661,0,0,1,.721.123ZM44.509,39a3.416,3.416,0,0,1-.229-1,3.628,3.628,0,0,1-2.707,1.178,3.357,3.357,0,0,1-2.307-.8,2.573,2.573,0,0,1-.9-2.017,2.688,2.688,0,0,1,1.129-2.307,5.325,5.325,0,0,1,3.177-.822h1.582v-.747a1.826,1.826,0,0,0-.51-1.358,2.049,2.049,0,0,0-1.5-.505,2.371,2.371,0,0,0-1.459.439,1.3,1.3,0,0,0-.589,1.063H38.559a2.244,2.244,0,0,1,.505-1.375,3.449,3.449,0,0,1,1.371-1.05,4.613,4.613,0,0,1,1.9-.387,3.759,3.759,0,0,1,2.575.822A2.964,2.964,0,0,1,45.88,32.4v4.377a5.351,5.351,0,0,0,.334,2.083V39Zm-2.7-1.239a2.858,2.858,0,0,0,1.45-.4,2.392,2.392,0,0,0,.993-1.028V34.386H42.979q-2.988,0-2.988,1.749a1.48,1.48,0,0,0,.51,1.2A1.959,1.959,0,0,0,41.811,37.761Zm6.223-3.595a5.571,5.571,0,0,1,1.037-3.52,3.529,3.529,0,0,1,5.361-.189V25.5h1.626V39H54.563l-.079-1.02a3.311,3.311,0,0,1-2.716,1.2,3.248,3.248,0,0,1-2.694-1.354,5.634,5.634,0,0,1-1.042-3.533Zm1.626.185a4.218,4.218,0,0,0,.668,2.531,2.159,2.159,0,0,0,1.846.914,2.372,2.372,0,0,0,2.259-1.389V32.039a2.39,2.39,0,0,0-2.241-1.345,2.17,2.17,0,0,0-1.863.923A4.644,4.644,0,0,0,49.659,34.351ZM60.347,39H58.721V29.49h1.626ZM58.589,26.968a.971.971,0,0,1,.242-.668.907.907,0,0,1,.716-.272.922.922,0,0,1,.721.272.96.96,0,0,1,.246.668.929.929,0,0,1-.246.659.938.938,0,0,1-.721.264.924.924,0,0,1-.716-.264A.938.938,0,0,1,58.589,26.968Zm8.306,12.208a4.155,4.155,0,0,1-3.146-1.27,4.714,4.714,0,0,1-1.213-3.4v-.3a5.707,5.707,0,0,1,.541-2.527,4.217,4.217,0,0,1,1.512-1.74,3.8,3.8,0,0,1,2.1-.628,3.562,3.562,0,0,1,2.883,1.222,5.289,5.289,0,0,1,1.028,3.5v.677H64.161a3.38,3.38,0,0,0,.822,2.272,2.583,2.583,0,0,0,2,.866,2.832,2.832,0,0,0,1.459-.352,3.666,3.666,0,0,0,1.046-.932l.993.773A3.993,3.993,0,0,1,66.895,39.176Zm-.2-8.525a2.169,2.169,0,0,0-1.652.716,3.482,3.482,0,0,0-.826,2.008h4.764v-.123a3.1,3.1,0,0,0-.668-1.92A2.042,2.042,0,0,0,66.692,30.65Zm7.33-1.16.053,1.2a3.465,3.465,0,0,1,2.848-1.371q3.015,0,3.041,3.4V39H78.338V32.707a2.189,2.189,0,0,0-.47-1.521,1.884,1.884,0,0,0-1.437-.492,2.347,2.347,0,0,0-1.389.422,2.865,2.865,0,0,0-.932,1.107V39H72.484V29.49Zm10.6-2.3v2.3H86.4v1.257H84.622v5.9a1.32,1.32,0,0,0,.237.858,1,1,0,0,0,.809.286,3.937,3.937,0,0,0,.773-.105V39a4.742,4.742,0,0,1-1.248.175,2.025,2.025,0,0,1-1.644-.659A2.832,2.832,0,0,1,83,36.645v-5.9H81.265V29.49H83v-2.3Zm7.62,11.988a4.155,4.155,0,0,1-3.146-1.27,4.714,4.714,0,0,1-1.213-3.4v-.3a5.707,5.707,0,0,1,.541-2.527,4.217,4.217,0,0,1,1.512-1.74,3.8,3.8,0,0,1,2.1-.628,3.562,3.562,0,0,1,2.883,1.222,5.289,5.289,0,0,1,1.028,3.5v.677H89.509a3.38,3.38,0,0,0,.822,2.272,2.583,2.583,0,0,0,2,.866,2.832,2.832,0,0,0,1.459-.352,3.666,3.666,0,0,0,1.046-.932l.993.773A3.993,3.993,0,0,1,92.242,39.176Zm-.2-8.525a2.169,2.169,0,0,0-1.652.716,3.482,3.482,0,0,0-.826,2.008h4.764v-.123a3.1,3.1,0,0,0-.668-1.92A2.042,2.042,0,0,0,92.04,30.65Zm9.853,3.516a5.571,5.571,0,0,1,1.037-3.52,3.529,3.529,0,0,1,5.361-.189V25.5h1.626V39h-1.494l-.079-1.02a3.311,3.311,0,0,1-2.716,1.2,3.248,3.248,0,0,1-2.694-1.354,5.634,5.634,0,0,1-1.042-3.533Zm1.626.185a4.218,4.218,0,0,0,.668,2.531,2.159,2.159,0,0,0,1.846.914,2.372,2.372,0,0,0,2.259-1.389V32.039a2.39,2.39,0,0,0-2.241-1.345,2.17,2.17,0,0,0-1.863.923A4.644,4.644,0,0,0,103.519,34.351Zm12.867,4.825a4.155,4.155,0,0,1-3.146-1.27,4.714,4.714,0,0,1-1.213-3.4v-.3a5.707,5.707,0,0,1,.541-2.527,4.217,4.217,0,0,1,1.512-1.74,3.8,3.8,0,0,1,2.1-.628,3.562,3.562,0,0,1,2.883,1.222,5.289,5.289,0,0,1,1.028,3.5v.677h-6.442a3.38,3.38,0,0,0,.822,2.272,2.583,2.583,0,0,0,2,.866,2.832,2.832,0,0,0,1.459-.352,3.666,3.666,0,0,0,1.046-.932l.993.773A3.993,3.993,0,0,1,116.386,39.176Zm-.2-8.525a2.169,2.169,0,0,0-1.652.716,3.482,3.482,0,0,0-.826,2.008h4.764v-.123a3.1,3.1,0,0,0-.668-1.92A2.042,2.042,0,0,0,116.184,30.65ZM11.963,57.849a2.342,2.342,0,0,0,1.521-.527A1.855,1.855,0,0,0,14.2,56h1.538a2.949,2.949,0,0,1-.562,1.556A3.7,3.7,0,0,1,13.8,58.736a3.994,3.994,0,0,1-1.833.439,3.918,3.918,0,0,1-3.089-1.3,5.163,5.163,0,0,1-1.147-3.546v-.272a5.725,5.725,0,0,1,.51-2.47A3.883,3.883,0,0,1,9.7,49.912a4.157,4.157,0,0,1,2.254-.6,3.814,3.814,0,0,1,2.659.958,3.424,3.424,0,0,1,1.129,2.487H14.2a2.241,2.241,0,0,0-.7-1.516,2.174,2.174,0,0,0-1.551-.593,2.276,2.276,0,0,0-1.92.892,4.19,4.19,0,0,0-.681,2.58v.308a4.106,4.106,0,0,0,.677,2.531A2.287,2.287,0,0,0,11.963,57.849Zm5.177-3.691a5.617,5.617,0,0,1,.549-2.514,4.1,4.1,0,0,1,1.529-1.723,4.163,4.163,0,0,1,2.237-.606A4.01,4.01,0,0,1,24.6,50.659a5.174,5.174,0,0,1,1.2,3.577v.114a5.666,5.666,0,0,1-.532,2.492,4.038,4.038,0,0,1-1.521,1.718,4.211,4.211,0,0,1-2.272.615,4,4,0,0,1-3.133-1.345,5.147,5.147,0,0,1-1.2-3.56Zm1.635.193a4.068,4.068,0,0,0,.734,2.54,2.487,2.487,0,0,0,3.933-.013,4.449,4.449,0,0,0,.729-2.72,4.061,4.061,0,0,0-.743-2.536,2.361,2.361,0,0,0-1.973-.971,2.335,2.335,0,0,0-1.942.958A4.416,4.416,0,0,0,18.774,54.351Zm10.6-4.86.053,1.2a3.465,3.465,0,0,1,2.848-1.371q3.015,0,3.041,3.4V59H33.689V52.707a2.189,2.189,0,0,0-.47-1.521,1.884,1.884,0,0,0-1.437-.492,2.347,2.347,0,0,0-1.389.422,2.865,2.865,0,0,0-.932,1.107V59H27.836V49.49Zm12.208,8.358a2.342,2.342,0,0,0,1.521-.527A1.855,1.855,0,0,0,43.823,56h1.538a2.949,2.949,0,0,1-.562,1.556,3.7,3.7,0,0,1-1.384,1.178,3.994,3.994,0,0,1-1.833.439,3.918,3.918,0,0,1-3.089-1.3,5.163,5.163,0,0,1-1.147-3.546v-.272a5.725,5.725,0,0,1,.51-2.47,3.883,3.883,0,0,1,1.463-1.679,4.157,4.157,0,0,1,2.254-.6,3.814,3.814,0,0,1,2.659.958,3.424,3.424,0,0,1,1.129,2.487H43.823a2.241,2.241,0,0,0-.7-1.516,2.174,2.174,0,0,0-1.551-.593,2.276,2.276,0,0,0-1.92.892,4.19,4.19,0,0,0-.681,2.58v.308a4.106,4.106,0,0,0,.677,2.531A2.287,2.287,0,0,0,41.582,57.849Zm9.554,1.327a4.155,4.155,0,0,1-3.146-1.27,4.714,4.714,0,0,1-1.213-3.4v-.3a5.707,5.707,0,0,1,.541-2.527,4.217,4.217,0,0,1,1.512-1.74,3.8,3.8,0,0,1,2.1-.628,3.562,3.562,0,0,1,2.883,1.222,5.289,5.289,0,0,1,1.028,3.5v.677H48.4a3.38,3.38,0,0,0,.822,2.272,2.583,2.583,0,0,0,2,.866,2.832,2.832,0,0,0,1.459-.352,3.666,3.666,0,0,0,1.046-.932l.993.773A3.993,3.993,0,0,1,51.136,59.176Zm-.2-8.525a2.169,2.169,0,0,0-1.652.716,3.482,3.482,0,0,0-.826,2.008h4.764v-.123a3.1,3.1,0,0,0-.668-1.92A2.042,2.042,0,0,0,50.934,50.65Zm7.33-1.16.053,1.2a3.465,3.465,0,0,1,2.848-1.371q3.015,0,3.041,3.4V59H62.579V52.707a2.189,2.189,0,0,0-.47-1.521,1.884,1.884,0,0,0-1.437-.492,2.347,2.347,0,0,0-1.389.422,2.865,2.865,0,0,0-.932,1.107V59H56.726V49.49Zm10.6-2.3v2.3h1.775v1.257H68.863v5.9a1.32,1.32,0,0,0,.237.858,1,1,0,0,0,.809.286,3.937,3.937,0,0,0,.773-.105V59a4.742,4.742,0,0,1-1.248.175,2.025,2.025,0,0,1-1.644-.659,2.832,2.832,0,0,1-.554-1.872v-5.9H65.506V49.49h1.731v-2.3Zm8.271,3.762a4.873,4.873,0,0,0-.8-.062,2.143,2.143,0,0,0-2.171,1.362V59H72.537V49.49h1.582l.026,1.1a2.532,2.532,0,0,1,2.268-1.274,1.661,1.661,0,0,1,.721.123ZM84.147,59a3.416,3.416,0,0,1-.229-1,3.628,3.628,0,0,1-2.707,1.178,3.357,3.357,0,0,1-2.307-.8,2.573,2.573,0,0,1-.9-2.017,2.688,2.688,0,0,1,1.129-2.307,5.325,5.325,0,0,1,3.177-.822h1.582v-.747a1.826,1.826,0,0,0-.51-1.358,2.049,2.049,0,0,0-1.5-.505,2.371,2.371,0,0,0-1.459.439,1.3,1.3,0,0,0-.589,1.063H78.2a2.244,2.244,0,0,1,.505-1.375,3.449,3.449,0,0,1,1.371-1.05,4.613,4.613,0,0,1,1.9-.387,3.759,3.759,0,0,1,2.575.822,2.964,2.964,0,0,1,.967,2.263v4.377a5.351,5.351,0,0,0,.334,2.083V59Zm-2.7-1.239a2.858,2.858,0,0,0,1.45-.4,2.392,2.392,0,0,0,.993-1.028V54.386H82.618q-2.988,0-2.988,1.749a1.48,1.48,0,0,0,.51,1.2A1.959,1.959,0,0,0,81.449,57.761Zm10.433.088a2.342,2.342,0,0,0,1.521-.527A1.855,1.855,0,0,0,94.123,56h1.538a2.949,2.949,0,0,1-.562,1.556,3.7,3.7,0,0,1-1.384,1.178,3.994,3.994,0,0,1-1.833.439,3.918,3.918,0,0,1-3.089-1.3,5.163,5.163,0,0,1-1.147-3.546v-.272a5.725,5.725,0,0,1,.51-2.47,3.883,3.883,0,0,1,1.463-1.679,4.157,4.157,0,0,1,2.254-.6,3.814,3.814,0,0,1,2.659.958,3.424,3.424,0,0,1,1.129,2.487H94.123a2.241,2.241,0,0,0-.7-1.516,2.174,2.174,0,0,0-1.551-.593,2.276,2.276,0,0,0-1.92.892,4.19,4.19,0,0,0-.681,2.58v.308a4.106,4.106,0,0,0,.677,2.531A2.287,2.287,0,0,0,91.882,57.849ZM99.256,59H97.63V49.49h1.626ZM97.5,46.968a.971.971,0,0,1,.242-.668.907.907,0,0,1,.716-.272.922.922,0,0,1,.721.272.96.96,0,0,1,.246.668.929.929,0,0,1-.246.659.938.938,0,0,1-.721.264.924.924,0,0,1-.716-.264A.938.938,0,0,1,97.5,46.968Zm3.929,7.189a5.617,5.617,0,0,1,.549-2.514,4.1,4.1,0,0,1,1.529-1.723,4.163,4.163,0,0,1,2.237-.606,4.01,4.01,0,0,1,3.142,1.345,5.174,5.174,0,0,1,1.2,3.577v.114a5.666,5.666,0,0,1-.532,2.492,4.038,4.038,0,0,1-1.521,1.718,4.211,4.211,0,0,1-2.272.615,4,4,0,0,1-3.133-1.345,5.147,5.147,0,0,1-1.2-3.56Zm1.635.193a4.068,4.068,0,0,0,.734,2.54,2.487,2.487,0,0,0,3.933-.013,4.449,4.449,0,0,0,.729-2.72,4.061,4.061,0,0,0-.743-2.536,2.361,2.361,0,0,0-1.973-.971,2.335,2.335,0,0,0-1.942.958A4.416,4.416,0,0,0,103.062,54.351ZM106.48,45.5h1.969l-2.355,2.584-1.31,0Zm7.181,3.99.053,1.2a3.465,3.465,0,0,1,2.848-1.371q3.015,0,3.041,3.4V59h-1.626V52.707a2.189,2.189,0,0,0-.47-1.521,1.884,1.884,0,0,0-1.437-.492,2.347,2.347,0,0,0-1.389.422,2.865,2.865,0,0,0-.932,1.107V59h-1.626V49.49Zm12.146,4.4a13.6,13.6,0,0,1-.514,3.757,11.11,11.11,0,0,1-1.573,3.318,6.893,6.893,0,0,1-2.219,2.162l-.343-.993a7.066,7.066,0,0,0,2.175-3.221,13.935,13.935,0,0,0,.839-4.847v-.281a14.469,14.469,0,0,0-.387-3.432,11.583,11.583,0,0,0-1.077-2.843,6.567,6.567,0,0,0-1.551-1.96l.343-.993a6.866,6.866,0,0,1,2.21,2.145,11.134,11.134,0,0,1,1.573,3.313A13.909,13.909,0,0,1,125.808,53.894Z" transform="translate(668 12810)" fill="#12263f"/>
    <path id="Trazado_706413" data-name="Trazado 706413" d="M13.988,14.186a5.193,5.193,0,0,1-.8,2.622,4.833,4.833,0,0,1-2.056,1.763,7,7,0,0,1-3.022.625A5.584,5.584,0,0,1,3.7,17.369a7.54,7.54,0,0,1-1.611-5.156v-.7a8.607,8.607,0,0,1,.728-3.657A5.513,5.513,0,0,1,4.906,5.431,5.844,5.844,0,0,1,8.07,4.576a6.129,6.129,0,0,1,4.16,1.362,5.383,5.383,0,0,1,1.787,3.755H10.6a2.547,2.547,0,0,0-.654-1.865A2.691,2.691,0,0,0,8.07,7.262,2.048,2.048,0,0,0,6.2,8.219a6.151,6.151,0,0,0-.625,3.057v1.006a6.806,6.806,0,0,0,.571,3.252,2.091,2.091,0,0,0,1.968.977,2.632,2.632,0,0,0,1.807-.557,2.363,2.363,0,0,0,.664-1.768Zm8.2-6.162a4.891,4.891,0,0,1-.45,2.148,3.326,3.326,0,0,1-1.279,1.438,3.561,3.561,0,0,1-1.888.5,3.611,3.611,0,0,1-1.88-.487,3.32,3.32,0,0,1-1.279-1.393,4.75,4.75,0,0,1-.481-2.079V7.688a4.912,4.912,0,0,1,.447-2.15A3.318,3.318,0,0,1,16.657,4.1a3.794,3.794,0,0,1,3.779-.006A3.377,3.377,0,0,1,21.721,5.52a4.771,4.771,0,0,1,.464,2.122Zm-2.034-.347A3.488,3.488,0,0,0,19.739,5.8a1.325,1.325,0,0,0-1.182-.641q-1.5,0-1.589,2.256l-.006.61a3.587,3.587,0,0,0,.4,1.874,1.323,1.323,0,0,0,1.2.655,1.307,1.307,0,0,0,1.168-.644,3.489,3.489,0,0,0,.416-1.851Z" transform="translate(806 12812)" fill="#12263f"/>
    <path id="Trazado_706414" data-name="Trazado 706414" d="M15.392,14.186a5.193,5.193,0,0,1-.8,2.622,4.833,4.833,0,0,1-2.056,1.763,7,7,0,0,1-3.022.625A5.584,5.584,0,0,1,5.1,17.369a7.54,7.54,0,0,1-1.611-5.156v-.7a8.607,8.607,0,0,1,.728-3.657A5.513,5.513,0,0,1,6.31,5.431a5.844,5.844,0,0,1,3.164-.854,6.129,6.129,0,0,1,4.16,1.362,5.383,5.383,0,0,1,1.787,3.755H12a2.547,2.547,0,0,0-.654-1.865,2.691,2.691,0,0,0-1.875-.566A2.048,2.048,0,0,0,7.6,8.219a6.151,6.151,0,0,0-.625,3.057v1.006a6.806,6.806,0,0,0,.571,3.252,2.091,2.091,0,0,0,1.968.977,2.632,2.632,0,0,0,1.807-.557,2.363,2.363,0,0,0,.664-1.768Zm4.836-5.022H16.805V7.682h3.423Z" transform="translate(958 12812)" fill="#12263f"/>
    <path id="Trazado_706410" data-name="Trazado 706410" d="M8.364,7.672l4.761,14.839L17.871,7.672h6.768V29H19.482V24.02l.5-10.2L14.824,29h-3.4L6.255,13.81l.5,10.21V29H1.611V7.672ZM41.133,19.947H33.047v5.1H42.6V29H27.905V7.672H42.627v3.97h-9.58v4.5h8.086ZM44.692,29V7.672h6.87a10.106,10.106,0,0,1,5.083,1.282,9.009,9.009,0,0,1,3.523,3.618,10.924,10.924,0,0,1,1.282,5.237v.981a10.987,10.987,0,0,1-1.238,5.251,9.048,9.048,0,0,1-3.486,3.633A9.884,9.884,0,0,1,51.709,29Zm5.142-17.358v13.4h1.787a4,4,0,0,0,3.4-1.575,7.717,7.717,0,0,0,1.187-4.68v-.923a7.653,7.653,0,0,0-1.187-4.658,4.069,4.069,0,0,0-3.457-1.567ZM69.565,29H64.438V7.672h5.127ZM91.2,18.775A12.577,12.577,0,0,1,90.044,24.3,8.553,8.553,0,0,1,86.755,28a9.157,9.157,0,0,1-4.856,1.3,9.286,9.286,0,0,1-4.834-1.252,8.538,8.538,0,0,1-3.289-3.582,12.215,12.215,0,0,1-1.238-5.347v-1.2a12.633,12.633,0,0,1,1.15-5.53,8.532,8.532,0,0,1,3.3-3.7A9.757,9.757,0,0,1,86.7,8.668a8.685,8.685,0,0,1,3.3,3.669A12.27,12.27,0,0,1,91.2,17.794Zm-5.229-.894a8.969,8.969,0,0,0-1.062-4.827,3.406,3.406,0,0,0-3.04-1.648q-3.867,0-4.087,5.8l-.015,1.567a9.224,9.224,0,0,0,1.04,4.819A3.4,3.4,0,0,0,81.9,25.279a3.36,3.36,0,0,0,3-1.655,8.972,8.972,0,0,0,1.069-4.761Z" transform="translate(771 12649)"/>
    <path id="Trazado_706409" data-name="Trazado 706409" d="M9.536,21.456H6.753V29H1.611V7.672H10a9.368,9.368,0,0,1,5.933,1.683,5.7,5.7,0,0,1,2.139,4.756,6.925,6.925,0,0,1-.9,3.688,6.394,6.394,0,0,1-2.82,2.371l4.453,8.612V29H13.3ZM6.753,17.5H10a2.919,2.919,0,0,0,2.2-.771,2.98,2.98,0,0,0,.74-2.151,3.015,3.015,0,0,0-.747-2.166,2.892,2.892,0,0,0-2.2-.786H6.753Zm27.656,2.446H26.323v5.1h9.551V29H21.182V7.672H35.9v3.97h-9.58v4.5h8.086Zm20.815,1.831a7.789,7.789,0,0,1-1.2,3.933,7.249,7.249,0,0,1-3.083,2.644,10.5,10.5,0,0,1-4.534.938,8.375,8.375,0,0,1-6.621-2.739q-2.417-2.739-2.417-7.734V17.765a12.91,12.91,0,0,1,1.091-5.486A8.269,8.269,0,0,1,41.6,8.646a8.767,8.767,0,0,1,4.746-1.282,9.193,9.193,0,0,1,6.24,2.043,8.074,8.074,0,0,1,2.681,5.632H50.142a3.82,3.82,0,0,0-.981-2.8,4.037,4.037,0,0,0-2.812-.85,3.071,3.071,0,0,0-2.812,1.436,9.226,9.226,0,0,0-.937,4.585v1.509a10.209,10.209,0,0,0,.857,4.878,3.136,3.136,0,0,0,2.952,1.465,3.948,3.948,0,0,0,2.71-.835,3.544,3.544,0,0,0,1-2.651Zm15.659-1.831H62.8v5.1h9.551V29H57.656V7.672H72.378v3.97H62.8v4.5h8.086Zm8.7,1.816V29H74.443V7.672h8.511a9.913,9.913,0,0,1,4.329.9A6.789,6.789,0,0,1,90.2,11.136a7,7,0,0,1,1.033,3.772A6.171,6.171,0,0,1,89,19.9a9.269,9.269,0,0,1-6.13,1.868Zm0-3.97h3.369a3.177,3.177,0,0,0,2.278-.747,2.776,2.776,0,0,0,.784-2.109,3.431,3.431,0,0,0-.806-2.388,2.853,2.853,0,0,0-2.2-.908H79.585Zm31.128-6.152h-6.4V29H99.17V11.642H92.886V7.672h17.827Zm19.819,7.134a12.577,12.577,0,0,1-1.157,5.522,8.553,8.553,0,0,1-3.289,3.7,9.157,9.157,0,0,1-4.856,1.3,9.286,9.286,0,0,1-4.834-1.252,8.538,8.538,0,0,1-3.289-3.582,12.215,12.215,0,0,1-1.238-5.347v-1.2a12.633,12.633,0,0,1,1.15-5.53,8.532,8.532,0,0,1,3.3-3.7,9.757,9.757,0,0,1,9.719-.015,8.685,8.685,0,0,1,3.3,3.669,12.27,12.27,0,0,1,1.194,5.457Zm-5.229-.894a8.969,8.969,0,0,0-1.062-4.827,3.406,3.406,0,0,0-3.04-1.648q-3.867,0-4.087,5.8l-.015,1.567a9.224,9.224,0,0,0,1.04,4.819,3.4,3.4,0,0,0,3.091,1.685,3.36,3.36,0,0,0,3-1.655,8.972,8.972,0,0,0,1.069-4.761Zm15.806,3.574h-2.783V29h-5.142V7.672h8.394a9.368,9.368,0,0,1,5.933,1.683,5.7,5.7,0,0,1,2.139,4.756,6.925,6.925,0,0,1-.9,3.688,6.394,6.394,0,0,1-2.82,2.371l4.453,8.612V29h-5.508ZM138.325,17.5h3.252a2.919,2.919,0,0,0,2.2-.771,2.98,2.98,0,0,0,.74-2.151,3.015,3.015,0,0,0-.747-2.166,2.892,2.892,0,0,0-2.2-.786h-3.252Z" transform="translate(1072 12649)"/>
  </g>
</svg>
