<svg id="Grupo_992512" data-name="Grupo 992512" xmlns="http://www.w3.org/2000/svg" xmlns:xlink="http://www.w3.org/1999/xlink" width="465.348" height="389.487" viewBox="0 0 465.348 389.487">
  <defs>
    <clipPath id="clip-path">
      <rect id="Rectángulo_349497" data-name="Rectángulo 349497" width="465.348" height="389.487" fill="none"/>
    </clipPath>
    <clipPath id="clip-path-2">
      <rect id="Rectángulo_349496" data-name="Rectángulo 349496" width="465.347" height="389.487" fill="none"/>
    </clipPath>
    <clipPath id="clip-path-3">
      <rect id="Rectángulo_349482" data-name="Rectángulo 349482" width="95.378" height="58.712" fill="none"/>
    </clipPath>
    <clipPath id="clip-path-4">
      <rect id="Rectángulo_349483" data-name="Rectángulo 349483" width="95.377" height="58.713" fill="none"/>
    </clipPath>
    <clipPath id="clip-path-5">
      <rect id="Rectángulo_349484" data-name="Rectángulo 349484" width="78.89" height="56.088" fill="none"/>
    </clipPath>
    <clipPath id="clip-path-6">
      <rect id="Rectángulo_349485" data-name="Rectángulo 349485" width="121.136" height="64.386" fill="none"/>
    </clipPath>
    <clipPath id="clip-path-7">
      <rect id="Rectángulo_349486" data-name="Rectángulo 349486" width="63.14" height="33.375" fill="none"/>
    </clipPath>
    <clipPath id="clip-path-9">
      <rect id="Rectángulo_349493" data-name="Rectángulo 349493" width="22.488" height="16.709" fill="none"/>
    </clipPath>
    <clipPath id="clip-path-10">
      <rect id="Rectángulo_349494" data-name="Rectángulo 349494" width="92.148" height="54.11" fill="none"/>
    </clipPath>
    <clipPath id="clip-path-11">
      <rect id="Rectángulo_349495" data-name="Rectángulo 349495" width="92.147" height="54.11" fill="none"/>
    </clipPath>
  </defs>
  <g id="Grupo_992511" data-name="Grupo 992511" clip-path="url(#clip-path)">
    <g id="Grupo_992510" data-name="Grupo 992510">
      <g id="Grupo_992509" data-name="Grupo 992509" clip-path="url(#clip-path-2)">
        <path id="Trazado_706089" data-name="Trazado 706089" d="M455.782,469.427c19.317-.061,36.8-10.063,44.49-25.527,15.373-30.911,34.74-85.923,15.588-142-18.916-55.36-89.84-85.7-129.87-55.36-17.049,12.92-64.757-4.28-100.954-53.054C225.016,112.6,37.2,202.473,95.132,364.218c12.142,33.9,9.188,50.259,3.53,62.084-10.069,21.041,7.653,44.236,33.782,44.153L228.927,494.8a271.87,271.87,0,0,0,136.04-1Z" transform="translate(-58.499 -113.471)" fill="#fff0bf"/>
        <path id="Trazado_706090" data-name="Trazado 706090" d="M674.767,390.571c0,14-19.269,25.349-43.04,25.349s-43.04-11.349-43.04-25.349,19.269-25.349,43.04-25.349,43.04,11.349,43.04,25.349" transform="translate(-409.101 -253.806)" fill="#c8b9ac"/>
        <rect id="Rectángulo_349468" data-name="Rectángulo 349468" width="86.074" height="4.093" transform="translate(179.588 132.672)" fill="#c8b9ac"/>
        <path id="Trazado_706091" data-name="Trazado 706091" d="M674.767,376.23c0,14-19.269,25.349-43.04,25.349s-43.04-11.349-43.04-25.349,19.269-25.349,43.04-25.349,43.04,11.349,43.04,25.349" transform="translate(-409.101 -243.84)" fill="#ece3da"/>
        <path id="Trazado_706092" data-name="Trazado 706092" d="M678.539,379.178c0,12.944-17.948,23.438-40.089,23.438s-40.089-10.494-40.089-23.438,17.948-23.438,40.089-23.438,40.089,10.494,40.089,23.438" transform="translate(-415.823 -247.217)" fill="#c8b9ac"/>
        <path id="Trazado_706093" data-name="Trazado 706093" d="M638.45,358.5c21.348,0,38.793,9.757,40.014,22.06.045-.456.074-.915.074-1.378,0-12.944-17.948-23.438-40.088-23.438s-40.089,10.494-40.089,23.438c0,.463.029.922.074,1.378,1.222-12.3,18.666-22.06,40.014-22.06" transform="translate(-415.823 -247.216)" fill="#c8b9ac"/>
        <path id="Trazado_706094" data-name="Trazado 706094" d="M638.619,408.9c21.348,0,38.793-9.757,40.014-22.06-1.221-12.3-18.666-22.06-40.014-22.06s-38.793,9.758-40.014,22.06c1.221,12.3,18.666,22.06,40.014,22.06" transform="translate(-415.992 -253.496)" fill="#dacec4"/>
        <path id="Trazado_706095" data-name="Trazado 706095" d="M676.331,375.509c0,13.6-18.722,24.628-41.816,24.628S592.7,389.111,592.7,375.509s18.721-24.628,41.817-24.628,41.816,11.026,41.816,24.628" transform="translate(-411.887 -243.84)" fill="#0d5456"/>
        <rect id="Rectángulo_349469" data-name="Rectángulo 349469" width="83.633" height="100.215" transform="translate(180.81 31.455)" fill="#0d5456"/>
        <path id="Trazado_706096" data-name="Trazado 706096" d="M675.156,286.685c0,13.9-19.134,25.17-42.736,25.17s-42.736-11.269-42.736-25.17,19.133-25.17,42.736-25.17,42.736,11.269,42.736,25.17" transform="translate(-409.793 -181.736)" fill="#c8b9ac"/>
        <rect id="Rectángulo_349470" data-name="Rectángulo 349470" width="85.467" height="4.064" transform="translate(179.891 100.884)" fill="#c8b9ac"/>
        <path id="Trazado_706097" data-name="Trazado 706097" d="M675.156,272.445c0,13.9-19.134,25.17-42.736,25.17s-42.736-11.269-42.736-25.17,19.133-25.17,42.736-25.17,42.736,11.269,42.736,25.17" transform="translate(-409.793 -171.84)" fill="#ece3da"/>
        <path id="Trazado_706098" data-name="Trazado 706098" d="M678.9,275.372c0,12.853-17.821,23.273-39.806,23.273s-39.806-10.42-39.806-23.273S617.11,252.1,639.094,252.1s39.806,10.42,39.806,23.273" transform="translate(-416.467 -175.193)" fill="#c8b9ac"/>
        <path id="Trazado_706099" data-name="Trazado 706099" d="M634.6,244.532c-23.074,0-41.78,10.937-41.78,24.427,0,.483.031.961.078,1.437,1.272,12.821,19.453,22.991,41.7,22.991s40.429-10.169,41.7-22.991c.047-.476.078-.954.078-1.437,0-13.491-18.705-24.427-41.78-24.427" transform="translate(-411.97 -169.934)" fill="#0d5456"/>
        <rect id="Rectángulo_349471" data-name="Rectángulo 349471" width="83.56" height="19.897" transform="translate(180.847 79.128)" fill="#0d5456"/>
        <path id="Trazado_706100" data-name="Trazado 706100" d="M675.156,162.058c0,13.9-19.134,25.17-42.736,25.17s-42.736-11.269-42.736-25.17,19.133-25.17,42.736-25.17,42.736,11.269,42.736,25.17" transform="translate(-409.793 -95.128)" fill="#c8b9ac"/>
        <rect id="Rectángulo_349472" data-name="Rectángulo 349472" width="85.467" height="4.064" transform="translate(179.891 62.865)" fill="#c8b9ac"/>
        <path id="Trazado_706101" data-name="Trazado 706101" d="M675.156,147.818c0,13.9-19.134,25.17-42.736,25.17s-42.736-11.269-42.736-25.17,19.133-25.17,42.736-25.17,42.736,11.269,42.736,25.17" transform="translate(-409.793 -85.233)" fill="#ece3da"/>
        <path id="Trazado_706102" data-name="Trazado 706102" d="M678.9,150.745c0,12.853-17.821,23.273-39.806,23.273s-39.806-10.42-39.806-23.273,17.822-23.273,39.806-23.273,39.806,10.42,39.806,23.273" transform="translate(-416.467 -88.585)" fill="#c8b9ac"/>
        <path id="Trazado_706103" data-name="Trazado 706103" d="M634.6,119.906c-23.074,0-41.78,10.937-41.78,24.427,0,.482.031.961.078,1.436,1.272,12.822,19.453,22.991,41.7,22.991s40.429-10.169,41.7-22.991c.047-.476.078-.954.078-1.436,0-13.491-18.705-24.427-41.78-24.427" transform="translate(-411.97 -83.327)" fill="#0d5456"/>
        <rect id="Rectángulo_349473" data-name="Rectángulo 349473" width="83.56" height="19.897" transform="translate(180.847 41.109)" fill="#0d5456"/>
        <path id="Trazado_706104" data-name="Trazado 706104" d="M674.767,39.691c0,14-19.269,25.349-43.04,25.349s-43.04-11.349-43.04-25.349,19.269-25.349,43.04-25.349,43.04,11.349,43.04,25.349" transform="translate(-409.101 -9.967)" fill="#c8b9ac"/>
        <rect id="Rectángulo_349474" data-name="Rectángulo 349474" width="86.074" height="4.093" transform="translate(179.588 25.631)" fill="#c8b9ac"/>
        <path id="Trazado_706105" data-name="Trazado 706105" d="M674.767,25.35c0,14-19.269,25.349-43.04,25.349s-43.04-11.349-43.04-25.349S607.957,0,631.728,0s43.04,11.349,43.04,25.349" transform="translate(-409.101 -0.001)" fill="#ece3da"/>
        <path id="Trazado_706106" data-name="Trazado 706106" d="M678.539,28.3c0,12.944-17.948,23.438-40.089,23.438S598.361,41.242,598.361,28.3,616.309,4.859,638.45,4.859,678.539,15.353,678.539,28.3" transform="translate(-415.823 -3.377)" fill="#c8b9ac"/>
        <path id="Trazado_706107" data-name="Trazado 706107" d="M638.45,7.617c21.348,0,38.793,9.757,40.014,22.06.045-.456.074-.915.074-1.378,0-12.944-17.948-23.438-40.088-23.438S598.361,15.354,598.361,28.3c0,.463.029.922.074,1.378,1.222-12.3,18.666-22.06,40.014-22.06" transform="translate(-415.823 -3.377)" fill="#c8b9ac"/>
        <path id="Trazado_706108" data-name="Trazado 706108" d="M638.619,58.016c21.348,0,38.793-9.758,40.014-22.06-1.221-12.3-18.666-22.06-40.014-22.06s-38.793,9.757-40.014,22.06c1.221,12.3,18.666,22.06,40.014,22.06" transform="translate(-415.992 -9.657)" fill="#dacec4"/>
        <path id="Trazado_706109" data-name="Trazado 706109" d="M796.337,105.874c0,1.395-1.92,2.526-4.288,2.526s-4.288-1.131-4.288-2.526,1.92-2.526,4.288-2.526,4.288,1.131,4.288,2.526" transform="translate(-547.444 -71.82)" fill="#c8b9ac"/>
        <rect id="Rectángulo_349475" data-name="Rectángulo 349475" width="8.576" height="4.501" transform="translate(240.317 29.552)" fill="#c8b9ac"/>
        <path id="Trazado_706110" data-name="Trazado 706110" d="M796.337,91.12c0,1.4-1.92,2.526-4.288,2.526s-4.288-1.131-4.288-2.526,1.92-2.525,4.288-2.525,4.288,1.131,4.288,2.525" transform="translate(-547.444 -61.568)" fill="#ece3da"/>
        <path id="Trazado_706111" data-name="Trazado 706111" d="M796.716,89.559c0,1.3-1.787,2.351-3.991,2.351s-3.991-1.052-3.991-2.351,1.787-2.351,3.991-2.351,3.991,1.052,3.991,2.351" transform="translate(-548.12 -60.604)" fill="#f7f2ee"/>
        <path id="Trazado_706112" data-name="Trazado 706112" d="M981.327,452.869c0,14-19.269,25.349-43.039,25.349s-43.04-11.349-43.04-25.349,19.269-25.349,43.04-25.349,43.039,11.349,43.039,25.349" transform="translate(-622.14 -297.099)" fill="#c8b9ac"/>
        <rect id="Rectángulo_349476" data-name="Rectángulo 349476" width="86.074" height="4.093" transform="translate(273.108 151.677)" fill="#c8b9ac"/>
        <path id="Trazado_706113" data-name="Trazado 706113" d="M981.327,438.528c0,14-19.269,25.349-43.039,25.349s-43.04-11.349-43.04-25.349,19.269-25.349,43.04-25.349,43.039,11.349,43.039,25.349" transform="translate(-622.14 -287.133)" fill="#ece3da"/>
        <path id="Trazado_706114" data-name="Trazado 706114" d="M985.1,441.475c0,12.944-17.948,23.439-40.088,23.439s-40.089-10.494-40.089-23.439,17.948-23.438,40.089-23.438S985.1,428.531,985.1,441.475" transform="translate(-628.862 -290.509)" fill="#c8b9ac"/>
        <path id="Trazado_706115" data-name="Trazado 706115" d="M945.009,420.794c21.348,0,38.793,9.757,40.014,22.06.045-.457.074-.916.074-1.379,0-12.944-17.948-23.438-40.089-23.438s-40.088,10.494-40.088,23.438c0,.463.029.922.074,1.379,1.221-12.3,18.666-22.06,40.014-22.06" transform="translate(-628.862 -290.509)" fill="#c8b9ac"/>
        <path id="Trazado_706116" data-name="Trazado 706116" d="M945.179,471.194c21.348,0,38.793-9.757,40.014-22.06-1.221-12.3-18.666-22.06-40.014-22.06s-38.793,9.757-40.014,22.06c1.221,12.3,18.666,22.06,40.014,22.06" transform="translate(-629.032 -296.789)" fill="#dacec4"/>
        <path id="Trazado_706117" data-name="Trazado 706117" d="M982.89,437.807c0,13.6-18.722,24.628-41.816,24.628s-41.817-11.027-41.817-24.628,18.722-24.628,41.817-24.628,41.816,11.026,41.816,24.628" transform="translate(-624.926 -287.133)" fill="#0d5456"/>
        <rect id="Rectángulo_349477" data-name="Rectángulo 349477" width="83.633" height="100.215" transform="translate(274.331 50.46)" fill="#0d5456"/>
        <path id="Trazado_706118" data-name="Trazado 706118" d="M981.715,348.983c0,13.9-19.133,25.17-42.736,25.17s-42.736-11.269-42.736-25.17,19.133-25.17,42.736-25.17,42.736,11.269,42.736,25.17" transform="translate(-622.832 -225.029)" fill="#c8b9ac"/>
        <rect id="Rectángulo_349478" data-name="Rectángulo 349478" width="85.467" height="4.064" transform="translate(273.412 119.889)" fill="#c8b9ac"/>
        <path id="Trazado_706119" data-name="Trazado 706119" d="M981.715,334.743c0,13.9-19.133,25.17-42.736,25.17s-42.736-11.269-42.736-25.17,19.133-25.17,42.736-25.17,42.736,11.269,42.736,25.17" transform="translate(-622.832 -215.133)" fill="#ece3da"/>
        <path id="Trazado_706120" data-name="Trazado 706120" d="M985.46,337.67c0,12.853-17.821,23.273-39.806,23.273s-39.806-10.42-39.806-23.273S923.67,314.4,945.654,314.4s39.806,10.42,39.806,23.273" transform="translate(-629.506 -218.486)" fill="#c8b9ac"/>
        <path id="Trazado_706121" data-name="Trazado 706121" d="M941.157,306.83c-23.074,0-41.78,10.937-41.78,24.427,0,.483.03.961.078,1.437,1.273,12.821,19.453,22.991,41.7,22.991s40.429-10.169,41.7-22.991c.047-.476.078-.954.078-1.437,0-13.491-18.706-24.427-41.78-24.427" transform="translate(-625.01 -213.227)" fill="#0d5456"/>
        <rect id="Rectángulo_349479" data-name="Rectángulo 349479" width="83.56" height="19.897" transform="translate(274.367 98.133)" fill="#0d5456"/>
        <path id="Trazado_706122" data-name="Trazado 706122" d="M981.715,224.356c0,13.9-19.133,25.17-42.736,25.17s-42.736-11.269-42.736-25.17,19.133-25.17,42.736-25.17,42.736,11.269,42.736,25.17" transform="translate(-622.832 -138.422)" fill="#c8b9ac"/>
        <rect id="Rectángulo_349480" data-name="Rectángulo 349480" width="85.467" height="4.064" transform="translate(273.412 81.87)" fill="#c8b9ac"/>
        <path id="Trazado_706123" data-name="Trazado 706123" d="M981.715,210.116c0,13.9-19.133,25.17-42.736,25.17s-42.736-11.269-42.736-25.17,19.133-25.17,42.736-25.17,42.736,11.269,42.736,25.17" transform="translate(-622.832 -128.526)" fill="#ece3da"/>
        <path id="Trazado_706124" data-name="Trazado 706124" d="M985.46,213.043c0,12.853-17.821,23.273-39.806,23.273s-39.806-10.42-39.806-23.273,17.822-23.273,39.806-23.273,39.806,10.42,39.806,23.273" transform="translate(-629.506 -131.878)" fill="#c8b9ac"/>
        <path id="Trazado_706125" data-name="Trazado 706125" d="M941.157,182.2c-23.074,0-41.78,10.937-41.78,24.427,0,.483.03.961.078,1.437,1.273,12.822,19.453,22.991,41.7,22.991s40.429-10.169,41.7-22.991c.047-.476.078-.954.078-1.437,0-13.49-18.706-24.427-41.78-24.427" transform="translate(-625.01 -126.619)" fill="#0d5456"/>
        <rect id="Rectángulo_349481" data-name="Rectángulo 349481" width="83.56" height="19.897" transform="translate(274.367 60.113)" fill="#0d5456"/>
        <path id="Trazado_706126" data-name="Trazado 706126" d="M982.89,110.084c0,13.6-18.722,24.628-41.816,24.628s-41.817-11.027-41.817-24.628,18.722-24.628,41.817-24.628,41.816,11.026,41.816,24.628" transform="translate(-624.926 -59.386)" fill="#0d5456"/>
        <path id="Trazado_706127" data-name="Trazado 706127" d="M945.6,100.557c19.053,0,34.973,7.672,38.9,17.921a13.677,13.677,0,0,0,.935-4.915c0-12.612-17.833-22.836-39.831-22.836s-39.831,10.224-39.831,22.836a13.678,13.678,0,0,0,.935,4.915c3.923-10.249,19.842-17.921,38.9-17.921" transform="translate(-629.449 -63.049)" fill="#0d5456"/>
        <path id="Trazado_706128" data-name="Trazado 706128" d="M947.728,158.792c19.053,0,34.973-7.672,38.9-17.92-3.923-10.249-19.842-17.921-38.9-17.921s-34.973,7.672-38.9,17.921c3.923,10.248,19.842,17.92,38.9,17.92" transform="translate(-631.58 -85.443)" fill="#13b1e2"/>
        <g id="Grupo_992484" data-name="Grupo 992484" transform="translate(269.234 135.113)" opacity="0.3" style="mix-blend-mode: multiply;isolation: isolate">
          <g id="Grupo_992483" data-name="Grupo 992483">
            <g id="Grupo_992482" data-name="Grupo 992482" clip-path="url(#clip-path-3)">
              <path id="Trazado_706129" data-name="Trazado 706129" d="M977.432,473.427c-10.066,35.191-102.422,40.716-94.388-2.345,10.068-35.19,102.423-40.715,94.388,2.345" transform="translate(-882.55 -442.899)" fill="#a5a5a4"/>
            </g>
          </g>
        </g>
        <g id="Grupo_992487" data-name="Grupo 992487" transform="translate(177.885 115.744)" opacity="0.3" style="mix-blend-mode: multiply;isolation: isolate">
          <g id="Grupo_992486" data-name="Grupo 992486">
            <g id="Grupo_992485" data-name="Grupo 992485" clip-path="url(#clip-path-4)">
              <path id="Trazado_706130" data-name="Trazado 706130" d="M677.988,409.938c-10.066,35.191-102.422,40.716-94.388-2.345,10.068-35.19,102.423-40.715,94.388,2.345" transform="translate(-583.106 -379.409)" fill="#a5a5a4"/>
            </g>
          </g>
        </g>
        <path id="Trazado_706131" data-name="Trazado 706131" d="M0,634.79l98.463,56.848,78.719-45.448L78.719,589.341Z" transform="translate(0 -409.555)" fill="#009dd0"/>
        <path id="Trazado_706132" data-name="Trazado 706132" d="M285.361,426.008l98.463,56.848V418.122l-98.463-56.848Z" transform="translate(-198.308 -251.063)" fill="#b9a699"/>
        <path id="Trazado_706133" data-name="Trazado 706133" d="M258.041,441.879,356.5,498.727V433.994l-98.463-56.848Z" transform="translate(-179.322 -262.093)" fill="#c8b9ac"/>
        <path id="Trazado_706134" data-name="Trazado 706134" d="M258.041,366.116l8.334-4.842,98.463,56.848-8.334,4.842Z" transform="translate(-179.322 -251.062)" fill="#b9a699"/>
        <path id="Trazado_706135" data-name="Trazado 706135" d="M580.8,617.2l8.334-4.842V547.622l-8.334,4.842Z" transform="translate(-403.621 -380.562)" fill="#a99588"/>
        <path id="Trazado_706136" data-name="Trazado 706136" d="M0,621l98.463,56.848L177.182,632.4,78.719,575.554Z" transform="translate(0 -399.973)" fill="#13b1e2"/>
        <g id="Grupo_992490" data-name="Grupo 992490" transform="translate(98.293 188.484)" opacity="0.5">
          <g id="Grupo_992489" data-name="Grupo 992489">
            <g id="Grupo_992488" data-name="Grupo 992488" clip-path="url(#clip-path-5)">
              <path id="Trazado_706137" data-name="Trazado 706137" d="M378.418,663.831c-1.584-3.63-4.446-6.071-7.619-8.287a40.257,40.257,0,0,1-4.683-3.7c-1.447-1.365-2.88-2.746-4.452-3.969A46.534,46.534,0,0,0,350.979,642c-3.807-1.6-7.724-2.906-11.537-4.487a58.35,58.35,0,0,1-5.7-2.712c-1.6-.875-3.069-1.931-4.635-2.854-2.537-1.495-6.293-3.072-6.825-6.348-.444-2.732,1.051-5.423,2.7-7.754l76.115,43.945L380.06,673.939c-.038-3.442-.25-6.915-1.642-10.107" transform="translate(-322.204 -617.85)" fill="#44b9e2"/>
            </g>
          </g>
        </g>
        <g id="Grupo_992493" data-name="Grupo 992493" transform="translate(0 213.492)" opacity="0.5">
          <g id="Grupo_992492" data-name="Grupo 992492">
            <g id="Grupo_992491" data-name="Grupo 992491" clip-path="url(#clip-path-6)">
              <path id="Trazado_706138" data-name="Trazado 706138" d="M19.373,704.483c4.564,4.073,8.451,8.854,13.136,12.8a32.542,32.542,0,0,0,7.682,4.972,47.281,47.281,0,0,0,9.005,2.761c5.838,1.3,12.183,2.243,16.486,6.785,3.57,3.768,5.494,8.793,9.126,12.511,3.383,3.465,8.12,5.55,12.671,6.974a52.74,52.74,0,0,0,15.345,2.405c4.981.03,9.746-1.264,14.634-2.04,1.189-.189,2.424-.374,3.678-.528l-22.673,13.09L0,707.364l13.056-7.538a43.3,43.3,0,0,1,6.318,4.657" transform="translate(0 -699.826)" fill="#44b9e2"/>
            </g>
          </g>
        </g>
        <path id="Trazado_706139" data-name="Trazado 706139" d="M420.044,561.143l.02.044c1.515-.88,3.487-.812,5.652.438,4.765,2.751,8.628,10.132,8.628,16.486,0,3.75-1.352,6.29-3.434,7.188l.028.063L404.822,600.44l-11.689-23.833Z" transform="translate(-273.202 -389.579)" fill="#ddcfc5"/>
        <path id="Trazado_706140" data-name="Trazado 706140" d="M427.414,562.563a9.12,9.12,0,0,1,.841.429c2.83,1.634,5.334,4.9,6.907,8.619l-33.208,19.173-5.168-10.537Z" transform="translate(-275.741 -390.945)" fill="#ebe2dd"/>
        <path id="Trazado_706141" data-name="Trazado 706141" d="M384.713,618.011c0,6.354,3.863,13.735,8.628,16.486s8.628-.169,8.628-6.523-3.863-13.735-8.628-16.486-8.628.169-8.628,6.523" transform="translate(-267.351 -424.226)" fill="#b9a699"/>
        <path id="Trazado_706142" data-name="Trazado 706142" d="M387.182,621.806c0,5.7,3.468,12.331,7.747,14.8s7.746-.152,7.746-5.856-3.468-12.331-7.746-14.8-7.747.152-7.747,5.856" transform="translate(-269.067 -427.399)" fill="#a99588"/>
        <path id="Trazado_706143" data-name="Trazado 706143" d="M388.126,632.6a28.512,28.512,0,0,1,5.626-2.941c1.569-.637,3.262-1.249,4.9-1.973a19.774,19.774,0,0,1,4.417,11.865c0,5.7-3.468,8.326-7.746,5.856-3.722-2.149-6.828-7.443-7.574-12.539.126-.089.25-.181.376-.269" transform="translate(-269.461 -436.205)" fill="#44b9e2"/>
        <g id="Grupo_992496" data-name="Grupo 992496" transform="translate(81.87 225.265)" opacity="0.5">
          <g id="Grupo_992495" data-name="Grupo 992495">
            <g id="Grupo_992494" data-name="Grupo 992494" clip-path="url(#clip-path-7)">
              <path id="Trazado_706144" data-name="Trazado 706144" d="M303.57,738.419c5.836,0,11.187,1.65,20.368,6.442s10.628,13.2.929,16.865-16.153,3.61-24.236,7.273-19.4,4.4-27.776-1.921-4.015-15.915,4.85-21.348c7.434-4.556,13.148-7.309,25.866-7.309" transform="translate(-268.371 -738.419)" fill="#44b9e2"/>
            </g>
          </g>
        </g>
        <path id="Trazado_706145" data-name="Trazado 706145" d="M326.776,627.691a30.036,30.036,0,0,0-13.64,7.281c-8.117,7.8-10.386,14.617-10.973,20.967s-5.126,12.157-8.23,14.406c-6,4.351-8.815,5.747-9.553,11.183-.735,5.415,5.438,10.51,13.962,7.81,7.85-2.487,17.889-6.947,29.687-7.391,10.4-.392,10.833-6.695,6.858-9.641-4.556-3.377-8.9-3.849-11.441-5.4-2.615-1.6-3.118-3.942-2.913-7,.4-5.918,2.352-10.9,8.51-14.463,4.128-6.706-2.268-17.754-2.268-17.754" transform="translate(-197.585 -436.205)" fill="#44b9e2"/>
        <path id="Trazado_706146" data-name="Trazado 706146" d="M372.161,699.208s-4.216,8.209-2.067,12.778c2.69,5.718,9.07,10.9,10.05,14.027s-1.144,3.6-6.7,3.7a75.594,75.594,0,0,0-12.093,1.488s6.222-3.044,9.512-3.346c3.953-.363,9.853.755,5.6-5.318s-8.059-8.423-8.416-12.915c-.49-6.175,4.11-10.417,4.11-10.417" transform="translate(-251.116 -485.905)" fill="#72c7e5"/>
        <path id="Trazado_706147" data-name="Trazado 706147" d="M328.439,652.464s-6.815,7.243-8.858,15.138-2.778,15.9-4.821,19.743-6.2,6.092-9.805,8.028c-4.984,2.676-3.6,6.6-3.6,6.6s-3.432-2.778,2.078-7.19c4.511-3.613,8.708-3.825,11.078-10.737s2.043-13.715,4.9-20.486a29.147,29.147,0,0,1,9.022-11.094" transform="translate(-208.692 -453.421)" fill="#72c7e5"/>
        <path id="Trazado_706148" data-name="Trazado 706148" d="M347.413,688.829a45.9,45.9,0,0,0-1.721,8.933c-.5,5.805-.175,12.72-.754,15.095-1.062,4.361-3.6,6.37-11.442,9.157,5.431-4.01,7.739-4.114,9.968-9.859.42-1.083.631-7.693.736-12.2.164-7.078,3.214-11.123,3.214-11.123" transform="translate(-231.758 -478.692)" fill="#72c7e5"/>
        <path id="Trazado_706149" data-name="Trazado 706149" d="M270.937,476.379l.02.044c1.515-.88,3.487-.812,5.652.438,4.765,2.751,8.628,10.132,8.628,16.486,0,3.75-1.352,6.29-3.434,7.188l.028.063-26.117,15.079-11.689-23.833Z" transform="translate(-169.582 -330.673)" fill="#ddcfc5"/>
        <path id="Trazado_706150" data-name="Trazado 706150" d="M278.305,477.8a9.26,9.26,0,0,1,.841.429c2.83,1.634,5.333,4.9,6.907,8.618L252.845,506.02l-5.168-10.537Z" transform="translate(-172.12 -332.04)" fill="#ebe2dd"/>
        <path id="Trazado_706151" data-name="Trazado 706151" d="M235.605,533.247c0,6.354,3.863,13.735,8.628,16.486s8.628-.169,8.628-6.523-3.863-13.735-8.628-16.486-8.628.169-8.628,6.523" transform="translate(-163.73 -365.32)" fill="#b9a699"/>
        <path id="Trazado_706152" data-name="Trazado 706152" d="M238.074,537.042c0,5.7,3.468,12.331,7.747,14.8s7.746-.152,7.746-5.856-3.468-12.331-7.746-14.8-7.747.152-7.747,5.856" transform="translate(-165.446 -368.494)" fill="#a99588"/>
        <path id="Trazado_706153" data-name="Trazado 706153" d="M239.017,547.84a28.5,28.5,0,0,1,5.626-2.94c1.569-.637,3.262-1.249,4.9-1.973a19.774,19.774,0,0,1,4.417,11.865c0,5.7-3.468,8.326-7.747,5.856-3.721-2.149-6.828-7.443-7.573-12.539.126-.089.25-.181.376-.269" transform="translate(-165.84 -377.3)" fill="#44b9e2"/>
        <g id="Grupo_992499" data-name="Grupo 992499" transform="translate(36.383 199.407)" opacity="0.5">
          <g id="Grupo_992498" data-name="Grupo 992498">
            <g id="Grupo_992497" data-name="Grupo 992497" clip-path="url(#clip-path-7)">
              <path id="Trazado_706154" data-name="Trazado 706154" d="M154.462,653.655c5.836,0,11.186,1.65,20.367,6.442s10.629,13.2.929,16.865-16.153,3.61-24.235,7.273-19.4,4.4-27.776-1.921-4.015-15.915,4.85-21.348c7.434-4.555,13.148-7.309,25.866-7.309" transform="translate(-119.262 -653.655)" fill="#44b9e2"/>
            </g>
          </g>
        </g>
        <path id="Trazado_706155" data-name="Trazado 706155" d="M177.668,542.927a30.037,30.037,0,0,0-13.64,7.281c-8.117,7.8-10.386,14.617-10.973,20.967s-5.126,12.157-8.23,14.406c-6,4.351-8.815,5.746-9.553,11.183-.735,5.415,5.438,10.51,13.962,7.81,7.851-2.487,17.889-6.947,29.687-7.391,10.4-.392,10.833-6.695,6.858-9.641-4.556-3.377-8.9-3.849-11.441-5.4-2.614-1.6-3.118-3.942-2.913-7,.4-5.918,2.352-10.9,8.511-14.463,4.128-6.706-2.268-17.754-2.268-17.754" transform="translate(-93.964 -377.3)" fill="#44b9e2"/>
        <path id="Trazado_706156" data-name="Trazado 706156" d="M230.72,613.538s-4.216,8.209-2.067,12.778c2.69,5.718,9.07,10.9,10.05,14.027s-1.159,3.285-6.7,3.7a25.7,25.7,0,0,0-8.055,2.018s1.716-2.774,7.239-3.6c3.926-.588,8.613.826,4.639-4.364-4.506-5.884-8.859-9.654-9.215-14.146-.49-6.175,4.11-10.417,4.11-10.417" transform="translate(-155.63 -426.37)" fill="#72c7e5"/>
        <path id="Trazado_706157" data-name="Trazado 706157" d="M177.8,566.794s-6.815,7.242-8.858,15.138-2.778,15.9-4.821,19.743-6.2,6.093-9.805,8.028c-4.984,2.676-3.6,6.6-3.6,6.6s-3.432-2.778,2.078-7.19c4.511-3.613,8.708-3.825,11.077-10.737s2.043-13.715,4.9-20.486a29.146,29.146,0,0,1,9.022-11.094" transform="translate(-104.008 -393.886)" fill="#72c7e5"/>
        <path id="Trazado_706158" data-name="Trazado 706158" d="M196.774,603.16a45.9,45.9,0,0,0-1.721,8.932c-.5,5.805-.175,12.72-.754,15.095-1.062,4.362-3.6,6.37-11.442,9.157,5.431-4.01,7.739-4.114,9.968-9.859.42-1.083.631-7.693.736-12.2.163-7.079,3.214-11.123,3.214-11.123" transform="translate(-127.074 -419.158)" fill="#72c7e5"/>
        <path id="Trazado_706159" data-name="Trazado 706159" d="M98.463,781.382v4.206L0,728.741v-4.206Z" transform="translate(0 -503.505)" fill="#009dd0"/>
        <path id="Trazado_706160" data-name="Trazado 706160" d="M401.482,761.9v4.206l-78.719,45.448V807.35Z" transform="translate(-224.299 -529.473)" fill="#008bc2"/>
        <path id="Trazado_706161" data-name="Trazado 706161" d="M651.89,297.627a30.1,30.1,0,0,0,3.693-1.881,19.317,19.317,0,0,0,3.407-2.378c.533-.5,1.033-1.04,1.519-1.584.024-.027.049-.057.073-.085-1.754-6.7-8.481-17.907-8.481-17.907s1.547-.6,2.02-6.7,7.6-11.615,5.269-11.846a8.238,8.238,0,0,0-3.8.6c-2.389-.637-6.664,4.666-7.848,7.6-1.612,3.992-2.943,12.189-2.943,12.189a98.549,98.549,0,0,0,2.007,13.405,23.846,23.846,0,0,0,3.905,8.983,10.735,10.735,0,0,0,1.178-.4" transform="translate(-448.095 -177.354)" fill="#f8baa7"/>
        <path id="Trazado_706162" data-name="Trazado 706162" d="M684.2,357.169s-9.539-.009-14.866,1.753c-.029.147-.059.294-.085.435a12.885,12.885,0,0,1-.564,2.121,14.838,14.838,0,0,1-2.243,3.718,20.913,20.913,0,0,1-3.648,3.04c.523,1.928,1.394,3,3.508,2.36,2.09.593,14.386-.748,17.563-3.921s.335-9.505.335-9.505" transform="translate(-460.596 -248.21)" fill="#f8baa7"/>
        <path id="Trazado_706163" data-name="Trazado 706163" d="M836.417,710.186c-.29-2.39-3.144-2.859-6.4-3.267s-1.057,7.166-1.057,7.43,7.872-.752,7.459-4.163" transform="translate(-575.568 -491.252)" fill="#211615"/>
        <path id="Trazado_706164" data-name="Trazado 706164" d="M811.742,717.664s-2.5,2.849-7.849,2.58a32.933,32.933,0,0,1-9.521-1.936s1.5,8.109,2.172,11.336,1.833,6.916,1.457,9.571-2.731,7.172-4.465,10.15a6.361,6.361,0,0,0,1.9,8.323c2.042,1.36,7.806,2.059,9.71-1.417a20.043,20.043,0,0,0,2.529-9.659,11.083,11.083,0,0,0,1.962-2.688c1.35-2.571-.5-4.983-.9-6.785s2.926-11.868,3.009-19.475" transform="translate(-550.892 -498.731)" fill="#c8b9ac"/>
        <path id="Trazado_706165" data-name="Trazado 706165" d="M709.908,678.171a8.993,8.993,0,0,1-8.191,4.5c-5.015-.013-4.576-3.545-4.576-3.545s.116,13.986.564,16.922-.892,4.178-2.621,5.366-6.288,3.619-6.6,7.031,1.275,4.893,5.836,6.09c2.487.653,5.305-.934,7.507-2.787,2.384-2.006,4.956-5.389,4.962-6.628,3.574-1.3,3.63-3.337,2.2-8.805,1.925-6.892,1.055-15.6.913-18.144" transform="translate(-478.431 -471.286)" fill="#c8b9ac"/>
        <path id="Trazado_706166" data-name="Trazado 706166" d="M705.847,356.832c-3.714-4.6-4.62-10.579-4.3-16.369a31.931,31.931,0,0,1,5.71-.749c7.9-5.769,13.113-2.91,14.476.027,2.53,5.451-.474,10.73-5.44,13.173a77.585,77.585,0,0,1-10.449,3.918" transform="translate(-487.49 -233.76)" fill="#c8b9ac"/>
        <path id="Trazado_706167" data-name="Trazado 706167" d="M707.814,521.635c-.156-3.317-.132-7.636-.009-10.965.062-1.667,2.466-16.289,3.885-26.567,1.236-8.951,1.051-13.544,6.514-16.953.2-.245,11.016,9.2,14.712,9.514a1.223,1.223,0,0,1,1.042,1.018c2.107,12.251,1.95,25.876-4.56,36.877a21.16,21.16,0,0,1-5.117,5.916c2.028,3.538,1.648,25.528-1.631,30.284-1.584,2.3-7.338,5.638-11.962,1.78-1.347-1.124-.668-3.332-1.058-7.9-.7-8.253-1.706-20.646-1.816-23" transform="translate(-491.809 -324.636)" fill="#d2a975"/>
        <path id="Trazado_706168" data-name="Trazado 706168" d="M758.717,512.754c-3.936-2.717-5.2-7.769-4.593-17.15,3.267-4.867,17.214-1.25,22.335-1.215,4.681,3.675,3.593,9.939,2.375,16.146,1.289,5.567,4.164,13.9,5.152,22.625.247,2.189.481,7.122-1.662,9.116,1.507,3.4,3.252,11.245,2.907,19.3-.322,7.519-2.672,15.284-3.067,18.188-2.794,1.757-6.858,4.651-11.1.86-3.412-3.048-5.977-25.425-5.1-36.185-1.642-2.606-3.191-4.152-3.831-7.157-1.655-7.778-2.243-16.7-3.411-24.533" transform="translate(-523.967 -342.648)" fill="#fbca97"/>
        <path id="Trazado_706169" data-name="Trazado 706169" d="M768.283,506.851l.691,1.838s-3.022,3.84-9.93,4.765-13.238-.211-16.145-1.374a8.023,8.023,0,0,1-4.07-4.151s16,2.723,20.215,1.534,9.239-2.613,9.239-2.613" transform="translate(-513.44 -352.229)" fill="#d2a975"/>
        <path id="Trazado_706170" data-name="Trazado 706170" d="M823.035,484.526c-.572-3.121-4.77-3.332-4.77-3.332l-1.643,5.786s7.238,2.054,6.412-2.454" transform="translate(-567.501 -334.399)" fill="#d2a975"/>
        <path id="Trazado_706171" data-name="Trazado 706171" d="M730.6,385.473c-1.683-2.856-.6-13.566.362-18.221-2.067-7.711-2.857-13.381-1.276-19.626.986-3.893,4.534-8.367,9.32-8.612,2.334-.119,10.227,3.16,11.715,3.98,6.127,1.737,9.775,4.664,13.9,9.208.512.563-1.558,18.665-2.584,22.056-1.2,3.955-.526,10.01-1.44,13.7.453,3.595-10.572,5.709-13.825,5.723-11.154.046-13.876-3.061-16.173-8.211" transform="translate(-506.504 -235.591)" fill="#ece3da"/>
        <path id="Trazado_706172" data-name="Trazado 706172" d="M796.17,476.077a8.731,8.731,0,0,1-6.007.506,12.763,12.763,0,0,1-5.336-2.752s4.346,1.4,6.29,1.759a47.232,47.232,0,0,0,5.053.487" transform="translate(-545.405 -329.282)" fill="#c8b9ac"/>
        <path id="Trazado_706173" data-name="Trazado 706173" d="M773.77,344.416a6.888,6.888,0,0,1-4.793,5.166c-6.506,2.251-11.114-.836-12.369-4.279s2.742-6.293,2.742-6.293,8.2.911,14.421,5.406" transform="translate(-525.625 -235.59)" fill="#c8b9ac"/>
        <path id="Trazado_706174" data-name="Trazado 706174" d="M761.738,422.271l1.23,3.055s-2.645,2.286-9.794,4.958c-7.183,2.685-15.158,1.15-18.683-1.983s-5.7-5.1-5.941-7.959A62.206,62.206,0,0,1,729,408.095c.575-4.517,1.613-16.485,1.613-16.485a27.8,27.8,0,0,0,8.026,3.665,48.308,48.308,0,0,0,9.01,1.695s-.25,11.125,1.039,15.959c.941,3.53,2.347,7.109,6.176,9.033a7.84,7.84,0,0,0,6.872.31" transform="translate(-506.204 -272.144)" fill="#fbca97"/>
        <path id="Trazado_706175" data-name="Trazado 706175" d="M751.026,411.923a33.914,33.914,0,0,1-7.337-1.358,28.809,28.809,0,0,1-4.864-1.868,40.941,40.941,0,0,0-1,7.329c-.075,2.308,2.439,4.512,5.349,5.228,2.648.652,6.738.089,7.092-2.724.576-4.578.763-6.607.763-6.607" transform="translate(-512.737 -284.018)" fill="#d2a975"/>
        <path id="Trazado_706176" data-name="Trazado 706176" d="M753.055,254.913a6.074,6.074,0,0,0,4.221-.6c4.218-2.435,4.286-10.215.151-17.377s-10.906-10.993-15.124-8.558a6.074,6.074,0,0,0-2.629,3.355Z" transform="translate(-514.025 -158.199)" fill="#44b9e2"/>
        <rect id="Rectángulo_349488" data-name="Rectángulo 349488" width="3.955" height="29.947" transform="matrix(0.866, -0.5, 0.5, 0.866, 224.852, 72.157)" fill="#44b9e2"/>
        <rect id="Rectángulo_349489" data-name="Rectángulo 349489" width="2.998" height="31.084" transform="translate(222.578 72.813) rotate(-30)" fill="#009dd0"/>
        <path id="Trazado_706177" data-name="Trazado 706177" d="M730.537,232.035c4.378-2.527,11.406,1.45,15.7,8.883s4.222,15.509-.156,18.036-11.406-1.449-15.7-8.883-4.222-15.509.156-18.036" transform="translate(-505.362 -160.721)" fill="#009dd0"/>
        <path id="Trazado_706178" data-name="Trazado 706178" d="M723.054,236.356c4.378-2.528,11.406,1.449,15.7,8.883s4.221,15.509-.156,18.036-11.406-1.449-15.7-8.883-4.222-15.509.156-18.036" transform="translate(-500.162 -163.724)" fill="#13b1e2"/>
        <path id="Trazado_706179" data-name="Trazado 706179" d="M667.057,278.658l23.725-13.7c4.218-2.435,4.285-10.215.151-17.377s-10.906-10.993-15.124-8.558l-23.725,13.7Z" transform="translate(-453.156 -165.598)" fill="#44b9e2"/>
        <path id="Trazado_706180" data-name="Trazado 706180" d="M685.764,260.786a25.227,25.227,0,0,1,1.383,2.774l15.955-9.211a25.291,25.291,0,0,0-1.383-2.775c-4.135-7.162-10.906-10.993-15.124-8.558l-15.955,9.211c4.218-2.435,10.989,1.4,15.124,8.558" transform="translate(-466.052 -168.372)" fill="#dacec4"/>
        <rect id="Rectángulo_349490" data-name="Rectángulo 349490" width="2.998" height="31.083" transform="matrix(0.866, -0.5, 0.5, 0.866, 198.789, 86.548)" fill="#009dd0"/>
        <path id="Trazado_706181" data-name="Trazado 706181" d="M652.556,277.059c4.378-2.528,11.406,1.449,15.7,8.883s4.222,15.509-.156,18.036-11.406-1.449-15.7-8.883-4.222-15.509.156-18.036" transform="translate(-451.17 -192.01)" fill="#009dd0"/>
        <path id="Trazado_706182" data-name="Trazado 706182" d="M645.072,281.379c4.378-2.527,11.406,1.449,15.7,8.883s4.222,15.509-.156,18.036-11.406-1.449-15.7-8.883-4.221-15.509.156-18.036" transform="translate(-445.97 -195.012)" fill="#13b1e2"/>
        <path id="Trazado_706183" data-name="Trazado 706183" d="M635.964,285.1a14.969,14.969,0,0,0,14.968,25.927Z" transform="translate(-436.752 -198.124)" fill="#44b9e2"/>
        <path id="Trazado_706184" data-name="Trazado 706184" d="M644.775,283.925c4.218-2.435,10.989,1.4,15.124,8.558s4.067,14.942-.151,17.377-10.989-1.4-15.124-8.558-4.067-14.941.151-17.377" transform="translate(-445.848 -196.8)" fill="#44b9e2"/>
        <path id="Trazado_706185" data-name="Trazado 706185" d="M633.026,333.919c1.3-.754,3.4.432,4.678,2.647s1.258,4.622-.046,5.375-3.4-.432-4.679-2.647-1.258-4.622.047-5.375" transform="translate(-439.223 -231.895)" fill="#009dd0"/>
        <rect id="Rectángulo_349491" data-name="Rectángulo 349491" width="3.798" height="9.264" transform="matrix(0.866, -0.5, 0.5, 0.866, 190.514, 103.923)" fill="#009dd0"/>
        <path id="Trazado_706186" data-name="Trazado 706186" d="M623.729,337.578c1.42-.82,3.7.47,5.092,2.881s1.369,5.03-.051,5.85-3.7-.47-5.091-2.881-1.369-5.03.051-5.85" transform="translate(-432.701 -234.424)" fill="#0b3786"/>
        <rect id="Rectángulo_349492" data-name="Rectángulo 349492" width="5.291" height="10.082" transform="matrix(0.866, -0.5, 0.5, 0.866, 186.446, 105.8)" fill="#0b3786"/>
        <path id="Trazado_706187" data-name="Trazado 706187" d="M608.709,346.25c1.42-.82,3.7.47,5.091,2.881s1.369,5.03-.051,5.85-3.7-.47-5.091-2.881-1.369-5.03.051-5.85" transform="translate(-422.263 -240.45)" fill="#0b3786"/>
        <path id="Trazado_706188" data-name="Trazado 706188" d="M793.609,356.672s-3.118,1.675-5.719,7.043c-2.293,4.731-2.932,11.739-2.932,11.739l-2.842-.835s0-6.993,3.2-12.116c3.629-5.819,4.724-7.265,7.282-7.273,1.426,0,1.015,1.442,1.015,1.442" transform="translate(-543.52 -246.862)" fill="#fbca97"/>
        <path id="Trazado_706189" data-name="Trazado 706189" d="M746.544,337.794s-3.118,1.676-5.72,7.043c-2.293,4.731-2.932,11.739-2.932,11.739l-2.842-.835s0-6.994,3.2-12.116c3.628-5.818,4.724-7.264,7.282-7.273,1.426-.005,1.015,1.442,1.015,1.442" transform="translate(-510.813 -233.743)" fill="#fbca97"/>
        <path id="Trazado_706190" data-name="Trazado 706190" d="M763.2,328.193a15.942,15.942,0,0,0,5.058.448,11.664,11.664,0,0,0,5.373-2.6c.13,1.891.738,6.706,1.6,8.61.985,2.177-3.8,4.424-7.905,3.981-2.869-.31-5.4-2.8-5.394-3.872a61.485,61.485,0,0,0,1.268-6.565" transform="translate(-529.495 -226.576)" fill="#f5a794"/>
        <path id="Trazado_706191" data-name="Trazado 706191" d="M751.271,282.406c.409-2.616,1.353-5.855,3.588-7.5,2.209-1.628,5.662-1.421,8.235-.944,3.99.738,6.315,5.507,5.019,10.571-1.2,4.677-5.2,11.637-10.612,12.028-2.754.2-4.615-2.062-5.555-4.794a21.485,21.485,0,0,1-.676-9.358" transform="translate(-521.926 -190.146)" fill="#f8baa7"/>
        <path id="Trazado_706192" data-name="Trazado 706192" d="M737.525,278.291a10.892,10.892,0,0,1-4.341,1,3.02,3.02,0,0,1-2.849-2.6,16.311,16.311,0,0,1,5.094-.644,2.522,2.522,0,0,1,2.095,2.246" transform="translate(-507.537 -191.8)" fill="#d2a975"/>
        <g id="Grupo_992502" data-name="Grupo 992502" transform="translate(225.082 85.416)" style="isolation: isolate">
          <g id="Grupo_992501" data-name="Grupo 992501">
            <g id="Grupo_992500" data-name="Grupo 992500" clip-path="url(#clip-path-9)">
              <path id="Trazado_706193" data-name="Trazado 706193" d="M760.257,290.035s.3.187-.55,2.117a40.288,40.288,0,0,1-2.549,4.552s-1.2-.836-1.069-3.579a9.036,9.036,0,0,1,1.069-4.2,7.931,7.931,0,0,1-5.827-1.786c-3.038-2.31-3.434-4.027-3.434-4.027s-2.353,3.384-5.536,3.211-6.42-4.81-3.23-5.857,10.452-.042,10.452-.042,10.881,5.957,10.674,9.606" transform="translate(-737.819 -279.995)" fill="#040405"/>
            </g>
          </g>
        </g>
        <path id="Trazado_706194" data-name="Trazado 706194" d="M770.342,277.493c-2.425-5.459-11.4-11.707-18.085-11.305.036-.059.06-.114.1-.174,3.548-5.547,7.324-6.784,14.832-3.563s5.546,9.758,5.151,10.545a17.922,17.922,0,0,1-1.994,4.5" transform="translate(-522.771 -181.169)" fill="#fbca97"/>
        <path id="Trazado_706195" data-name="Trazado 706195" d="M751.008,281.34a17.071,17.071,0,0,0-7.393-6.161c-6.592-3.032-13.279.006-13.279.006s4.817.791,6.784,2.964,3.109,3.906,6.977,3.972a20.665,20.665,0,0,0,6.911-.781" transform="translate(-507.537 -190.296)" fill="#d2a975"/>
        <path id="Trazado_706196" data-name="Trazado 706196" d="M790.652,495.2a24.153,24.153,0,0,1-5.934,2.586,11.108,11.108,0,0,1-5.111,0,34.112,34.112,0,0,0,5.111-1.146c3.4-.967,5.934-1.44,5.934-1.44" transform="translate(-541.777 -344.129)" fill="#d2a975"/>
        <path id="Trazado_706197" data-name="Trazado 706197" d="M835.568,634.072c-.448.4-.58,2.378-2.034,4.359a11.425,11.425,0,0,1-2.709,2.774,5.608,5.608,0,0,1,2.078-4.359,9.406,9.406,0,0,0,2.664-2.774" transform="translate(-577.37 -440.64)" fill="#d2a975"/>
        <path id="Trazado_706198" data-name="Trazado 706198" d="M829.981,662.217s2.632.87,3.339,2.186,1.336,2.652,1.336,2.652a2.664,2.664,0,0,1-2.72-1.486c-1.176-1.851-1.955-3.352-1.955-3.352" transform="translate(-576.784 -460.199)" fill="#d2a975"/>
        <path id="Trazado_706199" data-name="Trazado 706199" d="M817.365,391.571l6.078,23.849s-.606,2.574.305,8.939l1.93,13.469s-3.318,4-3.112,6.414a1.853,1.853,0,0,0,2.473,1.76s.693,3.875,3.909,3.842a5.728,5.728,0,0,0,5.268-7.689c-1.419-4.514-2.072-6.744-2.072-6.744a58.476,58.476,0,0,0,1.5-12.686,34,34,0,0,0-1.253-8.838s1.163-1.061-.363-2.445c.027-4.974-2.123-19.233-4.117-21.382-2.553-2.752-10.547,1.511-10.547,1.511" transform="translate(-568.016 -270.424)" fill="#f8baa7"/>
        <path id="Trazado_706200" data-name="Trazado 706200" d="M814.446,369.756c6.393-1.193,7.775,2.484,10.079,8.8a36.256,36.256,0,0,1,1.453,7.674,14.028,14.028,0,0,1,1.43,4.056s-1.8,1.553-8.256,1.986a44.974,44.974,0,0,0-6.094.674s-1.095-2.936-.638-4.361c-2.867-4.265-5.108-17.494,2.025-18.825" transform="translate(-562.678 -256.801)" fill="#c8b9ac"/>
        <path id="Trazado_706201" data-name="Trazado 706201" d="M675.226,256.316c1.955-.444,3.22,1.709,3.049,3.057s-3.062-.427-3.062-.427,1.654,1.913.337,2.379a4.584,4.584,0,0,1-3-.352s.654,2.545-1.4,2.526-2.3-2.615-2.3-2.615,3.6-3.939,6.373-4.567" transform="translate(-464.81 -178.082)" fill="#f8baa7"/>
        <path id="Trazado_706202" data-name="Trazado 706202" d="M625.925,967.656c-2.305,13.633,11.8,22.839,28.969,23.015,16.369.168,24.164-3.42,43.157,13.814,5.853,5.311,12.972,12.159,20.773,13.642,8.4,1.6,16.022.107,24.182-1.939,12.314-3.087,40.324-5.441,42.8-20.964,2.389-14.977-17.412-20.644-27.032-29.131-8.923-7.873-9.02-11.381-11.011-15.187-1.366-2.611-2.615-5.389-4.87-7.375-5.188-4.57-14.028-4.957-20.586-5.3-9.229-.48-18.466.163-27.684-.69-8.926-.826-17.432-3.608-26.255-4.732-15.247-1.942-24.224-2.766-35.027,2.148-13.327,6.062-4.326,14.419-7.417,32.7" transform="translate(-434.806 -647.186)" fill="#4f5859"/>
        <path id="Trazado_706203" data-name="Trazado 706203" d="M669.607,988.159a31.883,31.883,0,0,0,13.526,8.223c6.152,1.868,12.516,1.3,18.848,1.241,7.862-.075,14.406,1.47,19.93,7.363a65.91,65.91,0,0,0,14.436,11.348c7.521,4.317,19.808,6.181,32.393,3.09,11.015-2.7,25.441-4.753,28.889-17.093,3.424-12.255-12.055-17.784-19.284-23.628-5.145-4.16-7.619-10.625-12.764-14.771-4.444-3.582-10.1-5.1-15.636-5.991-15.191-2.441-30.7-3.572-45.989-5.253-2.654-.292-5.725-.792-8.927-1.185-10.369-2.661-25.349-4.455-25.9,7.089-.131,2.747.881,5.393,1.4,8.045.428,2.187.782,4.553-.427,6.576-.916,1.533-2.559,2.507-3.638,3.9-3.146,4.071.126,7.943,3.142,11.042" transform="translate(-462.26 -659.859)" fill="#616257"/>
        <path id="Trazado_706204" data-name="Trazado 706204" d="M713.151,999.893c8.157,5.337,17.434,5.4,26.255,8.17,9.353,2.941,14.887,10.916,22.319,16.715,7.3,5.693,25.958,7.75,34.716,5.22,5.952-1.719,12.778-8.692,14.284-11.788,3.542-7.284-4.2-12.954-9.882-15.375-5.6-2.387-12.527-4.566-13.3-11.589-.363-3.308-.283-5.988-3.592-7.691-3.7-1.905-8.773-1.623-12.814-1.676-6.254-.083-12.2-.193-18.17-2.336-2.366-.85-12.1-3.833-14.665-4.048-9.286-.777-23.448-2.37-29.218-1.7-6.731.779-9.313,7.848-5.81,14.14,2.158,3.876,1.964,6.784,9.875,11.96" transform="translate(-487.646 -676.613)" fill="#7b6e52"/>
        <path id="Trazado_706205" data-name="Trazado 706205" d="M726.2,989.1c.841,2.234,3.13,3.324,5.194,4.2,1.466.62,5,1.93,6.481.538,1.218-1.142-.732-2.347-1.608-2.848-.59-.337-1.232-.585-1.809-.946a2.476,2.476,0,0,1-.367-4.067c.63-.581,1.779-1,2.2-1.823,1.377-2.679-2.122-2.386-4.953-2.111-3.616.351-6.442,3.606-5.141,7.06" transform="translate(-504.439 -682.333)" fill="#cf9943"/>
        <path id="Trazado_706206" data-name="Trazado 706206" d="M955.364,1129.7c1.2,1.88,4.8,2.126,6.711,2.8a11.977,11.977,0,0,0,8.171.356,11.221,11.221,0,0,0,3.044-1.6,45.762,45.762,0,0,0,4.261-3.069c.866-.829,1.253-1.625.074-2.416-1.73-1.161-4.907.5-6.487,1.086-3.736,1.39-5.11,2.538-8.537,2.538a6.526,6.526,0,0,1-3.068-.84,21.159,21.159,0,0,0-2.688-1.469c-.382-.1-.59-.3-.961-.175-1.2.414-1.093,1.894-.522,2.791" transform="translate(-663.63 -782.059)" fill="#cf9943"/>
        <path id="Trazado_706207" data-name="Trazado 706207" d="M983.225,748.425l0,0-83.685,48.315-1.086-2.055L986.6,743.8a6.647,6.647,0,0,1-3.372,4.624" transform="translate(-624.37 -516.894)" fill="#c8b9ac"/>
        <path id="Trazado_706208" data-name="Trazado 706208" d="M963.955,689.7l-91.469,52.81-5.722-10.826,90.45-52.221a21.459,21.459,0,0,1,6.741,10.238" transform="translate(-602.346 -472.184)" fill="#c8b9ac"/>
        <path id="Trazado_706209" data-name="Trazado 706209" d="M859.1,722.689l85.137-49.207.009-.005h0a5.331,5.331,0,0,1,2.5-.6A6.342,6.342,0,0,1,947.9,673l-88.158,50.9Z" transform="translate(-597.022 -467.609)" fill="#c8b9ac"/>
        <path id="Trazado_706210" data-name="Trazado 706210" d="M949.357,673.272a8.51,8.51,0,0,1,2.712,1.032,11.785,11.785,0,0,1,1.277.857L862.9,727.382l-1.7-3.212Z" transform="translate(-598.478 -467.881)" fill="#c8b9ac"/>
        <g id="Grupo_992505" data-name="Grupo 992505" transform="translate(262.721 205.391)" opacity="0.3">
          <g id="Grupo_992504" data-name="Grupo 992504">
            <g id="Grupo_992503" data-name="Grupo 992503" clip-path="url(#clip-path-10)">
              <path id="Trazado_706211" data-name="Trazado 706211" d="M949.357,673.272a8.51,8.51,0,0,1,2.712,1.032,11.785,11.785,0,0,1,1.277.857L862.9,727.382l-1.7-3.212Z" transform="translate(-861.199 -673.272)" fill="#ece3da"/>
            </g>
          </g>
        </g>
        <path id="Trazado_706212" data-name="Trazado 706212" d="M976.989,713.023a20.228,20.228,0,0,1,1.021,6.1,13.174,13.174,0,0,1-.4,3.293L889.467,773.3l-3.947-7.468Z" transform="translate(-615.38 -495.505)" fill="#b9a699"/>
        <path id="Trazado_706213" data-name="Trazado 706213" d="M861.917,859.982c3.691,0,6.075-3.305,6.075-8.42,0-6.6-4.055-14.314-9.039-17.191a7.744,7.744,0,0,0-3.858-1.151c-3.69,0-6.075,3.305-6.075,8.421,0,6.6,4.055,14.314,9.039,17.191a7.744,7.744,0,0,0,3.858,1.15" transform="translate(-590.015 -579.035)" fill="#b19b8a"/>
        <path id="Trazado_706214" data-name="Trazado 706214" d="M851.95,843.678c0,6.327,3.847,13.677,8.592,16.417s8.592-.168,8.592-6.5-3.847-13.677-8.592-16.417-8.592.168-8.592,6.5" transform="translate(-592.051 -581.072)" fill="#8f7665"/>
        <path id="Trazado_706215" data-name="Trazado 706215" d="M937.01,802.627c0-6.6-4.055-14.313-9.039-17.191a7.748,7.748,0,0,0-3.858-1.151,5.281,5.281,0,0,0-2.722.728l10.213-5.954.009.018a5.28,5.28,0,0,1,2.722-.727,7.743,7.743,0,0,1,3.858,1.151c4.984,2.877,9.039,10.589,9.039,17.191,0,3.627-1.2,6.336-3.216,7.61l0,.009L933.976,810.1c1.9-1.322,3.034-3.96,3.034-7.472" transform="translate(-640.307 -540.903)" fill="#224154"/>
        <path id="Trazado_706216" data-name="Trazado 706216" d="M944.1,804.51c0-6.6-4.055-14.313-9.039-17.191a7.745,7.745,0,0,0-3.858-1.151,5.3,5.3,0,0,0-2.731.71l5.679-3.283.009.017a5.282,5.282,0,0,1,2.722-.727,7.748,7.748,0,0,1,3.858,1.151c4.984,2.878,9.039,10.59,9.039,17.191,0,3.627-1.2,6.336-3.216,7.61l0,.009-5.5,3.136c1.9-1.321,3.034-3.96,3.034-7.472" transform="translate(-645.226 -544.055)" fill="#315a6e"/>
        <path id="Trazado_706217" data-name="Trazado 706217" d="M788.328,895.58c1.442.927,1.148,2.252.927,3.193-.731,3.114,6.232,4.828,8.061,4.095,3.219-1.291,6,2.139,8.962,2.945,1.4.38,4.855,2.051,8.207,2.085,3.69.038,5.589-1.5,4.772-3.408-.927-2.164-4.372-1.3-4.558-3.4a74.058,74.058,0,0,1-.463-7.571c.077-4.867-.355-16.517,1.712-19.726,1.232-1.914,5.364-5.127,5.937-5.692,1.221-1.2,2.541-3.41,1.784-8.48a22.459,22.459,0,0,0-5.326-11.638c-14.046,7.422-21.167,15.905-24.116,23.131-2.43,5.954-4.964,12.093-7.031,18.182-.883,2.6-.481,5.246,1.133,6.284" transform="translate(-546.732 -589.295)" fill="#626455"/>
        <path id="Trazado_706218" data-name="Trazado 706218" d="M770.492,927.9c2.169,1.313-.226,4.92,1.159,6.152a8.344,8.344,0,0,0,6.644,1.574c2.3-.414,4.095-1.574,5.846.644.74.938.721,3.451,3.811,4.687,3.135,1.254,10.282,1.91,13.195-.154,2.18-1.545-.853-2.855-2.146-5.176a40.256,40.256,0,0,1-5.177-21.246c.078-5.855,1.123-11.808,5.746-15.745,1.516-1.291,7.627-4.925,7.172-6.042-.478-1.177-2.8-.453-4.78,1.03-2.419,1.814-5.311,3.311-8.2,6.045-2.1,1.99-2.526,3.329-3.647,6.522-.236-2.985,1.546-7.314.515-7-1.488.447-2.988,2.746-3.708,4.018-1.357,2.393-2.69,8.92-3.763,11.485-1.624-2.62.6-8.466,1.085-11.691.432-2.883-.206-3.258-1.559-1.167-2.246,3.47-3.384,7.807-4.725,11.571a14.544,14.544,0,0,1-4.842,6.49c-2.363,1.733-5.63,2.623-6.567,4.764-.508,1.161,1.832,1.968,3.94,3.245" transform="translate(-532.656 -619.884)" fill="#a9864d"/>
        <path id="Trazado_706219" data-name="Trazado 706219" d="M822.8,924.982a9.794,9.794,0,0,0,5.063-7.917c.48-4.651-.125-9.257.7-13.9.907-5.079,2.21-9.781,6.045-13.289a29.746,29.746,0,0,1,7.348-5.022,15.729,15.729,0,0,0,3.207-1.932c.871-.69.077-.85-.734-.433-6.432,3.3-14.42,8.391-17.2,15.148-1.509,3.663-.924,9.064-1.068,12.982-.181,4.912-.16,10.019-3.767,13.881-.268.287-.4.914.407.483" transform="translate(-571.367 -613.114)" fill="#4d4b3b"/>
        <path id="Trazado_706220" data-name="Trazado 706220" d="M828,879.542a11.083,11.083,0,0,0-1.445,5.408c0,.966.629-.784.75-1.12a14.364,14.364,0,0,1,1.359-3.119,25.477,25.477,0,0,1,7.831-7.936c3.865-2.747,7.961-5.342,11.987-7.855.649-.4.008-.868-1.051-.366a92.412,92.412,0,0,0-12.986,8.167A24.825,24.825,0,0,0,828,879.542" transform="translate(-574.402 -600.657)" fill="#4d4b3b"/>
        <path id="Trazado_706221" data-name="Trazado 706221" d="M798.507,966.955c3.324-.265,4.616-4.528,5.28-7.608,1.067-4.946,1.206-10.314,2.755-15.155.293-.916.167-1.264-.463-.3a10.107,10.107,0,0,0-1.463,4.326c-.786,6.679-1,12.84-5.76,17.963-.3.323-1.134.835-.348.772" transform="translate(-554.683 -655.545)" fill="#4d4b3b"/>
        <path id="Trazado_706222" data-name="Trazado 706222" d="M852.84,929.523a19.978,19.978,0,0,1,8.154-14.295s.01,0,.006.008c-4.45,3.818-6.712,10.021-7.018,15.764a35.391,35.391,0,0,0,.912,9.48c.669,3.029,1.978,5.888,2.569,8.922a.146.146,0,0,1-.265.112c-3.607-5.414-5.088-13.587-4.357-19.99" transform="translate(-592.543 -636.024)" fill="#4d4b3b"/>
        <path id="Trazado_706223" data-name="Trazado 706223" d="M888.7,955.418c1.162-.677.576-2.2.132-3.133a60.557,60.557,0,0,1-3.495-11.082c-.831,6.7-.059,16.21,3.362,14.215" transform="translate(-615.039 -654.076)" fill="#a9864d"/>
        <path id="Trazado_706224" data-name="Trazado 706224" d="M798.415,889.961c1.254,2.063,3.713-.941,4.451-1.944,1.084-1.473,1.932-3.106,3.147-4.48a19.679,19.679,0,0,1,4.648-3.649c-2.7.082-6.983,2.456-9.085,4.406-1.139,1.056-4.279,3.828-3.161,5.667" transform="translate(-554.683 -611.466)" fill="#cf9943"/>
        <path id="Trazado_706225" data-name="Trazado 706225" d="M824.871,895.965a.377.377,0,0,0,.326.191c1-.026,1.871-1.416,2.515-2.065,1.288-1.3,1.339-1.74,2.687-2.978,1.236-1.135-.868-.809-1.844-.081-2.053,1.532-4.422,3.7-3.684,4.934" transform="translate(-573.137 -618.75)" fill="#cf9943"/>
        <path id="Trazado_706226" data-name="Trazado 706226" d="M877.1,908.488s-3.742,3.142-4.886,6.449c-1.513,4.369-1.755,14.7-1.3,18.933.29,2.687.33,4.972,1.331,7.106,1.1,2.356,2.44,3.326.85,3.481s-3.992-4.132-4.777-9.408-.655-17.933,1.52-22.034,10.067-8.23,10.067-8.23-1.01,2.809-2.805,3.7" transform="translate(-603.121 -628.768)" fill="#4d4b3b"/>
        <path id="Trazado_706227" data-name="Trazado 706227" d="M863.039,956.609c.092,1.228.135,4.083,1.129,4.9a.849.849,0,0,0,1.452-.322c.324-.778.018-7.554-.058-8.134a2.627,2.627,0,0,0-.487-1.88c-.484-.491-.932-.355-1.386.172-1.045,1.213-.757,3.833-.65,5.261" transform="translate(-599.674 -660.795)" fill="#cf9943"/>
        <path id="Trazado_706228" data-name="Trazado 706228" d="M781.429,972.838c1.844.64,4.472-2.148,5.382-3.344,1.234-1.621,3.06-7.558,3-8.629-.017-.307-.5-.513-.643-.174a20.248,20.248,0,0,1-5.377,8.137c-.505.437-2.255,1.331-2.785,1.747-1.01.793-1.229,1.689.422,2.263" transform="translate(-542.203 -667.497)" fill="#cf9943"/>
        <path id="Trazado_706229" data-name="Trazado 706229" d="M844.531,996.485c.16,1.355.356,4.689,2.188,5.24,1.49.448,2.084-.71,1.743-2-.574-2.173-1.926-3.842-2.109-6.221-.122-1.588-.083-3.192-.079-4.793a16.642,16.642,0,0,0-.128-4.626c-.047-.319-.535-.281-.608,0a33.553,33.553,0,0,0-1.007,12.4" transform="translate(-586.756 -683.719)" fill="#cf9943"/>
        <path id="Trazado_706230" data-name="Trazado 706230" d="M1108.159,818.06l0,0-83.684,48.315-1.086-2.055,88.141-50.888a6.647,6.647,0,0,1-3.372,4.624" transform="translate(-711.191 -565.286)" fill="#c8b9ac"/>
        <path id="Trazado_706231" data-name="Trazado 706231" d="M1088.889,759.338l-91.469,52.81L991.7,801.321l90.45-52.221a21.463,21.463,0,0,1,6.741,10.238" transform="translate(-689.167 -520.577)" fill="#c8b9ac"/>
        <path id="Trazado_706232" data-name="Trazado 706232" d="M984.038,792.325l85.137-49.207.009-.006h0a5.33,5.33,0,0,1,2.5-.6,6.356,6.356,0,0,1,1.146.119l-88.158,50.9Z" transform="translate(-683.844 -516.002)" fill="#c8b9ac"/>
        <path id="Trazado_706233" data-name="Trazado 706233" d="M1074.291,742.907a8.516,8.516,0,0,1,2.712,1.032,11.846,11.846,0,0,1,1.277.857l-90.45,52.221-1.7-3.212Z" transform="translate(-685.299 -516.273)" fill="#c8b9ac"/>
        <g id="Grupo_992508" data-name="Grupo 992508" transform="translate(300.834 226.634)" opacity="0.3">
          <g id="Grupo_992507" data-name="Grupo 992507">
            <g id="Grupo_992506" data-name="Grupo 992506" clip-path="url(#clip-path-11)">
              <path id="Trazado_706234" data-name="Trazado 706234" d="M1074.291,742.907a8.516,8.516,0,0,1,2.712,1.032,11.846,11.846,0,0,1,1.277.857l-90.45,52.221-1.7-3.212Z" transform="translate(-986.133 -742.907)" fill="#ece3da"/>
            </g>
          </g>
        </g>
        <path id="Trazado_706235" data-name="Trazado 706235" d="M1101.923,782.659a20.225,20.225,0,0,1,1.021,6.1,13.17,13.17,0,0,1-.4,3.293L1014.4,842.936l-3.947-7.468Z" transform="translate(-702.201 -543.898)" fill="#b9a699"/>
        <path id="Trazado_706236" data-name="Trazado 706236" d="M986.851,929.618c3.69,0,6.075-3.305,6.075-8.421,0-6.6-4.056-14.313-9.039-17.191a7.745,7.745,0,0,0-3.858-1.151c-3.69,0-6.075,3.305-6.075,8.42,0,6.6,4.055,14.314,9.039,17.191a7.749,7.749,0,0,0,3.859,1.151" transform="translate(-676.835 -627.427)" fill="#b19b8a"/>
        <path id="Trazado_706237" data-name="Trazado 706237" d="M976.884,913.314c0,6.327,3.847,13.677,8.592,16.416s8.592-.168,8.592-6.5-3.847-13.677-8.592-16.417-8.592.168-8.592,6.5" transform="translate(-678.872 -629.464)" fill="#8f7665"/>
        <path id="Trazado_706238" data-name="Trazado 706238" d="M1061.944,872.262c0-6.6-4.055-14.313-9.039-17.191a7.745,7.745,0,0,0-3.858-1.151,5.278,5.278,0,0,0-2.722.728l10.213-5.954.008.017a5.284,5.284,0,0,1,2.722-.727,7.746,7.746,0,0,1,3.858,1.151c4.984,2.877,9.039,10.589,9.039,17.191,0,3.627-1.2,6.336-3.216,7.61l0,.009-10.044,5.789c1.9-1.322,3.034-3.96,3.034-7.472" transform="translate(-727.128 -589.295)" fill="#224154"/>
        <path id="Trazado_706239" data-name="Trazado 706239" d="M1069.03,874.145c0-6.6-4.055-14.314-9.039-17.191a7.749,7.749,0,0,0-3.858-1.151,5.3,5.3,0,0,0-2.731.709l5.678-3.283.009.018a5.284,5.284,0,0,1,2.722-.727,7.747,7.747,0,0,1,3.858,1.151c4.984,2.878,9.039,10.59,9.039,17.191,0,3.627-1.2,6.336-3.216,7.61l0,.009-5.5,3.136c1.9-1.321,3.034-3.96,3.034-7.472" transform="translate(-732.047 -592.447)" fill="#315a6e"/>
        <path id="Trazado_706240" data-name="Trazado 706240" d="M913.262,965.216c1.442.927,1.148,2.252.927,3.193-.731,3.114,6.232,4.828,8.061,4.095,3.219-1.291,6,2.139,8.962,2.945,1.4.38,4.855,2.051,8.207,2.085,3.691.038,5.589-1.5,4.772-3.408-.927-2.163-4.372-1.3-4.559-3.4a74.04,74.04,0,0,1-.463-7.571c.077-4.867-.354-16.517,1.712-19.726,1.232-1.914,5.364-5.127,5.937-5.692,1.22-1.2,2.541-3.41,1.783-8.48a22.459,22.459,0,0,0-5.326-11.638c-14.046,7.422-21.167,15.905-24.116,23.131-2.43,5.954-4.964,12.093-7.03,18.182-.883,2.6-.481,5.246,1.133,6.284" transform="translate(-633.553 -637.687)" fill="#626455"/>
        <path id="Trazado_706241" data-name="Trazado 706241" d="M895.426,997.532c2.169,1.313-.226,4.92,1.159,6.152a8.345,8.345,0,0,0,6.644,1.574c2.3-.414,4.095-1.574,5.846.644.74.937.721,3.451,3.812,4.687,3.135,1.254,10.281,1.91,13.194-.155,2.18-1.545-.853-2.855-2.146-5.176a40.251,40.251,0,0,1-5.176-21.246c.078-5.855,1.123-11.808,5.746-15.745,1.516-1.291,7.626-4.925,7.172-6.042-.478-1.177-2.8-.453-4.78,1.03-2.419,1.814-5.311,3.311-8.2,6.045-2.1,1.99-2.526,3.329-3.647,6.522-.237-2.985,1.545-7.314.515-7-1.488.447-2.988,2.746-3.709,4.017-1.356,2.393-2.689,8.92-3.763,11.486-1.624-2.621.6-8.466,1.085-11.692.432-2.883-.206-3.258-1.559-1.167-2.246,3.47-3.384,7.807-4.724,11.571a14.545,14.545,0,0,1-4.841,6.49c-2.363,1.734-5.63,2.623-6.567,4.764-.508,1.162,1.832,1.968,3.94,3.245" transform="translate(-619.477 -668.277)" fill="#a9864d"/>
        <path id="Trazado_706242" data-name="Trazado 706242" d="M947.735,994.617A9.793,9.793,0,0,0,952.8,986.7c.481-4.651-.125-9.257.7-13.9.907-5.079,2.21-9.781,6.044-13.289a29.755,29.755,0,0,1,7.348-5.022,15.7,15.7,0,0,0,3.206-1.932c.871-.69.077-.85-.734-.433-6.432,3.3-14.42,8.391-17.2,15.148-1.509,3.664-.923,9.064-1.068,12.983-.181,4.911-.16,10.019-3.767,13.881-.268.286-.4.914.407.483" transform="translate(-658.188 -661.506)" fill="#4d4b3b"/>
        <path id="Trazado_706243" data-name="Trazado 706243" d="M952.934,949.178a11.08,11.08,0,0,0-1.445,5.408c0,.966.629-.784.75-1.12a14.35,14.35,0,0,1,1.358-3.119,25.476,25.476,0,0,1,7.831-7.936c3.865-2.747,7.96-5.342,11.987-7.855.649-.4.008-.868-1.051-.366a92.463,92.463,0,0,0-12.986,8.168,24.828,24.828,0,0,0-6.445,6.821" transform="translate(-661.224 -649.05)" fill="#4d4b3b"/>
        <path id="Trazado_706244" data-name="Trazado 706244" d="M923.441,1036.591c3.324-.264,4.616-4.528,5.28-7.608,1.067-4.946,1.206-10.314,2.755-15.155.293-.916.167-1.264-.463-.3a10.106,10.106,0,0,0-1.463,4.326c-.786,6.679-1,12.84-5.76,17.963-.3.323-1.134.835-.348.772" transform="translate(-641.504 -703.937)" fill="#4d4b3b"/>
        <path id="Trazado_706245" data-name="Trazado 706245" d="M977.773,999.158a19.98,19.98,0,0,1,8.154-14.3s.01,0,.006.008c-4.45,3.818-6.712,10.021-7.018,15.764a35.389,35.389,0,0,0,.912,9.48c.669,3.03,1.978,5.888,2.569,8.922a.146.146,0,0,1-.265.112c-3.607-5.415-5.088-13.587-4.357-19.99" transform="translate(-679.364 -684.416)" fill="#4d4b3b"/>
        <path id="Trazado_706246" data-name="Trazado 706246" d="M1013.632,1025.054c1.162-.678.576-2.2.132-3.133a60.543,60.543,0,0,1-3.494-11.082c-.831,6.7-.06,16.21,3.362,14.215" transform="translate(-701.86 -702.469)" fill="#a9864d"/>
        <path id="Trazado_706247" data-name="Trazado 706247" d="M923.349,959.6c1.254,2.063,3.713-.941,4.451-1.945,1.084-1.473,1.932-3.105,3.147-4.48a19.674,19.674,0,0,1,4.648-3.648c-2.7.082-6.983,2.455-9.085,4.405-1.139,1.056-4.279,3.829-3.161,5.667" transform="translate(-641.504 -659.859)" fill="#cf9943"/>
        <path id="Trazado_706248" data-name="Trazado 706248" d="M949.8,965.6a.378.378,0,0,0,.326.191c1-.026,1.871-1.416,2.515-2.065,1.288-1.3,1.339-1.741,2.687-2.979,1.236-1.135-.868-.809-1.844-.081-2.053,1.532-4.422,3.7-3.684,4.934" transform="translate(-659.958 -667.143)" fill="#cf9943"/>
        <path id="Trazado_706249" data-name="Trazado 706249" d="M1001.108,978.766s-3.741,3.142-4.886,6.449c-1.513,4.369-1.756,14.7-1.3,18.932.289,2.687.33,4.972,1.331,7.107,1.1,2.356,2.441,3.326.85,3.48s-3.992-4.132-4.777-9.407-.655-17.933,1.52-22.034,10.365-8.427,10.365-8.427-1.308,3.007-3.1,3.9" transform="translate(-689.298 -677.469)" fill="#4d4b3b"/>
        <path id="Trazado_706250" data-name="Trazado 706250" d="M987.972,1026.244c.092,1.227.136,4.083,1.129,4.9a.848.848,0,0,0,1.452-.322c.324-.777.018-7.554-.058-8.134a2.629,2.629,0,0,0-.487-1.88c-.483-.491-.932-.355-1.386.172-1.045,1.214-.757,3.833-.65,5.261" transform="translate(-686.495 -709.187)" fill="#cf9943"/>
        <path id="Trazado_706251" data-name="Trazado 706251" d="M906.364,1042.474c1.844.64,4.472-2.148,5.382-3.344,1.234-1.621,3.06-7.558,3-8.629-.017-.307-.5-.513-.643-.174a20.246,20.246,0,0,1-5.376,8.137c-.505.437-2.255,1.332-2.785,1.747-1.01.793-1.229,1.689.422,2.263" transform="translate(-629.024 -715.89)" fill="#cf9943"/>
        <path id="Trazado_706252" data-name="Trazado 706252" d="M969.465,1066.121c.16,1.354.356,4.689,2.188,5.24,1.49.448,2.084-.709,1.743-2-.574-2.173-1.926-3.842-2.109-6.221-.122-1.588-.083-3.192-.079-4.793a16.643,16.643,0,0,0-.128-4.626c-.047-.318-.535-.281-.608,0a33.561,33.561,0,0,0-1.007,12.4" transform="translate(-673.577 -732.112)" fill="#cf9943"/>
        <path id="Trazado_706253" data-name="Trazado 706253" d="M766.481,962.514a2.1,2.1,0,1,0,2.1-2.1,2.1,2.1,0,0,0-2.1,2.1" transform="translate(-532.655 -667.429)" fill="#cf9943"/>
        <path id="Trazado_706254" data-name="Trazado 706254" d="M769.36,963.189a.883.883,0,1,0,.884-.883.883.883,0,0,0-.884.883" transform="translate(-534.656 -668.741)" fill="#eaaf5c"/>
        <path id="Trazado_706255" data-name="Trazado 706255" d="M817.865,985.81a2.1,2.1,0,1,0,2.1-2.1,2.1,2.1,0,0,0-2.1,2.1" transform="translate(-568.364 -683.618)" fill="#cf9943"/>
        <path id="Trazado_706256" data-name="Trazado 706256" d="M820.743,986.484a.883.883,0,1,0,.884-.883.883.883,0,0,0-.884.883" transform="translate(-570.364 -684.93)" fill="#eaaf5c"/>
        <path id="Trazado_706257" data-name="Trazado 706257" d="M891.588,1043.266a2.1,2.1,0,1,0,2.1-2.1,2.1,2.1,0,0,0-2.1,2.1" transform="translate(-619.597 -723.547)" fill="#cf9943"/>
        <path id="Trazado_706258" data-name="Trazado 706258" d="M894.467,1043.941a.883.883,0,1,0,.883-.883.884.884,0,0,0-.883.883" transform="translate(-621.597 -724.859)" fill="#eaaf5c"/>
        <path id="Trazado_706259" data-name="Trazado 706259" d="M881.847,1080.873a1.608,1.608,0,1,0,1.608-1.608,1.608,1.608,0,0,0-1.608,1.608" transform="translate(-612.827 -750.02)" fill="#cf9943"/>
        <path id="Trazado_706260" data-name="Trazado 706260" d="M884.057,1081.391a.678.678,0,1,0,.678-.678.678.678,0,0,0-.678.678" transform="translate(-614.363 -751.026)" fill="#eaaf5c"/>
        <path id="Trazado_706261" data-name="Trazado 706261" d="M806.861,1040.726a1.608,1.608,0,1,0,1.608-1.608,1.608,1.608,0,0,0-1.608,1.608" transform="translate(-560.717 -722.121)" fill="#cf9943"/>
        <path id="Trazado_706262" data-name="Trazado 706262" d="M809.07,1041.244a.678.678,0,1,0,.678-.678.678.678,0,0,0-.678.678" transform="translate(-562.252 -723.127)" fill="#eaaf5c"/>
        <path id="Trazado_706263" data-name="Trazado 706263" d="M740.91,961.538a1.608,1.608,0,1,0,1.608-1.608,1.608,1.608,0,0,0-1.608,1.608" transform="translate(-514.885 -667.09)" fill="#cf9943"/>
        <path id="Trazado_706264" data-name="Trazado 706264" d="M743.118,962.057a.678.678,0,1,0,.678-.678.678.678,0,0,0-.678.678" transform="translate(-516.419 -668.097)" fill="#eaaf5c"/>
        <path id="Trazado_706265" data-name="Trazado 706265" d="M826.331,1012.159a1.608,1.608,0,1,0,1.608-1.608,1.608,1.608,0,0,0-1.608,1.608" transform="translate(-574.247 -702.268)" fill="#cf9943"/>
        <path id="Trazado_706266" data-name="Trazado 706266" d="M828.541,1012.677a.678.678,0,1,0,.678-.678.678.678,0,0,0-.678.678" transform="translate(-575.783 -703.275)" fill="#eaaf5c"/>
        <path id="Trazado_706267" data-name="Trazado 706267" d="M1026.433,1088.758a1.608,1.608,0,1,0,1.608-1.608,1.608,1.608,0,0,0-1.608,1.608" transform="translate(-713.305 -755.5)" fill="#cf9943"/>
        <path id="Trazado_706268" data-name="Trazado 706268" d="M1028.642,1089.276a.678.678,0,1,0,.678-.678.678.678,0,0,0-.678.678" transform="translate(-714.84 -756.506)" fill="#eaaf5c"/>
        <path id="Trazado_706269" data-name="Trazado 706269" d="M938.3,1115.632a1.608,1.608,0,1,0,1.608-1.608,1.608,1.608,0,0,0-1.608,1.608" transform="translate(-652.06 -774.176)" fill="#cf9943"/>
        <path id="Trazado_706270" data-name="Trazado 706270" d="M940.511,1116.151a.678.678,0,1,0,.678-.678.678.678,0,0,0-.678.678" transform="translate(-653.595 -775.182)" fill="#eaaf5c"/>
      </g>
    </g>
  </g>
</svg>
