<svg xmlns="http://www.w3.org/2000/svg" xmlns:xlink="http://www.w3.org/1999/xlink" width="1240" height="682" viewBox="0 0 1240 682">
  <defs>
    <clipPath id="clip-path">
      <circle id="Elipse_5659" data-name="Elipse 5659" cx="162.274" cy="162.274" r="162.274" transform="translate(-923.384 298.662)" fill="none"/>
    </clipPath>
  </defs>
  <g id="Grupo_992576" data-name="Grupo 992576" transform="translate(-179 -1813)">
    <rect id="Rectángulo_349382" data-name="Rectángulo 349382" width="1240" height="682" rx="25" transform="translate(179 1813)" fill="#ffe8ce"/>
    <rect id="Rectángulo_349376" data-name="Rectángulo 349376" width="310.398" height="54.551" rx="19.697" transform="translate(566.902 2304.366)" fill="#fff" stroke="#db0316" stroke-miterlimit="10" stroke-width="5"/>
    <path id="Trazado_706398" data-name="Trazado 706398" d="M4.052-2.373h5.37V0H.967V-12.8H4.052ZM15.188.176a4.889,4.889,0,0,1-3.542-1.305,4.507,4.507,0,0,1-1.354-3.4v-.246a5.84,5.84,0,0,1,.541-2.575A3.955,3.955,0,0,1,12.41-9.075a4.763,4.763,0,0,1,2.461-.611,4.117,4.117,0,0,1,3.164,1.244A4.887,4.887,0,0,1,19.2-4.975v1.151H13.307A2.135,2.135,0,0,0,14-2.566a2.066,2.066,0,0,0,1.389.457,2.662,2.662,0,0,0,2.2-.984l1.354,1.6A3.784,3.784,0,0,1,17.372-.277,5.3,5.3,0,0,1,15.188.176ZM14.854-7.4q-1.3,0-1.547,1.723h2.988v-.229a1.467,1.467,0,0,0-.36-1.1A1.434,1.434,0,0,0,14.854-7.4Zm9.22,3.252L25.655-9.51h3.173l-3.876,11.1-.167.4a2.944,2.944,0,0,1-2.918,1.846,4.642,4.642,0,0,1-1.222-.175V1.556h.387a2.026,2.026,0,0,0,.954-.18,1.094,1.094,0,0,0,.488-.647L22.711.1l-3.3-9.605H22.57ZM40.6,0H37.626V-9.457L34.708-8.6v-2.25L40.324-12.8H40.6ZM53.35-11.215,48.568,0H45.439l4.79-10.512h-6.1V-12.8h9.22Zm1.705,4.964.782-6.546h7.479v2.3H58.245l-.29,2.542a3.493,3.493,0,0,1,.831-.327,3.79,3.79,0,0,1,1.006-.141,3.754,3.754,0,0,1,2.931,1.129,4.549,4.549,0,0,1,1.024,3.168A4.541,4.541,0,0,1,63.2-1.894,3.776,3.776,0,0,1,61.655-.36a4.87,4.87,0,0,1-2.347.536,5.24,5.24,0,0,1-2.259-.5A4.052,4.052,0,0,1,55.4-1.682a3.308,3.308,0,0,1-.589-1.954h2.971a1.68,1.68,0,0,0,.448,1.114,1.423,1.423,0,0,0,1.063.412q1.494,0,1.494-2.21,0-2.044-1.828-2.044A1.824,1.824,0,0,0,57.41-5.7ZM68.01-7.638h1.4a1.453,1.453,0,0,0,1.661-1.626,1.406,1.406,0,0,0-.4-1.033,1.5,1.5,0,0,0-1.116-.4,1.606,1.606,0,0,0-1.024.343A1.046,1.046,0,0,0,68.1-9.5H65.136a3.032,3.032,0,0,1,.563-1.8,3.715,3.715,0,0,1,1.56-1.235,5.334,5.334,0,0,1,2.193-.444,5.241,5.241,0,0,1,3.357.976A3.243,3.243,0,0,1,74.03-9.325a2.7,2.7,0,0,1-.505,1.56,3.6,3.6,0,0,1-1.472,1.191,3.441,3.441,0,0,1,1.6,1.121,2.951,2.951,0,0,1,.58,1.859A3.3,3.3,0,0,1,72.914-.853,5.472,5.472,0,0,1,69.451.176,5.675,5.675,0,0,1,67.118-.3a3.656,3.656,0,0,1-1.63-1.327,3.45,3.45,0,0,1-.554-1.929h2.979a1.334,1.334,0,0,0,.475,1.02,1.676,1.676,0,0,0,1.169.431A1.755,1.755,0,0,0,70.8-2.544a1.454,1.454,0,0,0,.466-1.112,1.7,1.7,0,0,0-.483-1.371,2.021,2.021,0,0,0-1.336-.4H68.01ZM79.884-4.825a5.809,5.809,0,0,1,.976-3.56,3.211,3.211,0,0,1,2.725-1.3,2.731,2.731,0,0,1,2.145,1V-13.5H88.7V0H86.036l-.149-1.02a2.8,2.8,0,0,1-2.32,1.2,3.205,3.205,0,0,1-2.689-1.3A5.993,5.993,0,0,1,79.884-4.825Zm2.962.185q0,2.531,1.477,2.531a1.458,1.458,0,0,0,1.406-.826V-6.557A1.419,1.419,0,0,0,84.34-7.4q-1.371,0-1.485,2.215ZM94.983.176a4.889,4.889,0,0,1-3.542-1.305,4.507,4.507,0,0,1-1.354-3.4v-.246a5.84,5.84,0,0,1,.541-2.575,3.955,3.955,0,0,1,1.578-1.727,4.763,4.763,0,0,1,2.461-.611,4.117,4.117,0,0,1,3.164,1.244,4.887,4.887,0,0,1,1.16,3.467v1.151H93.1A2.135,2.135,0,0,0,93.8-2.566a2.066,2.066,0,0,0,1.389.457,2.662,2.662,0,0,0,2.2-.984l1.354,1.6A3.784,3.784,0,0,1,97.167-.277,5.3,5.3,0,0,1,94.983.176ZM94.649-7.4q-1.3,0-1.547,1.723h2.988v-.229a1.467,1.467,0,0,0-.36-1.1A1.434,1.434,0,0,0,94.649-7.4Zm18.9,7.4h-8.93V-1.934l4.113-4.324a4.909,4.909,0,0,0,1.521-2.751,1.913,1.913,0,0,0-.36-1.257,1.287,1.287,0,0,0-1.046-.431,1.3,1.3,0,0,0-1.1.576,2.366,2.366,0,0,0-.422,1.437h-2.971a4.2,4.2,0,0,1,.589-2.175,4.129,4.129,0,0,1,1.635-1.56,4.856,4.856,0,0,1,2.338-.562,4.777,4.777,0,0,1,3.195.958,3.42,3.42,0,0,1,1.121,2.751,4,4,0,0,1-.281,1.472,6.456,6.456,0,0,1-.875,1.5,22.029,22.029,0,0,1-1.912,2.1L108.51-2.285h5.036Zm10.38-5.229a6.11,6.11,0,0,1-1.165,4A4.024,4.024,0,0,1,119.479.176a4.046,4.046,0,0,1-3.3-1.415A6.1,6.1,0,0,1,115-5.229V-7.567a6.11,6.11,0,0,1,1.165-4,4.034,4.034,0,0,1,3.292-1.406,4.036,4.036,0,0,1,3.3,1.415,6.116,6.116,0,0,1,1.169,4Zm-2.962-2.716a4.564,4.564,0,0,0-.36-2.061,1.2,1.2,0,0,0-1.143-.681,1.176,1.176,0,0,0-1.112.633,4.3,4.3,0,0,0-.374,1.916v3.27a4.6,4.6,0,0,0,.36,2.1,1.209,1.209,0,0,0,1.143.664,1.193,1.193,0,0,0,1.116-.646,4.39,4.39,0,0,0,.369-2.026ZM132.029,0h-2.971V-9.457l-2.918.853v-2.25l5.616-1.942h.272Zm4.034-6.251.782-6.546h7.479v2.3h-5.071l-.29,2.542a3.493,3.493,0,0,1,.831-.327A3.79,3.79,0,0,1,140.8-8.42a3.754,3.754,0,0,1,2.931,1.129,4.549,4.549,0,0,1,1.024,3.168,4.541,4.541,0,0,1-.549,2.228A3.776,3.776,0,0,1,142.664-.36a4.87,4.87,0,0,1-2.347.536,5.24,5.24,0,0,1-2.259-.5,4.052,4.052,0,0,1-1.652-1.361,3.308,3.308,0,0,1-.589-1.954h2.971a1.68,1.68,0,0,0,.448,1.114,1.423,1.423,0,0,0,1.063.412q1.494,0,1.494-2.21,0-2.044-1.828-2.044a1.824,1.824,0,0,0-1.547.667Z" transform="translate(647.3 2339.917)" fill="#12263f"/>
    <rect id="Rectángulo_349377" data-name="Rectángulo 349377" width="307.789" height="54.551" rx="19.697" transform="translate(569.511 1925.663)" fill="#fff" stroke="#ffd100" stroke-miterlimit="10" stroke-width="5"/>
    <path id="Trazado_705814" data-name="Trazado 705814" d="M-203.189,187.719c.186.193.557.524.531.559-.4.534-.693.3-.923-.179Z" transform="translate(1150.684 1682.281)" fill="#f7f9fa"/>
    <g id="Grupo_992297" data-name="Grupo 992297" transform="translate(1150.684 1682.281)">
      <rect id="Rectángulo_349378" data-name="Rectángulo 349378" transform="translate(-409.691 375.552) rotate(180)" fill="#f7f9fa"/>
    </g>
    <g id="Grupo_992299" data-name="Grupo 992299" transform="translate(1150.684 1682.281)">
      <g id="Grupo_992298" data-name="Grupo 992298" clip-path="url(#clip-path)">
        <rect id="Rectángulo_349379" data-name="Rectángulo 349379" width="458.586" height="182.383" transform="translate(-990.05 278.554)" fill="#ffdf00"/>
        <rect id="Rectángulo_349380" data-name="Rectángulo 349380" width="458.586" height="86.283" transform="translate(-990.05 460.937)" fill="#002d7e"/>
        <rect id="Rectángulo_349381" data-name="Rectángulo 349381" width="458.586" height="86.283" transform="translate(-990.05 547.22)" fill="#db0316"/>
      </g>
    </g>
    <path id="Trazado_705815" data-name="Trazado 705815" d="M-583.916,354.046c3.592-4.817,8.155-8.467,14.372-7.272,6.667,1.282,13.66,4.349,14.271,11.8.57,6.982-6.037,11.046-11.832,12.4-12.194,2.847-22.067,7.684-26.108,20.461-1.471,4.647-6.965,3.242-9.128,5.727-7.264,8.355-15.076,17.17-16.932,28.177-2.209,13.093-3.609,25.98-12.528,36.661-1.392,1.669-3.527,4.127-1.8,6.508,1.463,2.022,3.913-.241,5.661-.005,6.031.808,12.528,2.157,14.249,9.125,1.951,7.889,4.82,14.827,10.251,21.173,3.932,4.593,5.576,10.224,1.554,17.071-4.894,8.333-1.375,16.751,6.768,21.151.847.458,2.03,1.2,2.151,1.959,2.113,13.2,11.7,12.032,21.308,11.5,10.6-.584,21.228-.326,31.846-.959,11.188-.669,24.643.041,32.827,12.021,4.694,6.87,10.366,13.1,15.855,19.395,3.343,3.834,7.305,6.946,12.183,2.006,2.3-2.329,4.672-2.184,7.615-1.608,14.427,2.814,28.344.6,42.193-3.968,4.4-1.45,10.462-1.54,13.309,2.844,2.488,3.833.515,8.062-1.5,12.939-7.226,17.54-15.263,34.647-9.941,55.631a101.822,101.822,0,0,0,15.707,33.655c4.42,6.374,1.586,9.141-2.447,12.827-4.321,3.951-8.549,8-12.931,12.117,10.98,6.3,19.03,13.61,23.489,25.829,3.751,10.29,6.681,20.976,11.358,30.978,1.143,2.439,1.3,5.653-1.551,7.489a4.177,4.177,0,0,1-3.817-.044c-2.011-1.474-2.584-3.622-2.469-6.376.3-7.177-1.091-13.874-7.294-18.718-3.507-2.74-1.956-7.941-5.436-11.988-3.921,7.081-13.693,5.585-17.312,13.6-1.414,3.135-4.014-.019-5.848-1.381-1.992-1.48-2.874-5.65-6.393-3.568-4.025,2.384,1.693,5.39-.142,8.588-15.77-1.389-31.742,1.548-47.7-1.992-4.963-1.1-12.224-1.954-12.769,7.612-.885,15.5-.562,17.334,10.046,17.2,9.429-.123,14.731,2.669,14.528,12.693-.09,4.447-1.929,7.081-6.45,4.483-8.8-5.058-15.638,2.337-23.461,3.3-2.414.3-2.743,2.828-2.732,5.017.038,6.617-.1,13.246.233,19.853.1,1.926,1.154,5.13,2.4,5.475,13.948,3.855,12.462,18.373,19.135,27.172,3.469,4.576,2.06,10.215,1.241,15.019-5.889,34.559-12.276,69.033-18.918,105.828-6.716-8.377-11.975-15.586-23.154-13.287-4.62.951-4.735-4.491-2.228-8.473,5.379-8.544,10.018-17.614,16.019-25.681,4.932-6.631,2.135-10.193-3.34-13.167-6.886-3.743-14.558-6-20.581-11.388-2.677-2.395-6.809-2.4-8.686-.162-5.957,7.119-11.035,3.56-16.718-.041-5.475-3.472-10.089-4.773-16.211,1.08-5.431,5.2-13.418,8.6-22.023,5.362-6.138-2.31-12.756,3.609-19.066-1.395-3.165-2.51-5.261-3.546-4.486-8.782.786-5.3,2.48-14.3-8.851-13.112-2.176.228-5.976-1.441-5.609-3.759,2.45-15.5-11.166-17.378-19.707-22.5a28.678,28.678,0,0,1-11.969-13c-7.36-15.372-18.745-23.881-36.573-25.914-8.349-.954-18.143-3.48-25.092-11-4.7-5.086-9.4-13.611-18.132-1.981-3.039,4.044-13.832,2.052-20.436-.173-4.406-1.485-8.807-3.688-13.323-3.743-8.738-.109-4.428-10.487-10.952-12.775-2.472-.869-3.538-5.51-8.026-3.65-2.455,1.019-4.993-.447-6.733-2.011-10.854-9.774-24.955-15.167-34.981-26.059-1.548-1.685-3.031-3.173-1.535-5.3,2.148-3.055,4.121-6.779,8.974-5.532,8.286,2.126,7.8-2.033,5.932-7.831-4.2-13.013,5.755-25.163,19.08-23.6,6.453.756,12.394-1.211,14.539-7.412,3.823-11.04,11.207-19.379,18.285-28.158,2.943-3.653,4.65-7.138-1.627-11.358-5.787-3.888-13.388-9.982-3.984-18.995,2.982-2.858,4.532-9.067,2.351-12.821-5.234-9.012.359-20.17-6.76-28.7-2.047-2.455,1.351-3.856,3.633-4.878,2.926-1.31,5.954-3.094,4.428-6.976-3.349-8.53-8.026-16.652-2.908-26.322,1-1.891-1.636-4.313-4.255-6.08-7.19-4.842-9.426-13.652-13.928-20.592-3.869-5.957,5.864-11.166,4.02-19.378,4.96,9.3,8.421,4.93,12.641.663,7.541-7.626,7.467-15.161,2.083-24-1.354-2.22-6.653-5.475-2.286-8.733,4.957-3.7,5.168,2.716,6.938,4.817,4.916,5.836,14.553,8.815,12.347,19.291-.077.364,1.359,1.4,2.181,1.529a2.733,2.733,0,0,0,3.39-2.943c-.219-5.779,1.992-12.224-2.343-17.069-4.765-5.33-1.954-5.313,2.847-7.593,8.3-3.94,16.277-9.281,20.4-18.247,3.173-6.9,7.59-11.413,15.912-10.528,3.946.419,8.686-2.241,6.87-5.406-5.094-8.878,2.548-16.658.737-25.544-.97-4.76,1.7-13.558,8.873-17.477a33.1,33.1,0,0,0,9.667-7.716c5.456-6.664,11.391-7.941,19.176-4.343,6.031,2.787,11.394,3.439,12.47-6.053.693-6.124,5.4-7.486,11.018-5.332,12.051,4.617,22.837,3.76,32.633-5.872,5.664-5.568,12.851-9.24,20.713-11.492,6.642-1.907,12.232-5.4,12.7-13.367.356-6.059,4.62-3.535,7.714-3.644.479,1.006,1.1,1.491,1.932.373C-582.749,355.145-583.527,354.452-583.916,354.046Z" transform="translate(1763.822 1498.551)" fill="#fff"/>
    <g id="Grupo_992300" data-name="Grupo 992300" transform="translate(1150.684 1682.281)">
      <path id="Trazado_705816" data-name="Trazado 705816" d="M-761.109,727.527v-15A249.925,249.925,0,0,0-583,638.636l10.618,10.593A264.816,264.816,0,0,1-761.109,727.527Z" fill="#8d0a0a"/>
    </g>
    <g id="Grupo_992301" data-name="Grupo 992301" transform="translate(1150.684 1682.281)">
      <path id="Trazado_705817" data-name="Trazado 705817" d="M-572.385,649.229-583,638.636a249.974,249.974,0,0,0,73.485-177.7h15A264.874,264.874,0,0,1-572.385,649.229Z" fill="#8d0a0a"/>
    </g>
    <g id="Grupo_992302" data-name="Grupo 992302" transform="translate(1150.684 1682.281)">
      <path id="Trazado_705818" data-name="Trazado 705818" d="M-494.519,460.937h-15c0-138.728-112.863-251.591-251.59-251.591v-15A264.844,264.844,0,0,1-572.6,272.429,264.846,264.846,0,0,1-494.519,460.937Z" fill="#8d0a0a"/>
    </g>
    <circle id="Elipse_5660" data-name="Elipse 5660" cx="41.352" cy="41.352" r="41.352" transform="translate(542.3 1911.34)" fill="#fff296"/>
    <circle id="Elipse_5663" data-name="Elipse 5663" cx="30.204" cy="30.204" r="30.204" transform="translate(553.3 1922.488)" fill="#ffdf00"/>
    <circle id="Elipse_5662" data-name="Elipse 5662" cx="41.352" cy="41.352" r="41.352" transform="translate(542.3 2290.158)" fill="#ff949e"/>
    <path id="Trazado_706396" data-name="Trazado 706396" d="M4.052-2.373h5.37V0H.967V-12.8H4.052ZM15.943,0a3.344,3.344,0,0,1-.281-.853A2.754,2.754,0,0,1,13.377.176a3.374,3.374,0,0,1-2.285-.813,2.588,2.588,0,0,1-.94-2.043,2.66,2.66,0,0,1,1.143-2.338,5.821,5.821,0,0,1,3.322-.791h.914v-.5q0-1.316-1.134-1.316a.927.927,0,0,0-1.055,1.042H10.38a2.655,2.655,0,0,1,1.173-2.239,4.931,4.931,0,0,1,2.993-.86A4.323,4.323,0,0,1,17.42-8.8,3.086,3.086,0,0,1,18.5-6.363v4.21a4.311,4.311,0,0,0,.4,2V0ZM14.089-1.934a1.652,1.652,0,0,0,.918-.237,1.487,1.487,0,0,0,.523-.536V-4.228h-.861q-1.547,0-1.547,1.389a.848.848,0,0,0,.272.655A.986.986,0,0,0,14.089-1.934ZM29.514-4.526h-1.67V0H24.759V-12.8h5.036a5.621,5.621,0,0,1,3.56,1.01,3.421,3.421,0,0,1,1.283,2.853A4.155,4.155,0,0,1,34.1-6.721,3.837,3.837,0,0,1,32.405-5.3L35.077-.132V0h-3.3ZM27.844-6.9h1.951a1.751,1.751,0,0,0,1.323-.463,1.788,1.788,0,0,0,.444-1.291,1.809,1.809,0,0,0-.448-1.3,1.735,1.735,0,0,0-1.318-.471H27.844ZM40.966.176a4.889,4.889,0,0,1-3.542-1.305,4.507,4.507,0,0,1-1.354-3.4v-.246a5.84,5.84,0,0,1,.541-2.575,3.955,3.955,0,0,1,1.578-1.727,4.763,4.763,0,0,1,2.461-.611,4.117,4.117,0,0,1,3.164,1.244,4.887,4.887,0,0,1,1.16,3.467v1.151H39.085a2.135,2.135,0,0,0,.694,1.257,2.066,2.066,0,0,0,1.389.457,2.662,2.662,0,0,0,2.2-.984l1.354,1.6A3.784,3.784,0,0,1,43.15-.277,5.3,5.3,0,0,1,40.966.176ZM40.632-7.4q-1.3,0-1.547,1.723h2.988v-.229a1.467,1.467,0,0,0-.36-1.1A1.434,1.434,0,0,0,40.632-7.4ZM51.144-2.672a.684.684,0,0,0-.4-.606,6.016,6.016,0,0,0-1.5-.475A6.853,6.853,0,0,1,47.417-4.4a3.062,3.062,0,0,1-1.1-.971,2.319,2.319,0,0,1-.378-1.31,2.628,2.628,0,0,1,1.081-2.158,4.453,4.453,0,0,1,2.83-.848,4.934,4.934,0,0,1,3.023.853,2.666,2.666,0,0,1,1.143,2.241H51.047q0-1.143-1.2-1.143a1.194,1.194,0,0,0-.782.259.8.8,0,0,0-.316.646.737.737,0,0,0,.387.642,3.654,3.654,0,0,0,1.235.4,10.671,10.671,0,0,1,1.49.378A2.706,2.706,0,0,1,54-2.76,2.491,2.491,0,0,1,52.844-.642a5.068,5.068,0,0,1-2.993.817,5.172,5.172,0,0,1-2.18-.439,3.645,3.645,0,0,1-1.494-1.2,2.707,2.707,0,0,1-.536-1.591H48.41a1.145,1.145,0,0,0,.439.962,1.808,1.808,0,0,0,1.081.3,1.422,1.422,0,0,0,.91-.246A.787.787,0,0,0,51.144-2.672Zm3.867-2.171a5.613,5.613,0,0,1,.554-2.536,3.96,3.96,0,0,1,1.591-1.709,4.791,4.791,0,0,1,2.435-.6,4.373,4.373,0,0,1,3.366,1.323,5.076,5.076,0,0,1,1.23,3.6v.105a4.925,4.925,0,0,1-1.235,3.529A4.384,4.384,0,0,1,59.607.176a4.434,4.434,0,0,1-3.261-1.217,4.761,4.761,0,0,1-1.327-3.3Zm2.962.185a3.538,3.538,0,0,0,.413,1.934,1.376,1.376,0,0,0,1.222.615q1.582,0,1.617-2.435v-.3q0-2.558-1.635-2.558-1.485,0-1.608,2.206ZM68.616,0H65.646V-13.5h2.971ZM76.1-1.028a3.054,3.054,0,0,1-2.54,1.2A3,3,0,0,1,71.2-.734a3.826,3.826,0,0,1-.8-2.615V-9.51h2.962v6.179A1.065,1.065,0,0,0,74.54-2.109a1.548,1.548,0,0,0,1.45-.729V-9.51H78.97V0H76.192Zm8.508-1.081a1.317,1.317,0,0,0,.967-.338,1.241,1.241,0,0,0,.334-.945H88.69A3.288,3.288,0,0,1,87.57-.826a4.168,4.168,0,0,1-2.887,1,4.22,4.22,0,0,1-3.27-1.3,5.125,5.125,0,0,1-1.2-3.6v-.123A5.792,5.792,0,0,1,80.75-7.4a3.872,3.872,0,0,1,1.534-1.7,4.573,4.573,0,0,1,2.373-.593A4.116,4.116,0,0,1,87.6-8.657a3.647,3.647,0,0,1,1.09,2.786H85.913A1.626,1.626,0,0,0,85.553-7a1.244,1.244,0,0,0-.967-.4q-1.151,0-1.345,1.468a10.357,10.357,0,0,0-.062,1.283,4.068,4.068,0,0,0,.343,1.986A1.187,1.187,0,0,0,84.612-2.109ZM93.067,0H90.1V-9.51h2.971ZM89.921-11.962A1.322,1.322,0,0,1,90.378-13a1.724,1.724,0,0,1,1.187-.4,1.724,1.724,0,0,1,1.187.4,1.322,1.322,0,0,1,.457,1.037,1.322,1.322,0,0,1-.457,1.037,1.724,1.724,0,0,1-1.187.4,1.724,1.724,0,0,1-1.187-.4A1.322,1.322,0,0,1,89.921-11.962Zm4.6,7.119a5.613,5.613,0,0,1,.554-2.536,3.96,3.96,0,0,1,1.591-1.709,4.791,4.791,0,0,1,2.435-.6,4.373,4.373,0,0,1,3.366,1.323,5.076,5.076,0,0,1,1.23,3.6v.105a4.925,4.925,0,0,1-1.235,3.529A4.384,4.384,0,0,1,99.114.176a4.434,4.434,0,0,1-3.261-1.217,4.761,4.761,0,0,1-1.327-3.3Zm2.962.185a3.538,3.538,0,0,0,.413,1.934,1.376,1.376,0,0,0,1.222.615q1.582,0,1.617-2.435v-.3q0-2.558-1.635-2.558-1.485,0-1.608,2.206ZM99.5-13.5h3.129l-2.443,2.76-2.417,0Zm8.218,3.99.1,1.116a3.225,3.225,0,0,1,2.716-1.292,2.713,2.713,0,0,1,2.219.888,4.226,4.226,0,0,1,.76,2.672V0H110.54V-6a1.6,1.6,0,0,0-.29-1.059A1.342,1.342,0,0,0,109.2-7.4a1.413,1.413,0,0,0-1.292.686V0h-2.962V-9.51ZM126.149,0h-2.971V-9.457l-2.918.853v-2.25l5.616-1.942h.272ZM137.83-5h1.3v2.285h-1.3V0h-2.962V-2.716H129.92l-.176-1.811,5.124-8.244V-12.8h2.962Zm-5.265,0h2.3V-8.938l-.185.3Zm15.688,0h1.3v2.285h-1.3V0h-2.962V-2.716h-4.948l-.176-1.811,5.124-8.244V-12.8h2.962Zm-5.265,0h2.3V-8.938l-.185.3Zm16.761-6.214L154.969,0H151.84l4.79-10.512h-6.1V-12.8h9.22Zm5.687,6.39a5.809,5.809,0,0,1,.976-3.56,3.211,3.211,0,0,1,2.725-1.3,2.731,2.731,0,0,1,2.145,1V-13.5h2.971V0h-2.663l-.149-1.02a2.8,2.8,0,0,1-2.32,1.2,3.205,3.205,0,0,1-2.689-1.3A5.993,5.993,0,0,1,165.437-4.825Zm2.962.185q0,2.531,1.477,2.531a1.458,1.458,0,0,0,1.406-.826V-6.557a1.419,1.419,0,0,0-1.389-.844q-1.371,0-1.485,2.215ZM180.536.176a4.889,4.889,0,0,1-3.542-1.305,4.507,4.507,0,0,1-1.354-3.4v-.246a5.84,5.84,0,0,1,.541-2.575,3.955,3.955,0,0,1,1.578-1.727,4.763,4.763,0,0,1,2.461-.611,4.117,4.117,0,0,1,3.164,1.244,4.887,4.887,0,0,1,1.16,3.467v1.151h-5.889a2.135,2.135,0,0,0,.694,1.257,2.066,2.066,0,0,0,1.389.457,2.662,2.662,0,0,0,2.2-.984l1.354,1.6A3.784,3.784,0,0,1,182.72-.277,5.3,5.3,0,0,1,180.536.176ZM180.2-7.4q-1.3,0-1.547,1.723h2.988v-.229a1.467,1.467,0,0,0-.36-1.1A1.434,1.434,0,0,0,180.2-7.4ZM199.1,0h-8.93V-1.934l4.113-4.324A4.909,4.909,0,0,0,195.8-9.009a1.913,1.913,0,0,0-.36-1.257A1.287,1.287,0,0,0,194.4-10.7a1.3,1.3,0,0,0-1.1.576,2.366,2.366,0,0,0-.422,1.437h-2.971a4.2,4.2,0,0,1,.589-2.175,4.129,4.129,0,0,1,1.635-1.56,4.856,4.856,0,0,1,2.338-.562,4.777,4.777,0,0,1,3.195.958,3.42,3.42,0,0,1,1.121,2.751A4,4,0,0,1,198.5-7.8a6.456,6.456,0,0,1-.875,1.5,22.029,22.029,0,0,1-1.912,2.1l-1.652,1.907H199.1Zm10.38-5.229a6.11,6.11,0,0,1-1.165,4A4.024,4.024,0,0,1,205.031.176a4.046,4.046,0,0,1-3.3-1.415,6.1,6.1,0,0,1-1.169-3.99V-7.567a6.11,6.11,0,0,1,1.165-4,4.034,4.034,0,0,1,3.292-1.406,4.036,4.036,0,0,1,3.3,1.415,6.116,6.116,0,0,1,1.169,4Zm-2.962-2.716a4.564,4.564,0,0,0-.36-2.061,1.2,1.2,0,0,0-1.143-.681,1.176,1.176,0,0,0-1.112.633,4.3,4.3,0,0,0-.374,1.916v3.27a4.6,4.6,0,0,0,.36,2.1,1.209,1.209,0,0,0,1.143.664,1.193,1.193,0,0,0,1.116-.646,4.39,4.39,0,0,0,.369-2.026ZM217.582,0h-2.971V-9.457l-2.918.853v-2.25L217.31-12.8h.272Zm12.489-9.378a2.954,2.954,0,0,1-.461,1.644,3.361,3.361,0,0,1-1.27,1.143,3.7,3.7,0,0,1,1.45,1.226,3.164,3.164,0,0,1,.536,1.841,3.349,3.349,0,0,1-1.182,2.707,4.909,4.909,0,0,1-3.256.993,5,5,0,0,1-3.287-1,3.325,3.325,0,0,1-1.2-2.7,3.2,3.2,0,0,1,.527-1.819,3.586,3.586,0,0,1,1.494-1.248,3.38,3.38,0,0,1-1.283-1.143,2.934,2.934,0,0,1-.466-1.644,3.284,3.284,0,0,1,1.134-2.637,4.558,4.558,0,0,1,3.059-.967,4.586,4.586,0,0,1,3.076.967A3.284,3.284,0,0,1,230.071-9.378Zm-2.716,5.616a1.69,1.69,0,0,0-.409-1.217,1.423,1.423,0,0,0-1.077-.426,1.438,1.438,0,0,0-1.081.426,1.678,1.678,0,0,0-.413,1.217,1.693,1.693,0,0,0,.417,1.208,1.433,1.433,0,0,0,1.094.444,1.377,1.377,0,0,0,1.063-.439A1.723,1.723,0,0,0,227.355-3.762ZM225.861-10.7a1.1,1.1,0,0,0-.91.391,1.7,1.7,0,0,0-.312,1.085,1.8,1.8,0,0,0,.316,1.107,1.092,1.092,0,0,0,.932.422,1.047,1.047,0,0,0,.91-.422,1.856,1.856,0,0,0,.3-1.107,1.7,1.7,0,0,0-.312-1.081A1.109,1.109,0,0,0,225.861-10.7Z" transform="translate(637.8 1959.691)" fill="#12263f"/>
    <circle id="Elipse_5665" data-name="Elipse 5665" cx="30.204" cy="30.204" r="30.204" transform="translate(552.3 2301.367)" fill="#db0316"/>
    <rect id="Rectángulo_349375" data-name="Rectángulo 349375" width="276" height="54.551" rx="19.697" transform="translate(647.3 2121.699)" fill="#fff" stroke="#365894" stroke-miterlimit="10" stroke-width="5"/>
    <path id="Trazado_706397" data-name="Trazado 706397" d="M8.9-5.432H4.052v3.059h5.73V0H.967V-12.8H9.8v2.382H4.052v2.7H8.9ZM14.027,0H11.057V-13.5h2.971Zm16.8-4.333a4.673,4.673,0,0,1-.721,2.36,4.35,4.35,0,0,1-1.85,1.586,6.3,6.3,0,0,1-2.72.563A5.025,5.025,0,0,1,21.56-1.468a6.786,6.786,0,0,1-1.45-4.641v-.633a7.746,7.746,0,0,1,.655-3.292,4.961,4.961,0,0,1,1.885-2.18,5.26,5.26,0,0,1,2.848-.769,5.516,5.516,0,0,1,3.744,1.226A4.844,4.844,0,0,1,30.85-8.376H27.773a2.292,2.292,0,0,0-.589-1.679,2.422,2.422,0,0,0-1.687-.51A1.843,1.843,0,0,0,23.81-9.7a5.536,5.536,0,0,0-.562,2.751v.905a6.126,6.126,0,0,0,.514,2.927,1.882,1.882,0,0,0,1.771.879,2.369,2.369,0,0,0,1.626-.5,2.126,2.126,0,0,0,.6-1.591Zm12.3-1.8a7.546,7.546,0,0,1-.694,3.313A5.132,5.132,0,0,1,40.452-.6a5.494,5.494,0,0,1-2.914.778,5.572,5.572,0,0,1-2.9-.751,5.123,5.123,0,0,1-1.973-2.149,7.329,7.329,0,0,1-.743-3.208v-.721a7.58,7.58,0,0,1,.69-3.318,5.119,5.119,0,0,1,1.978-2.219,5.533,5.533,0,0,1,2.931-.782,5.479,5.479,0,0,1,2.9.773A5.211,5.211,0,0,1,42.4-10a7.362,7.362,0,0,1,.716,3.274Zm-3.138-.536a5.381,5.381,0,0,0-.637-2.9,2.044,2.044,0,0,0-1.824-.989q-2.32,0-2.452,3.48l-.009.94a5.535,5.535,0,0,0,.624,2.892,2.041,2.041,0,0,0,1.854,1.011,2.016,2.016,0,0,0,1.8-.993,5.383,5.383,0,0,0,.642-2.856ZM55.4,0H52.33L47.795-7.963V0H44.71V-12.8h3.085l4.526,7.963V-12.8H55.4Zm5.036-4.342V0H57.349V-12.8h5.106a5.948,5.948,0,0,1,2.6.541A4.074,4.074,0,0,1,66.8-10.718a4.2,4.2,0,0,1,.62,2.263,3.7,3.7,0,0,1-1.34,2.993A5.561,5.561,0,0,1,62.4-4.342Zm0-2.382h2.021a1.906,1.906,0,0,0,1.367-.448,1.665,1.665,0,0,0,.47-1.266,2.059,2.059,0,0,0-.483-1.433,1.712,1.712,0,0,0-1.318-.545H60.434ZM77-5.432H72.149v3.059h5.73V0H69.064V-12.8H77.9v2.382H72.149v2.7H77ZM85.737-3.4a1.268,1.268,0,0,0-.479-1.055,5.954,5.954,0,0,0-1.683-.782,16.147,16.147,0,0,1-1.969-.782q-2.487-1.222-2.487-3.357a3.011,3.011,0,0,1,.62-1.876,4.008,4.008,0,0,1,1.753-1.266,6.823,6.823,0,0,1,2.549-.453,5.969,5.969,0,0,1,2.474.492,3.917,3.917,0,0,1,1.7,1.4A3.661,3.661,0,0,1,88.822-9H85.746a1.547,1.547,0,0,0-.479-1.213,1.867,1.867,0,0,0-1.3-.431,2.106,2.106,0,0,0-1.305.365,1.119,1.119,0,0,0-.479.927,1.127,1.127,0,0,0,.527.892,6.65,6.65,0,0,0,1.854.826,11.36,11.36,0,0,1,2.18.918,3.663,3.663,0,0,1,2.074,3.3A3.125,3.125,0,0,1,87.557-.782a5.629,5.629,0,0,1-3.472.958,6.888,6.888,0,0,1-2.817-.558,4.247,4.247,0,0,1-1.9-1.529,3.985,3.985,0,0,1-.637-2.237h3.094a1.963,1.963,0,0,0,.532,1.516,2.513,2.513,0,0,0,1.727.488,1.985,1.985,0,0,0,1.208-.33A1.088,1.088,0,0,0,85.737-3.4ZM97.409-7.638h1.4a1.453,1.453,0,0,0,1.661-1.626,1.406,1.406,0,0,0-.4-1.033,1.5,1.5,0,0,0-1.116-.4,1.606,1.606,0,0,0-1.024.343A1.046,1.046,0,0,0,97.5-9.5H94.535a3.032,3.032,0,0,1,.563-1.8,3.715,3.715,0,0,1,1.56-1.235,5.334,5.334,0,0,1,2.193-.444,5.241,5.241,0,0,1,3.357.976,3.243,3.243,0,0,1,1.222,2.681,2.7,2.7,0,0,1-.505,1.56,3.6,3.6,0,0,1-1.472,1.191,3.441,3.441,0,0,1,1.6,1.121,2.951,2.951,0,0,1,.58,1.859,3.3,3.3,0,0,1-1.318,2.742A5.472,5.472,0,0,1,98.851.176,5.675,5.675,0,0,1,96.517-.3a3.656,3.656,0,0,1-1.63-1.327,3.45,3.45,0,0,1-.554-1.929h2.979a1.334,1.334,0,0,0,.475,1.02,1.676,1.676,0,0,0,1.169.431,1.755,1.755,0,0,0,1.248-.435,1.454,1.454,0,0,0,.466-1.112,1.7,1.7,0,0,0-.483-1.371,2.021,2.021,0,0,0-1.336-.4H97.409Zm16.611-3.577L109.239,0H106.11l4.79-10.512h-6.1V-12.8h9.22Zm10.415,5.985a6.11,6.11,0,0,1-1.165,4A4.024,4.024,0,0,1,119.988.176a4.046,4.046,0,0,1-3.3-1.415,6.1,6.1,0,0,1-1.169-3.99V-7.567a6.11,6.11,0,0,1,1.165-4,4.034,4.034,0,0,1,3.292-1.406,4.036,4.036,0,0,1,3.3,1.415,6.116,6.116,0,0,1,1.169,4Zm-2.962-2.716a4.564,4.564,0,0,0-.36-2.061,1.2,1.2,0,0,0-1.143-.681,1.176,1.176,0,0,0-1.112.633,4.3,4.3,0,0,0-.374,1.916v3.27a4.6,4.6,0,0,0,.36,2.1,1.209,1.209,0,0,0,1.143.664,1.193,1.193,0,0,0,1.116-.646,4.39,4.39,0,0,0,.369-2.026Zm13.386,2.716a6.11,6.11,0,0,1-1.165,4A4.024,4.024,0,0,1,130.412.176a4.046,4.046,0,0,1-3.3-1.415,6.1,6.1,0,0,1-1.169-3.99V-7.567a6.11,6.11,0,0,1,1.165-4,4.034,4.034,0,0,1,3.292-1.406,4.036,4.036,0,0,1,3.3,1.415,6.116,6.116,0,0,1,1.169,4ZM131.9-7.945a4.564,4.564,0,0,0-.36-2.061,1.2,1.2,0,0,0-1.143-.681,1.176,1.176,0,0,0-1.112.633,4.3,4.3,0,0,0-.374,1.916v3.27a4.6,4.6,0,0,0,.36,2.1,1.209,1.209,0,0,0,1.143.664,1.193,1.193,0,0,0,1.116-.646,4.39,4.39,0,0,0,.369-2.026Zm8.657,3.12a5.809,5.809,0,0,1,.976-3.56,3.211,3.211,0,0,1,2.725-1.3,2.731,2.731,0,0,1,2.145,1V-13.5h2.971V0h-2.663l-.149-1.02a2.8,2.8,0,0,1-2.32,1.2,3.205,3.205,0,0,1-2.689-1.3A5.993,5.993,0,0,1,140.555-4.825Zm2.962.185q0,2.531,1.477,2.531a1.458,1.458,0,0,0,1.406-.826V-6.557a1.419,1.419,0,0,0-1.389-.844q-1.371,0-1.485,2.215ZM155.654.176a4.889,4.889,0,0,1-3.542-1.305,4.507,4.507,0,0,1-1.354-3.4v-.246a5.84,5.84,0,0,1,.541-2.575,3.955,3.955,0,0,1,1.578-1.727,4.763,4.763,0,0,1,2.461-.611A4.117,4.117,0,0,1,158.5-8.442a4.887,4.887,0,0,1,1.16,3.467v1.151h-5.889a2.135,2.135,0,0,0,.694,1.257,2.066,2.066,0,0,0,1.389.457,2.662,2.662,0,0,0,2.2-.984l1.354,1.6a3.784,3.784,0,0,1-1.569,1.217A5.3,5.3,0,0,1,155.654.176ZM155.32-7.4q-1.3,0-1.547,1.723h2.988v-.229a1.467,1.467,0,0,0-.36-1.1A1.434,1.434,0,0,0,155.32-7.4Zm18.9,7.4h-8.93V-1.934L169.4-6.258a4.909,4.909,0,0,0,1.521-2.751,1.913,1.913,0,0,0-.36-1.257,1.287,1.287,0,0,0-1.046-.431,1.3,1.3,0,0,0-1.1.576,2.366,2.366,0,0,0-.422,1.437h-2.971a4.2,4.2,0,0,1,.589-2.175,4.129,4.129,0,0,1,1.635-1.56,4.856,4.856,0,0,1,2.338-.562,4.777,4.777,0,0,1,3.195.958A3.42,3.42,0,0,1,173.9-9.272a4,4,0,0,1-.281,1.472,6.456,6.456,0,0,1-.875,1.5,22.029,22.029,0,0,1-1.912,2.1l-1.652,1.907h5.036ZM184.6-5.229a6.11,6.11,0,0,1-1.165,4A4.024,4.024,0,0,1,180.149.176a4.046,4.046,0,0,1-3.3-1.415,6.1,6.1,0,0,1-1.169-3.99V-7.567a6.11,6.11,0,0,1,1.165-4,4.034,4.034,0,0,1,3.292-1.406,4.036,4.036,0,0,1,3.3,1.415,6.116,6.116,0,0,1,1.169,4Zm-2.962-2.716a4.564,4.564,0,0,0-.36-2.061,1.2,1.2,0,0,0-1.143-.681,1.176,1.176,0,0,0-1.112.633,4.3,4.3,0,0,0-.374,1.916v3.27a4.6,4.6,0,0,0,.36,2.1,1.209,1.209,0,0,0,1.143.664,1.193,1.193,0,0,0,1.116-.646,4.39,4.39,0,0,0,.369-2.026ZM192.7,0h-2.971V-9.457l-2.918.853v-2.25l5.616-1.942h.272Zm10.424,0h-2.971V-9.457l-2.918.853v-2.25l5.616-1.942h.272Z" transform="translate(701.404 2154.975)" fill="#12263f"/>
    <circle id="Elipse_5661" data-name="Elipse 5661" cx="41.352" cy="41.352" r="41.352" transform="translate(606.534 2107.622)" fill="#a7c6ff"/>
    <path id="Trazado_705819" data-name="Trazado 705819" d="M30.2,0A30.2,30.2,0,1,1,0,30.2,30.2,30.2,0,0,1,30.2,0Z" transform="translate(617.892 2118.77)" fill="#002d7e"/>
  </g>
</svg>
