<svg xmlns="http://www.w3.org/2000/svg" width="103" height="103" viewBox="0 0 103 103">
  <g id="Grupo_992569" data-name="Grupo 992569" transform="translate(-285 -4164)">
    <circle id="Elipse_5660" data-name="Elipse 5660" cx="51.5" cy="51.5" r="51.5" transform="translate(285 4164)" fill="#b20d0d"/>
    <path id="Trazado_705902" data-name="Trazado 705902" d="M143.508,69.4H107.9a6.067,6.067,0,0,1-6.067-6.067V61.491A6.066,6.066,0,0,1,103.5,57.31l20.32-21.363q8.129-9.257,8.129-14.707,0-4.417-1.926-6.72a6.882,6.882,0,0,0-5.592-2.3,6.966,6.966,0,0,0-5.874,3.078,11.087,11.087,0,0,0-1.691,3.46,6.01,6.01,0,0,1-5.8,4.223h-3.471a6.078,6.078,0,0,1-5.643-8.308,22.876,22.876,0,0,1,1.62-3.322,22.074,22.074,0,0,1,8.74-8.341A25.967,25.967,0,0,1,124.811,0Q135.9,0,141.892,5.122t5.991,14.708a21.358,21.358,0,0,1-1.5,7.871,34.513,34.513,0,0,1-4.675,8.035,116.6,116.6,0,0,1-10.071,11.1c-.1.1-.2.2-.286.307L124.194,55.4a1.077,1.077,0,0,0,.814,1.783h18.5a6.067,6.067,0,0,1,6.067,6.066v.084a6.067,6.067,0,0,1-6.067,6.067" transform="translate(209.474 4180)" fill="#fff"/>
  </g>
</svg>
