<svg xmlns="http://www.w3.org/2000/svg" width="103" height="103" viewBox="0 0 103 103">
  <g id="Grupo_992572" data-name="Grupo 992572" transform="translate(-285 -4555)">
    <circle id="Elipse_5663" data-name="Elipse 5663" cx="51.5" cy="51.5" r="51.5" transform="translate(285 4555)" fill="#b20d0d"/>
    <path id="Trazado_705905" data-name="Trazado 705905" d="M460.956,34.331l3.6-30.123a3.1,3.1,0,0,1,3.078-2.732h34.832a3.1,3.1,0,0,1,3.1,3.1v6.23a3.1,3.1,0,0,1-3.1,3.1H480.749a3.1,3.1,0,0,0-3.08,2.751l-.694,6.125a3.067,3.067,0,0,0,3.89,3.286l.056-.015a20.591,20.591,0,0,1,5.474-.769q10.373,0,15.943,6.143t5.57,17.234a24.7,24.7,0,0,1-2.988,12.119,20.532,20.532,0,0,1-8.39,8.342,26.485,26.485,0,0,1-12.764,2.916,28.51,28.51,0,0,1-12.286-2.7,22.036,22.036,0,0,1-8.988-7.4,17.687,17.687,0,0,1-2.907-7.024,3.092,3.092,0,0,1,3.062-3.6h10.168a3.062,3.062,0,0,1,2.979,2.257,8.271,8.271,0,0,0,2.091,3.8,7.736,7.736,0,0,0,5.785,2.242q8.126,0,8.127-12.022,0-11.115-9.944-11.116a10.476,10.476,0,0,0-7.378,2.488,3.074,3.074,0,0,1-2.788.725l-8.364-1.968a3.1,3.1,0,0,1-2.367-3.385" transform="translate(-149.537 4568.523)" fill="#fff"/>
  </g>
</svg>
